<svg t="1689004900556" class="icon" viewBox="0 0 1024 1024" version="1.1" xmlns="http://www.w3.org/2000/svg"
    p-id="39082" width="48" height="48">
    <path
        d="M896 808.96h-768c-51.2 0-93.866667-42.666667-93.866667-93.866667V179.2C34.133333 128 76.8 85.333333 128 85.333333h768c51.2 0 93.866667 42.666667 93.866667 93.866667v535.893333c0 52.906667-42.666667 93.866667-93.866667 93.866667zM128 136.533333C104.106667 136.533333 85.333333 157.013333 85.333333 179.2v535.893333c0 23.893333 18.773333 42.666667 42.666667 42.666667h768c23.893333 0 42.666667-18.773333 42.666667-42.666667V179.2C938.666667 157.013333 919.893333 136.533333 896 136.533333h-768zM781.653333 938.666667H242.346667c-13.653333 0-25.6-11.946667-25.6-25.6s11.946667-25.6 25.6-25.6h539.306666c13.653333 0 25.6 11.946667 25.6 25.6s-11.946667 25.6-25.6 25.6z"
        fill="" p-id="39083"></path>
    <path
        d="M368.64 430.08c-54.613333 0-98.986667-44.373333-98.986667-97.28s44.373333-97.28 98.986667-97.28c54.613333 0 97.28 44.373333 97.28 97.28s-44.373333 97.28-97.28 97.28z m0-145.066667c-25.6 0-47.786667 20.48-47.786667 46.08s20.48 46.08 47.786667 46.08c25.6 0 46.08-20.48 46.08-46.08s-20.48-46.08-46.08-46.08zM530.773333 660.48H204.8c-13.653333 0-25.6-11.946667-25.6-25.6 0-104.106667 85.333333-189.44 189.44-189.44s189.44 85.333333 189.44 189.44c-1.706667 15.36-11.946667 25.6-27.306667 25.6z m-298.666666-51.2h269.653333c-11.946667-63.146667-68.266667-112.64-134.826667-112.64s-121.173333 49.493333-134.826666 112.64z"
        fill="" p-id="39084"></path>
    <path
        d="M819.2 409.6H554.666667c-13.653333 0-25.6-11.946667-25.6-25.6s11.946667-25.6 25.6-25.6H819.2c13.653333 0 25.6 11.946667 25.6 25.6S832.853333 409.6 819.2 409.6zM819.2 549.546667H614.4c-13.653333 0-25.6-11.946667-25.6-25.6s11.946667-25.6 25.6-25.6h204.8c13.653333 0 25.6 11.946667 25.6 25.6s-11.946667 25.6-25.6 25.6z"
        fill="" p-id="39085"></path>
</svg>