<svg t="1689004627940" class="icon" viewBox="0 0 1024 1024" version="1.1" xmlns="http://www.w3.org/2000/svg"
    p-id="32529" width="48" height="48">
    <path
        d="M931.4304000000002 143.61139488237035c-13.315251313777777 0-22.19208430933333 8.876834209185184-22.19208430933333 22.19208430933333v537.0484490240001H114.7616843093333v-532.6100319194073h719.0235430305185c13.315251313777777 0 22.19208430933333-8.876834209185184 22.19208430933333-22.19208430933333s-8.876834209185184-22.19208430933333-22.19208430933333-22.19208552296296H114.7616843093333c-24.411293468444445 0-44.384169832296294 17.75366720474074-44.38416861866666 39.9457527277037v541.4868661285925c0 22.19208430933333 19.97287636385185 39.9457527277037 44.38416861866666 39.945751514074075h377.2654393268148c0 2.2192079454814815-2.2192079454814815 4.438417104592592-2.2192079454814815 6.657626263703703v133.15250706962962H250.13340053807406c-13.315251313777777 0-22.19208430933333 8.876834209185184-22.19208430933333 22.19208552296296s8.876834209185184 22.19208430933333 22.19208430933333 22.19208430933333h523.7331989238518c13.315251313777777 0 22.19208430933333-8.876834209185184 22.19208430933333-22.19208430933333s-8.876834209185184-22.19208430933333-22.19208430933333-22.19208552296296H534.1920843093333v-133.15250706962962c0-2.2192079454814815 0-4.438417104592592-2.2192079454814815-6.657626263703703h377.2654393268148c24.411293468444445 0 44.384169832296294-17.75366720474074 44.38416861866666-39.945751514074075V165.80347919170362c0-13.315251313777777-8.876834209185184-22.19208430933333-22.19208430933333-22.19208430933333z"
        fill="" p-id="32530"></path>
</svg>