<svg xmlns="http://www.w3.org/2000/svg" version="1.1" xmlns:xlink="http://www.w3.org/1999/xlink"
    xmlns:svgjs="http://svgjs.com/svgjs" width="512" height="512" x="0" y="0" viewBox="0 0 512 512"
    style="enable-background:new 0 0 512 512" xml:space="preserve" class="">
    <g>
        <path
            d="M154.927 144.801c-9.717-16.589-23.259-75.874 14.996-105.334C207.986 10.155 269.975 7.081 323.359 44c37.981 26.267 102.685 71.896 172.013 72.172 5.032.02 8.323 5.325 6.184 9.881-7.092 15.102-17.626 25.308-36.547 26.866-1.887.155-2.745 2.432-1.395 3.76 16.796 16.523 55.602 65.24 34.9 112.601-2.72 6.223-11.348 6.784-14.951 1.027-5.553-8.87-14.948-20.442-29.637-29.086-7.773-4.575-17.979-2.246-22.427 5.599-4.029 7.107-3.236 15.263 1.667 24.138 2.369 4.288-.147 9.621-4.911 10.76-48.784 11.658-94.171-1.628-114.207-43.398l-159.121-93.519z"
            style="" fill="#806c6c" data-original="#806c6c"></path>
        <path
            d="M132.669 402.915c-2.297 0-4.627-.55-6.792-1.708-7.034-3.76-9.689-12.509-5.93-19.542 7.785-14.567 19.561-23.893 23.432-26.959l.323-.256c6.245-4.962 15.327-3.924 20.29 2.319 4.962 6.244 3.924 15.327-2.319 20.29l-.363.289c-2.991 2.368-10.936 8.661-15.888 17.929a14.449 14.449 0 0 1-12.753 7.638z"
            style="" fill="#498a68" data-original="#498a68"></path>
        <path
            d="M253.103 429.374c67.388 0 144.94 0 201.713-36.246 9.715-6.202 4.097-21.183-7.328-19.658-44.959 6.002-82.724-5.442-104.259-23.98l-90.126 79.884z"
            style="" fill="#5cb38e" data-original="#5cb38e"></path>
        <path
            d="M368.648 364.782c-.751 21.521-4.055 43.002-17.32 60.865-32.852 3.728-66.653 3.728-98.225 3.728l90.125-79.885c6.903 5.941 15.48 11.148 25.42 15.292z"
            style="opacity:0.1;enable-background:new ;" fill="#000000" data-original="#000000"></path>
        <path
            d="M283.272 495.108c-11.498.001-21.231-8.859-22.128-20.514-.273-3.556-1.698-60.398 4.291-75.099 4.63-11.363 17.592-16.819 28.957-12.193 10.898 4.44 16.365 16.548 12.71 27.555-1.593 8.198-2.508 45.227-1.655 56.33.941 12.234-8.215 22.914-20.448 23.854-.58.045-1.157.067-1.727.067zm23.322-78.874-.01.025.01-.025zM202.702 495.108c-11.497.001-21.23-8.858-22.128-20.512-.273-3.557-1.701-60.398 4.292-75.103 4.632-11.362 17.599-16.816 28.958-12.19 10.898 4.443 16.364 16.549 12.707 27.556-1.594 8.204-2.509 45.226-1.654 56.326.942 12.234-8.213 22.915-20.446 23.857-.581.044-1.158.066-1.729.066zm23.32-78.871-.009.024.009-.024z"
            style="" fill="#498a68" data-original="#498a68"></path>
        <path
            d="M213.823 387.304c-11.359-4.627-24.326.828-28.958 12.19-3.803 9.332-4.618 35.631-4.635 54.514 12.491 4.198 27.187 6.819 44.338 7.945-.157-15.414.684-40.514 1.962-47.093 3.658-11.007-1.809-23.115-12.707-27.556zM294.392 387.303c-11.365-4.627-24.327.83-28.957 12.193-4.395 10.79-4.796 44.278-4.592 62.74 16.987-.809 31.681-2.996 44.284-6.64.079-15.201.86-35.008 1.973-40.738 3.656-11.008-1.811-23.116-12.708-27.555z"
            style="opacity:0.1;enable-background:new ;" fill="#000000" data-original="#000000"></path>
        <path
            d="M143.781 350.989c0 51.866 7.045 89.394 101.429 89.394s101.429-37.529 101.429-89.394-45.411-93.91-101.429-93.91-101.429 42.046-101.429 93.91z"
            style="" fill="#5cb38e" data-original="#5cb38e"></path>
        <path
            d="M143.781 350.989c0-.413.011-.824.017-1.236 21.126-5.421 63.03-6.998 92.191 23.991 21.25 22.583 24.324 46.952 22.046 66.388-4.085.166-8.355.251-12.824.251-94.385.001-101.43-37.528-101.43-89.394z"
            style="" fill="#9bdfc1" data-original="#9bdfc1"></path>
        <path
            d="M264.466 258.777c46.808 8.33 82.173 46.444 82.173 92.212 0 48.025-6.051 83.752-81.877 88.781 42.101-42.731 33.957-130.962-.296-180.993z"
            style="opacity:0.05;enable-background:new ;" fill="#000000" data-original="#000000"></path>
        <path
            d="M152.108 121.831a93.544 93.544 0 0 1 78.028-41.947h38.6c54.877 0 99.365 44.487 99.365 99.365v45.684c0 49.252-39.927 89.179-89.179 89.179H74.305c-36.896 0-66.806-29.91-66.806-66.806v-31.092c0-36.896 29.91-66.806 66.806-66.806h26.507a61.499 61.499 0 0 0 51.296-27.577z"
            style="" fill="#5cb38e" data-original="#5cb38e"></path>
        <g style="opacity:0.1;">
            <circle cx="314.127" cy="246.644" r="6.838" fill="#000000" data-original="#000000"></circle>
            <circle cx="265.512" cy="257.083" r="6.838" fill="#000000" data-original="#000000"></circle>
            <circle cx="293.329" cy="280.401" r="6.838" fill="#000000" data-original="#000000"></circle>
        </g>
        <ellipse cx="293.729" cy="153.124" rx="17.236" ry="8.842" style="" fill="#ffa8cb" data-original="#ffa8cb">
        </ellipse>
        <ellipse cx="178.011" cy="153.124" rx="17.236" ry="8.842" style="" fill="#ffa8cb" data-original="#ffa8cb">
        </ellipse>
        <path
            d="M290.809 82.349c44.252 10.039 77.29 49.61 77.29 96.9v45.684c0 49.252-39.927 89.179-89.179 89.179h-54.113c78.809-45.855 92.168-171.9 66.002-231.763z"
            style="opacity:0.05;enable-background:new ;" fill="#000000" data-original="#000000"></path>
        <path
            d="M264.479 375.319c-5.017 0-9.893-2.618-12.557-7.287-3.952-6.928-1.539-15.746 5.388-19.699l.403-.23c3.321-1.885 12.139-6.896 18.449-15.306 4.786-6.378 13.838-7.669 20.217-2.885 6.379 4.786 7.671 13.838 2.885 20.217-9.917 13.219-22.989 20.645-27.284 23.085l-.359.205a14.371 14.371 0 0 1-7.142 1.9z"
            style="" fill="#498a68" data-original="#498a68"></path>
        <path
            d="M59.093 106.48c-3.209 5.87-11.64 5.87-14.848 0a72.98 72.98 0 0 0-29.036-29.036c-5.87-3.209-5.87-11.64 0-14.848A72.98 72.98 0 0 0 44.245 33.56c3.209-5.87 11.64-5.87 14.848 0a72.98 72.98 0 0 0 29.036 29.036c5.87 3.209 5.87 11.64 0 14.848a72.987 72.987 0 0 0-29.036 29.036zM417.567 115.233c-3.209 5.87-11.64 5.87-14.848 0a72.978 72.978 0 0 0-29.035-29.036c-5.87-3.209-5.87-11.64 0-14.848a72.976 72.976 0 0 0 29.035-29.035c3.209-5.87 11.64-5.87 14.848 0a72.972 72.972 0 0 0 29.036 29.035c5.87 3.209 5.87 11.64 0 14.848a72.987 72.987 0 0 0-29.036 29.036zM414.11 337.849c-2.635 4.82-9.555 4.82-12.19 0a59.914 59.914 0 0 0-23.835-23.835c-4.82-2.635-4.82-9.555 0-12.19a59.91 59.91 0 0 0 23.835-23.836c2.635-4.819 9.555-4.819 12.19 0a59.919 59.919 0 0 0 23.836 23.836c4.819 2.635 4.819 9.555 0 12.19a59.916 59.916 0 0 0-23.836 23.835z"
            style="" fill="#fae17c" data-original="#fae17c"></path>
        <path
            d="M384.185 114.622c-31.08-59.82-144.424-98.624-196.172-47.852-15.645 22.201 51.94 43.815 130.766 49.713 6.396.479 11.642 5.267 12.742 11.587 6.627 38.086 15.259 95.539 51.512 115.075 4.845 2.611 10.971.658 13.346-4.308 10.452-21.846 16.124-77.636-12.194-124.215z"
            style="" fill="#806c6c" data-original="#806c6c"></path>
        <path
            d="M11.613 84.026a65.354 65.354 0 0 1 26.051 26.051 15.955 15.955 0 0 0 14.004 8.306h.001a15.96 15.96 0 0 0 14.006-8.305 65.353 65.353 0 0 1 26.052-26.052 15.958 15.958 0 0 0 8.305-14.007 15.958 15.958 0 0 0-8.305-14.004 65.355 65.355 0 0 1-26.052-26.053 15.958 15.958 0 0 0-14.007-8.305 15.958 15.958 0 0 0-14.004 8.305 65.359 65.359 0 0 1-26.051 26.053 15.955 15.955 0 0 0-8.306 14.004 15.958 15.958 0 0 0 8.306 14.007zm7.194-14.85a80.328 80.328 0 0 0 32.018-32.02c.075-.137.273-.5.844-.5s.771.364.845.501a80.328 80.328 0 0 0 32.019 32.019c.137.075.5.273.5.844s-.364.771-.5.845a80.331 80.331 0 0 0-32.019 32.018c-.075.138-.275.501-.845.501s-.769-.363-.844-.501a80.335 80.335 0 0 0-32.018-32.018c-.137-.074-.501-.273-.501-.845 0-.57.363-.769.501-.844zm483.139 129.122c-7.892-17.274-18.763-31.248-26.171-39.639 14.424-3.888 25.133-13.588 32.568-29.42a14.392 14.392 0 0 0-.874-13.873c-2.639-4.173-7.149-6.675-12.067-6.695-17.373-.069-35.831-3.211-55.006-9.328a65.604 65.604 0 0 1 9.802-6.567 15.955 15.955 0 0 0 8.306-14.005 15.957 15.957 0 0 0-8.305-14.005 65.342 65.342 0 0 1-26.053-26.052 15.955 15.955 0 0 0-14.004-8.306h-.001a15.959 15.959 0 0 0-14.006 8.306 65.35 65.35 0 0 1-26.051 26.052c-.335.183-.661.378-.979.583-14.979-9.185-28.457-18.506-39.497-26.145l-1.987-1.375C301.019 19.432 271.046 9.6 240.944 9.395c-.311-.002-.618-.003-.929-.003-27.954 0-54.442 8.554-74.671 24.131-28.969 22.31-32.192 61.149-25.352 91.525a53.83 53.83 0 0 1-39.183 16.857H74.301C33.333 141.908 0 175.241 0 216.214v31.092c0 40.973 33.333 74.305 74.305 74.305h66.625a94.561 94.561 0 0 0-4.645 29.183c-5.478 4.516-15.712 13.791-22.952 27.338a21.79 21.79 0 0 0-1.646 16.711 21.805 21.805 0 0 0 10.656 12.982 22.01 22.01 0 0 0 10.326 2.592c4.438 0 8.66-1.336 12.207-3.709 2.225 4.732 5.015 9.197 8.524 13.302 5.182 6.064 11.687 11.091 19.636 15.13a592.927 592.927 0 0 0-.304 20.93 7.498 7.498 0 0 0 7.499 7.483h.016a7.498 7.498 0 0 0 7.483-7.515c-.011-5.182.041-10.234.147-15.002 8.532 2.602 18.264 4.446 29.297 5.559-.192 9.62-.187 19.827.224 25.167a14.62 14.62 0 0 1-3.499 10.707 14.622 14.622 0 0 1-10.048 5.096c-.379.029-.766.044-1.151.044-4.642 0-9.065-2.242-11.835-5.996a7.498 7.498 0 0 0-10.486-1.585 7.498 7.498 0 0 0-1.585 10.486c5.584 7.572 14.52 12.094 23.905 12.094.77 0 1.546-.03 2.305-.089 7.914-.608 15.116-4.264 20.282-10.29 5.165-6.026 7.675-13.705 7.065-21.618-.32-4.173-.386-13.051-.198-22.984 4.194.169 8.54.256 13.056.256 2.771 0 5.477-.034 8.126-.097-.145 13.943.194 25.589.331 27.383 1.184 15.387 14.188 27.439 29.604 27.438.771 0 1.547-.03 2.302-.089 16.336-1.256 28.605-15.568 27.35-31.906-.444-5.78-.393-20.041.085-33.406.98-.427 1.935-.87 2.875-1.323 43.433-1.984 98.521-8.057 142.969-36.435 7.358-4.697 10.292-13.356 7.3-21.544-3.022-8.264-10.923-13.036-19.657-11.868-35.592 4.75-69.786-1.836-92.408-17.639-.461-17.068-5.453-33.556-14.585-48.211a97.752 97.752 0 0 0 14.549-14.533c7.875 3.187 16.322 5.377 25.272 6.556-1.556 1.085-3.156 2.115-4.835 3.033a14.438 14.438 0 0 0-7.519 12.675c0 5.284 2.88 10.142 7.517 12.677a52.312 52.312 0 0 1 20.852 20.853 14.44 14.44 0 0 0 12.676 7.516c5.283 0 10.141-2.88 12.676-7.516v-.001a52.316 52.316 0 0 1 20.852-20.852 14.439 14.439 0 0 0 7.517-12.677 14.44 14.44 0 0 0-7.517-12.674 52.438 52.438 0 0 1-9.664-6.82 14.948 14.948 0 0 0 8.416-7.988c1.884-4.266 1.678-9.041-.565-13.103-5.546-10.042-2.657-15.139-1.708-16.814 1.067-1.882 2.847-3.237 5.012-3.817 2.367-.633 4.95-.275 7.088.982 13.648 8.032 22.262 18.9 27.084 26.602a16.004 16.004 0 0 0 14.769 7.474 15.866 15.866 0 0 0 13.409-9.477c9.855-22.536 8.698-47.427-3.436-73.984zM138.804 391.742a6.944 6.944 0 0 1-6.135 3.675 6.858 6.858 0 0 1-3.259-.822 6.902 6.902 0 0 1-3.372-4.107 6.894 6.894 0 0 1 .521-5.286c3.014-5.639 6.721-10.431 10.259-14.298.445 6.693 1.247 13.296 2.663 19.645-.228.396-.464.795-.677 1.193zM377.279 77.929a80.328 80.328 0 0 0 32.018-32.02c.074-.137.273-.501.845-.501.57 0 .769.363.844.501a80.345 80.345 0 0 0 32.02 32.02c.137.075.5.273.5.844s-.363.769-.501.844a80.334 80.334 0 0 0-32.019 32.019v.001c-.075.137-.273.5-.844.5s-.77-.364-.845-.5a80.324 80.324 0 0 0-32.019-32.02.882.882 0 0 1-.5-.844c0-.57.364-.769.501-.844zm-92.861 409.636c-.376.029-.762.044-1.147.044-7.628.001-14.064-5.969-14.648-13.588-.09-1.214-.446-12.845-.277-26.993 11.031-.872 20.835-2.423 29.5-4.677-.302 11.35-.336 23.432.125 29.41.62 8.093-5.457 15.182-13.553 15.804zm69.454-121.645c25.209 14.096 59.455 19.673 94.608 14.983 2.317-.315 3.244 1.214 3.586 2.15.396 1.085.496 2.617-1.284 3.754-34.353 21.933-76.323 29.622-113.344 32.694 12.284-14.721 15.599-33.935 16.434-53.581zm-64.023-60.032a7.498 7.498 0 0 0-6.439 8.426 7.466 7.466 0 0 0 3.277 5.238 21.793 21.793 0 0 0-16.521 8.745c-5.377 7.166-13.207 11.612-16.159 13.289l-.411.233a21.81 21.81 0 0 0-6.604 5.788 7.499 7.499 0 1 0 11.948 9.066 6.898 6.898 0 0 1 2.082-1.822l.397-.226c3.69-2.096 13.494-7.661 20.745-17.327 2.299-3.062 6.658-3.682 9.718-1.387a6.902 6.902 0 0 1 2.707 4.572 6.89 6.89 0 0 1-1.32 5.145c-8.984 11.976-21.03 18.816-25.002 21.072l-.361.205a6.967 6.967 0 0 1-1.604.669 7.498 7.498 0 0 0-5.243 9.218 7.502 7.502 0 0 0 7.227 5.514c.657 0 1.326-.087 1.991-.271a21.88 21.88 0 0 0 5.064-2.104l.346-.197c4.631-2.629 18.722-10.631 29.58-25.104a21.793 21.793 0 0 0 4.171-16.266 21.785 21.785 0 0 0-8.553-14.449 21.904 21.904 0 0 0-6.975-3.484 95.695 95.695 0 0 0 33.228-11.725c7.871 12.87 12.006 27.354 12.006 42.284 0 26.826-2.263 46.099-13.522 59.274-3.791 4.436-8.609 8.186-14.531 11.285a7.573 7.573 0 0 0-1.066.543 70.136 70.136 0 0 1-6.147 2.695 7.448 7.448 0 0 0-1.532.57c-10.921 3.945-24.682 6.298-41.638 7.154-.14.006-.28.01-.418.023-4.771.233-9.793.35-15.075.35-6.971 0-13.481-.206-19.567-.613-.186-.02-.371-.04-.561-.046-.027-.001-.053.002-.081.001-16.758-1.168-30.204-3.915-40.705-8.346a7.421 7.421 0 0 0-1.29-.552c-7.64-3.404-13.658-7.744-18.205-13.065-8.348-9.768-13.522-23.091-13.522-59.274a79.773 79.773 0 0 1 5.575-29.379h98.221a7.498 7.498 0 0 0 7.499-7.499 7.498 7.498 0 0 0-7.499-7.499H74.305c-32.703 0-59.307-26.605-59.307-59.307v-31.092c0-32.703 26.604-59.308 59.307-59.308h26.507c23.226 0 44.74-11.566 57.552-30.939 8.943-13.524 21.354-24.114 36.057-30.812 13.395 8.143 33.066 13.946 47.822 17.482 8.835 2.118 18.285 4.006 28.16 5.645-9.34.749-16.715 8.574-16.715 18.104 0 4.143 3.357 7.499 7.499 7.499s7.499-3.357 7.499-7.499c0-1.753 1.427-3.18 3.18-3.18s3.18 1.427 3.18 3.18c0 4.143 3.357 7.499 7.499 7.499s7.499-3.357 7.499-7.499c0-7.543-4.621-14.026-11.178-16.772 12.635 1.871 25.865 3.338 39.356 4.347 2.968.222 5.398 2.44 5.913 5.393l.755 4.364c5.423 31.409 12.787 74.051 35.221 100.18-4.056 37.003-33.142 67.033-70.262 71.991zm143.627 2.03a67.259 67.259 0 0 0-25.46 25.462 67.25 67.25 0 0 0-25.46-25.461 67.28 67.28 0 0 0 25.46-25.462 67.263 67.263 0 0 0 25.46 25.461zm58.166-41.643c-.063.146-.212.485-.77.526-.629.049-.874-.347-.955-.476-5.709-9.119-15.929-22-32.189-31.569-5.578-3.284-12.351-4.212-18.574-2.544-6.079 1.628-11.115 5.501-14.181 10.909-3.626 6.395-6.291 17.012 1.538 31.303-1.709.408-3.423.784-5.13 1.129-.227-.391-.474-.767-.691-1.164a14.44 14.44 0 0 0-12.676-7.516 14.443 14.443 0 0 0-12.676 7.516 52.14 52.14 0 0 1-2.335 3.83c-10.928-.21-21.046-1.996-30.234-5.291 7.072-12.3 11.529-26.252 12.578-41.077a7.492 7.492 0 0 0-2.012-5.659c-21.158-22.555-28.389-64.44-33.671-95.025l-.759-4.385c-1.694-9.732-9.742-17.043-19.57-17.778-53.291-3.987-101.454-15.417-119.846-28.443a7.496 7.496 0 0 0-7.14-.835c-15.618 6.298-29.22 16.24-39.86 29.039-2.375-22.965 2.421-48.273 22.006-63.356 17.618-13.568 40.855-21.017 65.516-21.017.275 0 .554.001.83.003 27.076.184 54.134 9.095 78.249 25.772l1.983 1.372c11.326 7.837 25.179 17.419 40.715 26.919-.002.105-.011.209-.011.314a15.957 15.957 0 0 0 8.305 14.005 65.342 65.342 0 0 1 26.052 26.053 15.958 15.958 0 0 0 14.007 8.305 15.958 15.958 0 0 0 14.004-8.305 65.758 65.758 0 0 1 4.794-7.502c22.738 7.982 44.725 12.132 65.445 12.336-6.83 14.089-15.843 20.616-29.993 21.781a9.754 9.754 0 0 0-8.354 6.379 9.71 9.71 0 0 0 2.315 10.201c5.647 5.552 54.534 55.65 33.29 104.25zm-382.325-88.81a6.838 6.838 0 1 0 0 13.676 6.838 6.838 0 0 0 0-13.676zm90.564-57.958a7.498 7.498 0 0 0-7.499 7.499v8.589c0 4.143 3.357 7.499 7.499 7.499s7.499-3.357 7.499-7.499v-8.589a7.498 7.498 0 0 0-7.499-7.499zM72.574 184.303a6.838 6.838 0 1 0-13.676 0 6.838 6.838 0 0 0 13.676 0zm33.521 68.647a7.496 7.496 0 0 0-10.58.726 10.605 10.605 0 0 1-7.988 3.643 10.59 10.59 0 0 1-7.987-3.643 7.5 7.5 0 1 0-11.307 9.854 25.592 25.592 0 0 0 19.295 8.786 25.591 25.591 0 0 0 19.294-8.786 7.5 7.5 0 0 0-.727-10.58z"
            fill="#000000" data-original="#000000"></path>
    </g>
</svg>