<svg xmlns="http://www.w3.org/2000/svg" version="1.1" xmlns:xlink="http://www.w3.org/1999/xlink"
    xmlns:svgjs="http://svgjs.com/svgjs" width="512" height="512" x="0" y="0" viewBox="0 0 512 512"
    style="enable-background:new 0 0 512 512" xml:space="preserve" class="">
    <g>
        <path
            d="M162.514 406.656c-5.787 0-11.266-3.462-13.56-9.16-3.013-7.486.613-15.998 8.099-19.012 6.823-2.748 16.541-11.539 22.614-18.804 5.178-6.192 14.392-7.013 20.584-1.84 6.191 5.177 7.016 14.392 1.84 20.584-2.827 3.381-17.754 20.58-34.125 27.171a14.568 14.568 0 0 1-5.452 1.061z"
            style="" fill="#498a68" data-original="#498a68"></path>
        <path
            d="M289.111 433.43c68.192 0 146.668 0 204.119-36.679 9.831-6.276 4.145-21.436-7.416-19.892-45.496 6.073-83.711-5.507-105.503-24.267l-91.2 80.838z"
            style="" fill="#5cb38e" data-original="#5cb38e"></path>
        <path
            d="M406.035 368.067c-.76 21.778-4.103 43.516-17.527 61.59-33.243 3.772-67.448 3.772-99.396 3.772l91.2-80.838c6.985 6.014 15.664 11.283 25.723 15.476z"
            style="opacity:0.1;enable-background:new ;" fill="#000000" data-original="#000000"></path>
        <path
            d="M328.432 499.948c-6.544 0-13.031-2.843-17.475-8.323-12.332-15.207-15.941-35.819-16.797-50.434-.727-12.406.187-28.966 3.865-37.996 4.685-11.499 17.802-17.02 29.302-12.338 11.23 4.575 16.761 17.195 12.65 28.493-2.088 8.31-2.019 34.188 5.902 43.957 7.82 9.643 6.342 23.801-3.302 31.621a22.402 22.402 0 0 1-14.145 5.02zm11.242-79.811-.008.021.008-.021zM250.464 499.948c-6.545 0-13.031-2.843-17.475-8.323-12.332-15.207-15.941-35.819-16.796-50.434-.727-12.407.187-28.969 3.866-37.998 4.687-11.497 17.808-17.017 29.303-12.335 11.228 4.576 16.758 17.196 12.647 28.493-2.088 8.31-2.02 34.186 5.902 43.956 7.82 9.643 6.343 23.801-3.302 31.621a22.402 22.402 0 0 1-14.145 5.02zm11.243-79.811c-.003.008-.007.015-.009.023a.136.136 0 0 1 .009-.023z"
            style="" fill="#498a68" data-original="#498a68"></path>
        <path
            d="M459.175 307.995c-2.074-10.158-12.179-16.602-22.389-14.801l-57.712 10.176c-21.531 3.797-35.604 25.039-30.245 46.626 4.598 18.521 22.661 30.862 41.591 28.448 11.525-1.469 21.081-7.888 26.942-16.773.844-1.28 2.354-1.902 3.868-1.661a24.61 24.61 0 0 0 9.273-.295c11.769-2.633 20.025-13.733 19.176-25.763-.01-.148-.022-.296-.035-.443-.243-2.736.93-5.346 3.044-7.1 5.198-4.314 7.945-11.274 6.487-18.414z"
            style="" fill="#e5e5e5" data-original="#e5e5e5"></path>
        <path
            d="M348.829 349.996c4.598 18.521 22.661 30.862 41.59 28.449a38.22 38.22 0 0 0 10.185-2.756c.454-7.006.555-14.056.555-21.03 0-18.987-4.826-36.934-13.376-52.824l-8.71 1.536c-21.531 3.795-35.604 25.038-30.244 46.625zM267.912 463.306c-7.922-9.77-7.99-35.646-5.902-43.956 4.111-11.298-1.418-23.917-12.647-28.493-11.495-4.682-24.616.838-29.303 12.335-3.68 9.03-4.593 25.591-3.866 37.998.318 5.433 1.019 11.697 2.405 18.202 14.367 4.394 31.478 6.854 51.676 7.488a22.523 22.523 0 0 0-2.363-3.574zM339.978 419.349c4.111-11.299-1.421-23.918-12.65-28.493-11.501-4.682-24.617.84-29.302 12.338-3.678 9.03-4.592 25.59-3.865 37.996.435 7.424 1.588 16.397 4.227 25.422 17.368-.914 32.327-3.281 45.115-7.175-5.527-11.508-5.378-32.713-3.525-40.088z"
            style="opacity:0.1;enable-background:new ;" fill="#000000" data-original="#000000"></path>
        <path
            d="M178.485 354.11c0 52.484 7.129 90.46 102.639 90.46s102.639-37.977 102.639-90.46c0-52.484-45.953-95.03-102.639-95.03s-102.639 42.546-102.639 95.03z"
            style="" fill="#5cb38e" data-original="#5cb38e"></path>
        <path
            d="M178.485 354.11c0-.418.011-.834.017-1.251 21.378-5.486 63.783-7.082 93.291 24.278 21.503 22.852 24.615 47.513 22.308 67.18a319.74 319.74 0 0 1-12.977.254c-95.51 0-102.639-37.977-102.639-90.461z"
            style="" fill="#9bdfc1" data-original="#9bdfc1"></path>
        <path
            d="M300.61 260.798c47.367 8.429 83.154 46.998 83.154 93.313 0 48.597-6.124 84.751-82.854 89.84 42.602-43.242 34.362-132.526-.3-183.153z"
            style="opacity:0.05;enable-background:new ;" fill="#000000" data-original="#000000"></path>
        <path
            d="M186.911 122.218a94.66 94.66 0 0 1 78.958-42.447h39.06c55.532 0 100.55 45.018 100.55 100.55v46.229c0 49.84-40.403 90.242-90.242 90.242H108.18c-37.336 0-67.603-30.267-67.603-67.603v-31.463c0-37.336 30.267-67.603 67.603-67.603h26.823a62.23 62.23 0 0 0 51.908-27.905z"
            style="" fill="#5cb38e" data-original="#5cb38e"></path>
        <g style="opacity:0.1;">
            <circle cx="350.86" cy="248.52" r="6.92" fill="#000000" data-original="#000000"></circle>
            <circle cx="301.66" cy="259.08" r="6.92" fill="#000000" data-original="#000000"></circle>
            <circle cx="329.82" cy="282.68" r="6.92" fill="#000000" data-original="#000000"></circle>
        </g>
        <ellipse cx="340.34" cy="153.89" rx="17.442" ry="8.948" style="" fill="#ffa8cb" data-original="#ffa8cb">
        </ellipse>
        <ellipse cx="223.24" cy="153.89" rx="17.442" ry="8.948" style="" fill="#ffa8cb" data-original="#ffa8cb">
        </ellipse>
        <path
            d="M245.371 143.395c-7.159 0-13.889-2.789-18.949-7.852a7.5 7.5 0 0 1 .003-10.606 7.497 7.497 0 0 1 10.606.003 11.713 11.713 0 0 0 8.34 3.456c3.15 0 6.112-1.227 8.34-3.456a7.498 7.498 0 0 1 10.607-.003 7.5 7.5 0 0 1 .003 10.606c-5.061 5.063-11.791 7.852-18.95 7.852zM318.212 143.395c-7.159 0-13.889-2.789-18.949-7.852a7.5 7.5 0 0 1 .003-10.606 7.497 7.497 0 0 1 10.606.003c2.228 2.229 5.189 3.456 8.34 3.456s6.112-1.227 8.34-3.456a7.496 7.496 0 0 1 10.606-.003 7.5 7.5 0 0 1 .003 10.606c-5.06 5.063-11.79 7.852-18.949 7.852zM121.56 274.409a25.812 25.812 0 0 1-19.457-8.86 7.498 7.498 0 0 1 .726-10.581 7.496 7.496 0 0 1 10.581.726c2.059 2.361 5.029 3.716 8.15 3.716s6.092-1.355 8.15-3.716a7.498 7.498 0 0 1 10.581-.726 7.5 7.5 0 0 1 .726 10.581 25.81 25.81 0 0 1-19.457 8.86z"
            style="" fill="#495059" data-original="#495059"></path>
        <circle cx="143.61" cy="185.44" r="6.92" style="" fill="#495059" data-original="#495059"></circle>
        <circle cx="99.51" cy="185.44" r="6.92" style="" fill="#495059" data-original="#495059"></circle>
        <path
            d="M327.268 82.264c44.78 10.159 78.212 50.201 78.212 98.056v46.229c0 49.84-40.403 90.242-90.242 90.242h-54.759c79.748-46.4 93.266-173.949 66.789-234.527z"
            style="opacity:0.05;enable-background:new ;" fill="#000000" data-original="#000000"></path>
        <path
            d="M269.222 405.252a14.54 14.54 0 0 1-7.722-2.219c-6.846-4.273-8.933-13.288-4.66-20.133 8.857-14.191 21.393-22.808 25.513-25.64l.342-.236c6.646-4.583 15.743-2.913 20.326 3.729 4.583 6.643 2.913 15.743-3.729 20.326l-.384.264c-3.183 2.189-11.641 8.002-17.276 17.03-2.77 4.441-7.535 6.879-12.41 6.879z"
            style="" fill="#498a68" data-original="#498a68"></path>
        <path
            d="M291.359 62.323c-36.082 0-97.147-6.563-97.147-31.161C194.212 6.563 255.277 0 291.359 0c36.083 0 97.148 6.563 97.148 31.162.001 24.598-61.065 31.161-97.148 31.161zm-82.044-31.161c1.041 1.658 6.811 6.2 23.408 10.195 15.982 3.847 36.807 5.966 58.637 5.966s42.654-2.119 58.638-5.966c16.597-3.995 22.367-8.537 23.408-10.195-1.041-1.659-6.811-6.2-23.408-10.195C334.015 17.119 313.19 15 291.359 15c-21.83 0-42.655 2.119-58.638 5.967-16.596 3.995-22.365 8.536-23.406 10.195zm164.231.275h.01-.01z"
            style="" fill="#fae17c" data-original="#fae17c"></path>
        <path
            d="M115.998 486.522a7.481 7.481 0 0 1-5.304-2.196l-50.575-50.574a7.5 7.5 0 1 1 10.608-10.607l50.575 50.574a7.5 7.5 0 0 1-5.304 12.803zM138.466 464.054a7.481 7.481 0 0 1-5.304-2.196l-50.574-50.574a7.5 7.5 0 0 1 10.607-10.607l50.574 50.574a7.5 7.5 0 0 1-5.303 12.803z"
            style="" fill="#495059" data-original="#495059"></path>
        <path
            d="M42.955 458.415a7.502 7.502 0 0 1-5.304-12.804l67.404-67.403a7.5 7.5 0 0 1 10.607 10.607l-67.404 67.403a7.474 7.474 0 0 1-5.303 2.197z"
            style="" fill="#fae17c" data-original="#fae17c"></path>
        <path
            d="m152.833 479.431-13.958 13.958c-24.815 24.815-65.193 24.815-90.008 0l-31.346-31.346c-5.048-5.048-5.048-13.233 0-18.281s13.233-5.048 18.281 0l31.346 31.346c14.735 14.735 38.711 14.735 53.446 0l13.958-13.958c14.735-14.735 14.735-38.711 0-53.446l-31.346-31.346c-5.048-5.048-5.048-13.233 0-18.281s13.233-5.048 18.281 0l31.346 31.346c24.815 24.815 24.815 65.193 0 90.008z"
            style="" fill="#fae17c" data-original="#fae17c"></path>
    </g>
</svg>