<svg xmlns="http://www.w3.org/2000/svg" version="1.1" xmlns:xlink="http://www.w3.org/1999/xlink"
    xmlns:svgjs="http://svgjs.com/svgjs" width="512" height="512" x="0" y="0" viewBox="0 0 512 512"
    style="enable-background:new 0 0 512 512" xml:space="preserve" class="">
    <g>
        <path
            d="M359.644 411.228c-14.478 0-27.781-7.764-32.519-10.529l-.603-.35c-6.616-3.787-8.907-12.22-5.12-18.835s12.219-8.907 18.834-5.119l.802.465c10.929 6.378 16.98 7.141 20.138 6.66 7.543-1.147 14.576 4.025 15.727 11.559 1.152 7.535-4.024 14.576-11.559 15.728a38.067 38.067 0 0 1-5.7.421z"
            style="" fill="#498a68" data-original="#498a68"></path>
        <path
            d="M237.404 449.175c-64.406 0-138.526 0-192.787-34.643-9.285-5.928-3.915-20.245 7.004-18.788 42.97 5.736 79.064-5.202 99.645-22.92l86.138 76.351z"
            style="" fill="#5cb38e" data-original="#5cb38e"></path>
        <path
            d="M126.972 387.441c.718 20.569 3.875 41.1 16.554 58.171 31.397 3.563 63.704 3.563 93.878 3.563l-86.137-76.35c-6.597 5.679-14.795 10.656-24.295 14.616z"
            style="opacity:0.1;enable-background:new ;" fill="#000000" data-original="#000000"></path>
        <path
            d="M208.571 512a21.8 21.8 0 0 1-1.65-.063c-11.692-.899-20.442-11.106-19.543-22.799.816-10.611-.059-46.001-1.581-53.837-3.494-10.521 1.731-22.093 12.147-26.336 10.859-4.423 23.251.793 27.676 11.653 5.723 14.05 4.362 68.376 4.1 71.775-.857 11.139-10.161 19.607-21.149 19.607zm-22.291-75.385.009.024a.144.144 0 0 0-.009-.024zM285.576 512a21.39 21.39 0 0 1-1.653-.064c-11.692-.9-20.441-11.107-19.541-22.799.817-10.609-.058-45.993-1.581-53.834-3.495-10.521 1.729-22.093 12.145-26.337 10.856-4.424 23.25.789 27.677 11.65 5.727 14.054 4.363 68.381 4.102 71.78-.858 11.137-10.162 19.604-21.149 19.604zm-22.289-75.381a.155.155 0 0 0 .008.023c-.001-.007-.005-.016-.008-.023z"
            style="" fill="#498a68" data-original="#498a68"></path>
        <path
            d="M307.05 471.419c-.053-17.935-.879-42.096-4.427-50.803-4.427-10.861-16.82-16.074-27.676-11.65-10.415 4.245-15.64 15.816-12.145 26.337 1.188 6.113 1.981 28.969 1.886 43.772 16.426-1.083 30.466-3.609 42.362-7.656zM197.943 408.965c-10.415 4.243-15.641 15.815-12.147 26.336 1.033 5.316 1.767 23.31 1.877 37.649 12.018 3.515 26.065 5.621 42.346 6.399.164-17.866-.297-48.654-4.401-58.73-4.424-10.861-16.816-16.078-27.675-11.654z"
            style="opacity:0.1;enable-background:new ;" fill="#000000" data-original="#000000"></path>
        <path
            d="M341.889 374.259c0 49.57-6.733 85.438-96.941 85.438s-96.941-35.868-96.941-85.438 43.402-89.754 96.941-89.754 96.941 40.184 96.941 89.754z"
            style="" fill="#5cb38e" data-original="#5cb38e"></path>
        <path
            d="M341.889 374.259c0-.395-.011-.788-.016-1.182-20.191-5.182-60.241-6.689-88.111 22.93-20.309 21.583-23.248 44.875-21.07 63.45 3.904.159 7.986.24 12.256.24 90.208 0 96.941-35.868 96.941-85.438z"
            style="" fill="#9bdfc1" data-original="#9bdfc1"></path>
        <path
            d="M226.544 286.127c-44.737 7.961-78.538 44.389-78.538 88.132 0 45.899 5.784 80.046 78.254 84.852-40.236-40.841-32.454-125.167.284-172.984z"
            style="opacity:0.05;enable-background:new ;" fill="#000000" data-original="#000000"></path>
        <path
            d="M333.93 155.241a89.406 89.406 0 0 0-74.575-40.091h-36.892c-52.449 0-94.967 42.518-94.967 94.967v43.663c0 47.072 38.16 85.232 85.232 85.232h195.561c35.263 0 63.85-28.586 63.85-63.85v-29.716c0-35.263-28.586-63.85-63.85-63.85h-25.334a58.773 58.773 0 0 1-49.025-26.355z"
            style="" fill="#5cb38e" data-original="#5cb38e"></path>
        <g style="opacity:0.1;">
            <circle cx="179.081" cy="274.53" r="6.536" fill="#000000" data-original="#000000"></circle>
            <circle cx="225.551" cy="284.5" r="6.536" fill="#000000" data-original="#000000"></circle>
            <circle cx="198.961" cy="306.8" r="6.536" fill="#000000" data-original="#000000"></circle>
        </g>
        <ellipse cx="192.211" cy="197.89" rx="16.473" ry="8.451" style="" fill="#ffa8cb" data-original="#ffa8cb">
        </ellipse>
        <ellipse cx="302.801" cy="197.89" rx="16.473" ry="8.451" style="" fill="#ffa8cb" data-original="#ffa8cb">
        </ellipse>
        <path
            d="M220.069 187.13a7.5 7.5 0 0 1-7.5-7.5c0-2.1-1.708-3.808-3.808-3.808s-3.808 1.708-3.808 3.808c0 4.142-3.357 7.5-7.5 7.5s-7.5-3.358-7.5-7.5c0-10.371 8.438-18.808 18.808-18.808s18.808 8.437 18.808 18.808a7.5 7.5 0 0 1-7.5 7.5zM297.551 187.13a7.5 7.5 0 0 1-7.5-7.5c0-2.1-1.708-3.808-3.808-3.808s-3.808 1.708-3.808 3.808a7.5 7.5 0 0 1-15 0c0-10.371 8.438-18.808 18.808-18.808s18.808 8.437 18.808 18.808a7.5 7.5 0 0 1-7.5 7.5zM395.653 299.4a24.784 24.784 0 0 1-18.691-8.513 7.5 7.5 0 0 1 .727-10.581 7.5 7.5 0 0 1 10.582.727 9.795 9.795 0 0 0 7.383 3.367 9.795 9.795 0 0 0 7.384-3.367 7.5 7.5 0 0 1 11.309 9.854 24.796 24.796 0 0 1-18.694 8.513z"
            style="" fill="#495059" data-original="#495059"></path>
        <circle cx="374.831" cy="214.95" r="6.536" style="" fill="#495059" data-original="#495059"></circle>
        <circle cx="416.481" cy="214.95" r="6.536" style="" fill="#495059" data-original="#495059"></circle>
        <path
            d="M201.366 117.506c-42.294 9.595-73.87 47.414-73.87 92.612v43.663c0 47.073 38.16 85.232 85.232 85.232h51.719c-75.321-43.825-88.088-164.293-63.081-221.507z"
            style="opacity:0.05;enable-background:new ;" fill="#000000" data-original="#000000"></path>
        <path
            d="M199.282 409.78c-2.801 0-5.588-.22-8.311-.673-7.519-1.254-12.598-8.365-11.344-15.883 1.254-7.519 8.375-12.592 15.883-11.344 6.712 1.12 14.652-1.119 17.855-3.911 5.747-5.011 14.464-4.411 19.473 1.333 5.009 5.745 4.413 14.463-1.333 19.473-7.983 6.958-20.207 11.005-32.223 11.005z"
            style="" fill="#498a68" data-original="#498a68"></path>
        <path
            d="M299.871 1.998a39.113 39.113 0 0 0-26.649 12.196c-3.683 3.885-9.757 4.159-13.69.527C248.462 4.498 233.29-1.203 217.096.214c-16.195 1.417-30.147 9.665-39.274 21.656-3.243 4.26-9.272 5.044-13.574 1.858-7.829-5.8-17.834-8.727-28.361-7.383-21.137 2.7-36.395 22.199-34.004 43.372 1.461 12.935 9.092 23.749 19.68 29.751a16.533 16.533 0 0 1 8.316 12.943l1.667 19.052 190.851-16.697-1.667-19.052a16.534 16.534 0 0 1 5.943-14.191c9.385-7.75 15.023-19.725 14.215-32.717-1.321-21.267-19.733-37.82-41.017-36.808z"
            style="" fill="#e5e5e5" data-original="#e5e5e5"></path>
        <g style="opacity:0.1;">
            <path
                d="M191.287 123.737a7.5 7.5 0 0 1-7.463-6.847l-2.938-33.587a7.502 7.502 0 0 1 6.818-8.126c4.127-.349 7.764 2.691 8.125 6.818l2.938 33.587a7.5 7.5 0 0 1-7.48 8.155zM262.642 117.494a7.5 7.5 0 0 1-7.463-6.847l-2.938-33.587a7.501 7.501 0 0 1 6.818-8.126c4.126-.35 7.765 2.691 8.125 6.818l2.939 33.587a7.5 7.5 0 0 1-7.481 8.155z"
                fill="#000000" data-original="#000000"></path>
        </g>
        <path
            d="M315.912 142.848 144.548 157.84c-5.381.471-10.125-3.51-10.596-8.891l-2.405-27.485 190.851-16.697 2.405 27.485c.471 5.381-3.51 10.125-8.891 10.596z"
            style="" fill="#495059" data-original="#495059"></path>
        <path
            d="M123.927 19.91c-14.603 7.071-23.952 22.9-22.044 39.807 1.466 12.989 9.155 23.838 19.812 29.826 4.724 2.654 7.723 7.586 8.195 12.985l4.061 46.422c.471 5.381 5.215 9.362 10.596 8.891l37.701-3.299c-13.107-17.142-18.561-59.798-20.398-78.85a16.426 16.426 0 0 0-8.176-12.681c-15.388-8.833-29.782-29.709-29.747-43.101z"
            style="opacity:0.05;enable-background:new ;" fill="#000000" data-original="#000000"></path>
        <path
            d="M165.346 264.705c-11.899-22.583-43.095-46.172-66.907-33.626s-21.995 51.614-10.096 74.198c8.502 16.137 24.656 25.449 40.943 25.365a6.92 6.92 0 0 1 6.305 3.938l34.835 73.388c4.58 9.649 16.274 13.542 25.724 8.563 9.45-4.979 12.851-16.825 7.482-26.059l-40.833-70.228c-1.353-2.326-1.216-5.216.317-7.427 9.279-13.386 10.733-31.974 2.23-48.112z"
            style="" fill="#fae17c" data-original="#fae17c"></path>
        <path
            d="m402.656 421.622 17.816-1.059c2.859-.17 5.679-.824 8.279-2.024 13.773-6.357 23.871-19.07 26.763-34.174 1.154-6.026-3.732-11.516-9.857-11.152l-73.618 4.376c-6.125.364-10.327 6.394-8.467 12.241 4.661 14.655 16.194 26.082 30.623 30.763 2.724.883 5.602 1.199 8.461 1.029z"
            style="" fill="#a3e3ff" data-original="#a3e3ff"></path>
    </g>
</svg>