<svg xmlns="http://www.w3.org/2000/svg" version="1.1" xmlns:xlink="http://www.w3.org/1999/xlink"
    xmlns:svgjs="http://svgjs.com/svgjs" width="512" height="512" x="0" y="0" viewBox="0 0 512.001 512.001"
    style="enable-background:new 0 0 512 512" xml:space="preserve" class="">
    <g>
        <path
            d="M370.57 393.569c-5.49 0-10.852-2.764-13.939-7.784-6.237-10.137-15.647-16.699-19.19-19.17l-.424-.296c-7.396-5.177-9.196-15.369-4.019-22.765 5.175-7.396 15.369-9.196 22.765-4.019l.379.264c4.584 3.196 18.533 12.924 28.333 28.856 4.731 7.688 2.332 17.758-5.358 22.488a16.267 16.267 0 0 1-8.547 2.426z"
            style="" fill="#498a68" data-original="#498a68"></path>
        <path
            d="M233.974 424.944c-76.284 0-164.073 0-228.341-41.032-10.998-7.021-4.637-23.979 8.296-22.253 50.895 6.794 93.645-6.161 118.022-27.146l102.023 90.431z"
            style="" fill="#5cb38e" data-original="#5cb38e"></path>
        <path
            d="M103.176 351.825c.85 24.362 4.59 48.679 19.607 68.899 37.188 4.219 75.452 4.22 111.191 4.22l-102.023-90.431c-7.813 6.727-17.523 12.622-28.775 17.312z"
            style="opacity:0.1;enable-background:new ;" fill="#000000" data-original="#000000"></path>
        <path
            d="M199.824 499.355c-.647 0-1.299-.025-1.955-.075-13.848-1.065-24.212-13.154-23.147-27.003.966-12.568-.07-54.485-1.873-63.766-4.138-12.46 2.051-26.167 14.387-31.193 12.863-5.236 27.538.939 32.78 13.802 6.778 16.642 5.166 80.987 4.857 85.013-1.015 13.192-12.035 23.222-25.049 23.222zm-26.402-89.286.011.028a.324.324 0 0 0-.011-.028zM307.9 490.161h-.073c-13.89-.039-25.117-11.331-25.078-25.22-.017-1.102-.661-12.159-17.685-53.805l-.424-1.036c-5.241-12.862.937-27.538 13.799-32.781 12.857-5.242 27.537.936 32.781 13.799l.402.986c19.042 46.579 21.453 63.469 21.426 72.98-.04 13.865-11.293 25.077-25.148 25.077z"
            style="" fill="#498a68" data-original="#498a68"></path>
        <path
            d="m311.622 392.104-.402-.986c-5.243-12.863-19.924-19.041-32.781-13.799-12.862 5.242-19.04 19.919-13.799 32.781l.424 1.036c11.694 28.605 15.659 42.778 17.001 49.207 19.185-2.402 35.252-6.789 48.564-13.266-2.663-11.391-8.108-28.314-19.007-54.973zM187.236 377.318c-12.336 5.026-18.525 18.733-14.387 31.193 1.26 6.487 2.144 28.907 2.234 46.116 14.268 4.126 30.901 6.601 50.131 7.517.232-20.9-.223-58.809-5.198-71.023-5.242-12.864-19.917-19.039-32.78-13.803z"
            style="opacity:0.1;enable-background:new ;" fill="#000000" data-original="#000000"></path>
        <path
            d="M357.729 336.212c0 58.712-7.975 101.195-114.819 101.195s-114.819-42.483-114.819-101.195 51.406-106.307 114.819-106.307c63.412 0 114.819 47.595 114.819 106.307z"
            style="" fill="#5cb38e" data-original="#5cb38e"></path>
        <path
            d="M357.729 336.212c0-.468-.013-.933-.019-1.4-23.915-6.137-71.351-7.922-104.361 27.159-24.055 25.564-27.536 53.151-24.955 75.152 4.624.188 9.459.284 14.517.284 106.843 0 114.818-42.483 114.818-101.195z"
            style="" fill="#9bdfc1" data-original="#9bdfc1"></path>
        <path
            d="M221.112 231.826c-52.987 9.43-93.022 52.575-93.022 104.386 0 54.364 6.851 94.809 92.686 100.501-47.658-48.373-38.44-148.252.336-204.887z"
            style="opacity:0.05;enable-background:new ;" fill="#000000" data-original="#000000"></path>
        <path
            d="M348.302 76.802a105.895 105.895 0 0 0-88.328-47.485h-43.695c-62.122 0-112.482 50.36-112.482 112.482v51.715c0 55.754 45.197 100.951 100.951 100.951h231.628c41.767 0 75.625-33.858 75.625-75.625v-35.196c0-41.766-33.858-75.625-75.625-75.625H406.37a69.616 69.616 0 0 1-58.068-31.217z"
            style="" fill="#5cb38e" data-original="#5cb38e"></path>
        <path
            d="M428.699 242.391h-14.581c-4.143 0-7.5-3.357-7.5-7.5s3.357-7.5 7.5-7.5h14.581c4.143 0 7.5 3.357 7.5 7.5a7.5 7.5 0 0 1-7.5 7.5z"
            style="" fill="#495059" data-original="#495059"></path>
        <g style="opacity:0.1;">
            <circle cx="164.901" cy="218.091" r="7.741" fill="#000000" data-original="#000000"></circle>
            <circle cx="219.931" cy="229.901" r="7.741" fill="#000000" data-original="#000000"></circle>
            <circle cx="188.441" cy="256.311" r="7.741" fill="#000000" data-original="#000000"></circle>
        </g>
        <ellipse cx="169.611" cy="113.731" rx="31.809" ry="26.05" style="" fill="#ffa8cb" data-original="#ffa8cb">
        </ellipse>
        <ellipse cx="314.711" cy="113.731" rx="31.809" ry="26.05" style="" fill="#ffa8cb" data-original="#ffa8cb">
        </ellipse>
        <path
            d="M201.42 100.22a7.5 7.5 0 0 1-7.5-7.5v-1.337c0-4.142 3.357-7.5 7.5-7.5s7.5 3.358 7.5 7.5v1.337a7.5 7.5 0 0 1-7.5 7.5zM282.905 100.22a7.5 7.5 0 0 1-7.5-7.5v-1.337c0-4.142 3.357-7.5 7.5-7.5s7.5 3.358 7.5 7.5v1.337a7.5 7.5 0 0 1-7.5 7.5z"
            style="" fill="#495059" data-original="#495059"></path>
        <circle cx="396.741" cy="147.521" r="7.741" style="" fill="#495059" data-original="#495059"></circle>
        <circle cx="446.071" cy="147.521" r="7.741" style="" fill="#495059" data-original="#495059"></circle>
        <path
            d="M191.29 32.107c-50.094 11.364-87.493 56.159-87.493 109.691v51.715c0 55.754 45.197 100.951 100.951 100.951h61.257C176.793 242.558 161.671 99.873 191.29 32.107z"
            style="opacity:0.05;enable-background:new ;" fill="#000000" data-original="#000000"></path>
        <path
            d="M250.902 373.991c-13.012 0-24.146-4.248-29.204-8.267-7.068-5.615-8.245-15.898-2.628-22.968 5.401-6.797 15.118-8.149 22.142-3.243 2.192.997 11.995 3.893 20.782-.922 7.917-4.34 17.852-1.438 22.192 6.479 4.338 7.918 1.438 17.853-6.479 22.192-8.951 4.906-18.281 6.729-26.805 6.729zm-8.874-33.871a.044.044 0 0 1 .011.009l-.011-.009z"
            style="" fill="#498a68" data-original="#498a68"></path>
        <path
            d="M150.878 101.63c-17.035 17.035-44.655 17.035-61.691 0-17.035-17.035-17.035-44.655 0-61.691l24.781-24.781a8.577 8.577 0 0 1 12.129 0l24.781 24.781c17.035 17.036 17.035 44.656 0 61.691z"
            style="" fill="#a3e3ff" data-original="#a3e3ff"></path>
    </g>
</svg>