<svg xmlns="http://www.w3.org/2000/svg" version="1.1" xmlns:xlink="http://www.w3.org/1999/xlink"
    xmlns:svgjs="http://svgjs.com/svgjs" width="512" height="512" x="0" y="0" viewBox="0 0 512 512"
    style="enable-background:new 0 0 512 512" xml:space="preserve" class="">
    <g>
        <path
            d="M161.085 292.429 88.403 346.8a7.341 7.341 0 0 1-10.275-1.481L9.24 253.23a7.34 7.34 0 0 1 1.481-10.275l72.682-54.371a7.341 7.341 0 0 1 10.275 1.481l68.888 92.089a7.34 7.34 0 0 1-1.481 10.275z"
            style="" fill="#e5e5e5" data-original="#e5e5e5" class=""></path>
        <path
            d="m112.718 268.143-33.954 25.4a7.341 7.341 0 0 1-10.275-1.481L43.09 258.108a7.341 7.341 0 0 1 1.481-10.275l33.954-25.4a7.341 7.341 0 0 1 10.275 1.481l25.4 33.954a7.342 7.342 0 0 1-1.482 10.275z"
            style="" fill="#8783d2" data-original="#8783d2"></path>
        <path
            d="m458.064 469.457-86.079-28.797a7.34 7.34 0 0 1-4.632-9.29l36.486-109.063a7.34 7.34 0 0 1 9.29-4.633l86.079 28.797a7.34 7.34 0 0 1 4.633 9.29l-36.486 109.063a7.341 7.341 0 0 1-9.291 4.633z"
            style="" fill="#e5e5e5" data-original="#e5e5e5" class=""></path>
        <path
            d="m450.491 415.868-40.212-13.453a7.339 7.339 0 0 1-4.632-9.29l13.453-40.212a7.34 7.34 0 0 1 9.29-4.633l40.212 13.453a7.34 7.34 0 0 1 4.633 9.29l-13.453 40.212a7.342 7.342 0 0 1-9.291 4.633z"
            style="" fill="#ffa8cb" data-original="#ffa8cb"></path>
        <path
            d="M371.237 414.736c-6.136.433-12.168-2.933-14.844-8.869-3.475-7.704-11.102-12.726-14.766-15.139a99.005 99.005 0 0 1-1.404-.937c-6.884-4.721-8.638-14.129-3.916-21.014 4.72-6.884 14.128-8.642 21.015-3.916.255.174.569.38.933.62 5.091 3.353 18.617 12.261 25.697 27.96 3.431 7.61.045 16.561-7.565 19.993a15.13 15.13 0 0 1-5.15 1.302z"
            style="" fill="#498a68" data-original="#498a68"></path>
        <path
            d="M239.471 443.193c-70.538 0-151.714 0-211.141-37.941-10.169-6.492-4.288-22.173 7.671-20.577 47.061 6.283 86.591-5.697 109.132-25.102l94.338 83.62z"
            style="" fill="#5cb38e" data-original="#5cb38e" class=""></path>
        <path
            d="M118.525 375.582c.786 22.527 4.244 45.013 18.13 63.709 34.387 3.902 69.769 3.902 102.816 3.902l-94.338-83.619c-7.225 6.22-16.203 11.671-26.608 16.008z"
            style="opacity:0.1;enable-background:new ;" fill="#000000" data-original="#000000"></path>
        <path
            d="M207.892 512c-.599 0-1.201-.023-1.808-.069-12.805-.986-22.388-12.164-21.403-24.97.894-11.621-.064-50.38-1.732-58.962-3.827-11.522 1.895-24.196 13.302-28.843 11.897-4.847 25.465.868 30.31 12.76 6.27 15.389 4.777 74.889 4.491 78.612-.937 12.197-11.127 21.471-23.16 21.472zm-24.411-82.562zM292.229 512c-.6 0-1.203-.023-1.809-.069-12.806-.986-22.387-12.165-21.403-24.97.895-11.619-.064-50.373-1.732-58.961-3.828-11.522 1.894-24.195 13.301-28.844 11.89-4.846 25.463.865 30.312 12.759 6.272 15.391 4.778 74.891 4.492 78.613-.938 12.199-11.128 21.472-23.161 21.472zm-24.411-82.559.01.026a.277.277 0 0 1-.01-.026z"
            style="" fill="#498a68" data-original="#498a68"></path>
        <path
            d="M315.75 468.977c-.018-19.767-.871-47.295-4.851-57.063-4.849-11.894-18.422-17.606-30.312-12.759-11.407 4.65-17.129 17.323-13.301 28.844 1.337 6.886 2.218 33.159 2.053 49.294 17.953-1.178 33.337-3.922 46.411-8.316zM196.252 399.155c-11.407 4.648-17.129 17.322-13.302 28.843 1.165 5.998 1.983 26.729 2.065 42.641 13.193 3.815 28.573 6.104 46.354 6.951.215-19.327-.205-54.38-4.807-65.674-4.845-11.893-18.413-17.608-30.31-12.761z"
            style="opacity:0.1;enable-background:new ;" fill="#000000" data-original="#000000"></path>
        <path
            d="M353.904 361.145c0 54.289-7.374 93.572-106.17 93.572s-106.171-39.283-106.171-93.572 47.534-98.3 106.171-98.3 106.17 44.011 106.17 98.3z"
            style="" fill="#5cb38e" data-original="#5cb38e" class=""></path>
        <path
            d="M353.904 361.145c0-.433-.012-.863-.018-1.294-22.114-5.675-65.977-7.325-96.5 25.113-22.243 23.638-25.462 49.147-23.076 69.491 4.276.174 8.746.262 13.423.262 98.796 0 106.171-39.283 106.171-93.572z"
            style="" fill="#9bdfc1" data-original="#9bdfc1"></path>
        <path
            d="M227.577 264.622c-48.996 8.719-86.015 48.615-86.015 96.523 0 50.269 6.335 87.667 85.704 92.931-44.067-44.73-35.544-137.085.311-189.454z"
            style="opacity:0.05;enable-background:new ;" fill="#000000" data-original="#000000"></path>
        <path
            d="M353.657 383.189a7.5 7.5 0 0 1-7.499-7.802c.167-4.153.245-8.679.245-14.242 0-12.299-2.629-24.229-7.814-35.459a7.5 7.5 0 1 1 13.619-6.287c6.1 13.215 9.194 27.26 9.194 41.746 0 5.77-.082 10.486-.257 14.846a7.499 7.499 0 0 1-7.488 7.198z"
            style="" fill="#495059" data-original="#495059"></path>
        <path
            d="M345.187 121.275a97.917 97.917 0 0 0-81.675-43.908h-40.403c-57.443 0-104.009 46.566-104.009 104.009v47.82c0 51.554 41.793 93.347 93.347 93.347h214.18c38.62 0 69.928-31.308 69.928-69.928V220.07c0-38.62-31.308-69.928-69.928-69.928h-27.746a64.379 64.379 0 0 1-53.694-28.867z"
            style="" fill="#5cb38e" data-original="#5cb38e" class=""></path>
        <g style="opacity:0.1;">
            <circle cx="175.599" cy="251.92" r="7.158" fill="#000000" data-original="#000000"></circle>
            <circle cx="226.489" cy="262.85" r="7.158" fill="#000000" data-original="#000000"></circle>
            <circle cx="197.369" cy="287.26" r="7.158" fill="#000000" data-original="#000000"></circle>
        </g>
        <ellipse cx="186.479" cy="154.03" rx="18.04" ry="9.256" style="" fill="#ffa8cb" data-original="#ffa8cb">
        </ellipse>
        <ellipse cx="307.609" cy="154.03" rx="18.04" ry="9.256" style="" fill="#ffa8cb" data-original="#ffa8cb">
        </ellipse>
        <path
            d="M209.369 143.183a7.5 7.5 0 0 1-7.5-7.5v-8.99c0-4.143 3.358-7.5 7.5-7.5s7.5 3.357 7.5 7.5v8.99a7.5 7.5 0 0 1-7.5 7.5zM284.716 143.183a7.499 7.499 0 0 1-7.5-7.5v-8.99c0-4.143 3.357-7.5 7.5-7.5s7.5 3.357 7.5 7.5v8.99a7.5 7.5 0 0 1-7.5 7.5zM412.787 278.444a26.447 26.447 0 0 1-19.933-9.076 7.5 7.5 0 0 1 .725-10.582 7.499 7.499 0 0 1 10.582.725c2.18 2.5 5.323 3.934 8.626 3.934s6.446-1.434 8.626-3.934a7.501 7.501 0 0 1 11.307 9.857 26.444 26.444 0 0 1-19.933 9.076z"
            style="" fill="#495059" data-original="#495059"></path>
        <circle cx="389.979" cy="186.67" r="7.158" style="" fill="#495059" data-original="#495059"></circle>
        <circle cx="435.599" cy="186.67" r="7.158" style="" fill="#495059" data-original="#495059"></circle>
        <path
            d="M200.002 79.947c-46.321 10.508-80.903 51.928-80.903 101.429v47.82c0 51.554 41.793 93.347 93.347 93.347h56.643c-82.492-47.998-96.475-179.935-69.087-242.596z"
            style="opacity:0.05;enable-background:new ;" fill="#000000" data-original="#000000"></path>
        <path
            d="M350.783 420.691h-64.619a9.412 9.412 0 0 1-9.412-9.412v-35.233a9.412 9.412 0 0 1 9.412-9.412h64.619a9.412 9.412 0 0 1 9.412 9.412v35.233a9.412 9.412 0 0 1-9.412 9.412z"
            style="" fill="#495059" data-original="#495059"></path>
        <path
            d="M267.106 416.878c-11.043 0-23.457-3.387-36.072-9.865-7.427-3.813-10.356-12.924-6.543-20.35 3.814-7.425 12.924-10.359 20.351-6.543 8.703 4.467 16.97 6.791 23.225 6.506 8.367-.357 15.395 6.109 15.756 14.448.361 8.34-6.108 15.395-14.448 15.756-.75.032-1.508.048-2.269.048z"
            style="" fill="#498a68" data-original="#498a68"></path>
        <path
            d="M327.64 342.381h-18.332a7.362 7.362 0 0 0-7.362 7.362v16.891h33.057v-16.891a7.363 7.363 0 0 0-7.363-7.362z"
            style="" fill="#ffffff" data-original="#ffffff"></path>
        <circle cx="323.129" cy="393.66" r="17.974" style="" fill="#959ba0" data-original="#959ba0"></circle>
        <circle cx="323.129" cy="393.66" r="6.356" style="" fill="#495059" data-original="#495059"></circle>
        <path
            d="M290.977 383.19c-.793 0-1.6-.127-2.393-.393-48.283-16.245-111.078-45.651-134.856-71.829a7.5 7.5 0 0 1 11.103-10.086c15.894 17.499 65.149 46.372 128.536 67.698a7.5 7.5 0 0 1-2.39 14.61z"
            style="" fill="#495059" data-original="#495059"></path>
        <path
            d="m340.209 100.01-217.345 19.015c-6.379.558-10.169-6.959-5.926-11.756l25.818-29.187 170.755-14.939 30.494 24.261c5.01 3.987 2.583 12.048-3.796 12.606zM282.042.1 162.798 10.533c-14.224 1.245-24.746 13.784-23.502 28.008l3.459 39.541L313.51 63.143l-3.459-39.541C308.806 9.378 296.267-1.144 282.042.1z"
            style="" fill="#e5e5e5" data-original="#e5e5e5" class=""></path>
        <path d="M141.002 37.892h171.412v32.773H141.002z" style="" transform="rotate(175.003 226.707 54.278)"
            fill="#cd5b5b" data-original="#cd5b5b"></path>
    </g>
</svg>