<svg xmlns="http://www.w3.org/2000/svg" version="1.1" xmlns:xlink="http://www.w3.org/1999/xlink"
    xmlns:svgjs="http://svgjs.com/svgjs" width="512" height="512" x="0" y="0" viewBox="0 0 512 512"
    style="enable-background:new 0 0 512 512" xml:space="preserve" class="">
    <g>
        <path
            d="M82.945 129.495c35.765 13.987 115.003 105.681 120.122 124.66 13.956-42.133-37.386-166.783-57.553-195.365l-62.569 70.705z"
            style="" fill="#fae17c" data-original="#fae17c"></path>
        <path
            d="M70.208 98.72 56.043 86.802c-5.061-4.258-4.268-12.271 1.529-15.454l16.226-8.91a9.41 9.41 0 0 0 4.192-4.713l6.957-17.154c2.486-6.129 10.351-7.851 15.171-3.321l13.488 12.678a9.414 9.414 0 0 0 5.778 2.531l18.465 1.316c6.597.47 10.665 7.418 7.846 13.402l-7.89 16.746a9.412 9.412 0 0 0-.621 6.277l4.454 17.967c1.592 6.42-3.76 12.436-10.321 11.604l-18.364-2.329a9.416 9.416 0 0 0-6.162 1.349l-15.712 9.789c-5.614 3.497-12.989.267-14.225-6.23l-3.46-18.185a9.405 9.405 0 0 0-3.186-5.445z"
            style="" fill="#ff85b6" data-original="#ff85b6"></path>
        <path
            d="M465.096 315.678c-37.026-1.559-142.67 48.597-154.572 63.367 4.064-42.637 97.891-132.748 126.818-150.146l27.754 86.779z"
            style="" fill="#a3e3ff" data-original="#a3e3ff"></path>
        <path
            d="m488.316 293.454 17.145-5.015c6.126-1.792 8.542-9.176 4.66-14.243l-10.864-14.18a9.082 9.082 0 0 1-1.869-5.793l.528-17.856c.189-6.38-6.088-10.96-12.106-8.834l-16.843 5.95a9.084 9.084 0 0 1-6.087-.013l-16.818-6.02c-6.009-2.151-12.305 2.403-12.142 8.783l.454 17.858a9.086 9.086 0 0 1-1.893 5.785l-10.923 14.135c-3.903 5.05-1.517 12.445 4.601 14.262l17.124 5.087a9.08 9.08 0 0 1 4.917 3.588l10.068 14.756c3.597 5.272 11.367 5.288 14.986.031l10.129-14.714a9.088 9.088 0 0 1 4.933-3.567z"
            style="" fill="#80b0e3" data-original="#80b0e3"></path>
        <path
            d="M445.872 108.448c-34.594 13.288-111.595 101.306-116.645 119.59-13.22-40.739 37.054-160.723 56.682-188.185l59.963 68.595z"
            style="" fill="#a9a6de" data-original="#a9a6de"></path>
        <path
            d="m458.344 78.825 13.738-11.417c4.909-4.079 4.191-11.816-1.385-14.922l-15.605-8.693a9.09 9.09 0 0 1-4.018-4.573l-6.613-16.594c-2.363-5.929-9.943-7.637-14.62-3.294l-13.09 12.155a9.082 9.082 0 0 1-5.59 2.408l-17.826 1.162c-6.369.415-10.335 7.096-7.65 12.886l7.515 16.206a9.085 9.085 0 0 1 .563 6.061l-4.404 17.312c-1.573 6.186 3.555 12.022 9.892 11.258l17.735-2.14a9.082 9.082 0 0 1 5.938 1.338l15.104 9.538c5.397 3.408 12.533.334 13.764-5.929l3.445-17.528a9.076 9.076 0 0 1 3.107-5.234z"
            style="" fill="#8783d2" data-original="#8783d2" class=""></path>
        <path
            d="M166.271 397.709c-3.925 0-7.818-1.69-10.506-4.957-4.771-5.798-3.939-14.365 1.859-19.136 12.011-9.883 25.609-13.769 30.078-15.045l.37-.106c7.221-2.078 14.748 2.093 16.823 9.308 2.074 7.216-2.094 14.748-9.309 16.823l-.415.119c-3.454.987-12.628 3.608-20.27 9.897a13.542 13.542 0 0 1-8.63 3.097z"
            style="" fill="#498a68" data-original="#498a68"></path>
        <path
            d="M286.369 431.425c63.443 0 136.455 0 189.905-34.125 9.146-5.839 3.857-19.943-6.9-18.507-42.328 5.651-77.882-5.124-98.156-22.577l-84.849 75.209z"
            style="" fill="#5cb38e" data-original="#5cb38e"></path>
        <path
            d="M395.15 370.614c-.707 20.261-3.817 40.485-16.307 57.301-30.928 3.509-62.752 3.509-92.475 3.509l84.849-75.209c6.5 5.595 14.575 10.498 23.933 14.399z"
            style="opacity:0.1;enable-background:new ;" fill="#000000" data-original="#000000"></path>
        <path
            d="M314.771 493.311c-10.824.001-19.988-8.341-20.832-19.314-.257-3.348-1.598-56.862 4.039-70.702 4.359-10.698 16.563-15.836 27.261-11.48 10.261 4.18 15.409 15.579 11.966 25.943-1.499 7.719-2.361 42.58-1.557 53.034.885 11.517-7.734 21.572-19.251 22.457a21.73 21.73 0 0 1-1.626.062zm21.957-74.258-.009.023a.558.558 0 0 1 .009-.023zM238.917 493.311c-10.824.001-19.987-8.34-20.832-19.312-.257-3.348-1.601-56.862 4.04-70.707 4.36-10.698 16.568-15.833 27.263-11.477 10.26 4.181 15.406 15.58 11.963 25.943-1.5 7.72-2.362 42.579-1.557 53.03.887 11.517-7.732 21.572-19.249 22.459-.546.043-1.09.064-1.628.064zm21.956-74.256a.558.558 0 0 1-.009.023l.009-.023z"
            style="" fill="#498a68" data-original="#498a68"></path>
        <path
            d="M249.388 391.816c-10.695-4.356-22.903.779-27.263 11.477-3.58 8.786-4.347 33.544-4.363 51.323 11.759 3.952 25.595 6.42 41.743 7.48-.148-14.513.643-38.145 1.846-44.336 3.443-10.364-1.703-21.763-11.963-25.944zM325.239 391.815c-10.698-4.356-22.902.782-27.261 11.48-4.137 10.158-4.516 41.685-4.323 59.067 15.993-.762 29.826-2.82 41.692-6.252.074-14.312.81-32.958 1.858-38.353 3.443-10.363-1.705-21.762-11.966-25.942z"
            style="opacity:0.1;enable-background:new ;" fill="#000000" data-original="#000000"></path>
        <path
            d="M183.446 357.629c0 48.829 6.633 84.161 95.492 84.161s95.492-35.332 95.492-84.161-42.753-88.413-95.492-88.413-95.492 39.584-95.492 88.413z"
            style="" fill="#5cb38e" data-original="#5cb38e"></path>
        <path
            d="M183.446 357.629c0-.389.011-.776.016-1.164 19.89-5.104 59.341-6.589 86.794 22.587 20.006 21.261 22.901 44.204 20.755 62.502-3.846.156-7.866.236-12.073.236-88.86 0-95.492-35.332-95.492-84.161z"
            style="" fill="#9bdfc1" data-original="#9bdfc1"></path>
        <path
            d="M297.066 270.814c44.068 7.842 77.363 43.725 77.363 86.815 0 45.213-5.698 78.849-77.084 83.584 39.636-40.231 31.97-123.297-.279-170.399z"
            style="opacity:0.05;enable-background:new ;" fill="#000000" data-original="#000000"></path>
        <path
            d="M191.286 141.885a88.069 88.069 0 0 1 73.46-39.492h36.34c51.665 0 93.548 41.883 93.548 93.548v43.01c0 46.369-37.589 83.958-83.958 83.958H118.037c-34.736 0-62.895-28.159-62.895-62.895v-29.272c0-34.736 28.159-62.895 62.895-62.895h24.955a57.898 57.898 0 0 0 48.294-25.962z"
            style="" fill="#5cb38e" data-original="#5cb38e"></path>
        <path
            d="M130.485 284.699c-11.749 0-21.801-8.439-23.836-20.01l-1.116-6.345c-1.044-5.938 3.525-11.381 9.554-11.381h30.794c6.03 0 10.599 5.442 9.554 11.381l-1.116 6.345c-2.033 11.572-12.085 20.01-23.834 20.01z"
            style="" fill="#495059" data-original="#495059"></path>
        <g style="opacity:0.1;">
            <circle cx="343.82" cy="259.39" r="6.438" fill="#000000" data-original="#000000"></circle>
            <circle cx="298.05" cy="269.22" r="6.438" fill="#000000" data-original="#000000"></circle>
            <circle cx="324.24" cy="291.18" r="6.438" fill="#000000" data-original="#000000"></circle>
        </g>
        <ellipse cx="334.03" cy="171.35" rx="16.227" ry="8.325" style="" fill="#ffa8cb" data-original="#ffa8cb">
        </ellipse>
        <ellipse cx="225.09" cy="171.35" rx="16.227" ry="8.325" style="" fill="#ffa8cb" data-original="#ffa8cb">
        </ellipse>
        <path
            d="M313.443 162.343a7.5 7.5 0 0 1-7.5-7.5v-8.086c0-4.142 3.357-7.5 7.5-7.5s7.5 3.358 7.5 7.5v8.086a7.5 7.5 0 0 1-7.5 7.5zM245.674 162.343a7.5 7.5 0 0 1-7.5-7.5v-8.086c0-4.142 3.357-7.5 7.5-7.5s7.5 3.358 7.5 7.5v8.086a7.5 7.5 0 0 1-7.5 7.5z"
            style="" fill="#495059" data-original="#495059"></path>
        <circle cx="151" cy="200.7" r="6.438" style="" fill="#495059" data-original="#495059"></circle>
        <circle cx="109.97" cy="200.7" r="6.438" style="" fill="#495059" data-original="#495059"></circle>
        <path
            d="M321.868 104.713c41.662 9.451 72.766 46.705 72.766 91.227v43.01c0 46.369-37.589 83.958-83.958 83.958H259.73c74.195-43.169 86.771-161.836 62.138-218.195z"
            style="opacity:0.05;enable-background:new ;" fill="#000000" data-original="#000000"></path>
        <path
            d="M296.639 385.132a13.594 13.594 0 0 1-11.938-7.069c-3.605-6.586-1.189-14.848 5.397-18.454l.377-.206c3.156-1.721 11.539-6.291 17.618-14.11 4.609-5.929 13.15-6.996 19.077-2.387s6.997 13.15 2.388 19.078c-9.555 12.288-21.983 19.065-26.066 21.291l-.338.184a13.53 13.53 0 0 1-6.515 1.673z"
            style="" fill="#498a68" data-original="#498a68"></path>
        <path
            d="M119.644 368.685H87.846a9.204 9.204 0 0 1-9.099-7.82l-7.263-47.763c-1.028-6.76 4.204-12.848 11.042-12.848h42.44c6.837 0 12.07 6.088 11.042 12.848l-7.263 47.763a9.206 9.206 0 0 1-9.101 7.82z"
            style="" fill="#495059" data-original="#495059"></path>
        <path
            d="M138.042 341.97H69.449c-4.143 0-7.5-3.358-7.5-7.5s3.357-7.5 7.5-7.5h68.593a7.5 7.5 0 0 1 7.5 7.5 7.5 7.5 0 0 1-7.5 7.5z"
            style="" fill="#a3e3ff" data-original="#a3e3ff"></path>
        <path d="M90.97 368.69h25.554v104.07H90.97z" style="" fill="#959ba0" data-original="#959ba0"></path>
        <path
            d="M138.659 495.098H68.832c-3.411 0-5.627-3.591-4.098-6.64l2.318-4.621a20.09 20.09 0 0 1 17.957-11.082h37.473c7.6 0 14.55 4.289 17.957 11.082l2.318 4.621c1.529 3.049-.687 6.64-4.098 6.64zM33.987 269.362a7.542 7.542 0 0 1-1.644-.182l-22.064-4.934a7.5 7.5 0 0 1 3.273-14.639l22.064 4.934a7.5 7.5 0 0 1-1.629 14.821z"
            style="" fill="#a3e3ff" data-original="#a3e3ff"></path>
        <path
            d="M22.218 400.209a7.5 7.5 0 0 1-3.901-13.911l18.449-11.209a7.5 7.5 0 1 1 7.789 12.819l-18.449 11.21a7.47 7.47 0 0 1-3.888 1.091z"
            style="" fill="#ffa8cb" data-original="#ffa8cb"></path>
        <path
            d="M32.411 331.685H7.5c-4.143 0-7.5-3.358-7.5-7.5s3.357-7.5 7.5-7.5h24.911a7.5 7.5 0 0 1 7.5 7.5c0 4.143-3.357 7.5-7.5 7.5z"
            style="" fill="#a9a6de" data-original="#a9a6de"></path>
    </g>
</svg>