<svg xmlns="http://www.w3.org/2000/svg" version="1.1" xmlns:xlink="http://www.w3.org/1999/xlink"
    xmlns:svgjs="http://svgjs.com/svgjs" width="512" height="512" x="0" y="0" viewBox="0 0 512 512"
    style="enable-background:new 0 0 512 512" xml:space="preserve" class="">
    <g>
        <path
            d="m336.768 127.288-29.628-17.106 11.997-54.605a95.768 95.768 0 0 1 21.931-43.042C352.83-.707 372.281-3.856 387.619 5c15.338 8.856 22.337 27.275 16.749 44.081a95.755 95.755 0 0 1-26.31 40.514l-41.29 37.693z"
            style="" fill="#e5e5e5" data-original="#e5e5e5"></path>
        <path
            d="M405.959 33.933c-15.338-8.856-34.789-5.707-46.55 7.535a95.753 95.753 0 0 0-21.931 43.042l-8.421 38.326 7.711 4.452 41.291-37.692a95.77 95.77 0 0 0 26.31-40.514 37.201 37.201 0 0 0 1.756-15.048c-.056-.034-.11-.069-.166-.101z"
            style="" fill="#ffa8cb" data-original="#ffa8cb"></path>
        <path
            d="m212.403 127.288 29.628-17.106-11.997-54.605a95.76 95.76 0 0 0-21.932-43.042C196.341-.707 176.89-3.856 161.552 5c-15.338 8.856-22.337 27.275-16.749 44.081a95.762 95.762 0 0 0 26.309 40.514l41.291 37.693z"
            style="" fill="#e5e5e5" data-original="#e5e5e5"></path>
        <path
            d="M143.212 33.933c15.338-8.856 34.789-5.707 46.55 7.535a95.763 95.763 0 0 1 21.931 43.042l8.421 38.326-7.711 4.452-41.291-37.692a95.77 95.77 0 0 1-26.31-40.514 37.201 37.201 0 0 1-1.756-15.048c.056-.034.109-.069.166-.101z"
            style="" fill="#ffa8cb" data-original="#ffa8cb"></path>
        <path
            d="M132.162 403.986c-5.493 0-10.726-3.194-13.064-8.549-3.149-7.211.144-15.609 7.355-18.758 14.943-6.524 29.765-6.544 34.636-6.55l.401-.001h.043c7.849 0 14.223 6.351 14.246 14.204.024 7.868-6.336 14.266-14.205 14.29l-.448.001c-3.764.004-13.763.018-23.271 4.17a14.198 14.198 0 0 1-5.693 1.193z"
            style="" fill="#498a68" data-original="#498a68"></path>
        <path
            d="M260.605 447.142c66.486 0 142.999 0 199.012-35.761 9.585-6.12 4.042-20.899-7.23-19.394-44.358 5.922-81.617-5.37-102.863-23.66l-88.919 78.815z"
            style="" fill="#5cb38e" data-original="#5cb38e"></path>
        <path
            d="M374.603 383.415c-.741 21.233-4 42.427-17.089 60.049-32.411 3.677-65.761 3.678-96.909 3.678l88.919-78.815c6.809 5.862 15.272 11 25.079 15.088z"
            style="opacity:0.1;enable-background:new ;" fill="#000000" data-original="#000000"></path>
        <path
            d="M295.027 511.512c-6.729.001-13.368-3.087-17.665-8.919-21.874-29.695-10.363-81.604-10.237-82.116 2.904-11.751 14.782-18.931 26.536-16.022 11.751 2.902 18.925 14.78 16.023 26.533-2.255 9.279-3.494 36.826 2.973 45.604 7.18 9.747 5.099 23.468-4.648 30.648a21.822 21.822 0 0 1-12.982 4.272zM210.913 512c-8.381.001-16.38-4.832-20.022-12.977-15.15-33.882 2.204-80.908 2.389-81.361 4.568-11.21 17.357-16.595 28.569-12.027 11.208 4.567 16.593 17.352 12.031 28.561-2.624 6.628-8.673 34.179-2.97 46.934 4.941 11.051-.011 24.015-11.062 28.957a21.864 21.864 0 0 1-8.935 1.913z"
            style="" fill="#498a68" data-original="#498a68"></path>
        <path
            d="M221.849 405.634c-11.213-4.568-24.001.818-28.569 12.027-.135.332-9.454 25.582-8.522 52.38 12.605 4.765 27.637 7.764 45.4 9.088-4.355-13.43 1.227-38.633 3.722-44.934 4.562-11.208-.823-23.994-12.031-28.561zM309.684 430.988c2.902-11.752-4.272-23.63-16.023-26.533-11.754-2.909-23.632 4.27-26.536 16.022-.097.395-6.965 31.372-.062 59.145 16.799-.732 31.333-2.818 43.832-6.322-4.433-10.995-3.232-33.993-1.211-42.312z"
            style="opacity:0.1;enable-background:new ;" fill="#000000" data-original="#000000"></path>
        <path
            d="M152.746 369.807c0 51.171 6.951 88.197 100.071 88.197s100.071-37.026 100.071-88.197-44.803-92.653-100.071-92.653c-55.267.001-100.071 41.483-100.071 92.653z"
            style="" fill="#5cb38e" data-original="#5cb38e"></path>
        <path
            d="M152.746 369.807c0-.408.011-.813.017-1.22 20.843-5.349 62.187-6.905 90.957 23.67 20.965 22.281 23.999 46.324 21.75 65.499-4.03.164-8.244.247-12.652.247-93.121.001-100.072-37.025-100.072-88.196z"
            style="" fill="#9bdfc1" data-original="#9bdfc1"></path>
        <path
            d="M271.815 278.829c46.181 8.218 81.074 45.822 81.074 90.978 0 47.381-5.971 82.631-80.781 87.592 41.536-42.159 33.502-129.209-.293-178.57z"
            style="opacity:0.05;enable-background:new ;" fill="#000000" data-original="#000000"></path>
        <path
            d="M160.962 143.717a92.29 92.29 0 0 1 76.983-41.385h38.083c54.143 0 98.034 43.891 98.034 98.034v45.073c0 48.592-39.392 87.985-87.984 87.985H84.2c-36.402 0-65.911-29.51-65.911-65.911v-30.676c0-36.402 29.51-65.911 65.911-65.911h26.152a60.68 60.68 0 0 0 50.61-27.209z"
            style="" fill="#5cb38e" data-original="#5cb38e"></path>
        <path
            d="M97.245 288.157c-6.507 0-12.62-1.67-17.95-4.59V306.8a5.738 5.738 0 0 0 5.738 5.737h24.424a5.738 5.738 0 0 0 5.738-5.737v-23.233a37.24 37.24 0 0 1-17.95 4.59z"
            style="" fill="#ffffff" data-original="#ffffff"></path>
        <path
            d="M97.245 295.656a44.963 44.963 0 0 1-33.899-15.44 7.5 7.5 0 1 1 11.308-9.855c5.703 6.543 13.937 10.295 22.592 10.295s16.889-3.752 22.591-10.295a7.5 7.5 0 1 1 11.308 9.855 44.967 44.967 0 0 1-33.9 15.44z"
            style="" fill="#495059" data-original="#495059"></path>
        <g style="opacity:0.1;">
            <circle cx="320.81" cy="266.86" r="6.747" fill="#000000" data-original="#000000"></circle>
            <circle cx="272.84" cy="277.15" r="6.747" fill="#000000" data-original="#000000"></circle>
            <circle cx="300.29" cy="300.17" r="6.747" fill="#000000" data-original="#000000"></circle>
        </g>
        <ellipse cx="310.55" cy="174.59" rx="17" ry="8.724" style="" fill="#ffa8cb" data-original="#ffa8cb"></ellipse>
        <ellipse cx="196.39" cy="174.59" rx="17" ry="8.724" style="" fill="#ffa8cb" data-original="#ffa8cb"></ellipse>
        <path
            d="M288.978 164.797a7.5 7.5 0 0 1-7.5-7.5v-8.474c0-4.143 3.358-7.5 7.5-7.5s7.5 3.357 7.5 7.5v8.474a7.5 7.5 0 0 1-7.5 7.5zM217.959 164.797a7.5 7.5 0 0 1-7.5-7.5v-8.474c0-4.143 3.358-7.5 7.5-7.5s7.5 3.357 7.5 7.5v8.474a7.5 7.5 0 0 1-7.5 7.5z"
            style="" fill="#495059" data-original="#495059"></path>
        <circle cx="118.74" cy="205.35" r="6.747" style="" fill="#495059" data-original="#495059"></circle>
        <circle cx="75.75" cy="205.35" r="6.747" style="" fill="#495059" data-original="#495059"></circle>
        <path
            d="M297.806 104.763c43.66 9.905 76.255 48.945 76.255 95.602v45.073c0 48.592-39.392 87.985-87.984 87.985h-53.389c77.754-45.241 90.933-169.598 65.118-228.66z"
            style="opacity:0.05;enable-background:new ;" fill="#000000" data-original="#000000"></path>
        <path
            d="M275.554 400.635c-6.412 0-12.237-4.359-13.828-10.866-1.869-7.643 2.811-15.354 10.455-17.223l.393-.096c4.733-1.165 19.134-4.715 35.213-1.969 7.756 1.324 12.971 8.685 11.646 16.441-1.324 7.757-8.681 12.978-16.441 11.646-10.227-1.743-19.944.649-23.602 1.549l-.439.108c-1.138.278-2.276.41-3.397.41z"
            style="" fill="#498a68" data-original="#498a68"></path>
        <path
            d="M460.567 361.787c7.63-4.464 17.414-.411 19.653 8.141a4.923 4.923 0 0 0 3.515 3.515c8.552 2.239 12.605 12.023 8.141 19.653a4.923 4.923 0 0 0 0 4.971c4.464 7.63.411 17.414-8.141 19.653a4.923 4.923 0 0 0-3.515 3.515c-2.239 8.552-12.023 12.605-19.653 8.141a4.923 4.923 0 0 0-4.971 0c-7.63 4.464-17.414.411-19.653-8.141a4.923 4.923 0 0 0-3.515-3.515c-8.552-2.239-12.605-12.023-8.141-19.653a4.923 4.923 0 0 0 0-4.971c-4.464-7.63-.411-17.414 8.141-19.653a4.923 4.923 0 0 0 3.515-3.515c2.239-8.552 12.023-12.605 19.653-8.141a4.923 4.923 0 0 0 4.971 0z"
            style="" fill="#e5e5e5" data-original="#e5e5e5"></path>
    </g>
</svg>