<svg xmlns="http://www.w3.org/2000/svg" version="1.1" xmlns:xlink="http://www.w3.org/1999/xlink"
    xmlns:svgjs="http://svgjs.com/svgjs" width="512" height="512" x="0" y="0" viewBox="0 0 512 512"
    style="enable-background:new 0 0 512 512" xml:space="preserve" class="">
    <g>
        <path
            d="M196.016 368.039c-4.701 0-9.286-2.384-11.901-6.697-3.981-6.566-1.886-15.116 4.68-19.096 4.712-2.857 10.916-8.982 18.439-18.204l.483-.591c4.868-5.939 13.628-6.805 19.565-1.938 5.938 4.868 6.806 13.627 1.938 19.565l-.441.54c-6.168 7.561-15.53 18.318-25.57 24.405a13.834 13.834 0 0 1-7.193 2.016z"
            style="" fill="#498a68" data-original="#498a68"></path>
        <path
            d="M313.009 393.514c64.878 0 139.542 0 194.201-34.897 9.353-5.972 3.944-20.394-7.056-18.926-43.285 5.778-79.644-5.24-100.376-23.088l-86.769 76.911z"
            style="" fill="#5cb38e" data-original="#5cb38e"></path>
        <path
            d="M424.251 331.327c-.723 20.719-3.904 41.401-16.676 58.598-31.628 3.589-64.171 3.589-94.567 3.589l86.769-76.91c6.646 5.72 14.904 10.734 24.474 14.723z"
            style="opacity:0.1;enable-background:new ;" fill="#000000" data-original="#000000"></path>
        <path
            d="M342.054 456.799c-11.069.001-20.44-8.529-21.303-19.75-.263-3.424-1.634-58.154 4.132-72.304 4.46-10.94 16.944-16.19 27.88-11.736 10.492 4.277 15.754 15.933 12.234 26.53-1.533 7.896-2.415 43.541-1.593 54.23.905 11.778-7.909 22.06-19.686 22.966-.559.043-1.115.064-1.664.064zm22.453-75.933a.558.558 0 0 0-.009.023l.009-.023zm.566-1.697zM264.484 456.799c-11.068.001-20.439-8.528-21.303-19.748-.263-3.423-1.638-58.146 4.13-72.304 4.457-10.94 16.937-16.192 27.878-11.739 10.492 4.275 15.755 15.932 12.236 26.529-1.534 7.897-2.415 43.544-1.592 54.23.907 11.778-7.907 22.061-19.684 22.968a21.72 21.72 0 0 1-1.665.064zm22.453-75.936-.009.024.009-.024z"
            style="" fill="#498a68" data-original="#498a68"></path>
        <path
            d="M275.189 353.008c-10.942-4.453-23.421.799-27.878 11.739-3.66 8.985-4.443 34.302-4.46 52.482 12.025 4.041 26.175 6.565 42.687 7.649-.152-14.841.657-39.009 1.887-45.341 3.519-10.597-1.744-22.254-12.236-26.529zM352.762 353.009c-10.936-4.454-23.42.796-27.88 11.736-4.232 10.385-4.619 42.63-4.422 60.406 16.355-.779 30.5-2.884 42.635-6.393.076-14.635.828-33.701 1.9-39.219 3.521-10.598-1.741-22.253-12.233-26.53z"
            style="opacity:0.1;enable-background:new ;" fill="#000000" data-original="#000000"></path>
        <path
            d="M207.758 318.048c0 49.934 6.783 86.065 97.652 86.065s97.652-36.131 97.652-86.065-43.72-90.413-97.652-90.413-97.652 40.48-97.652 90.413z"
            style="" fill="#5cb38e" data-original="#5cb38e"></path>
        <path
            d="M207.758 318.048c0-.398.011-.793.016-1.19 20.339-5.22 60.683-6.738 88.758 23.098 20.458 21.742 23.419 45.204 21.224 63.916-3.933.16-8.044.241-12.346.241-90.87 0-97.652-36.131-97.652-86.065z"
            style="" fill="#9bdfc1" data-original="#9bdfc1"></path>
        <path
            d="M323.948 229.27c45.065 8.02 79.114 44.715 79.114 88.779 0 46.236-5.826 80.633-78.828 85.475 40.532-41.141 32.693-126.087-.286-174.254z"
            style="opacity:0.05;enable-background:new ;" fill="#000000" data-original="#000000"></path>
        <path
            d="M209.598 100.694a90.06 90.06 0 0 1 71.316-46.778l37.021-3.239c52.633-4.605 99.033 34.33 103.638 86.962l3.833 43.816c4.133 47.237-30.81 88.881-78.048 93.014l-196.246 17.169c-35.387 3.096-66.583-23.081-69.679-58.467l-2.609-29.82c-3.096-35.387 23.081-66.583 58.467-69.679l25.423-2.224a59.213 59.213 0 0 0 46.884-30.754z"
            style="" fill="#5cb38e" data-original="#5cb38e"></path>
        <g style="opacity:0.1;">
            <circle cx="375.46" cy="206.809" r="6.584" fill="#000000" data-original="#000000"></circle>
            <circle cx="329.71" cy="220.899" r="6.584" fill="#000000" data-original="#000000"></circle>
            <circle cx="358.35" cy="240.929" r="6.584" fill="#000000" data-original="#000000"></circle>
        </g>
        <ellipse cx="346.269" cy="123.143" rx="8.513" ry="16.594" style="" transform="rotate(84.997 346.267 123.144)"
            fill="#ffa8cb" data-original="#ffa8cb"></ellipse>
        <ellipse cx="235.307" cy="132.827" rx="8.513" ry="16.594" style="" transform="rotate(-95.003 235.306 132.825)"
            fill="#ffa8cb" data-original="#ffa8cb"></ellipse>
        <path
            d="M323.826 115.651a7.5 7.5 0 0 1-7.463-6.847l-.721-8.237a7.5 7.5 0 0 1 6.818-8.125c4.127-.366 7.764 2.692 8.125 6.818l.721 8.237a7.5 7.5 0 0 1-7.48 8.154zM254.788 121.691a7.5 7.5 0 0 1-7.463-6.847l-.72-8.237a7.5 7.5 0 0 1 6.818-8.125c4.121-.353 7.764 2.691 8.125 6.818l.72 8.237a7.5 7.5 0 0 1-7.48 8.154zM158.139 250.815a24.922 24.922 0 0 1-17.291-6.98 7.499 7.499 0 0 1-.198-10.604 7.497 7.497 0 0 1 10.605-.198 9.906 9.906 0 0 0 14.902-1.305 7.5 7.5 0 0 1 12.123 8.834 24.923 24.923 0 0 1-20.141 10.253z"
            style="" fill="#495059" data-original="#495059"></path>
        <circle cx="173.8" cy="164.199" r="6.584" style="" fill="#495059" data-original="#495059"></circle>
        <circle cx="132" cy="167.859" r="6.584" style="" fill="#495059" data-original="#495059"></circle>
        <path
            d="M339.314 51.188c43.285 5.915 78.291 41.095 82.259 86.451l3.833 43.816c4.133 47.237-30.81 88.881-78.048 93.014l-51.9 4.541c71.738-50.593 73.973-172.603 43.856-227.822z"
            style="opacity:0.05;enable-background:new ;" fill="#000000" data-original="#000000"></path>
        <path
            d="M62.636 461.694H6.746A6.746 6.746 0 0 1 0 454.948V348.406a6.746 6.746 0 0 1 6.746-6.746h55.89v120.034zM185.561 461.694h-83.14V341.661h83.14a6.746 6.746 0 0 1 6.746 6.746v106.542a6.747 6.747 0 0 1-6.746 6.745z"
            style="" fill="#a3e3ff" data-original="#a3e3ff"></path>
        <path d="M62.64 341.66h39.785v120.03H62.64z" style="" fill="#80b0e3" data-original="#80b0e3"></path>
        <path
            d="M178.135 341.661v-16.123a5.716 5.716 0 0 0-3.419-5.241c-21.936-9.594-80.613-7.931-92.187 1.777-8.609-9.639-49.126-11.347-65.475-1.981a5.727 5.727 0 0 0-2.882 4.971v16.596l163.963.001z"
            style="" fill="#e5e5e5" data-original="#e5e5e5"></path>
        <path
            d="M187.352 383.125h-15.216a4.954 4.954 0 0 0-4.954 4.954v27.195a4.954 4.954 0 0 0 4.954 4.954h15.216a4.954 4.954 0 0 0 4.954-4.954v-27.195a4.953 4.953 0 0 0-4.954-4.954zM20.17 383.125H4.954A4.954 4.954 0 0 0 0 388.079v27.195a4.954 4.954 0 0 0 4.954 4.954H20.17a4.954 4.954 0 0 0 4.954-4.954v-27.195a4.953 4.953 0 0 0-4.954-4.954z"
            style="" fill="#495059" data-original="#495059"></path>
        <path
            d="M192.311 409.178a7.5 7.5 0 0 1-3.141-14.314l103.227-47.526c3.764-1.732 8.217-.087 9.949 3.676s.087 8.217-3.676 9.949L195.443 408.49a7.478 7.478 0 0 1-3.132.688z"
            style="" fill="#495059" data-original="#495059"></path>
        <path
            d="M295.547 368.056c-4.589 0-9.08-2.269-11.732-6.423-4.132-6.472-2.235-15.068 4.236-19.2 7.516-4.799 12.424-12.33 14.139-16.024 3.234-6.964 11.5-9.987 18.465-6.755 6.964 3.233 9.988 11.501 6.755 18.465-3.884 8.365-12.332 20.049-24.395 27.75a13.837 13.837 0 0 1-7.468 2.187z"
            style="" fill="#498a68" data-original="#498a68"></path>
    </g>
</svg>