<svg xmlns="http://www.w3.org/2000/svg" version="1.1" xmlns:xlink="http://www.w3.org/1999/xlink"
    xmlns:svgjs="http://svgjs.com/svgjs" width="512" height="512" x="0" y="0" viewBox="0 0 512 512"
    style="enable-background:new 0 0 512 512" xml:space="preserve" class="">
    <g>
        <path
            d="M75.621 69.499c0 24.288 9.027 45.11 21.502 60.287 4.918 5.984 12.292 9.408 20.035 9.203 65.268-1.724 95.232-43.997 111.547-69.49C212.39 44.006 182.426 1.732 117.158.009c-7.743-.205-15.117 3.219-20.035 9.203-12.475 15.177-21.502 35.999-21.502 60.287zM381.79 69.499c0 24.288-9.027 45.11-21.502 60.287-4.918 5.984-12.292 9.408-20.036 9.203-65.268-1.724-95.232-43.997-111.547-69.49C245.021 44.006 274.984 1.732 340.252.009c7.743-.205 15.117 3.219 20.036 9.203 12.475 15.177 21.502 35.999 21.502 60.287z"
            style="" fill="#cd5b5b" data-original="#cd5b5b"></path>
        <path
            d="M300.567 49.639c14.777 0 26.756-11.979 26.756-26.756 0-8.234-3.726-15.593-9.577-20.501-17.468 3.323-31.853 9.805-43.797 17.782-.09.894-.137 1.801-.137 2.718 0 14.778 11.979 26.757 26.755 26.757zM381.456 61.688c-4.657-3.959-10.676-6.36-17.271-6.36-14.777 0-26.756 11.979-26.756 26.755 0 14.777 11.979 26.756 26.756 26.756 3.54 0 6.908-.709 9.998-1.963 4.737-11.098 7.607-23.687 7.607-37.378 0-2.647-.126-5.247-.334-7.81z"
            style="" fill="#fae17c" data-original="#fae17c"></path>
        <path
            d="M270.526 87.971c-.265 0-.531-.015-.8-.043-7.716-.818-29.549-4.88-44.161-11.618a7.5 7.5 0 0 1 0-13.622c14.609-6.737 36.443-10.8 44.161-11.618a7.5 7.5 0 0 1 1.582 14.916c-3.842.408-10.951 1.649-18.591 3.513 7.641 1.863 14.749 3.105 18.591 3.513a7.5 7.5 0 0 1-.782 14.959z"
            style="opacity:0.1;enable-background:new ;" fill="#000000" data-original="#000000"></path>
        <path
            d="M186.885 87.971a7.5 7.5 0 0 1-.782-14.959c3.842-.407 10.95-1.649 18.591-3.513-7.641-1.863-14.749-3.104-18.591-3.513a7.5 7.5 0 0 1-6.667-8.249 7.496 7.496 0 0 1 8.249-6.667c7.718.818 29.552 4.881 44.161 11.618a7.502 7.502 0 0 1 0 13.622c-14.612 6.738-36.444 10.8-44.161 11.618a7.701 7.701 0 0 1-.8.043z"
            style="opacity:0.1;enable-background:new ;" fill="#000000" data-original="#000000"></path>
        <path
            d="M257.98 69.499c0-10.984-5.384-17.452-13.501-20.685-1.019-.406-1.81-1.196-2.412-2.112-2.864-4.36-9.93-4.704-13.361-4.704s-10.497.344-13.361 4.704c-.602.917-1.393 1.706-2.412 2.112-8.118 3.233-13.501 9.701-13.501 20.685s5.383 17.452 13.501 20.685c1.019.406 1.81 1.196 2.412 2.112 2.864 4.36 9.931 4.704 13.361 4.704 3.431 0 10.497-.344 13.361-4.704.602-.916 1.393-1.706 2.412-2.112 8.117-3.233 13.501-9.701 13.501-20.685z"
            style="" fill="#cd5b5b" data-original="#cd5b5b"></path>
        <path
            d="M160.624 84.084c-14.777 0-26.756 11.979-26.756 26.756 0 10.363 5.903 19.331 14.519 23.775 15.145-4.018 27.773-10.464 38.366-18.063a26.81 26.81 0 0 0 .626-5.712c.001-14.777-11.978-26.756-26.755-26.756zM97.122 9.212a94.603 94.603 0 0 0-12.08 18.932c4.822 7.027 12.904 11.641 22.07 11.641 14.777 0 26.756-11.979 26.756-26.756 0-4.311-1.044-8.369-2.855-11.975A144.31 144.31 0 0 0 117.157.009c-7.742-.205-15.116 3.219-20.035 9.203z"
            style="" fill="#fae17c" data-original="#fae17c"></path>
        <path
            d="M358.624 418.302c-5.242 0-10.313-2.816-12.956-7.763-5.037-9.424-13.112-15.819-16.152-18.225l-.363-.288c-6.346-5.043-7.403-14.275-2.361-20.621 5.042-6.348 14.275-7.402 20.62-2.361l.325.258c3.934 3.115 15.904 12.593 23.819 27.404 3.821 7.148 1.122 16.04-6.026 19.861a14.63 14.63 0 0 1-6.906 1.735z"
            style="" fill="#498a68" data-original="#498a68"></path>
        <path
            d="M236.224 445.193c-68.489 0-147.306 0-205.007-36.839-9.874-6.304-4.163-21.529 7.448-19.979 45.694 6.1 84.076-5.531 105.962-24.372l91.597 81.19z"
            style="" fill="#5cb38e" data-original="#5cb38e"></path>
        <path
            d="M118.792 379.547c.763 21.872 4.121 43.705 17.603 61.858 33.388 3.788 67.742 3.789 99.829 3.789l-91.597-81.19c-7.015 6.039-15.732 11.331-25.835 15.543z"
            style="opacity:0.1;enable-background:new ;" fill="#000000" data-original="#000000"></path>
        <path
            d="M205.54 512a22.508 22.508 0 0 1-16.108-6.756c-8.739-8.895-8.612-23.191.283-31.93 5.571-5.473 8.924-14.876 8.542-23.955-.249-5.922-2.087-9.576-3.188-10.489-9.597-7.961-10.923-22.195-2.962-31.793 7.962-9.597 22.196-10.924 31.794-2.961 11.794 9.784 18.711 25.177 19.474 43.346.921 21.913-7.308 43.62-22.013 58.067A22.512 22.512 0 0 1 205.54 512zM319.895 505.146c-12.47 0-22.579-10.109-22.579-22.579 0-4.705-2.459-13.683-7.951-23.131-5.417-9.318-11.047-14.284-13.324-15.224-11.524-4.764-17.005-17.968-12.241-29.493 4.764-11.523 17.967-17.005 29.492-12.241 27.698 11.449 49.182 52.454 49.182 80.089 0 12.47-10.109 22.579-22.579 22.579z"
            style="" fill="#498a68" data-original="#498a68"></path>
        <path
            d="M293.293 402.478c-11.525-4.764-24.728.718-29.492 12.241-4.763 11.524.717 24.729 12.241 29.493 2.277.94 7.907 5.906 13.324 15.224 3.074 5.288 5.196 10.427 6.47 14.753 17.011-3.721 30.732-9.661 41.594-17.953-7.93-22.576-24.461-45.625-44.137-53.758zM223.901 404.115c-9.598-7.962-23.832-6.636-31.794 2.961-7.962 9.598-6.635 23.832 2.962 31.793 1.101.913 2.939 4.568 3.188 10.489.382 9.079-2.971 18.482-8.542 23.955-.055.054-.1.114-.155.168 13.899 3.341 30.086 5.122 48.803 5.427 3.683-9.868 5.466-20.63 5.012-31.447-.763-18.169-7.68-33.563-19.474-43.346z"
            style="opacity:0.1;enable-background:new ;" fill="#000000" data-original="#000000"></path>
        <path
            d="M347.332 365.529c0 52.712-7.16 90.854-103.086 90.854S141.16 418.241 141.16 365.529s46.153-95.444 103.086-95.444 103.086 42.732 103.086 95.444z"
            style="" fill="#5cb38e" data-original="#5cb38e"></path>
        <path
            d="M347.332 365.529c0-.42-.011-.838-.017-1.257-21.471-5.51-64.06-7.113-93.697 24.383-21.597 22.952-24.722 47.719-22.405 67.472 4.152.169 8.492.255 13.033.255 95.926.001 103.086-38.141 103.086-90.853z"
            style="" fill="#9bdfc1" data-original="#9bdfc1"></path>
        <path
            d="M224.676 271.81c-47.573 8.466-83.516 47.203-83.516 93.719 0 48.809 6.151 85.12 83.215 90.231-42.788-43.43-34.512-133.102.301-183.95z"
            style="opacity:0.05;enable-background:new ;" fill="#000000" data-original="#000000"></path>
        <path
            d="M338.869 132.628a95.072 95.072 0 0 0-79.302-42.632h-39.23c-55.774 0-100.987 45.214-100.987 100.987v46.43c0 50.056 40.579 90.635 90.635 90.635h207.958c37.498 0 67.897-30.398 67.897-67.897v-31.6c0-37.498-30.398-67.897-67.897-67.897h-26.94a62.498 62.498 0 0 1-52.134-28.026z"
            style="" fill="#5cb38e" data-original="#5cb38e"></path>
        <path
            d="M404.505 298.589c-14.789 0-26.779-11.989-26.779-26.779v-14.414c0-6.829 5.536-12.365 12.365-12.365h28.827c6.829 0 12.365 5.536 12.365 12.365v14.414c.001 14.79-11.989 26.779-26.778 26.779z"
            style="" fill="#495059" data-original="#495059"></path>
        <g style="opacity:0.1;">
            <circle cx="174.21" cy="259.48" r="6.95" fill="#000000" data-original="#000000"></circle>
            <circle cx="223.62" cy="270.08" r="6.95" fill="#000000" data-original="#000000"></circle>
            <circle cx="195.34" cy="293.79" r="6.95" fill="#000000" data-original="#000000"></circle>
        </g>
        <ellipse cx="184.77" cy="164.43" rx="17.517" ry="8.987" style="" fill="#ffa8cb" data-original="#ffa8cb">
        </ellipse>
        <ellipse cx="302.38" cy="164.43" rx="17.518" ry="8.987" style="" fill="#ffa8cb" data-original="#ffa8cb">
        </ellipse>
        <path
            d="M280.155 154.116a7.5 7.5 0 0 1-7.5-7.5v-8.729c0-4.143 3.358-7.5 7.5-7.5s7.5 3.357 7.5 7.5v8.729a7.5 7.5 0 0 1-7.5 7.5zM219.429 154.88a7.5 7.5 0 0 1-7.5-7.5c0-2.72-2.212-4.933-4.932-4.933s-4.932 2.213-4.932 4.933c0 4.143-3.358 7.5-7.5 7.5s-7.5-3.357-7.5-7.5c0-10.991 8.941-19.933 19.932-19.933s19.932 8.941 19.932 19.933a7.5 7.5 0 0 1-7.5 7.5z"
            style="" fill="#495059" data-original="#495059"></path>
        <circle cx="382.36" cy="196.12" r="6.95" style="" fill="#495059" data-original="#495059"></circle>
        <circle cx="426.65" cy="196.12" r="6.95" style="" fill="#495059" data-original="#495059"></circle>
        <path
            d="M197.902 92.501c-44.975 10.203-78.552 50.42-78.552 98.482v46.43c0 50.056 40.579 90.635 90.635 90.635h54.997c-80.096-46.603-93.672-174.707-67.08-235.547z"
            style="opacity:0.05;enable-background:new ;" fill="#000000" data-original="#000000"></path>
        <path
            d="M254.685 418.319c-5.245 0-10.316-2.818-12.959-7.767-5.035-9.43-13.115-15.828-16.158-18.237l-.366-.29c-6.346-5.042-7.403-14.274-2.36-20.621 5.042-6.346 14.275-7.402 20.621-2.359l.327.258c3.936 3.118 15.915 12.603 23.829 27.424 3.818 7.151 1.116 16.041-6.034 19.859a14.602 14.602 0 0 1-6.9 1.733z"
            style="" fill="#498a68" data-original="#498a68"></path>
    </g>
</svg>