<svg xmlns="http://www.w3.org/2000/svg" version="1.1" xmlns:xlink="http://www.w3.org/1999/xlink"
    xmlns:svgjs="http://svgjs.com/svgjs" width="512" height="512" x="0" y="0" viewBox="0 0 512 512"
    style="enable-background:new 0 0 512 512" xml:space="preserve" class="">
    <g>
        <path
            d="M175.14 342.511c0 48.791 6.627 84.095 95.417 84.095s95.417-35.304 95.417-84.095-42.72-88.344-95.417-88.344-95.417 39.553-95.417 88.344z"
            style="" fill="#5cb38e" data-original="#5cb38e"></path>
        <path
            d="M175.14 342.511c0-.389.01-.775.016-1.163 19.874-5.1 59.294-6.583 86.726 22.57 19.99 21.244 22.883 44.169 20.739 62.453-3.843.156-7.86.236-12.064.236-88.79-.001-95.417-35.306-95.417-84.096z"
            style="" fill="#9bdfc1" data-original="#9bdfc1"></path>
        <path
            d="M288.671 255.764c44.034 7.836 77.303 43.691 77.303 86.747 0 45.178-5.693 78.788-77.024 83.518 39.605-40.199 31.945-123.2-.279-170.265z"
            style="opacity:0.05;enable-background:new ;" fill="#000000" data-original="#000000"></path>
        <path
            d="M182.974 126.935a88 88 0 0 1 73.402-39.461h36.312c51.625 0 93.474 41.85 93.474 93.475v42.976c0 46.332-37.56 83.892-83.892 83.892H109.782c-34.709 0-62.846-28.137-62.846-62.846v-29.249c0-34.709 28.137-62.846 62.846-62.846h24.936a57.848 57.848 0 0 0 48.256-25.941z"
            style="" fill="#5cb38e" data-original="#5cb38e"></path>
        <g style="opacity:0.1;">
            <circle cx="335.39" cy="244.35" r="6.433" fill="#000000" data-original="#000000"></circle>
            <circle cx="289.65" cy="254.17" r="6.433" fill="#000000" data-original="#000000"></circle>
            <circle cx="315.82" cy="276.11" r="6.433" fill="#000000" data-original="#000000"></circle>
        </g>
        <ellipse cx="317.25" cy="156.38" rx="16.214" ry="8.318" style="" fill="#ffa8cb" data-original="#ffa8cb">
        </ellipse>
        <ellipse cx="208.39" cy="156.38" rx="16.214" ry="8.318" style="" fill="#ffa8cb" data-original="#ffa8cb">
        </ellipse>
        <path
            d="M237.265 146.591a7.5 7.5 0 0 1-7.5-7.5 3.12 3.12 0 0 0-3.117-3.117 3.12 3.12 0 0 0-3.117 3.117c0 4.142-3.357 7.5-7.5 7.5s-7.5-3.358-7.5-7.5c0-9.99 8.127-18.117 18.117-18.117s18.117 8.127 18.117 18.117a7.5 7.5 0 0 1-7.5 7.5zM309.605 146.591a7.5 7.5 0 0 1-7.5-7.5c0-1.719-1.398-3.117-3.117-3.117s-3.117 1.398-3.117 3.117c0 4.142-3.357 7.5-7.5 7.5s-7.5-3.358-7.5-7.5c0-9.99 8.127-18.117 18.117-18.117s18.117 8.127 18.117 18.117a7.5 7.5 0 0 1-7.5 7.5zM122.22 268.946a24.514 24.514 0 0 1-18.486-8.419 7.5 7.5 0 0 1 11.309-9.855c1.813 2.08 4.429 3.273 7.178 3.273s5.366-1.193 7.179-3.273a7.5 7.5 0 0 1 11.309 9.855 24.526 24.526 0 0 1-18.489 8.419z"
            style="" fill="#495059" data-original="#495059"></path>
        <circle cx="142.72" cy="185.7" r="6.433" style="" fill="#495059" data-original="#495059"></circle>
        <circle cx="101.72" cy="185.7" r="6.433" style="" fill="#495059" data-original="#495059"></circle>
        <path
            d="M313.453 89.793c41.629 9.444 72.708 46.669 72.708 91.156v42.976c0 46.332-37.56 83.892-83.892 83.892h-50.906c74.138-43.135 86.704-161.709 62.09-218.024z"
            style="opacity:0.05;enable-background:new ;" fill="#000000" data-original="#000000"></path>
        <path
            d="M199.118 102.381c-30.365-11.182-19.196-37.675-3.451-42.824 3.086-1.009 4.6-4.605 3.159-7.514-7.023-14.173-.951-33.86 13.692-42.124 16.191-9.138 35.049-3.108 46.332 6.162 2.453 2.015 6.103 1.47 7.928-1.127 8.38-11.925 20.891-16.852 36.83-14.298 13.694 2.194 22.153 9.964 24.161 23.7.516 3.527 4.211 5.504 7.534 4.217 9.059-3.508 19.693-.125 25.996 6.735 8.738 9.511 6.998 20.908 3.47 26.932-1.378 2.352-.966 5.379 1.163 7.082 9.208 7.369 12.509 24.878-.974 38.85l-165.84-5.791z"
            style="" fill="#e5e5e5" data-original="#e5e5e5"></path>
        <path
            d="M241.678 51.907c-14.62-6.348-21.43-32.313-9.948-46.476-6.412-.282-13.008.986-19.213 4.488-14.643 8.264-20.716 27.951-13.692 42.124 1.442 2.91-.072 6.505-3.159 7.514-15.745 5.15-26.914 31.642 3.451 42.824l67.474 2.356c-27.403-9.456-28.067-34.685-22.518-46.472a4.73 4.73 0 0 0-2.395-6.358z"
            style="opacity:0.05;enable-background:new ;" fill="#000000" data-original="#000000"></path>
        <path
            d="M373.828 115.982c-.089 0-.178-.001-.267-.004l-191.685-6.694a7.5 7.5 0 0 1 .257-14.995c.089 0 .178.002.267.004l191.686 6.694a7.5 7.5 0 0 1-.258 14.995z"
            style="" fill="#a3e3ff" data-original="#a3e3ff"></path>
        <g style="opacity:0.1;">
            <path
                d="M241.94 78.864a7.498 7.498 0 0 1-6.429-3.626c-2.55-4.227-9.626-7.817-11.721-7.966a7.493 7.493 0 0 1-7.226-7.756c.146-4.14 3.603-7.363 7.766-7.234 7.16.25 18.955 6.806 24.024 15.206a7.5 7.5 0 0 1-2.547 10.296 7.45 7.45 0 0 1-3.867 1.08zM270.949 54.486l-.236-.003a7.5 7.5 0 0 1-7.264-7.729c.198-6.408 11.91-18.141 19.892-19.928a7.496 7.496 0 0 1 8.958 5.681 7.5 7.5 0 0 1-5.681 8.957c-1.567.351-6.693 4.66-8.488 7.68a7.504 7.504 0 0 1-7.181 5.342zm7.492-7.267v.009-.009zM334.483 76.054a7.468 7.468 0 0 1-4.46-1.475c-1.981-1.469-9.692-3.444-16.343-2.26a7.497 7.497 0 0 1-8.697-6.072 7.5 7.5 0 0 1 6.072-8.697c9.581-1.702 21.837.483 27.899 4.978a7.499 7.499 0 0 1 1.559 10.491 7.485 7.485 0 0 1-6.03 3.035z"
                fill="#000000" data-original="#000000"></path>
        </g>
        <path
            d="M464.466 376.236a10.17 10.17 0 0 1-4.217-9.738c.432-3.104.659-6.273.659-9.496 0-38.287-31.038-69.325-69.325-69.325-5.975 0-11.77.765-17.299 2.19-2.633.679-5.422.347-7.882-.812a46.059 46.059 0 0 0-19.687-4.393c-17.433 0-32.608 9.639-40.502 23.876-2.268 4.091-6.725 6.424-11.39 6.074a69.082 69.082 0 0 0-5.169-.194c-19.511 0-37.13 8.067-49.726 21.041a10.437 10.437 0 0 1-12.277 2.017c-9.475-4.862-20.215-7.608-31.598-7.608-15.567 0-29.932 5.136-41.502 13.801-2.979 2.23-6.952 2.707-10.385 1.271a67.115 67.115 0 0 0-25.972-5.198c-34.118 0-62.308 25.353-66.772 58.246-.451 3.322-2.525 6.164-5.489 7.732-17.763 9.396-29.908 27.994-30.067 49.45-.234 31.466 25.862 56.83 57.33 56.83h347.256c40.998 0 75.091-32.625 75.677-73.619.367-25.68-12.233-48.426-31.663-62.145z"
            style="" fill="#a3e3ff" data-original="#a3e3ff"></path>
        <circle cx="447.76" cy="237.92" r="29.394" style="" fill="#a3e3ff" data-original="#a3e3ff"></circle>
        <circle cx="96.26" cy="99.19" r="19.998" style="" fill="#a3e3ff" data-original="#a3e3ff"></circle>
        <g style="opacity:0.1;">
            <path
                d="M108.17 467.974a7.501 7.501 0 0 1-7.404-6.366c-3.081-20.134 10.791-39.021 30.925-42.103 20.141-3.083 39.021 10.792 42.104 30.924a7.5 7.5 0 0 1-6.279 8.548c-4.096.63-7.921-2.184-8.549-6.279-1.829-11.958-13.05-20.198-25.006-18.367-11.958 1.831-20.197 13.048-18.366 25.006a7.5 7.5 0 0 1-6.279 8.548 7.45 7.45 0 0 1-1.146.089zM365.785 461.937a7.488 7.488 0 0 1-5.968-2.95c-12.357-16.191-9.238-39.418 6.953-51.775 16.188-12.357 39.417-9.24 51.774 6.953a7.5 7.5 0 0 1-1.412 10.512 7.5 7.5 0 0 1-10.512-1.412c-7.341-9.617-21.136-11.468-30.751-4.129-9.616 7.339-11.469 21.134-4.129 30.751a7.5 7.5 0 0 1-5.955 12.05zM273.586 407.916a7.5 7.5 0 0 1-7.121-9.86c2.393-7.224-1.538-15.048-8.763-17.44-7.225-2.393-15.048 1.539-17.44 8.763a7.5 7.5 0 0 1-14.239-4.717c4.993-15.075 21.318-23.276 36.395-18.285 15.076 4.993 23.279 21.32 18.287 36.396a7.505 7.505 0 0 1-7.119 5.143z"
                fill="#000000" data-original="#000000"></path>
        </g>
    </g>
</svg>