<svg xmlns="http://www.w3.org/2000/svg" version="1.1" xmlns:xlink="http://www.w3.org/1999/xlink"
    xmlns:svgjs="http://svgjs.com/svgjs" width="512" height="512" x="0" y="0" viewBox="0 0 512 512"
    style="enable-background:new 0 0 512 512" xml:space="preserve" class="">
    <g>
        <ellipse cx="187.779" cy="368.418" rx="37.1" ry="41.714" style="" transform="rotate(-45.001 187.776 368.422)"
            fill="#806c6c" data-original="#806c6c"></ellipse>
        <path
            d="M314.258 406.632c64.471 0 138.666 0 192.982-34.678 9.295-5.934 3.919-20.266-7.011-18.807-43.013 5.742-79.144-5.207-99.746-22.943l-86.225 76.428z"
            style="" fill="#5cb38e" data-original="#5cb38e" class=""></path>
        <path
            d="M424.802 344.836c-.719 20.589-3.879 41.141-16.571 58.23-31.429 3.566-63.768 3.566-93.973 3.566l86.224-76.427c6.604 5.684 14.81 10.666 24.32 14.631z"
            style="opacity:0.1;enable-background:new ;" fill="#000000" data-original="#000000" class=""></path>
        <path
            d="M343.121 469.52c-10.999.001-20.311-8.475-21.169-19.624-.262-3.402-1.627-57.781 4.104-71.85 4.429-10.871 16.831-16.091 27.703-11.665 10.426 4.248 15.657 15.832 12.159 26.363-1.525 7.847-2.399 43.271-1.582 53.89.901 11.704-7.857 21.923-19.561 22.824-.555.042-1.107.062-1.654.062zm22.312-75.46-.009.024.009-.024zM266.037 469.52c-10.999.001-20.311-8.475-21.169-19.624-.262-3.403-1.627-57.784 4.106-71.852 4.431-10.87 16.836-16.088 27.705-11.662 10.426 4.25 15.656 15.833 12.157 26.364-1.525 7.849-2.401 43.269-1.583 53.888.901 11.704-7.857 21.923-19.561 22.824-.556.042-1.108.062-1.655.062zm22.311-75.456-.008.023.008-.023z"
            style="" fill="#498a68" data-original="#498a68"></path>
        <path
            d="M276.678 366.382c-10.868-4.426-23.273.792-27.705 11.662-3.638 8.928-4.417 34.089-4.434 52.155 11.95 4.016 26.01 6.524 42.419 7.601-.151-14.747.654-38.76 1.876-45.054 3.499-10.531-1.73-22.114-12.156-26.364zM353.759 366.381c-10.872-4.426-23.274.794-27.703 11.665-4.206 10.326-4.59 42.362-4.392 60.025 16.252-.774 30.309-2.866 42.367-6.353.075-14.542.822-33.49 1.887-38.974 3.497-10.531-1.733-22.115-12.159-26.363z"
            style="opacity:0.1;enable-background:new ;" fill="#000000" data-original="#000000" class=""></path>
        <path
            d="M209.667 331.64c0 49.62 6.74 85.525 97.039 85.525s97.039-35.905 97.039-85.525-43.446-89.845-97.039-89.845-97.039 40.225-97.039 89.845z"
            style="" fill="#5cb38e" data-original="#5cb38e" class=""></path>
        <path
            d="M209.667 331.64c0-.395.011-.788.016-1.183 20.212-5.187 60.302-6.695 88.201 22.953 20.33 21.605 23.272 44.92 21.091 63.514-3.908.159-7.994.24-12.269.24-90.299.001-97.039-35.904-97.039-85.524z"
            style="" fill="#9bdfc1" data-original="#9bdfc1"></path>
        <path
            d="M325.129 243.419c44.782 7.969 78.617 44.434 78.617 88.221 0 45.946-5.79 80.127-78.333 84.938 40.277-40.882 32.487-125.294-.284-173.159z"
            style="opacity:0.05;enable-background:new ;" fill="#000000" data-original="#000000" class=""></path>
        <path
            d="M217.634 112.4a89.495 89.495 0 0 1 74.65-40.132h36.929c52.502 0 95.064 42.561 95.064 95.064v43.707c0 47.12-38.199 85.319-85.319 85.319h-195.76c-35.299 0-63.914-28.615-63.914-63.914v-29.746c0-35.299 28.615-63.914 63.914-63.914h25.36a58.839 58.839 0 0 0 49.076-26.384z"
            style="" fill="#5cb38e" data-original="#5cb38e" class=""></path>
        <g style="opacity:0.1;">
            <circle cx="372.64" cy="231.81" r="6.542" fill="#000000" data-original="#000000" class=""></circle>
            <circle cx="326.13" cy="241.79" r="6.542" fill="#000000" data-original="#000000" class=""></circle>
            <circle cx="352.74" cy="264.11" r="6.542" fill="#000000" data-original="#000000" class=""></circle>
        </g>
        <ellipse cx="362.69" cy="142.34" rx="16.49" ry="8.46" style="" fill="#ffa8cb" data-original="#ffa8cb"></ellipse>
        <ellipse cx="251.99" cy="142.34" rx="16.49" ry="8.46" style="" fill="#ffa8cb" data-original="#ffa8cb"></ellipse>
        <path
            d="M341.771 133.069a7.499 7.499 0 0 1-7.5-7.5v-8.217c0-4.143 3.357-7.5 7.5-7.5s7.5 3.357 7.5 7.5v8.217a7.5 7.5 0 0 1-7.5 7.5zM272.904 133.069a7.499 7.499 0 0 1-7.5-7.5v-8.217c0-4.143 3.357-7.5 7.5-7.5s7.5 3.357 7.5 7.5v8.217a7.5 7.5 0 0 1-7.5 7.5zM155.848 256.698a24.81 24.81 0 0 1-18.705-8.518 7.5 7.5 0 0 1 11.309-9.855 9.808 9.808 0 0 0 7.396 3.374 9.81 9.81 0 0 0 7.396-3.373 7.498 7.498 0 0 1 10.581-.728 7.5 7.5 0 0 1 .728 10.581 24.81 24.81 0 0 1-18.705 8.519z"
            style="" fill="#495059" data-original="#495059"></path>
        <circle cx="176.69" cy="172.17" r="6.542" style="" fill="#495059" data-original="#495059"></circle>
        <circle cx="135" cy="172.17" r="6.542" style="" fill="#495059" data-original="#495059"></circle>
        <path
            d="M350.332 74.627c42.337 9.604 73.944 47.462 73.944 92.705v43.707c0 47.12-38.199 85.319-85.319 85.319h-51.771c75.399-43.87 88.179-164.459 63.146-221.731z"
            style="opacity:0.05;enable-background:new ;" fill="#000000" data-original="#000000" class=""></path>
        <path
            d="M156.244 349.927c2.095-15.518-9.172-29.712-24.69-31.81-26.485-3.582-45.906 2.438-64.571 19.562-2.974 2.728-2.079 7.558 1.621 9.169 15.169 6.606 27.258 23.252 55.742 27.255 15.488 2.177 29.803-8.657 31.898-24.176z"
            style="" fill="#fae17c" data-original="#fae17c"></path>
        <path
            d="m293.459 386.955-41.403 1.942a234.696 234.696 0 0 1-100.038-17.289 5.535 5.535 0 0 1-3.381-5.891l4.603-32.755a5.534 5.534 0 0 1 4.873-4.73 234.708 234.708 0 0 1 100.928 10.955l39.264 13.279a17.72 17.72 0 0 1 11.871 19.253 17.721 17.721 0 0 1-16.717 15.236z"
            style="" fill="#80b0e3" data-original="#80b0e3"></path>
        <path
            d="M201.333 327.474a234.644 234.644 0 0 0-43.219.758 5.533 5.533 0 0 0-4.873 4.73l-4.603 32.755a5.535 5.535 0 0 0 3.381 5.891 234.653 234.653 0 0 0 41.336 12.641l7.978-56.775z"
            style="" fill="#495059" data-original="#495059"></path>
        <path
            d="M300.186 374.33c-5.571 0-10.819-3.395-12.917-8.912-2.71-7.132.874-15.112 8.007-17.822 10.021-3.808 15.033-7.242 20.776-12.246 5.753-5.013 14.48-4.412 19.492 1.341s4.412 14.48-1.341 19.492c-7.549 6.578-15.389 12.027-29.112 17.242a13.771 13.771 0 0 1-4.905.905z"
            style="" fill="#498a68" data-original="#498a68"></path>
        <path
            d="M158.249 395.706H6.323A6.323 6.323 0 0 1 0 389.383V213.96a6.323 6.323 0 0 1 6.323-6.323h151.926a6.323 6.323 0 0 1 6.323 6.323v175.422a6.323 6.323 0 0 1-6.323 6.324z"
            style="" fill="#e5e5e5" data-original="#e5e5e5"></path>
        <path
            d="M50.114 207.637H6.323A6.323 6.323 0 0 0 0 213.96v175.422a6.323 6.323 0 0 0 6.323 6.323h102.461c-63.4-45.188-66.015-142.457-58.67-188.068z"
            style="opacity:0.05;enable-background:new ;" fill="#000000" data-original="#000000" class=""></path>
        <path
            d="M136.203 487.586a7.502 7.502 0 0 1-7.186-5.366l-46.73-157.305L35.556 482.22a7.496 7.496 0 0 1-9.325 5.054 7.5 7.5 0 0 1-5.054-9.325l53.92-181.506a7.5 7.5 0 0 1 14.378 0l53.92 181.506a7.499 7.499 0 0 1-7.192 9.637z"
            style="" fill="#806c6c" data-original="#806c6c"></path>
        <path
            d="M121.762 438.961H47.799c-4.143 0-7.5-3.357-7.5-7.5s3.357-7.5 7.5-7.5h73.963c4.143 0 7.5 3.357 7.5 7.5s-3.358 7.5-7.5 7.5z"
            style="" fill="#806c6c" data-original="#806c6c"></path>
        <path
            d="M390.597 97.948 260.799 86.593a28.365 28.365 0 0 1-20.339-11.399c-6.66-9.012-4.4-21.767 4.951-27.942l14.779-9.761a78.986 78.986 0 0 1 50.416-12.777l41.688 3.647a78.986 78.986 0 0 1 47.431 21.338l12.859 12.179c8.136 7.706 8.147 20.659.023 28.377a28.367 28.367 0 0 1-22.01 7.693z"
            style="" fill="#495059" data-original="#495059"></path>
    </g>
</svg>