<svg xmlns="http://www.w3.org/2000/svg" version="1.1" xmlns:xlink="http://www.w3.org/1999/xlink"
    xmlns:svgjs="http://svgjs.com/svgjs" width="512" height="512" x="0" y="0" viewBox="0 0 512 512"
    style="enable-background:new 0 0 512 512" xml:space="preserve" class="">
    <g>
        <path
            d="M356.412 400.767a15.328 15.328 0 0 1-4.342-.871c-7.973-2.838-12.134-11.601-9.297-19.574 1.045-2.934-3.167-10.573-6.242-16.151a324.487 324.487 0 0 1-2.241-4.11c-3.983-7.467-1.159-16.748 6.308-20.731s16.748-1.157 20.73 6.308c.66 1.237 1.348 2.482 2.039 3.736 5.886 10.676 13.948 25.297 8.278 41.226-2.328 6.537-8.64 10.513-15.233 10.167z"
            style="" fill="#498a68" data-original="#498a68"></path>
        <path
            d="M239.812 416.425c-71.407-3.742-153.583-8.049-211.729-49.61-9.95-7.112-3.164-22.674 8.857-20.423 47.307 8.857 87.96-1.173 111.808-19.621l91.064 89.654z"
            style="" fill="#5cb38e" data-original="#5cb38e"></path>
        <path
            d="M120.963 341.565c-.399 22.846 1.908 45.792 14.973 65.456 34.603 5.774 70.421 7.651 103.875 9.405l-91.064-89.654c-7.643 5.913-17.021 10.954-27.784 14.793z"
            style="opacity:0.1;enable-background:new ;" fill="#000000" data-original="#000000"></path>
        <path
            d="M181.016 475.343c-8.222-.431-15.979-5.163-19.901-13.063-5.79-11.661-1.031-25.807 10.629-31.598 7.542-3.744 11.506-8.728 12.856-16.16 1.247-6.862-.264-13.568-.737-14.988-4.274-12.298 2.234-25.721 14.532-29.995 12.294-4.275 25.735 2.241 30.01 14.539 8.471 24.377 5.958 68.15-35.692 88.831a23.459 23.459 0 0 1-11.697 2.434zM266.576 479.827c-8.222-.431-15.979-5.163-19.901-13.063-5.79-11.661-1.031-25.808 10.629-31.598 7.541-3.744 11.506-8.727 12.857-16.159 1.247-6.862-.264-13.567-.737-14.986-4.276-12.297 2.231-25.721 14.528-29.997 12.3-4.275 25.736 2.239 30.012 14.535 8.475 24.377 5.964 68.151-35.691 88.834a23.459 23.459 0 0 1-11.697 2.434z"
            style="" fill="#498a68" data-original="#498a68"></path>
        <path
            d="M246.331 452.071c24.757 1.297 45.561.04 62.933-3.886 11.031-20.383 10.136-43.99 4.7-59.625-4.276-12.297-17.712-18.81-30.012-14.535-12.297 4.275-18.804 17.7-14.528 29.997.473 1.419 1.984 8.125.737 14.986-1.351 7.431-5.316 12.415-12.857 16.159-6.896 3.424-11.352 9.777-12.666 16.804.567.032 1.122.07 1.693.1zM198.395 369.54c-12.298 4.274-18.806 17.697-14.532 29.995.473 1.42 1.984 8.126.737 14.988-1.35 7.432-5.314 12.415-12.856 16.16a23.517 23.517 0 0 0-5.13 3.482c14.131 7.479 31.786 12.586 53.433 15.51 14.82-21.581 14.33-48.406 8.357-65.595-4.274-12.298-17.715-18.815-30.009-14.54z"
            style="opacity:0.1;enable-background:new ;" fill="#000000" data-original="#000000"></path>
        <path
            d="M360.007 339.437c-2.88 54.958-12.429 94.334-112.443 89.092-100.013-5.241-105.394-45.4-102.514-100.358 2.88-54.958 53.335-96.989 112.693-93.878 59.359 3.112 105.144 50.186 102.264 105.144z"
            style="" fill="#5cb38e" data-original="#5cb38e"></path>
        <path
            d="M360.007 339.437c.023-.438.034-.874.051-1.311-22.085-6.918-66.401-10.916-99.021 20.303-23.771 22.749-28.383 48.402-27.047 69.123 4.319.403 8.84.729 13.574.978 100.013 5.241 109.563-34.134 112.443-89.093z"
            style="" fill="#9bdfc1" data-original="#9bdfc1"></path>
        <path
            d="M237.246 235.024c-50.062 6.227-89.654 44.65-92.195 93.148-2.667 50.888 1.762 89.083 81.83 98.622-42.238-47.618-28.71-140.658 10.365-191.77z"
            style="opacity:0.05;enable-background:new ;" fill="#000000" data-original="#000000"></path>
        <path
            d="M363.909 96.15a99.261 99.261 0 0 0-80.351-48.782l-40.901-2.144c-58.15-3.048-107.76 41.622-110.808 99.772l-2.537 48.409c-2.735 52.189 37.355 96.714 89.544 99.449l216.818 11.363c39.096 2.049 72.451-27.984 74.5-67.08l1.727-32.946c2.049-39.096-27.984-72.451-67.08-74.5l-28.088-1.472a65.247 65.247 0 0 1-52.824-32.069z"
            style="" fill="#5cb38e" data-original="#5cb38e"></path>
        <path
            d="M447.826 246.06c.668-12.752-9.239-21.503-21.991-22.172-12.752-.668-23.52 6.999-24.188 19.751-.668 12.752 3.986 28.512 21.611 29.436 17.624.924 23.9-14.263 24.568-27.015z"
            style="" fill="#495059" data-original="#495059"></path>
        <g style="opacity:0.1;">
            <circle cx="185.299" cy="219.411" r="7.256" fill="#000000" data-original="#000000"></circle>
            <circle cx="236.239" cy="233.171" r="7.256" fill="#000000" data-original="#000000"></circle>
            <circle cx="205.459" cy="256.341" r="7.256" fill="#000000" data-original="#000000"></circle>
        </g>
        <ellipse cx="201.507" cy="120.879" rx="9.383" ry="18.288" style="" transform="rotate(-87.002 201.514 120.883)"
            fill="#ffa8cb" data-original="#ffa8cb"></ellipse>
        <ellipse cx="324.122" cy="127.327" rx="9.383" ry="18.288" style=""
            transform="scale(-1) rotate(-87.002 -134.174 341.552)" fill="#ffa8cb" data-original="#ffa8cb"></ellipse>
        <circle cx="405.779" cy="164.721" r="7.256" style="" fill="#495059" data-original="#495059"></circle>
        <circle cx="451.959" cy="167.141" r="7.256" style="" fill="#495059" data-original="#495059"></circle>
        <path
            d="M219.128 46.611c-47.449 8.18-84.654 48.276-87.28 98.386l-2.537 48.409c-2.735 52.189 37.355 96.714 89.544 99.449l57.341 3.005c-80.962-52.965-88.117-187.269-57.068-249.249z"
            style="opacity:0.05;enable-background:new ;" fill="#000000" data-original="#000000"></path>
        <path
            d="M316.687 42.799c-9.53-7.311-23.312-6.84-32.335 1.885-9.668 9.348-9.776 24.858-.777 34.853l24.639 27.365c4.504 5.002 12.21 5.406 17.212.902l27.365-24.639c9.994-8.999 11.509-24.435 2.871-34.743-8.062-9.62-21.719-11.529-31.961-5.254a6.202 6.202 0 0 1-7.014-.369zM217.743 37.614c10.242-6.275 23.899-4.366 31.961 5.254 8.638 10.308 7.124 25.744-2.871 34.743l-27.365 24.639c-5.002 4.504-12.708 4.1-17.212-.902l-24.639-27.365c-8.999-9.994-8.892-25.504.776-34.853 9.023-8.725 22.805-9.196 32.335-1.885a6.2 6.2 0 0 0 7.015.369z"
            style="" fill="#cd5b5b" data-original="#cd5b5b"></path>
        <path
            d="M234.772 399.667a15.273 15.273 0 0 1-10.143-4.581c-5.921-6.046-5.818-15.748.227-21.668 3.779-3.7 2.975-11.441 1.632-20.43l-.279-1.882c-1.213-8.375 4.593-16.148 12.969-17.361 8.372-1.212 16.147 4.592 17.361 12.967l.258 1.747c1.667 11.15 4.768 31.905-10.499 46.855a15.283 15.283 0 0 1-11.526 4.353z"
            style="" fill="#498a68" data-original="#498a68"></path>
        <path
            d="M38.509 234.917c-12.966-4.858-28.005.295-35.021 12.949-7.518 13.559-2.422 30.697 10.861 38.693l36.369 21.891c6.648 4.002 15.282 1.856 19.283-4.792l21.891-36.369c7.995-13.283 4.476-30.813-8.514-39.276-12.124-7.898-27.825-5.411-37.009 4.951a7.152 7.152 0 0 1-7.86 1.953zM467.312 337.159c-8.625-8.813-22.702-10.334-33.138-2.775-11.183 8.099-13.542 23.848-5.846 35.312l21.074 31.388c3.852 5.738 11.626 7.266 17.364 3.414l31.388-21.074c11.464-7.697 15.243-23.166 7.958-34.896-6.798-10.947-20.403-14.869-31.723-9.977a6.365 6.365 0 0 1-7.077-1.392z"
            style="" fill="#cd5b5b" data-original="#cd5b5b"></path>
    </g>
</svg>