<svg xmlns="http://www.w3.org/2000/svg" version="1.1" xmlns:xlink="http://www.w3.org/1999/xlink"
    xmlns:svgjs="http://svgjs.com/svgjs" width="512" height="512" x="0" y="0" viewBox="0 0 512 512"
    style="enable-background:new 0 0 512 512" xml:space="preserve" class="">
    <g>
        <path
            d="M347.695 512h-68.877c-13.426 0-24.309-10.883-24.309-24.309s10.883-24.309 24.309-24.309h68.877c13.426 0 24.309 10.883 24.309 24.309S361.121 512 347.695 512z"
            style="" fill="#498a68" data-original="#498a68"></path>
        <path
            d="M347.695 463.382h-68.877c-13.426 0-24.309 10.883-24.309 24.309S265.392 512 278.818 512h44.23c5.138-3.761 9.706-7.986 13.731-12.696 9.017-10.55 14.455-22.422 17.73-34.935a24.254 24.254 0 0 0-6.814-.987z"
            style="opacity:0.1;enable-background:new ;" fill="#000000" data-original="#000000"></path>
        <path
            d="M349.023 455.232a15.77 15.77 0 0 1-12.222-5.776c-7.766-9.461-17.863-17.257-20.663-19.026-7.377-4.662-9.578-14.422-4.915-21.798 4.662-7.377 14.42-9.579 21.798-4.915 5.719 3.615 18.435 13.785 28.206 25.688 5.537 6.745 4.557 16.702-2.188 22.239a15.734 15.734 0 0 1-10.016 3.588z"
            style="" fill="#498a68" data-original="#498a68"></path>
        <path
            d="M227.267 507.293c-73.715 1.748-158.548 3.759-221.592-34.418-10.788-6.533-5.03-23.066 7.507-21.693 49.336 5.399 90.351-8.099 113.426-28.937l100.659 85.048z"
            style="" fill="#5cb38e" data-original="#5cb38e"></path>
        <path
            d="M99.198 439.633c1.38 23.522 5.551 46.935 20.526 66.13 36.032 3.225 73.008 2.349 107.544 1.53l-100.66-85.048c-7.397 6.679-16.644 12.597-27.41 17.388z"
            style="opacity:0.1;enable-background:new ;" fill="#000000" data-original="#000000"></path>
        <path
            d="M339.243 413.321c0 56.751-7.709 97.815-110.984 97.815s-110.984-41.064-110.984-97.815 49.689-102.757 110.984-102.757c61.295.001 110.984 46.006 110.984 102.757z"
            style="" fill="#5cb38e" data-original="#5cb38e"></path>
        <path
            d="M339.243 413.321c0-.452-.012-.902-.019-1.353-23.116-5.932-68.968-7.658-100.875 26.252-23.251 24.71-26.616 51.375-24.122 72.642 4.47.181 9.143.274 14.032.274 103.276 0 110.984-41.064 110.984-97.815z"
            style="" fill="#9bdfc1" data-original="#9bdfc1"></path>
        <path
            d="M207.189 312.422c-51.218 9.115-89.915 50.819-89.915 100.899 0 52.548 6.622 91.642 89.59 97.144-46.065-46.757-37.155-143.3.325-198.043z"
            style="opacity:0.05;enable-background:new ;" fill="#000000" data-original="#000000"></path>
        <path
            d="M332.727 179.322a102.356 102.356 0 0 0-81.053-53.165l-42.075-3.681c-59.818-5.233-112.553 39.016-117.787 98.835l-4.357 49.797c-4.697 53.686 35.017 101.016 88.703 105.712l223.039 19.513c40.218 3.519 75.673-26.232 79.192-66.45l2.965-33.891c3.519-40.218-26.232-75.673-66.45-79.192l-28.893-2.528a67.285 67.285 0 0 1-53.284-34.95z"
            style="" fill="#5cb38e" data-original="#5cb38e"></path>
        <g style="opacity:0.1;">
            <circle cx="144.22" cy="299.93" r="7.483" fill="#000000" data-original="#000000"></circle>
            <circle cx="196.22" cy="315.93" r="7.483" fill="#000000" data-original="#000000"></circle>
            <circle cx="163.67" cy="338.71" r="7.483" fill="#000000" data-original="#000000"></circle>
        </g>
        <ellipse cx="164.462" cy="198.988" rx="9.675" ry="18.86" style="" transform="rotate(-84.997 164.462 198.986)"
            fill="#ffa8cb" data-original="#ffa8cb"></ellipse>
        <ellipse cx="290.607" cy="209.997" rx="9.675" ry="18.86" style="" transform="rotate(95.003 290.605 209.997)"
            fill="#ffa8cb" data-original="#ffa8cb"></ellipse>
        <path
            d="M186.836 191.3c-.589 0-1.18-.025-1.772-.078-6.457-.564-12.342-4.202-15.741-9.729a7.5 7.5 0 0 1 2.46-10.317 7.5 7.5 0 0 1 10.317 2.46 5.54 5.54 0 0 0 4.271 2.644 5.538 5.538 0 0 0 4.666-1.861 7.5 7.5 0 1 1 11.22 9.956 20.69 20.69 0 0 1-15.421 6.925zM273.442 198.877c-.589 0-1.18-.025-1.772-.078-6.458-.564-12.343-4.202-15.742-9.731a7.5 7.5 0 0 1 12.779-7.855 5.532 5.532 0 0 0 4.27 2.642 5.532 5.532 0 0 0 4.666-1.862 7.5 7.5 0 0 1 11.22 9.956 20.684 20.684 0 0 1-15.421 6.928z"
            style="" fill="#495059" data-original="#495059"></path>
        <circle cx="373.41" cy="251.5" r="7.482" style="" fill="#495059" data-original="#495059"></circle>
        <circle cx="389.57" cy="340.36" r="7.483" style="" fill="#495059" data-original="#495059"></circle>
        <circle cx="420.92" cy="255.66" r="7.483" style="" fill="#495059" data-original="#495059"></circle>
        <path
            d="M185.302 123.058c-49.194 6.723-88.98 46.705-93.49 98.253l-4.357 49.798c-4.697 53.686 35.017 101.015 88.703 105.712l58.986 5.161c-81.531-57.499-84.071-196.167-49.842-258.924z"
            style="opacity:0.05;enable-background:new ;" fill="#000000" data-original="#000000"></path>
        <path
            d="M320.135 165.756 122.526 155.4c-15.393-.807-27.217-13.939-26.411-29.332.807-15.393 13.939-27.217 29.332-26.41l197.608 10.356c15.393.807 27.217 13.939 26.411 29.332-.806 15.393-13.938 27.217-29.331 26.41z"
            style="" fill="#e5e5e5" data-original="#e5e5e5"></path>
        <path
            d="m178.992 102.464-53.544-2.806c-15.393-.807-28.525 11.018-29.332 26.411-.807 15.393 11.018 28.525 26.411 29.332l56.266 2.949c-16.578-14.07-13.819-43.648.199-55.886z"
            style="opacity:0.05;enable-background:new ;" fill="#000000" data-original="#000000"></path>
        <path
            d="M323.056 110.014C313.745 28.685 177.798-42.233 65.999 29.899c22.065.739 69.795 12.766 59.449 69.759l197.608 10.356z"
            style="" fill="#80b0e3" data-original="#80b0e3"></path>
        <path
            d="m125.448 99.658 60.702 3.181c-2.033-64.328-87.259-82.231-120.151-72.94 22.065.739 69.795 12.766 59.449 69.759z"
            style="opacity:0.05;enable-background:new ;" fill="#000000" data-original="#000000"></path>
        <circle cx="63.24" cy="29.02" r="28.998" style="" fill="#e5e5e5" data-original="#e5e5e5"></circle>
        <path
            d="M50.511 2.959c-9.148 4.478-15.662 13.646-16.233 24.539-.838 15.993 11.447 29.637 27.441 30.476 12.256.642 23.125-6.426 27.916-16.96C61.451 51.339 39.257 24.498 50.511 2.959z"
            style="opacity:0.05;enable-background:new ;" fill="#000000" data-original="#000000"></path>
        <path
            d="m199.515 41.718 11.579 9.511a7.622 7.622 0 0 1 2.632 4.375l2.975 14.686c1.063 5.247 7.063 7.791 11.574 4.907l12.623-8.074a7.62 7.62 0 0 1 4.975-1.151l14.887 1.709c5.319.611 9.592-4.31 8.243-9.491l-3.777-14.501a7.621 7.621 0 0 1 .443-5.087l3.373-7.383c-14.199-9.666-30.531-17.555-48.223-22.985l-3.816 9.737a7.619 7.619 0 0 1-3.348 3.855l-13.048 7.367c-4.664 2.634-5.23 9.127-1.092 12.525z"
            style="" fill="#fae17c" data-original="#fae17c"></path>
        <path
            d="M252.714 453.174c-4.54 0-9.046-1.947-12.171-5.715-7.346-8.858-17.251-13.861-20.98-15.744l-.448-.227c-7.782-3.948-10.891-13.457-6.943-21.239 3.948-7.782 13.458-10.891 21.24-6.943l.401.202c4.825 2.437 19.508 9.854 31.055 23.778 5.571 6.717 4.642 16.678-2.075 22.249a15.74 15.74 0 0 1-10.079 3.639z"
            style="" fill="#498a68" data-original="#498a68"></path>
        <path
            d="m478.019 246.249-45.971 8.106c-4.511.796-7.754-4.137-5.309-8.011 4.536-7.186 8.36-17.212 5.613-32.792-3.793-21.512 10.725-42.64 32.552-46.488 22.195-3.914 43.344 11.223 46.669 33.665 3.206 21.63-12.02 41.723-33.554 45.52z"
            style="" fill="#e5e5e5" data-original="#e5e5e5"></path>
        <path
            d="M276.066 512h-68.877c-13.426 0-24.309-10.883-24.309-24.309s10.883-24.309 24.309-24.309h68.877c13.426 0 24.309 10.883 24.309 24.309S289.492 512 276.066 512z"
            style="" fill="#498a68" data-original="#498a68"></path>
    </g>
</svg>