<svg xmlns="http://www.w3.org/2000/svg" version="1.1" xmlns:xlink="http://www.w3.org/1999/xlink"
    xmlns:svgjs="http://svgjs.com/svgjs" width="512" height="512" x="0" y="0" viewBox="0 0 512.003 512.003"
    style="enable-background:new 0 0 512 512" xml:space="preserve" class="">
    <g>
        <path
            d="m354.358 413.839-.22.034c-8.165 1.178-15.738-4.484-16.917-12.649-1.554-10.762-7.066-19.677-9.141-23.033l-.248-.402c-4.326-7.024-2.14-16.224 4.884-20.55 7.026-4.322 16.224-2.139 20.55 4.884l.221.359c2.685 4.343 10.856 17.559 13.299 34.475 1.168 8.088-4.382 15.6-12.428 16.882z"
            style="" fill="#498a68" data-original="#498a68"></path>
        <path
            d="M235.887 436.515c-69.699 0-149.911 0-208.631-37.49-10.048-6.415-4.237-21.909 7.58-20.332 46.502 6.208 85.562-5.629 107.835-24.803l93.216 82.625z"
            style="" fill="#5cb38e" data-original="#5cb38e"></path>
        <path
            d="M116.379 369.707c.777 22.259 4.194 44.478 17.915 62.952 33.978 3.855 68.939 3.855 101.594 3.855l-93.216-82.625c-7.141 6.147-16.013 11.532-26.293 15.818z"
            style="opacity:0.1;enable-background:new ;" fill="#000000" data-original="#000000" class=""></path>
        <path
            d="M204.683 504.503c-.592 0-1.187-.022-1.787-.068-12.653-.974-22.122-12.02-21.148-24.673.883-11.482-.063-49.779-1.711-58.26-3.782-11.385 1.873-23.908 13.144-28.5 11.756-4.788 25.162.857 29.95 12.609 6.196 15.206 4.721 73.998 4.437 77.677-.926 12.05-10.995 21.214-22.885 21.215zm-24.121-81.579zM288.018 504.503c-.592 0-1.187-.022-1.787-.068-12.653-.974-22.121-12.02-21.148-24.673.883-11.482-.064-49.779-1.712-58.26-3.782-11.385 1.873-23.908 13.144-28.5 11.754-4.788 25.163.857 29.95 12.609 6.196 15.207 4.721 73.998 4.438 77.677-.926 12.05-10.995 21.214-22.885 21.215zm-24.122-81.578a.5.5 0 0 0 .011.026l-.011-.026z"
            style="" fill="#498a68" data-original="#498a68"></path>
        <path
            d="M311.259 461.992c-.018-19.531-.861-46.732-4.793-56.383-4.787-11.752-18.196-17.396-29.95-12.609-11.271 4.592-16.926 17.116-13.144 28.5 1.321 6.801 2.191 32.764 2.029 48.709 17.739-1.164 32.939-3.875 45.858-8.217zM193.181 393.001c-11.271 4.592-16.926 17.116-13.144 28.5 1.152 5.927 1.96 26.412 2.041 42.134 13.037 3.77 28.233 6.031 45.803 6.868.213-19.096-.202-53.733-4.75-64.894-4.788-11.751-18.194-17.396-29.95-12.608z"
            style="opacity:0.1;enable-background:new ;" fill="#000000" data-original="#000000" class=""></path>
        <path
            d="M348.959 355.442c0 53.644-7.287 92.46-104.908 92.46s-104.909-38.816-104.909-92.46 46.969-97.131 104.908-97.131c57.94 0 104.909 43.487 104.909 97.131z"
            style="" fill="#5cb38e" data-original="#5cb38e"></path>
        <path
            d="M348.959 355.442c0-.427-.011-.852-.017-1.279-21.851-5.608-65.192-7.238-95.353 24.814-21.979 23.357-25.159 48.563-22.801 68.665 4.225.171 8.642.259 13.263.259 97.621.001 104.908-38.815 104.908-92.459z"
            style="" fill="#9bdfc1" data-original="#9bdfc1"></path>
        <path
            d="M224.134 260.066c-48.414 8.616-84.992 48.037-84.992 95.375 0 49.672 6.259 86.625 84.686 91.826-43.544-44.197-35.122-135.454.306-187.201z"
            style="opacity:0.05;enable-background:new ;" fill="#000000" data-original="#000000" class=""></path>
        <path
            d="M340.346 118.423a96.752 96.752 0 0 0-80.704-43.386h-39.924c-56.76 0-102.772 46.013-102.772 102.772v47.251c0 50.941 41.296 92.237 92.237 92.237h211.634c38.161 0 69.097-30.936 69.097-69.097v-32.158c0-38.161-30.936-69.097-69.097-69.097h-27.416a63.605 63.605 0 0 1-53.055-28.522z"
            style="" fill="#5cb38e" data-original="#5cb38e"></path>
        <g style="opacity:0.1;">
            <circle cx="172.772" cy="247.522" r="7.07" fill="#000000" data-original="#000000" class=""></circle>
            <circle cx="223.052" cy="258.312" r="7.07" fill="#000000" data-original="#000000" class=""></circle>
            <circle cx="194.282" cy="282.432" r="7.07" fill="#000000" data-original="#000000" class=""></circle>
        </g>
        <path
            d="M196.887 77.587c-45.77 10.383-79.941 51.311-79.941 100.223v47.251c0 50.941 41.296 92.237 92.237 92.237h55.97c-81.512-47.427-95.328-177.795-68.266-239.711z"
            style="opacity:0.05;enable-background:new ;" fill="#000000" data-original="#000000" class=""></path>
        <path
            d="M237.185 416.812c-.641 0-1.288-.04-1.939-.126-8.18-1.06-13.952-8.552-12.891-16.732 1.398-10.789-1.517-20.864-2.615-24.658l-.131-.456c-2.28-7.928 2.299-16.202 10.227-18.482 7.929-2.276 16.202 2.299 18.481 10.227l.118.407c1.42 4.909 5.742 19.846 3.544 36.803-.977 7.529-7.401 13.017-14.794 13.017z"
            style="" fill="#498a68" data-original="#498a68"></path>
        <path
            d="m212.402 376.922.133.461c.979 3.383 3.579 12.369 2.381 21.607a22.285 22.285 0 0 0 4.477 16.578c3.658 4.748 8.945 7.786 14.872 8.554.958.126 1.94.191 2.92.191 11.228 0 20.785-8.405 22.23-19.551 2.399-18.507-2.249-34.573-3.778-39.858l-.118-.407a7.5 7.5 0 1 0-14.406 4.18l.117.402c1.313 4.537 5.308 18.346 3.311 33.754-.48 3.694-3.641 6.48-7.355 6.48-.326 0-.649-.021-.976-.064-1.969-.256-3.721-1.263-4.933-2.836s-1.739-3.525-1.484-5.494c1.599-12.336-1.632-23.502-2.847-27.702l-.131-.455a7.5 7.5 0 0 0-14.413 4.16zm11.029-361.953 15.415 1.453-17.208 16.28a7.5 7.5 0 0 0 5.154 12.948h14.713l-8.312 9.066a7.5 7.5 0 0 0 11.058 10.137l19.832-21.635a7.5 7.5 0 0 0-5.529-12.569h-12.921l15.534-14.695a7.5 7.5 0 0 0-4.451-12.915L224.839.034c-4.121-.391-7.782 2.64-8.17 6.763a7.498 7.498 0 0 0 6.762 8.172zm197.387 124.476h-27.416c-18.888 0-36.383-9.405-46.8-25.159-19.358-29.272-51.866-46.749-86.959-46.749h-39.924c-60.804 0-110.272 49.468-110.272 110.272v47.252a99.62 99.62 0 0 0 37.355 77.88c-9.48 15.178-14.653 32.266-15.108 49.955-23.449 16.434-58.936 23.29-95.865 18.363-8.913-1.192-16.973 3.675-20.056 12.106-3.054 8.354-.061 17.187 7.447 21.98 45.94 29.331 102.9 35.6 147.8 37.648a86.64 86.64 0 0 0 3.158 1.449c.501 13.873.556 28.725.093 34.742-1.289 16.757 11.295 31.438 28.054 32.728.782.06 1.576.09 2.359.09 15.813-.001 29.149-12.362 30.362-28.14.143-1.855.497-14.017.339-28.566a349.473 349.473 0 0 0 22.42-.171c.201 10.391.135 19.702-.2 24.06-1.289 16.756 11.294 31.438 28.054 32.728.782.06 1.576.09 2.36.09 10.573-.001 20.235-5.369 25.845-14.358a7.5 7.5 0 0 0-2.392-10.333 7.497 7.497 0 0 0-10.333 2.392c-2.852 4.57-7.757 7.299-13.121 7.3-.403 0-.811-.016-1.212-.046-8.509-.655-14.9-8.111-14.245-16.621.427-5.555.428-16.229.225-26.241 11.633-1.161 21.866-3.108 30.813-5.866.088 3.841.141 7.867.155 12.056a7.5 7.5 0 0 0 7.499 7.474h.026a7.5 7.5 0 0 0 7.474-7.526 593.86 593.86 0 0 0-.317-17.91c8.257-4.176 15.006-9.378 20.376-15.661a58.65 58.65 0 0 0 4.945-6.719 22.43 22.43 0 0 0 11.461 1.353l.318-.05c12.038-1.917 20.413-13.294 18.671-25.361-2.666-18.46-11.455-32.675-14.335-37.334l-.223-.361a22.225 22.225 0 0 0-3.21-4.04 97.545 97.545 0 0 0-4.886-29.349h69.262c42.236 0 76.597-34.361 76.597-76.598v-32.158c.003-42.24-34.359-76.601-76.594-76.601zM31.291 392.703c-2.089-1.334-1.793-3.195-1.431-4.186.306-.837 1.312-2.741 3.983-2.39 36.475 4.873 71.997-.966 98.057-15.67.842 20.627 4.272 40.819 17.342 56.149-38.47-3.147-82.188-11.07-117.951-33.903zm188.8 90.008c-.616 8.014-7.384 14.291-15.407 14.292-.403 0-.811-.016-1.212-.046-8.509-.655-14.899-8.111-14.245-16.621.48-6.243.44-18.907.119-30.731 9.089 2.39 19.4 4.025 31.03 4.933.182 14.786-.191 26.918-.285 28.173zm135.233-99.947c1.717 4.512 3.232 9.675 4.039 15.263.577 4-2.197 7.77-6.19 8.405l-.106.018a7.379 7.379 0 0 1-2.762-.128c2.628-7.446 4.149-15.394 5.019-23.558zm127.091-134.563c0 33.965-27.632 61.598-61.597 61.598H222.03c-4.142 0-7.5 3.357-7.5 7.5s3.358 7.5 7.5 7.5h113.582a82.748 82.748 0 0 1 5.847 30.644c0 27.805-2.35 47.786-14.047 61.474-4.732 5.537-10.994 10.05-18.942 13.588a7.454 7.454 0 0 0-1.309.56c-10.889 4.597-24.825 7.447-42.189 8.657-.032.001-.063-.002-.096-.001-.212.007-.42.027-.627.051-6.285.419-13.005.631-20.199.631-5.462 0-10.654-.121-15.59-.362a7.56 7.56 0 0 0-.524-.029c-17.538-.891-31.78-3.332-43.089-7.421a7.401 7.401 0 0 0-1.547-.576 72.556 72.556 0 0 1-6.414-2.812c-.34-.211-.7-.392-1.074-.548-6.163-3.222-11.178-7.124-15.123-11.74-8.672-10.147-14.047-23.971-14.047-61.474 0-15.555 4.322-30.641 12.553-44.033a99.716 99.716 0 0 0 25.672 10.402 7.501 7.501 0 0 0 3.646-14.551 84.575 84.575 0 0 1-26.719-11.9c-.109-.089-.214-.182-.329-.267a7.727 7.727 0 0 0-.762-.483 84.635 84.635 0 0 1-36.257-69.549v-47.252c0-52.533 42.739-95.272 95.272-95.272h39.924c30.044 0 57.875 14.962 74.448 40.023 13.202 19.965 35.375 31.885 59.311 31.885h27.416c33.965 0 61.597 27.633 61.597 61.598v32.159h.001zm-90.738-65.163a7.073 7.073 0 1 0-14.147 0 7.073 7.073 0 0 0 14.147 0zm15.465 69.347a26.214 26.214 0 0 0-19.764 9 7.5 7.5 0 0 0 11.309 9.855 11.216 11.216 0 0 1 8.455-3.855c3.238 0 6.32 1.405 8.455 3.855a7.485 7.485 0 0 0 5.657 2.572 7.501 7.501 0 0 0 5.652-12.428 26.218 26.218 0 0 0-19.764-8.999zm22.538-76.42a7.073 7.073 0 1 0 0 14.147 7.073 7.073 0 0 0 0-14.147zm-212.192-70.397-18.697-5.164a7.5 7.5 0 0 0-3.993 14.459l7.997 2.209a7.494 7.494 0 0 0-4.152 6.704v8.883c0 4.143 3.358 7.5 7.5 7.5s7.5-3.357 7.5-7.5v-8.883a7.45 7.45 0 0 0-1.185-4.035l1.037.286a7.504 7.504 0 0 0 9.226-5.233 7.501 7.501 0 0 0-5.233-9.226zm70.458-5.164-18.697 5.164a7.501 7.501 0 0 0 3.993 14.46l1.037-.286a7.461 7.461 0 0 0-1.185 4.035v8.883c0 4.143 3.358 7.5 7.5 7.5s7.5-3.357 7.5-7.5v-8.883a7.492 7.492 0 0 0-4.152-6.704l7.997-2.209a7.5 7.5 0 0 0 5.233-9.227c-1.104-3.993-5.236-6.338-9.226-5.233z"
            fill="#000000" data-original="#000000" class=""></path>
    </g>
</svg>