<svg xmlns="http://www.w3.org/2000/svg" version="1.1" xmlns:xlink="http://www.w3.org/1999/xlink"
    xmlns:svgjs="http://svgjs.com/svgjs" width="512" height="512" x="0" y="0" viewBox="0 0 512 512"
    style="enable-background:new 0 0 512 512" xml:space="preserve" class="">
    <g>
        <path
            d="m415.474 477.685-4.688-9.879a78.4 78.4 0 0 0-24.264-29.461c-2.258-1.668-3.792-4.143-4.148-6.927-3.56-27.835-27.338-49.349-56.141-49.349-20.941 0-39.223 11.373-49.013 28.278-1.368 2.362-4.036 3.654-6.744 3.314-28.003-3.51-53.933 15.291-59.301 42.997l-2.213 11.421c-3.191 16.465 9.421 31.755 26.193 31.755h166.314c11.385.001 18.886-11.863 14.005-22.149z"
            style="" fill="#cd5b5b" data-original="#cd5b5b"></path>
        <path
            d="M313.051 383.614c-15.285 3.647-28.163 13.492-35.831 26.733-1.368 2.362-4.036 3.654-6.744 3.314-28.003-3.51-53.933 15.291-59.301 42.998l-2.213 11.421c-3.191 16.465 9.422 31.755 26.192 31.755h126.581c-51.357-18.512-57.848-87.264-48.684-116.221z"
            style="opacity:0.1;enable-background:new ;" fill="#000000" data-original="#000000"></path>
        <path
            d="M363.855 459.945a7.484 7.484 0 0 1-5.772-2.707c-14.529-17.483-19.353-37.297-19.024-50.009.107-4.142 3.567-7.448 7.691-7.303a7.499 7.499 0 0 1 7.303 7.691c-.246 9.529 3.683 25.731 15.567 40.034a7.5 7.5 0 0 1-.976 10.562 7.46 7.46 0 0 1-4.789 1.732z"
            style="" fill="#fae17c" data-original="#fae17c"></path>
        <path
            d="M332.591 465.344a7.5 7.5 0 0 1-7.395-8.804c2.834-16.056-.766-33.591-1.948-39.353-.147-.722-.266-1.301-.343-1.719a7.499 7.499 0 0 1 6.008-8.74c4.072-.766 7.985 1.935 8.74 6.008.065.35.165.832.289 1.436 1.325 6.456 5.356 26.101 2.025 44.976a7.501 7.501 0 0 1-7.376 6.196z"
            style="" fill="#fae17c" data-original="#fae17c"></path>
        <path
            d="M357.766 415.692a14.79 14.79 0 0 1-6.993-1.758c-14.997-8.014-24.598-20.136-27.753-24.121l-.264-.333c-5.109-6.428-4.039-15.78 2.388-20.888 6.43-5.109 15.781-4.039 20.888 2.388l.296.374c2.439 3.079 8.917 11.258 18.459 16.356 7.241 3.87 9.975 12.876 6.105 20.118-2.677 5.01-7.816 7.864-13.126 7.864z"
            style="" fill="#498a68" data-original="#498a68"></path>
        <path
            d="M232.413 444.328c-69.375 0-149.212 0-207.659-37.315-10.002-6.385-4.217-21.807 7.545-20.237 46.285 6.179 85.163-5.603 107.332-24.688l92.782 82.24z"
            style="" fill="#5cb38e" data-original="#5cb38e"></path>
        <path
            d="M113.462 377.832c.773 22.155 4.174 44.27 17.831 62.658 33.82 3.837 68.618 3.838 101.12 3.838l-92.782-82.24c-7.106 6.117-15.936 11.478-26.169 15.744z"
            style="opacity:0.1;enable-background:new ;" fill="#000000" data-original="#000000"></path>
        <path
            d="M201.355 512c-.589 0-1.181-.022-1.779-.068-12.594-.969-22.018-11.964-21.05-24.558.879-11.429-.063-49.549-1.703-57.989-3.764-11.332 1.864-23.797 13.083-28.368 11.701-4.766 25.045.853 29.811 12.55 6.167 15.135 4.699 73.654 4.417 77.316-.923 11.995-10.945 21.116-22.779 21.117zm-24.009-81.2a.306.306 0 0 0 .011.027l-.011-.027zM284.301 512c-.59 0-1.183-.022-1.779-.068-12.595-.969-22.018-11.965-21.05-24.558.88-11.428-.063-49.542-1.703-57.988-3.765-11.332 1.863-23.796 13.082-28.369 11.693-4.767 25.043.851 29.812 12.549 6.169 15.138 4.699 73.656 4.418 77.317-.924 11.997-10.946 21.117-22.78 21.117zm-24.009-81.198.01.026-.01-.026z"
            style="" fill="#498a68" data-original="#498a68"></path>
        <path
            d="M307.434 469.687c-.018-19.441-.856-46.515-4.771-56.121-4.768-11.698-18.118-17.316-29.812-12.549-11.219 4.573-16.846 17.037-13.082 28.369 1.315 6.772 2.181 32.611 2.019 48.481 17.657-1.16 32.787-3.859 45.646-8.18zM189.907 401.016c-11.219 4.571-16.847 17.036-13.083 28.368 1.146 5.899 1.95 26.288 2.031 41.938 12.976 3.753 28.101 6.003 45.589 6.836.212-19.008-.202-53.483-4.727-64.591-4.766-11.697-18.11-17.317-29.81-12.551z"
            style="opacity:0.1;enable-background:new ;" fill="#000000" data-original="#000000"></path>
        <path
            d="M344.958 363.633c0 53.394-7.253 92.029-104.419 92.029s-104.42-38.635-104.42-92.029 46.75-96.678 104.419-96.678 104.42 43.284 104.42 96.678z"
            style="" fill="#5cb38e" data-original="#5cb38e"></path>
        <path
            d="M344.958 363.633c0-.425-.011-.848-.017-1.273-21.749-5.581-64.889-7.205-94.909 24.699-21.876 23.248-25.042 48.336-22.695 68.345 4.205.171 8.602.258 13.202.258 97.167 0 104.419-38.635 104.419-92.029z"
            style="" fill="#9bdfc1" data-original="#9bdfc1"></path>
        <path
            d="M220.716 268.702c-48.188 8.576-84.596 47.813-84.596 94.931 0 49.44 6.23 86.221 84.291 91.398-43.342-43.992-34.959-134.824.305-186.329z"
            style="opacity:0.05;enable-background:new ;" fill="#000000" data-original="#000000"></path>
        <path
            d="M336.385 127.719a96.304 96.304 0 0 0-80.328-43.184H216.32c-56.495 0-102.293 45.798-102.293 102.293v47.031c0 50.704 41.103 91.807 91.807 91.807h210.648c37.984 0 68.775-30.792 68.775-68.775v-32.008c0-37.983-30.792-68.775-68.775-68.775h-27.288a63.311 63.311 0 0 1-52.809-28.389z"
            style="" fill="#5cb38e" data-original="#5cb38e"></path>
        <g style="opacity:0.1;">
            <circle cx="169.589" cy="256.21" r="7.04" fill="#000000" data-original="#000000"></circle>
            <circle cx="219.639" cy="266.95" r="7.04" fill="#000000" data-original="#000000"></circle>
            <circle cx="190.999" cy="290.97" r="7.04" fill="#000000" data-original="#000000"></circle>
        </g>
        <ellipse cx="180.299" cy="166.8" rx="17.744" ry="9.103" style="" fill="#ffa8cb" data-original="#ffa8cb">
        </ellipse>
        <ellipse cx="299.419" cy="166.8" rx="17.744" ry="9.103" style="" fill="#ffa8cb" data-original="#ffa8cb">
        </ellipse>
        <path
            d="M216.488 158.537a7.5 7.5 0 0 1-7.5-7.5c0-3.408-2.772-6.181-6.181-6.181s-6.181 2.773-6.181 6.181c0 4.143-3.358 7.5-7.5 7.5s-7.5-3.357-7.5-7.5c0-11.679 9.502-21.181 21.181-21.181s21.181 9.502 21.181 21.181a7.5 7.5 0 0 1-7.5 7.5zM290.593 158.537a7.499 7.499 0 0 1-7.5-7.5c0-3.408-2.772-6.181-6.181-6.181s-6.181 2.773-6.181 6.181c0 4.143-3.357 7.5-7.5 7.5s-7.5-3.357-7.5-7.5c0-11.679 9.502-21.181 21.181-21.181s21.181 9.502 21.181 21.181a7.5 7.5 0 0 1-7.5 7.5z"
            style="" fill="#495059" data-original="#495059"></path>
        <circle cx="380.439" cy="192.03" r="7.04" style="" fill="#495059" data-original="#495059"></circle>
        <circle cx="425.299" cy="192.03" r="7.04" style="" fill="#495059" data-original="#495059"></circle>
        <path
            d="M193.595 87.073c-45.557 10.335-79.568 51.072-79.568 99.756v47.031c0 50.704 41.103 91.807 91.807 91.807h55.709c-81.132-47.206-94.884-176.966-67.948-238.594z"
            style="opacity:0.05;enable-background:new ;" fill="#000000" data-original="#000000"></path>
        <path
            d="M203.091 408.587c-6.538 0-12.53-4.346-14.333-10.958-2.16-7.921 2.51-16.093 10.431-18.254 10.449-2.85 18.587-9.39 21.651-11.852l.365-.293c6.408-5.135 15.764-4.099 20.897 2.309 5.133 6.409 4.098 15.764-2.311 20.897l-.326.263c-3.964 3.186-16.029 12.882-32.453 17.361-1.31.357-2.626.527-3.921.527z"
            style="" fill="#498a68" data-original="#498a68"></path>
        <path
            d="M493.589 292.281c-2.448-3.502-3.293-7.828-2.519-12.031 2.145-11.652-1.282-24.127-10.293-33.138-7.079-7.079-16.297-10.71-25.573-10.903-4.287-.089-8.435-1.608-11.539-4.567-10.612-10.115-24.977-16.327-40.794-16.327-15.818 0-30.183 6.212-40.795 16.327-3.104 2.958-7.252 4.478-11.538 4.567-9.277.193-18.494 3.823-25.573 10.903-9.012 9.011-12.439 21.486-10.293 33.138.774 4.203-.071 8.529-2.519 12.031a47.509 47.509 0 0 0-8.59 27.316c0 20.992 13.545 38.81 32.37 45.215 5.597 1.904 10.224 5.933 12.549 11.369 9.027 21.112 29.976 35.908 54.39 35.908s45.363-14.796 54.39-35.908c2.324-5.436 6.952-9.465 12.549-11.369 18.825-6.405 32.37-24.223 32.37-45.215a47.525 47.525 0 0 0-8.592-27.316z"
            style="" fill="#e5e5e5" data-original="#e5e5e5"></path>
        <path
            d="M402.871 302.649c-12.766 0-23.115-10.349-23.115-23.115v-12.441c0-5.895 4.779-10.673 10.673-10.673h24.883c5.895 0 10.673 4.779 10.673 10.673v12.441c0 12.766-10.349 23.115-23.114 23.115z"
            style="" fill="#495059" data-original="#495059"></path>
        <path
            d="M288.676 71.67C281.678 23.834 190.69-26.126 94.45 15.607 27.9 44.465 12.968 114.483 52.652 162.334c15.982-47.12 28.091-83.569 74.584-61.234l161.44-29.43z"
            style="" fill="#cd5b5b" data-original="#cd5b5b"></path>
        <path
            d="M82.732 65.129c-11.263 6.758-13.64 12.375-18.674 18.747-11.555 14.627-26.793 9.248-29.026-6.542-9.052 28.3-3.33 59.739 17.62 85 15.982-47.12 28.091-83.569 74.585-61.233l45.577-8.309c-24.584-41.158-69.609-39.946-90.082-27.663z"
            style="opacity:0.1;enable-background:new ;" fill="#000000" data-original="#000000"></path>
        <path
            d="m295.772 105.5-164.896 29.076c-11.167 1.969-21.816-5.487-23.785-16.654l-2.447-13.877c-1.969-11.167 5.487-21.816 16.654-23.785l164.896-29.075c11.167-1.969 21.816 5.487 23.785 16.654l2.447 13.877c1.969 11.167-5.487 21.815-16.654 23.784zM40.489 134.926c6.108-8.056 18.218-8.056 24.326 0a5.628 5.628 0 0 0 5.251 2.175c10.015-1.377 18.578 7.186 17.201 17.201a5.628 5.628 0 0 0 2.175 5.251c8.056 6.108 8.056 18.218 0 24.326a5.627 5.627 0 0 0-2.175 5.251c1.377 10.015-7.186 18.578-17.201 17.201a5.627 5.627 0 0 0-5.251 2.175c-6.108 8.055-18.218 8.055-24.326 0a5.627 5.627 0 0 0-5.251-2.175c-10.015 1.377-18.578-7.186-17.201-17.201a5.628 5.628 0 0 0-2.175-5.251c-8.056-6.108-8.056-18.218 0-24.326a5.628 5.628 0 0 0 2.175-5.251c-1.377-10.015 7.186-18.578 17.201-17.201a5.63 5.63 0 0 0 5.251-2.175z"
            style="" fill="#e5e5e5" data-original="#e5e5e5"></path>
    </g>
</svg>