<svg xmlns="http://www.w3.org/2000/svg" version="1.1" xmlns:xlink="http://www.w3.org/1999/xlink"
    xmlns:svgjs="http://svgjs.com/svgjs" width="512" height="512" x="0" y="0" viewBox="0 0 512.002 512.002"
    style="enable-background:new 0 0 512 512" xml:space="preserve" class="">
    <g>
        <path
            d="M353.259 362.392c-5.347 0-10.578-2.657-13.648-7.51-4.761-7.529-2.518-17.492 5.011-22.254l.388-.245c4.655-2.955 18.821-11.948 37.052-14.803 8.802-1.379 17.053 4.639 18.431 13.44s-4.639 17.052-13.44 18.431c-11.599 1.817-21.156 7.884-24.754 10.168l-.434.275a16.05 16.05 0 0 1-8.606 2.498z"
            style="" fill="#498a68" data-original="#498a68"></path>
        <path
            d="M251.73 431.848c-74.578 10.187-160.404 21.91-228.714-9.621-11.689-5.396-7.736-22.824 5.139-22.863 50.664-.154 90.728-18.528 111.758-42.3l111.817 74.784z"
            style="" fill="#5cb38e" data-original="#5cb38e"></path>
        <path
            d="M114.092 377.831c4.085 23.703 10.988 46.978 28.369 64.74 36.92-.841 74.328-5.95 109.268-10.723l-111.817-74.784c-6.74 7.618-15.446 14.678-25.82 20.767z"
            style="opacity:0.1;enable-background:new ;" fill="#000000" data-original="#000000"></path>
        <path
            d="M228.977 512.002a24.738 24.738 0 0 1-8.438-1.486c-12.888-4.661-19.557-18.887-14.896-31.775 5.637-15.585 3.285-41.482.427-49.318-7.264-9.69-6.519-23.495 2.267-32.345 9.655-9.726 25.367-9.782 35.093-.126 8.27 8.211 13.265 23.437 14.847 45.253.832 11.488 1.166 33.704-5.964 53.415-3.652 10.1-13.182 16.38-23.336 16.382zm-20.534-79.852.02.02-.02-.02zM370.788 477.646c-13.648 1.245-25.722-8.809-26.967-22.457-1.256-13.77-12.659-27.357-18.214-30.736-11.971-.841-21.887-10.283-22.955-22.616-1.178-13.614 8.871-25.612 22.466-26.852l.117-.011c21.159-1.831 38.956 16.418 45.626 24.349 7.415 8.817 20.182 27.213 22.385 51.355 1.245 13.65-8.809 25.723-22.458 26.968zm-41.296-53.224.023-.001-.023.001z"
            style="" fill="#498a68" data-original="#498a68"></path>
        <path
            d="M374.482 415.301a81.906 81.906 0 0 0 3.615-6.231 104.523 104.523 0 0 0-7.236-9.745c-6.67-7.931-24.467-26.18-45.626-24.349l-.117.011c-13.594 1.24-23.644 13.238-22.465 26.852 1.068 12.333 10.984 21.775 22.955 22.616 4.209 2.56 11.766 10.982 15.732 20.9 14.465-8.031 25.378-17.98 33.142-30.054zM243.431 396.952c-9.727-9.656-25.438-9.6-35.093.126-8.786 8.849-9.531 22.655-2.267 32.345 2.363 6.477 4.374 25.292 1.819 40.425 5.199.441 10.601.686 16.262.686 10.279 0 21.666-.737 33.91-2.173.964-10.47.669-19.905.216-26.155-1.582-21.819-6.577-37.045-14.847-45.254z"
            style="opacity:0.1;enable-background:new ;" fill="#000000" data-original="#000000"></path>
        <path
            d="M360.867 328.573c7.84 57.399 5.717 99.997-98.738 114.265s-117.925-26.2-125.765-83.599 36.061-110.795 98.055-119.263c61.995-8.467 118.608 31.198 126.448 88.597z"
            style="" fill="#5cb38e" data-original="#5cb38e"></path>
        <path
            d="M360.867 328.573c-.063-.457-.137-.91-.206-1.366-24.2-2.806-70.814 1.783-98.401 40.488-20.103 28.205-19.822 55.639-14.362 76.804 4.546-.434 9.285-.986 14.23-1.661 104.456-14.268 106.58-56.865 98.739-114.265z"
            style="" fill="#9bdfc1" data-original="#9bdfc1"></path>
        <path
            d="M213.366 244.767c-50.543 16.295-83.921 63.822-77.002 114.474 7.26 53.148 19.358 91.773 104.034 85.876-53.051-40.928-57.378-139.804-27.032-200.35z"
            style="opacity:0.05;enable-background:new ;" fill="#000000" data-original="#000000"></path>
        <path
            d="M317.01 76.224a104.486 104.486 0 0 0-92.694-34.627l-42.718 5.835c-60.733 8.296-103.241 64.254-94.945 124.987l6.906 50.559c7.445 54.507 57.668 92.658 112.175 85.213l226.448-30.932c40.833-5.578 69.412-43.2 63.835-84.033l-4.7-34.409c-5.578-40.832-43.2-69.412-84.033-63.835l-29.335 4.007a68.693 68.693 0 0 1-60.939-22.765z"
            style="" fill="#5cb38e" data-original="#5cb38e"></path>
        <circle cx="408.93" cy="216.142" r="26.03" style="" fill="#495059" data-original="#495059"></circle>
        <g style="opacity:0.1;">
            <circle cx="156.57" cy="238.852" r="7.638" fill="#000000" data-original="#000000"></circle>
            <circle cx="211.96" cy="243.042" r="7.638" fill="#000000" data-original="#000000"></circle>
            <circle cx="184.69" cy="273.061" r="7.638" fill="#000000" data-original="#000000"></circle>
        </g>
        <ellipse cx="156.075" cy="149.407" rx="9.877" ry="19.252" style="" transform="rotate(-97.776 156.075 149.408)"
            fill="#ffa8cb" data-original="#ffa8cb"></ellipse>
        <ellipse cx="284.147" cy="131.889" rx="9.877" ry="19.252" style="" transform="rotate(82.224 284.148 131.889)"
            fill="#ffa8cb" data-original="#ffa8cb"></ellipse>
        <circle cx="373.81" cy="138.892" r="7.638" style="" fill="#495059" data-original="#495059"></circle>
        <circle cx="422.04" cy="132.302" r="7.638" style="" fill="#495059" data-original="#495059"></circle>
        <path
            d="M157.541 53.496c-47.457 17.8-78.037 66.586-70.888 118.922l6.906 50.559c7.445 54.507 57.668 92.658 112.175 85.213l59.887-8.18c-94.15-38.834-127.987-176.308-108.08-246.514z"
            style="opacity:0.05;enable-background:new ;" fill="#000000" data-original="#000000"></path>
        <path
            d="M149.061 138.602c-9.409 0-18.515-3.05-26.136-8.839-9.222-7.005-15.164-17.183-16.731-28.657-2.7-19.77 11.186-38.05 30.955-40.75 8.059-1.1 16.063 1.002 22.54 5.922 6.476 4.92 10.649 12.067 11.75 20.125 1.063 7.783-1.447 15.345-6.716 20.227-4.866 4.509-11.626 6.243-18.549 4.752a7.5 7.5 0 0 1-5.755-8.909c.871-4.05 4.857-6.632 8.91-5.755 2.166.465 3.915.099 5.199-1.091 1.66-1.538 2.446-4.295 2.049-7.195-.558-4.088-2.675-7.715-5.961-10.211s-7.345-3.565-11.436-3.004a21.043 21.043 0 0 0-14.002 8.175 21.045 21.045 0 0 0-4.121 15.682c1.025 7.505 4.911 14.161 10.942 18.743 6.032 4.582 13.486 6.542 20.991 5.515 9.877-1.349 18.638-6.464 24.668-14.402s8.608-17.749 7.259-27.626a7.5 7.5 0 0 1 6.416-8.446 7.497 7.497 0 0 1 8.446 6.416c1.891 13.847-1.723 27.602-10.177 38.73s-20.735 18.299-34.582 20.191a44.06 44.06 0 0 1-5.959.407zM269.934 122.092c-9.409 0-18.516-3.05-26.137-8.84-9.222-7.005-15.164-17.183-16.731-28.657-2.7-19.77 11.187-38.049 30.956-40.75 8.06-1.1 16.063 1.002 22.539 5.922s10.649 12.067 11.75 20.125c1.063 7.784-1.448 15.346-6.717 20.228-4.865 4.509-11.625 6.242-18.549 4.752a7.5 7.5 0 0 1-5.755-8.909 7.495 7.495 0 0 1 8.909-5.755c2.167.465 3.916.099 5.199-1.091 1.661-1.539 2.446-4.295 2.05-7.195a15.346 15.346 0 0 0-5.961-10.211 15.333 15.333 0 0 0-11.435-3.004 21.047 21.047 0 0 0-14.003 8.175 21.047 21.047 0 0 0-4.121 15.682c1.025 7.505 4.911 14.161 10.943 18.743 6.031 4.582 13.487 6.541 20.991 5.515 20.389-2.785 34.711-21.639 31.926-42.028a7.5 7.5 0 0 1 6.416-8.446 7.499 7.499 0 0 1 8.446 6.416c3.904 28.584-16.174 55.016-44.758 58.921a44.034 44.034 0 0 1-5.958.407z"
            style="" fill="#495059" data-original="#495059"></path>
        <path
            d="M223.309 375.487c-1.18 0-2.378-.13-3.577-.402l-.499-.113c-4.156-.949-15.201-3.47-26.747-1.295-8.757 1.647-17.189-4.111-18.837-12.865-1.649-8.754 4.111-17.188 12.865-18.837 18.147-3.419 34.52.319 39.899 1.547l.445.102c8.688 1.968 14.136 10.606 12.168 19.294-1.696 7.488-8.349 12.569-15.717 12.569z"
            style="" fill="#498a68" data-original="#498a68"></path>
        <path
            d="m369.908 52.879-11.103 3.151c-3.967 1.126-7.828-2.083-7.447-6.189l1.067-11.492a5.87 5.87 0 0 0-.969-3.812l-6.428-9.586c-2.297-3.425-.438-8.089 3.585-8.995l11.26-2.536a5.873 5.873 0 0 0 3.326-2.1l7.13-9.076c2.548-3.243 7.557-2.916 9.662.63l5.891 9.925a5.866 5.866 0 0 0 3.025 2.514l10.835 3.977c3.871 1.421 5.109 6.286 2.387 9.384l-7.619 8.67a5.87 5.87 0 0 0-1.456 3.653l-.434 11.535c-.155 4.121-4.4 6.801-8.187 5.17l-10.6-4.566a5.869 5.869 0 0 0-3.925-.257zM50.321 106.428l-9.446 6.632c-3.375 2.37-8.077.611-9.069-3.391l-2.777-11.203a5.868 5.868 0 0 0-2.171-3.28l-9.227-6.934c-3.296-2.478-3.077-7.493.423-9.674l9.796-6.103a5.871 5.871 0 0 0 2.449-3.078l3.744-10.918c1.338-3.901 6.175-5.242 9.331-2.587l8.831 7.431a5.872 5.872 0 0 0 3.684 1.378l11.54.187c4.123.067 6.894 4.253 5.344 8.075l-4.338 10.695a5.874 5.874 0 0 0-.172 3.929l3.388 11.033c1.211 3.942-1.915 7.871-6.028 7.577l-11.513-.821a5.873 5.873 0 0 0-3.789 1.052z"
            style="" fill="#fae17c" data-original="#fae17c"></path>
    </g>
</svg>