<svg xmlns="http://www.w3.org/2000/svg" version="1.1" xmlns:xlink="http://www.w3.org/1999/xlink"
    xmlns:svgjs="http://svgjs.com/svgjs" width="512" height="512" x="0" y="0" viewBox="0 0 511.998 511.998"
    style="enable-background:new 0 0 512 512" xml:space="preserve" class="">
    <g>
        <path
            d="M214.996 456.019C16.052 491.338-.974 341.337 5.61 264.213c.574-6.722 7.076-11.318 13.582-9.532 14.135 3.881 27.486 10.313 35.245 17.379 1.919 1.747 4.953.098 4.528-2.462-6.905-41.676-17.6-129.406 10.464-190.953 3.946-8.654 14.15-12.482 22.788-8.502 25.795 11.888 62.801 45.384 76.79 67.444 2.109 3.326 7.17 2.448 8.03-1.395 6.894-30.799 24.15-75.92 43.528-97.774 6.767-7.632 18.675-7.924 25.72-.549 20.108 21.049 40.285 58.832 46.647 79.923.991 3.286 5.454 3.823 7.198.867 14.248-24.157 41.509-43.999 62.12-55.406 9.493-5.254 21.223 1.182 21.959 12.007 3.36 49.398.397 164.611-21.491 221.256-1.284 3.323 2.293 6.443 5.415 4.726 14.819-8.153 43.727-21.203 73.501-18.792 4.665.378 8.881 2.918 11.564 6.753 41.309 59.026 46.167 150.195-77.826 171.228-51.33 8.709-89.389-17.014-160.376-4.412z"
            style="" fill="#fae17c" data-original="#fae17c"></path>
        <path
            d="M385.319 106.083a75.451 75.451 0 0 0-12.529-1.057c-4.371 0-8.785.387-13.12 1.152l-25.169 4.438c-2.78.491-5.62.739-8.44.739-6.352.001-12.602-1.278-18.399-3.653-2.777 3.538-5.313 7.196-7.532 10.96-1.744 2.957-6.206 2.42-7.198-.867-2.618-8.68-7.579-20.188-13.91-32.192C261.514 72.2 239.84 64.72 217.591 64.72c-5.001 0-10.027.399-14.986 1.144-11.549 22.269-20.917 49.549-25.568 70.324-.861 3.845-5.924 4.723-8.034 1.396-9.055-14.278-27.75-33.338-46.806-48.237-10.626 7.195-19.956 16.346-27.537 27.172-16.319 23.306-22.585 51.571-17.644 79.589l7.649 43.378a96.588 96.588 0 0 0 27.283 51.986c-8.15 13.699-12.747 28.926-13.464 44.699-16.251 10.77-39.138 16.876-63.724 16.877-7.026 0-14.253-.489-21.481-1.454a22.51 22.51 0 0 0-1.734-.157c5.091 20.35 13.409 40.301 26.398 57.5 33.849 11.998 69.752 15.488 99.947 16.895l.227.107c.381 12.019.408 24.598.018 29.665a32.572 32.572 0 0 0-.019 4.757c18.764 1.752 40.06 1.154 64.2-2.307.132-3.885.287-11.575.245-20.647 1.433.019 2.877.028 4.33.028 3.121 0 6.182-.042 9.167-.127.105 7.996.025 14.863-.239 18.295-.007.095-.009.19-.015.285 24.802-4.316 45.577-3.958 64.317-2.055.153-7.052.238-18.485-.096-30.094 10.997-5.986 19.177-13.993 24.887-24.327 4.823-8.73 7.819-19.027 9.294-32.073 8.939-5.231 21.591-14.189 30.56-26.94 7.813-11.109 5.132-26.505-5.976-34.319a24.486 24.486 0 0 0-14.159-4.486 24.687 24.687 0 0 0-15.338 5.352 96.056 96.056 0 0 0-3.556-8.256l59.958-10.572c15.702-48.294 20.249-128.661 19.624-182.035z"
            style="opacity:0.05;enable-background:new ;" fill="#000000" data-original="#000000"></path>
        <path
            d="M448.273 110.501c-.437 0-.876-.038-1.313-.116l-23.859-4.242a7.5 7.5 0 0 1-6.071-8.697 7.497 7.497 0 0 1 8.697-6.071l15.713 2.794 1.357-17.373a7.5 7.5 0 0 1 7.22-6.911l14.835-.509-1.413-10.42a7.5 7.5 0 0 1 6.424-8.44 7.496 7.496 0 0 1 8.44 6.424l2.527 18.639a7.499 7.499 0 0 1-7.175 8.503l-16.426.564-1.48 18.939a7.502 7.502 0 0 1-7.476 6.916zM462.93 183.901a7.5 7.5 0 0 1-7.031-10.107l5.963-16.096a7.5 7.5 0 0 1 10.404-4.095l15.748 7.925 5.027-11.237a7.5 7.5 0 0 1 13.693 6.125l-8.232 18.403a7.497 7.497 0 0 1-10.217 3.637l-15.27-7.684-3.05 8.232a7.507 7.507 0 0 1-7.035 4.897zM482.56 267.888a7.5 7.5 0 0 1-7.07-4.998l-4.09-11.557-4.766 2.698a7.501 7.501 0 0 1-7.39-13.054l12.547-7.104a7.5 7.5 0 0 1 10.765 4.025l3.784 10.691 7.585-5.307a7.5 7.5 0 0 1 10.414 1.803l6.273 8.833a7.501 7.501 0 0 1-12.229 8.686l-1.962-2.761-9.563 6.69a7.487 7.487 0 0 1-4.298 1.355z"
            style="" fill="#a3e3ff" data-original="#a3e3ff"></path>
        <path
            d="M297.976 362.108c-5.016 0-9.86-2.717-12.347-7.469-3.566-6.813-.933-15.226 5.879-18.792 4.434-2.32 15.426-8.684 21.719-17.631 4.425-6.289 13.111-7.801 19.398-3.378 6.289 4.424 7.802 13.109 3.378 19.398-9.445 13.429-23.842 22.23-31.583 26.282a13.853 13.853 0 0 1-6.444 1.59z"
            style="" fill="#498a68" data-original="#498a68"></path>
        <path
            d="M199.28 416.109c-64.973 0-139.745 0-194.483-34.948-9.367-5.98-3.949-20.424 7.066-18.953 43.348 5.787 79.76-5.247 100.522-23.121l86.895 77.022z"
            style="" fill="#5cb38e" data-original="#5cb38e"></path>
        <path
            d="M87.876 353.832c.724 20.75 3.909 41.461 16.7 58.683 31.674 3.594 64.264 3.594 94.704 3.594l-86.895-77.022c-6.656 5.729-14.926 10.75-24.509 14.745z"
            style="opacity:0.1;enable-background:new ;" fill="#000000" data-original="#000000"></path>
        <path
            d="M170.193 479.487c-.552 0-1.106-.021-1.666-.064-11.795-.907-20.621-11.204-19.714-22.999.823-10.704-.06-46.404-1.595-54.31-3.525-10.613 1.746-22.287 12.253-26.568 10.958-4.463 23.456.8 27.919 11.754 5.776 14.176 4.401 68.982 4.137 72.41-.865 11.235-10.251 19.777-21.334 19.777zm-22.487-76.047.01.025-.01-.025zM247.876 479.487c-.552 0-1.107-.021-1.666-.064-11.795-.907-20.621-11.204-19.714-22.999.823-10.704-.06-46.404-1.595-54.31-3.525-10.613 1.746-22.287 12.253-26.568 10.954-4.463 23.456.798 27.919 11.754 5.776 14.176 4.401 68.982 4.137 72.41-.865 11.235-10.251 19.777-21.334 19.777zM225.39 403.44l.01.025-.01-.025z"
            style="" fill="#498a68" data-original="#498a68"></path>
        <path
            d="M269.54 439.859c-.017-18.207-.803-43.564-4.468-52.56-4.463-10.956-16.965-16.217-27.919-11.754-10.507 4.281-15.778 15.955-12.253 26.568 1.232 6.34 2.042 30.541 1.891 45.405 16.537-1.084 30.707-3.613 42.749-7.659zM159.47 375.545c-10.507 4.281-15.777 15.955-12.253 26.568 1.073 5.525 1.827 24.62 1.903 39.276 12.153 3.514 26.318 5.622 42.697 6.402.198-17.802-.189-50.09-4.428-60.493-4.463-10.953-16.961-16.216-27.919-11.753z"
            style="opacity:0.1;enable-background:new ;" fill="#000000" data-original="#000000"></path>
        <path
            d="M304.684 340.534c0 50.006-6.793 86.19-97.794 86.19s-97.794-36.184-97.794-86.19 43.784-90.544 97.794-90.544 97.794 40.538 97.794 90.544z"
            style="" fill="#5cb38e" data-original="#5cb38e"></path>
        <path
            d="M304.684 340.534c0-.399-.011-.795-.016-1.192-20.369-5.227-60.772-6.747-88.887 23.132-20.488 21.773-23.453 45.27-21.255 64.009 3.939.16 8.056.242 12.364.242 91.002-.001 97.794-36.185 97.794-86.191z"
            style="" fill="#9bdfc1" data-original="#9bdfc1"></path>
        <path
            d="M188.324 251.626c-45.131 8.032-79.229 44.78-79.229 88.908 0 46.303 5.835 80.751 78.943 85.599-40.591-41.2-32.74-126.269.286-174.507z"
            style="opacity:0.05;enable-background:new ;" fill="#000000" data-original="#000000"></path>
        <path
            d="M283.037 103.567a90.193 90.193 0 0 0-81.111-26.766l-36.651 6.463c-52.107 9.188-86.9 58.877-77.712 110.984l7.649 43.378c8.246 46.765 52.841 77.991 99.607 69.745l194.286-34.258c35.033-6.177 58.425-39.585 52.248-74.618l-5.206-29.522c-6.177-35.033-39.585-58.425-74.618-52.248l-25.169 4.438a59.295 59.295 0 0 1-53.323-17.596z"
            style="" fill="#5cb38e" data-original="#5cb38e"></path>
        <ellipse cx="365.845" cy="214.696" rx="33.159" ry="36.369" style="" transform="rotate(-99.997 365.847 214.7)"
            fill="#495059" data-original="#495059"></ellipse>
        <g style="opacity:0.1;">
            <circle cx="150.099" cy="249.21" r="6.593" fill="#000000" data-original="#000000"></circle>
            <circle cx="198.009" cy="250.97" r="6.593" fill="#000000" data-original="#000000"></circle>
            <circle cx="175.499" cy="277.78" r="6.593" fill="#000000" data-original="#000000"></circle>
        </g>
        <path
            d="M162.13 145.862a7.502 7.502 0 0 1-7.377-6.2l-1.438-8.155a7.5 7.5 0 0 1 6.085-8.688 7.5 7.5 0 0 1 8.688 6.084l1.438 8.155a7.5 7.5 0 0 1-7.396 8.804zM230.479 133.81a7.504 7.504 0 0 1-7.378-6.199l-1.438-8.155a7.502 7.502 0 0 1 14.773-2.605l1.438 8.155a7.5 7.5 0 0 1-7.395 8.804z"
            style="" fill="#495059" data-original="#495059"></path>
        <path
            d="M165.123 129.819a7.6 7.6 0 0 1-1.311-.115l-16.924-2.984a7.5 7.5 0 0 1 2.604-14.772l16.924 2.984a7.5 7.5 0 0 1-1.293 14.887zM222.212 119.752a7.5 7.5 0 0 1-3.757-13.996l14.882-8.592a7.5 7.5 0 0 1 7.5 12.99l-14.882 8.592a7.463 7.463 0 0 1-3.743 1.006z"
            style="" fill="#495059" data-original="#495059"></path>
        <circle cx="334.129" cy="155.72" r="6.593" style="" fill="#495059" data-original="#495059"></circle>
        <circle cx="375.509" cy="148.42" r="6.593" style="" fill="#495059" data-original="#495059"></circle>
        <path
            d="M144.728 89.3c-40.338 16.941-65.082 60.045-57.164 104.948l7.649 43.378c8.246 46.765 52.842 77.992 99.607 69.745l51.382-9.06C163.693 267.967 129.907 150.522 144.728 89.3z"
            style="opacity:0.05;enable-background:new ;" fill="#000000" data-original="#000000"></path>
        <path
            d="M180.037 369.551c-1.914 0-3.858-.397-5.716-1.235-16.332-7.366-26.56-20.284-29.92-24.529l-.244-.307c-4.783-6.021-3.78-14.779 2.241-19.562 6.02-4.783 14.779-3.78 19.562 2.241l.273.344c2.32 2.931 9.382 11.85 19.536 16.43 7.01 3.162 10.129 11.407 6.968 18.416-2.323 5.151-7.393 8.202-12.7 8.202z"
            style="" fill="#498a68" data-original="#498a68"></path>
        <path
            d="M351.817 341.886a4.052 4.052 0 0 1 2.331-5.235l11.938-4.583c4.373-1.679 8.234-1.752 11.361-.36 2.652 1.181 4.72 3.487 5.965 6.729l.038.099c2.074 5.404.655 9.782-2.861 13.103l7.708 4.369c1.095.651 1.888 1.248 2.34 2.427.811 2.112-.43 4.167-2.247 4.864-1.719.66-3.169.259-4.487-.531l-9.745-5.789a2.896 2.896 0 0 0-2.518-.214l-3.021 1.16a1.833 1.833 0 0 0-1.054 2.368l2.159 5.625c.789 2.056-.076 4.475-2.098 5.348a4.023 4.023 0 0 1-5.399-2.264l-10.41-27.116zm20.189 7.074c3.685-1.415 5.043-4.191 3.93-7.088l-.038-.099c-1.245-3.242-4.146-4.045-7.83-2.631l-5.726 2.198a1.918 1.918 0 0 0-1.103 2.478l2.416 6.293a1.918 1.918 0 0 0 2.478 1.103l5.873-2.254zM395.79 353.646l16.036-28.745c1.116-1.981 2.918-3.077 5.202-2.867l.49.045c2.284.211 3.801 1.613 4.534 3.765l10.507 31.194c.589 1.696.408 2.911-1.717 4.652a3.258 3.258 0 0 1-2.349.732c-1.956-.182-3.156-1.444-3.756-3.253l-1.156-3.588a4.186 4.186 0 0 0-3.6-2.885l-11.245-1.038a4.187 4.187 0 0 0-4.069 2.18l-1.929 3.574c-.858 1.566-2.363 2.414-4.103 2.254-2.175-.201-3.701-2.097-3.5-4.272.055-.596.328-1.174.655-1.748zm24.066-9.835-2.93-9.29c-.271-.858-1.441-.966-1.864-.172l-4.58 8.597c-.341.64.08 1.422.803 1.488l7.511.693a1.015 1.015 0 0 0 1.06-1.316zM348.147 381.089c-.125-.461-.244-1.021-.218-1.473.124-2.158 2.024-3.66 4.183-3.535a3.907 3.907 0 0 1 3.605 2.978l4.886 18.69c.268 1.025 1.691 1.111 2.08.125l7.026-17.807c.707-1.771 2.135-2.949 4.092-2.836l.603.035c1.957.113 3.243 1.396 3.738 3.287l4.932 18.497c.273 1.024 1.696 1.103 2.08.115l7.003-18.004c.589-1.477 1.966-2.656 3.874-2.546 2.108.122 3.722 1.826 3.601 3.934-.026.452-.212 1.045-.389 1.488l-11.43 27.039c-.816 1.917-2.341 3.037-4.198 2.93l-.803-.046c-1.858-.107-3.197-1.343-3.784-3.39l-4.639-16.519c-.369-1.312-2.188-1.417-2.705-.156l-6.509 15.876c-.819 1.967-2.29 3.04-4.148 2.933l-.804-.046c-1.857-.107-3.243-1.396-3.833-3.393l-8.243-28.176zM407.144 377.919a4.119 4.119 0 0 1 3.354-4.762l12.806-2.221c4.691-.814 8.555-.127 11.4 1.876 2.412 1.699 4.021 4.406 4.624 7.883l.018.106c1.005 5.797-1.271 9.883-5.43 12.504l6.827 5.873c.964.864 1.637 1.616 1.856 2.881.393 2.266-1.248 4.07-3.198 4.408-1.844.32-3.211-.365-4.37-1.413l-8.596-7.705a2.895 2.895 0 0 0-2.429-.697l-3.293.571a1.833 1.833 0 0 0-1.493 2.119l1.052 6.063c.383 2.206-.956 4.448-3.144 4.92-2.332.503-4.535-.995-4.938-3.32l-5.046-29.086zm18.741 11.026c3.953-.686 5.853-3.187 5.314-6.295l-.018-.106c-.603-3.478-3.338-4.849-7.29-4.164l-6.173 1.071a1.918 1.918 0 0 0-1.562 2.218l1.182 6.813a1.918 1.918 0 0 0 2.218 1.562l6.329-1.099z"
            style="" fill="#ffffff" data-original="#ffffff"></path>
    </g>
</svg>