<svg xmlns="http://www.w3.org/2000/svg" version="1.1" xmlns:xlink="http://www.w3.org/1999/xlink"
    xmlns:svgjs="http://svgjs.com/svgjs" width="512" height="512" x="0" y="0" viewBox="0 0 512.001 512.001"
    style="enable-background:new 0 0 512 512" xml:space="preserve" class="">
    <g>
        <path
            d="M264.501 49.8c-.428 7.887-1.791 15.97-2.755 23.5-1.059 7.291-1.553 13.872-1.56 19.608-.019 16.709 6.589 32.367 12.776 47.576 6.395 15.72 11.853 31.808 13.839 48.717 1.963 16.715 1.55 36.172-5.354 51.801-2.414 5.62-5.713 10.971-9.931 15.314-3.829 3.943-10.129 4.035-14.072.206a9.922 9.922 0 0 1-2.993-6.432c-1.162-16.564-9.081-30.973-17.913-44.655-12.182-18.873-27.826-35.672-38.838-55.242-21.434-38.088-19.349-85.076.475-123.328 9.118-17.594 30.773-24.466 48.367-15.348 16.081 8.335 18.791 22.938 17.959 38.283zM465.575 73.364c15.636 26.647 25.98 59.349 24.199 90.409-1.107 19.31-7.726 37.764-15.931 55.11-11.062 23.388-26.063 43.407-26.777 70.396-.154 5.803-4.838 11.195-10.952 10.419-6.746-.855-12.714-9.65-15.792-14.958-13.764-23.147-10.568-53.089-6.952-78.495 2.638-18.532 5.746-37.427 2.913-56.131-2.709-17.884-9.417-35.038-12.962-52.773l-.059-.297c-3.659-18.303 8.211-36.105 26.514-39.764 14.501-2.899 28.713 4.008 35.799 16.084z"
            style="" fill="#a3e3ff" data-original="#a3e3ff"></path>
        <path
            d="M376.126 404.318a14.412 14.412 0 0 1-9.779-3.812c-7.745-7.12-17.332-10.437-20.942-11.685l-.436-.151c-7.54-2.623-11.526-10.861-8.902-18.402 2.623-7.541 10.862-11.528 18.401-8.902l.39.136c4.67 1.615 18.881 6.531 31.054 17.72 5.876 5.403 6.262 14.546.86 20.425a14.423 14.423 0 0 1-10.646 4.671z"
            style="" fill="#498a68" data-original="#498a68"></path>
        <path
            d="M249.203 438.698c-67.454 0-145.08 0-201.91-36.282-9.724-6.208-4.1-21.204 7.335-19.677 45.003 6.008 82.805-5.448 104.36-24.005l90.215 79.964z"
            style="" fill="#5cb38e" data-original="#5cb38e"></path>
        <path
            d="M133.546 374.044c.752 21.542 4.058 43.044 17.337 60.924 32.883 3.731 66.718 3.731 98.321 3.731l-90.213-79.963c-6.911 5.947-15.496 11.161-25.445 15.308z"
            style="opacity:0.1;enable-background:new ;" fill="#000000" data-original="#000000"></path>
        <path
            d="M218.975 504.5a22.144 22.144 0 0 1-8.268-1.603c-11.4-4.57-16.935-17.516-12.365-28.916.797-1.989 2.523-10.465 2.457-22.692-.073-13.357-2.241-20.298-3.034-21.771-6.782-10.165-4.09-23.912 6.048-30.764 10.177-6.88 24-4.203 30.877 5.972 14.507 21.466 11.872 68.497 4.933 85.804-3.483 8.689-11.831 13.97-20.648 13.97zm-21.154-74.897.02.029-.02-.029zM311.221 495.443a22.24 22.24 0 0 1-6.344-.927c-11.772-3.5-18.48-15.879-14.98-27.652 4.378-14.73-5.528-30.829-8.581-33.833-8.753-8.615-8.865-22.695-.25-31.449 8.614-8.751 22.695-8.866 31.448-.25 12.939 12.735 29.817 45.229 20.015 78.203-2.873 9.659-11.722 15.908-21.308 15.908z"
            style="" fill="#498a68" data-original="#498a68"></path>
        <path
            d="M289.189 470.297c18.462-2.09 33.759-6.179 46.253-12.399-.403-24.766-12.856-46.652-22.93-56.567-8.753-8.616-22.834-8.502-31.448.25-8.615 8.754-8.503 22.834.25 31.449 3.053 3.004 12.959 19.104 8.581 33.833-.339 1.142-.554 2.289-.706 3.434zM203.813 398.756c-10.138 6.851-12.83 20.599-6.048 30.764.793 1.473 2.961 8.413 3.034 21.771.031 5.743-.335 10.643-.813 14.447 12.597 3.344 27.191 5.309 43.979 5.966 2.791-21.46 1.416-51.156-9.276-66.976-6.877-10.175-20.699-12.852-30.876-5.972z"
            style="opacity:0.1;enable-background:new ;" fill="#000000" data-original="#000000"></path>
        <path
            d="M358.632 360.238c0 51.915-7.052 89.48-101.528 89.48-94.477 0-101.528-37.565-101.528-89.48s45.455-94.002 101.528-94.002c56.072.001 101.528 42.087 101.528 94.002z"
            style="" fill="#5cb38e" data-original="#5cb38e"></path>
        <path
            d="M358.632 360.238c0-.414-.011-.825-.017-1.238-21.147-5.427-63.092-7.005-92.281 24.015-21.271 22.605-24.349 46.998-22.067 66.453 4.089.166 8.363.251 12.836.251 94.477 0 101.529-37.565 101.529-89.481z"
            style="" fill="#9bdfc1" data-original="#9bdfc1"></path>
        <path
            d="M237.83 267.936c-46.853 8.338-82.254 46.489-82.254 92.303 0 48.071 6.058 83.833 81.957 88.867-42.141-42.774-33.991-131.091.297-181.17z"
            style="opacity:0.05;enable-background:new ;" fill="#000000" data-original="#000000"></path>
        <path
            d="M274.691 402.532a14.389 14.389 0 0 1-9.044-3.186c-8.205-6.592-17.999-9.263-21.687-10.268l-.446-.122c-7.698-2.113-12.225-10.068-10.112-17.765 2.113-7.698 10.07-12.227 17.765-10.112l.398.109c4.771 1.301 19.288 5.26 32.186 15.621 6.224 5 7.215 14.098 2.216 20.322a14.426 14.426 0 0 1-11.276 5.401z"
            style="" fill="#498a68" data-original="#498a68"></path>
        <path
            d="M428.175 158.46h-26.533a61.553 61.553 0 0 1-51.346-27.604 93.635 93.635 0 0 0-78.103-41.988h-38.637c-54.931 0-99.461 44.53-99.461 99.461v142.236c0 9.538 8.967 16.534 18.219 14.214l20.798-5.214a51.532 51.532 0 0 1 29.613 1.366l17.14 6.022a51.53 51.53 0 0 0 32.908.423l11.114-3.587a51.524 51.524 0 0 1 29.255-.71l22.929 6.189a51.535 51.535 0 0 0 30.641-1.179l6.515-2.309a51.535 51.535 0 0 1 33.173-.425l11.377 3.706a51.53 51.53 0 0 0 40.497-3.683 39.821 39.821 0 0 1 35.889-1.028c9.718 4.564 20.884-2.528 20.884-13.265V225.331c-.001-36.932-29.94-66.871-66.872-66.871z"
            style="" fill="#dee2e5" data-original="#dee2e5"></path>
        <ellipse cx="414.943" cy="273.978" rx="18.759" ry="22.687" style="" fill="#495059" data-original="#495059">
        </ellipse>
        <ellipse cx="198.527" cy="162.185" rx="17.252" ry="8.851" style="" fill="#ffa8cb" data-original="#ffa8cb">
        </ellipse>
        <ellipse cx="314.36" cy="162.185" rx="17.252" ry="8.851" style="" fill="#ffa8cb" data-original="#ffa8cb">
        </ellipse>
        <path
            d="m152.313 344.78 20.798-5.214a51.531 51.531 0 0 1 29.613 1.366l17.14 6.022a51.534 51.534 0 0 0 32.909.423l11.114-3.587a51.528 51.528 0 0 1 20.438-2.279c-107.618-72.136-89.978-202.047-61.933-252.016-49.674 5.549-88.297 47.677-88.297 98.834v142.236c0 9.539 8.967 16.535 18.218 14.215z"
            style="opacity:0.05;enable-background:new ;" fill="#000000" data-original="#000000"></path>
        <path
            d="M99.15 152.73c-3.29 14.276-9.675 29.195-9.028 42.486.793 16.301 6.263 31.894 10.559 47.497 8.739 31.746 13.472 82.485-17.985 104.494-4.221 2.953-10.036 1.925-12.99-2.298-2.959-4.232-1.502-9.668-1.437-14.441.383-28.248-21.369-54.295-34.733-77.57-24.377-42.452-22.223-94.619 7.954-133.573 11.372-14.679 32.491-17.359 47.17-5.988 13.983 10.835 13.858 24.777 10.49 39.393z"
            style="" fill="#a3e3ff" data-original="#a3e3ff"></path>
        <path
            d="M47.617 153.545c.98.431 2.003.634 3.009.634a7.502 7.502 0 0 0 6.872-4.489l3.453-7.873a7.5 7.5 0 0 0-13.736-6.026l-3.453 7.873a7.498 7.498 0 0 0 3.855 9.881zM239 63.086a7.503 7.503 0 0 0 8.6-6.209l1.37-8.487a7.501 7.501 0 0 0-6.209-8.6 7.493 7.493 0 0 0-8.6 6.209l-1.37 8.487a7.5 7.5 0 0 0 6.209 8.6zm184.814 24.338a7.5 7.5 0 0 0-4.36 9.669l3.043 8.041a7.504 7.504 0 0 0 7.016 4.848 7.5 7.5 0 0 0 7.013-10.156l-3.043-8.041a7.5 7.5 0 0 0-9.669-4.361zm-8.873 156.371c-14.479 0-26.259 13.541-26.259 30.187s11.779 30.187 26.259 30.187 26.26-13.541 26.26-30.187-11.781-30.187-26.26-30.187zm0 45.372c-6.103 0-11.258-6.954-11.258-15.186 0-8.231 5.155-15.185 11.258-15.185 6.103 0 11.259 6.954 11.259 15.185-.001 8.232-5.157 15.186-11.259 15.186zM60.768 330.365c-.013.881-.094 1.899-.181 2.978-.352 4.398-.834 10.423 2.972 15.865 3.27 4.673 8.502 7.176 13.813 7.176 3.33 0 6.691-.983 9.621-3.032 15.963-11.169 25.129-29.372 27.24-54.103 2.017-23.616-3.096-46.806-6.322-58.527a707.021 707.021 0 0 0-2.623-9.199c-3.641-12.557-7.08-24.418-7.676-36.674-.387-7.946 2.287-17.074 5.119-26.74 1.311-4.472 2.665-9.097 3.726-13.695 3.349-14.527 4.874-32.999-13.204-47.005-17.927-13.886-43.806-10.602-57.693 7.323-31.403 40.535-34.752 96.235-8.53 141.9 3.02 5.259 6.347 10.485 9.87 16.019 11.867 18.638 24.137 37.91 23.868 57.714zM47.419 123.92c4.273-5.516 10.438-9.037 17.36-9.916a26.51 26.51 0 0 1 3.342-.212c5.757 0 11.32 1.893 15.945 5.476 9.219 7.143 11.398 16.052 7.773 31.778-.961 4.171-2.196 8.386-3.503 12.847-3.057 10.432-6.217 21.219-5.707 31.687.682 14.013 4.53 27.286 8.252 40.121.871 3.004 1.741 6.004 2.566 9.003 9.577 34.79 10.652 78.373-15.053 96.358a1.836 1.836 0 0 1-2.545-.449c-.714-1.023-.509-3.59-.311-6.072.103-1.274.208-2.592.227-3.971.329-24.286-13.771-46.434-26.213-65.975-3.429-5.384-6.667-10.47-9.516-15.431-23.179-40.373-20.282-89.534 7.383-125.244zm24.047 40.084c.98.431 2.003.634 3.009.634a7.502 7.502 0 0 0 6.872-4.489l3.453-7.873a7.5 7.5 0 0 0-13.736-6.026l-3.453 7.873a7.498 7.498 0 0 0 3.855 9.881zM217.053 35.639a7.498 7.498 0 0 0-8.601 6.208l-1.371 8.486a7.502 7.502 0 0 0 7.413 8.698c3.615 0 6.8-2.621 7.396-6.305l1.371-8.486a7.501 7.501 0 0 0-6.208-8.601zm75.417 92.897a7.499 7.499 0 0 0-7.5 7.5v8.598c0 4.143 3.357 7.5 7.5 7.5s7.5-3.357 7.5-7.5v-8.598a7.5 7.5 0 0 0-7.5-7.5zm155.699-50.329a7.502 7.502 0 0 0-4.359 9.67l3.043 8.04a7.503 7.503 0 0 0 9.67 4.36 7.502 7.502 0 0 0 4.359-9.67l-3.043-8.04a7.503 7.503 0 0 0-9.67-4.36zm-227.752 50.329a7.499 7.499 0 0 0-7.5 7.5v8.598c0 4.143 3.357 7.5 7.5 7.5a7.5 7.5 0 0 0 7.5-7.5v-8.598a7.5 7.5 0 0 0-7.5-7.5zm179.557 64.853a6.845 6.845 0 1 0-13.691.001 6.845 6.845 0 0 0 13.691-.001zm93.129-4.266c2.327-8.65 3.695-16.834 4.159-24.92.601-10.473-.086-21.463-2.04-32.662a7.5 7.5 0 1 0-14.778 2.578c1.757 10.067 2.377 19.901 1.843 29.227a99.143 99.143 0 0 1-1.088 9.903c-13.502-13.744-32.281-22.29-53.023-22.29h-4.202a89.604 89.604 0 0 0-.275-1.967c-1.583-10.451-4.453-20.604-7.229-30.421-2.204-7.794-4.285-15.155-5.794-22.701l-.06-.297c-2.842-14.217 6.412-28.097 20.631-30.939 10.979-2.194 22.178 2.839 27.861 12.525a181.833 181.833 0 0 1 12.467 25.671 7.5 7.5 0 1 0 13.969-5.467 196.92 196.92 0 0 0-13.498-27.796c-8.917-15.195-26.484-23.092-43.74-19.644-22.328 4.464-36.861 26.261-32.398 48.589l.06.298c1.624 8.12 3.884 16.112 6.069 23.842 2.745 9.708 5.336 18.885 6.786 28.306h-7.177c-18.197 0-35.054-9.062-45.091-24.24-18.778-28.398-50.314-45.352-84.358-45.352h-3.877c.226-2.273.506-4.602.852-6.988l.018-.127c.249-1.945.525-3.928.805-5.935.819-5.887 1.667-11.975 2-18.111.769-14.175-.676-34.298-21.999-45.348-21.238-11.003-47.471-2.683-58.479 18.557-12.074 23.301-17.793 49.862-16.298 75.308-29.25 19.109-48.621 52.135-48.621 89.606v142.235c0 6.873 3.107 13.239 8.526 17.467a21.995 21.995 0 0 0 13.275 4.688 96.192 96.192 0 0 0-.259 4.919c-22.646 15.824-56.883 22.421-92.516 17.667-8.751-1.172-16.646 3.605-19.669 11.874-2.994 8.193-.059 16.856 7.305 21.558 44.492 28.407 99.632 34.484 143.105 36.47a87.18 87.18 0 0 0 6.868 2.938c.036 1.045.062 2.104.068 3.186.064 11.721-1.612 18.984-1.918 19.86-2.956 7.372-2.864 15.454.259 22.759 3.122 7.304 8.902 12.954 16.275 15.91A29.592 29.592 0 0 0 218.966 512h.011c12.223 0 23.061-7.331 27.608-18.677 3.357-8.372 5.585-21.988 6.041-36.135 1.475.019 2.967.029 4.479.029 9.441 0 18.158-.373 26.21-1.117.313 2.735.253 5.73-.607 8.625-4.671 15.717 4.315 32.306 20.03 36.977a29.746 29.746 0 0 0 8.484 1.239c13.055 0 24.773-8.747 28.497-21.272 4.117-13.851 4.27-28.97.51-44.034a58.602 58.602 0 0 0 8.77-8.318c5.886-6.887 9.762-14.782 12.311-23.261a21.892 21.892 0 0 0 14.816 5.76 22.018 22.018 0 0 0 16.168-7.098c8.19-8.911 7.603-22.827-1.308-31.022-6.954-6.392-15.321-11.72-24.91-15.892a95.433 95.433 0 0 0-.454-7.202c6.187-.675 12.505-.055 18.452 1.882l11.376 3.706a58.836 58.836 0 0 0 18.234 2.883c9.75 0 19.472-2.397 28.159-7.102 8.988-4.866 19.878-5.178 29.129-.834 6.9 3.24 14.861 2.733 21.296-1.353 6.435-4.088 10.276-11.078 10.276-18.702V225.331a73.865 73.865 0 0 0-9.441-36.208zM204.833 30.317c7.199-13.895 24.361-19.343 38.257-12.14 10.788 5.59 14.821 14.634 13.922 31.217-.298 5.506-1.102 11.274-1.878 16.853-.284 2.041-.565 4.058-.819 6.036-.45 3.106-.8 6.136-1.065 9.083h-19.695c-15.505 0-30.248 3.32-43.561 9.281.009-20.545 5.13-41.593 14.839-60.33zM51.33 396.095c-1.784-1.14-1.685-2.676-1.287-3.765.343-.939 1.272-2.464 3.595-2.156 35.19 4.699 69.471-.888 94.705-15.001.835 19.673 4.153 38.912 16.459 53.649-37.06-3.073-79.078-10.768-113.472-32.727zm181.331 91.646A14.677 14.677 0 0 1 218.973 497h-.005c-1.868 0-3.709-.358-5.47-1.064a14.642 14.642 0 0 1-8.065-7.885 14.638 14.638 0 0 1-.128-11.28c1.199-2.991 2.931-11.806 2.99-24.14 8.684 1.976 18.443 3.299 29.349 3.997-.424 13.89-2.667 25.337-4.983 31.113zm92.677-10.343c-1.845 6.208-7.65 10.544-14.117 10.544-1.417 0-2.832-.207-4.208-.617-7.789-2.314-12.242-10.535-9.927-18.324 1.382-4.651 1.737-9.619 1.105-14.833 10.965-1.892 20.412-4.681 28.466-8.403 1.675 8.927 2.136 20.009-1.319 31.633zM365.9 374.366c5.642 2.988 10.707 6.492 14.934 10.376 2.823 2.597 3.009 7.005.415 9.827a6.886 6.886 0 0 1-5.124 2.249 6.93 6.93 0 0 1-4.702-1.834c-2.019-1.856-4.294-3.587-6.751-5.207.654-5.061 1.026-10.222 1.228-15.411zm121.646-43.281c0 3.548-2.32 5.405-3.318 6.039-.998.634-3.667 1.944-6.877.436-13.547-6.36-29.49-5.904-42.647 1.222-10.566 5.723-23.181 6.868-34.604 3.147l-11.376-3.706c-10.818-3.524-22.554-3.814-33.518-.897a7.77 7.77 0 0 0-.144.041 58.13 58.13 0 0 0-4.339 1.344l-6.516 2.309a43.837 43.837 0 0 1-26.181 1.008l-22.93-6.189a58.913 58.913 0 0 0-33.514.814l-11.113 3.587a44.309 44.309 0 0 1-19.205 1.76 7.5 7.5 0 1 0-1.934 14.875 59.285 59.285 0 0 0 16.212-.145 7.47 7.47 0 0 0-1.213 2.484 7.502 7.502 0 0 0 5.264 9.209c4.397 1.198 17.778 4.847 29.462 14.232 2.989 2.401 3.468 6.787 1.066 9.776a6.932 6.932 0 0 1-5.43 2.6 6.88 6.88 0 0 1-4.347-1.532c-9.427-7.573-20.314-10.541-24.411-11.658a7.505 7.505 0 0 0-9.209 5.264 7.502 7.502 0 0 0 5.264 9.209c3.273.892 11.97 3.263 18.962 8.879a22.017 22.017 0 0 0 13.741 4.839 21.86 21.86 0 0 0 17.123-8.205c7.582-9.438 6.072-23.284-3.365-30.865-12.758-10.249-26.765-14.72-33.141-16.521l10.881-3.512a43.937 43.937 0 0 1 24.997-.607l22.93 6.189c11.62 3.134 23.759 2.668 35.1-1.352l1.694-.6c.135 1.893.222 3.789.222 5.678 0 26.854-2.265 46.147-13.536 59.336-2.716 3.178-5.965 6.001-9.761 8.49a7.447 7.447 0 0 0-.71.469c-9.321 5.898-21.893 9.82-38.164 11.9-.448.015-.9.067-1.351.165-9.029 1.084-19.167 1.621-30.505 1.621-4.016 0-7.879-.068-11.599-.203-.101-.004-.2-.015-.302-.015h-.051c-16.736-.625-30.505-2.626-41.605-6.091a7.458 7.458 0 0 0-1.644-.534c-3.497-1.166-6.718-2.485-9.674-3.96a7.529 7.529 0 0 0-1.07-.546c-5.927-3.102-10.75-6.856-14.544-11.296-8.356-9.778-13.536-23.115-13.536-59.336 0-3.545.251-7.094.716-10.603l11.142-2.793a44.293 44.293 0 0 1 20.158-.295 7.496 7.496 0 0 0 8.936-5.715 7.5 7.5 0 0 0-5.715-8.936 59.331 59.331 0 0 0-27.027.396l-15.666 3.928c-.02.004-.039.01-.059.015l-5.072 1.272a7.116 7.116 0 0 1-6.14-1.3 7.11 7.11 0 0 1-2.754-5.641V188.33c0-50.707 41.253-91.962 91.961-91.962h38.638c28.995 0 55.855 14.438 71.847 38.625 12.822 19.391 34.356 30.967 57.604 30.967h26.532c32.737 0 59.371 26.634 59.371 59.371v105.755h-.006zm-50.794-144.542a6.845 6.845 0 1 0 0 13.69 6.845 6.845 0 0 0 0-13.69z"
            fill="#000000" data-original="#000000"></path>
    </g>
</svg>