<svg xmlns="http://www.w3.org/2000/svg" version="1.1" xmlns:xlink="http://www.w3.org/1999/xlink"
    xmlns:svgjs="http://svgjs.com/svgjs" width="512" height="512" x="0" y="0" viewBox="0 0 512 512"
    style="enable-background:new 0 0 512 512" xml:space="preserve" class="">
    <g>
        <path
            d="M201.377 397.639c-65.657 0-141.215 0-196.53-35.315-9.465-6.043-3.991-20.639 7.14-19.153 43.804 5.848 80.598-5.302 101.58-23.365l87.81 77.833z"
            style="" fill="#5cb38e" data-original="#5cb38e"></path>
        <path
            d="M88.802 334.707c.732 20.968 3.95 41.897 16.875 59.3 32.007 3.632 64.94 3.632 95.701 3.632l-87.81-77.832c-6.724 5.789-15.082 10.863-24.766 14.9z"
            style="opacity:0.1;enable-background:new ;" fill="#000000" data-original="#000000"></path>
        <path
            d="M171.985 461.684c-.557 0-1.118-.021-1.683-.065-11.919-.917-20.839-11.322-19.922-23.243.832-10.816-.06-46.891-1.612-54.88-3.562-10.724 1.763-22.521 12.38-26.849 11.071-4.511 23.702.806 28.214 11.876 5.837 14.323 4.448 69.707 4.181 73.172-.874 11.356-10.359 19.988-21.558 19.989zm-22.723-76.845.01.024-.01-.024zM250.485 461.684c-.558 0-1.118-.021-1.683-.065-11.919-.917-20.839-11.322-19.922-23.243.832-10.816-.06-46.891-1.612-54.881-3.562-10.724 1.764-22.522 12.381-26.848 11.074-4.511 23.703.807 28.213 11.877 5.836 14.324 4.446 69.706 4.18 73.171-.873 11.356-10.357 19.988-21.557 19.989zm-22.723-76.847.01.025a.433.433 0 0 0-.01-.025z"
            style="" fill="#498a68" data-original="#498a68"></path>
        <path
            d="M161.148 356.649c-10.617 4.328-15.942 16.124-12.38 26.849 1.085 5.583 1.846 24.879 1.923 39.689 12.28 3.551 26.596 5.681 43.146 6.47.2-17.99-.191-50.618-4.475-61.131-4.512-11.07-17.143-16.387-28.214-11.877zM272.377 421.639c-.017-18.399-.81-44.022-4.514-53.113-4.51-11.07-17.139-16.388-28.213-11.877-10.617 4.326-15.943 16.122-12.381 26.848 1.245 6.406 2.063 30.864 1.91 45.883 16.711-1.097 31.029-3.651 43.198-7.741z"
            style="opacity:0.1;enable-background:new ;" fill="#000000" data-original="#000000"></path>
        <path
            d="M307.892 321.269c0 50.533-6.864 87.097-98.823 87.097s-98.823-36.564-98.823-87.097 44.244-91.497 98.823-91.497 98.823 40.964 98.823 91.497z"
            style="" fill="#5cb38e" data-original="#5cb38e"></path>
        <path
            d="M307.892 321.269c0-.403-.011-.803-.016-1.205-20.584-5.282-61.411-6.818-89.822 23.375-20.704 22.003-23.7 45.746-21.479 64.682 3.98.162 8.141.244 12.494.244 91.958.001 98.823-36.564 98.823-87.096z"
            style="" fill="#9bdfc1" data-original="#9bdfc1"></path>
        <path
            d="M190.307 231.426c-45.605 8.116-80.062 45.25-80.062 89.844 0 46.79 5.896 81.6 79.773 86.5-41.018-41.635-33.085-127.599.289-176.344z"
            style="opacity:0.05;enable-background:new ;" fill="#000000" data-original="#000000"></path>
        <path
            d="M306.028 101.308a91.137 91.137 0 0 0-72.171-47.339l-37.464-3.278c-53.264-4.66-100.22 34.741-104.88 88.006l-3.879 44.341c-4.182 47.803 31.18 89.947 78.983 94.129l198.6 17.375c35.811 3.133 67.381-23.358 70.514-59.169l2.64-30.178c3.133-35.811-23.358-67.381-59.169-70.514l-25.728-2.251a59.918 59.918 0 0 1-47.446-31.122z"
            style="" fill="#5cb38e" data-original="#5cb38e"></path>
        <g style="opacity:0.1;">
            <circle cx="138.175" cy="208.696" r="6.662" fill="#000000" data-original="#000000"></circle>
            <circle cx="184.476" cy="222.947" r="6.662" fill="#000000" data-original="#000000"></circle>
            <circle cx="155.495" cy="243.227" r="6.662" fill="#000000" data-original="#000000"></circle>
        </g>
        <ellipse cx="175.91" cy="128.992" rx="8.615" ry="16.794" style="" transform="rotate(-84.997 175.91 128.99)"
            fill="#ffa8cb" data-original="#ffa8cb"></ellipse>
        <ellipse cx="288.238" cy="138.799" rx="8.615" ry="16.794" style="" transform="rotate(95.003 288.236 138.8)"
            fill="#ffa8cb" data-original="#ffa8cb"></ellipse>
        <path
            d="M198.64 121.323a7.5 7.5 0 0 1-7.481-8.154l.73-8.336a7.5 7.5 0 0 1 14.943 1.309l-.729 8.336a7.5 7.5 0 0 1-7.463 6.845zM268.506 127.436a7.5 7.5 0 0 1-7.48-8.154l.73-8.336a7.5 7.5 0 1 1 14.943 1.309l-.73 8.336a7.5 7.5 0 0 1-7.463 6.845zM358.103 253.142a25.134 25.134 0 0 1-20.309-10.342 7.498 7.498 0 0 1 1.646-10.477 7.498 7.498 0 0 1 10.478 1.646 10.138 10.138 0 0 0 7.305 4.135c2.92.262 5.796-.767 7.909-2.803a7.5 7.5 0 0 1 10.408 10.801 25.136 25.136 0 0 1-17.437 7.04z"
            style="" fill="#495059" data-original="#495059"></path>
        <circle cx="342.261" cy="165.575" r="6.662" style="" fill="#495059" data-original="#495059"></circle>
        <circle cx="384.552" cy="169.275" r="6.662" style="" fill="#495059" data-original="#495059"></circle>
        <path
            d="M174.758 51.209c-43.804 5.986-79.23 41.587-83.245 87.488l-3.879 44.341c-4.182 47.803 31.18 89.947 78.983 94.129l52.523 4.595c-72.599-51.199-74.861-174.673-44.382-230.553z"
            style="opacity:0.05;enable-background:new ;" fill="#000000" data-original="#000000"></path>
        <path
            d="M428.224 434.716a7.5 7.5 0 0 1-4.004-13.847c7.643-4.815 15.835-19.07 17.187-29.909.523-4.194-.042-7.51-1.551-9.096a7.5 7.5 0 1 1 10.868-10.34c4.757 4.999 6.683 12.362 5.568 21.293-1.908 15.307-12.709 33.584-24.077 40.744a7.469 7.469 0 0 1-3.991 1.155zM493.745 442.628a7.47 7.47 0 0 1-5.073-1.978c-17.432-16.018-9.468-32.351-2.442-46.759 6.544-13.419 13.96-28.629 9.339-50.147-2.976-13.855-20.169-26.275-42.737-22.185a7.499 7.499 0 0 1-8.718-6.042 7.502 7.502 0 0 1 6.042-8.718c12.102-2.192 25.254-.495 36.086 4.658 12.738 6.06 21.261 16.407 23.994 29.136 5.709 26.586-3.672 45.824-10.522 59.872-7.495 15.371-9.642 21.098-.89 29.14a7.5 7.5 0 0 1-5.079 13.023z"
            style="" fill="#959ba0" data-original="#959ba0"></path>
        <path d="M229.862 193.943h76.742V434.4h-76.742z" style="" transform="rotate(109.999 268.233 314.172)"
            fill="#fae17c" data-original="#fae17c"></path>
        <path d="M95.504 242.523h76.742v45.501H95.504z" style="" transform="rotate(109.999 133.876 265.273)"
            fill="#e5e5e5" data-original="#e5e5e5"></path>
        <path
            d="m125.626 221.442-26.248 72.114-34.699-12.629c-10.771-3.92-16.324-15.83-12.404-26.601l12.05-33.109c3.92-10.771 15.829-16.324 26.601-12.404l34.7 12.629z"
            style="" fill="#cd5b5b" data-original="#cd5b5b"></path>
        <path d="m424.208 350.533-29.872-31.289-26.247 72.114 42.996-4.767z" style="" fill="#ffa8cb"
            data-original="#ffa8cb"></path>
        <path d="m411.085 386.591 27.303-3.028c6.428-.713 9.256-8.482 4.79-13.16l-18.97-19.87-13.123 36.058z" style=""
            fill="#495059" data-original="#495059"></path>
        <path d="M148.015 306.676h240.457v15H148.015z" style="opacity:0.1;enable-background:new ;"
            transform="rotate(-160.001 268.243 314.176)" fill="#000000" data-original="#000000"></path>
        <path
            d="M74.848 209.616c-4.716 2.265-8.589 6.295-10.52 11.6l-12.05 33.109c-3.92 10.771 1.633 22.681 12.404 26.601l186.573 67.907C179.814 304.02 83.438 265.28 74.848 209.616z"
            style="opacity:0.1;enable-background:new ;" fill="#000000" data-original="#000000"></path>
        <path
            d="M209.859 354.789a14.05 14.05 0 0 1-11.492-5.936c-4.492-6.34-2.994-15.121 3.346-19.614 3.433-2.432 6.391-5.093 8.794-7.908 5.042-5.91 13.924-6.614 19.835-1.57 5.911 5.044 6.614 13.924 1.571 19.836-3.913 4.585-8.6 8.826-13.931 12.603a14.024 14.024 0 0 1-8.123 2.589z"
            style="" fill="#498a68" data-original="#498a68"></path>
    </g>
</svg>