<svg xmlns="http://www.w3.org/2000/svg" version="1.1" xmlns:xlink="http://www.w3.org/1999/xlink"
    xmlns:svgjs="http://svgjs.com/svgjs" width="512" height="512" x="0" y="0" viewBox="0 0 512.001 512.001"
    style="enable-background:new 0 0 512 512" xml:space="preserve" class="">
    <g>
        <path
            d="M370.307 386.656c-5.839 0-11.488-3.136-14.432-8.646-5.607-10.492-14.601-17.615-17.986-20.296l-.411-.327c-7.067-5.617-8.243-15.9-2.625-22.968 5.615-7.067 15.898-8.246 22.968-2.625l.366.29c4.381 3.47 17.711 14.027 26.524 30.518 4.255 7.962 1.25 17.866-6.713 22.122a16.307 16.307 0 0 1-7.691 1.932z"
            style="" fill="#498a68" data-original="#498a68"></path>
        <path
            d="M233.974 416.608c-76.284 0-164.073 0-228.341-41.032-10.998-7.021-4.637-23.979 8.296-22.253 50.895 6.794 93.645-6.161 118.022-27.147l102.023 90.432z"
            style="" fill="#5cb38e" data-original="#5cb38e" class=""></path>
        <path
            d="M103.176 343.489c.85 24.362 4.59 48.679 19.607 68.899 37.188 4.219 75.452 4.22 111.191 4.22l-102.023-90.431c-7.813 6.727-17.523 12.621-28.775 17.312z"
            style="opacity:0.1;enable-background:new ;" fill="#000000" data-original="#000000"></path>
        <path
            d="M199.824 491.019c-.647 0-1.299-.025-1.955-.075-13.848-1.065-24.212-13.154-23.147-27.003.966-12.568-.07-54.485-1.873-63.766-4.138-12.46 2.051-26.167 14.387-31.193 12.863-5.237 27.538.939 32.78 13.802 6.778 16.642 5.166 80.987 4.857 85.013-1.015 13.192-12.035 23.222-25.049 23.222zm-26.402-89.286.011.028-.011-.028zM291.03 491.019c-.648 0-1.3-.025-1.957-.075-13.848-1.066-24.211-13.156-23.145-27.006.968-12.565-.069-54.474-1.873-63.761-4.139-12.46 2.048-26.166 14.385-31.194 12.857-5.241 27.537.936 32.781 13.799 6.783 16.647 5.167 80.991 4.858 85.018-1.016 13.19-12.036 23.219-25.049 23.219zm-26.399-89.282.01.027c-.002-.009-.007-.019-.01-.027z"
            style="" fill="#498a68" data-original="#498a68"></path>
        <path
            d="M316.467 444.493c-.02-21.376-.942-51.147-5.246-61.711-5.243-12.863-19.924-19.04-32.781-13.799-12.336 5.029-18.524 18.734-14.385 31.194 1.447 7.447 2.398 35.861 2.22 53.309 19.416-1.274 36.053-4.242 50.192-8.993zM187.236 368.982c-12.336 5.026-18.525 18.733-14.387 31.193 1.26 6.486 2.144 28.907 2.234 46.116 14.268 4.126 30.901 6.601 50.131 7.517.232-20.9-.223-58.809-5.198-71.023-5.242-12.864-19.917-19.041-32.78-13.803z"
            style="opacity:0.1;enable-background:new ;" fill="#000000" data-original="#000000"></path>
        <path
            d="M357.729 327.876c0 58.712-7.975 101.195-114.819 101.195s-114.819-42.483-114.819-101.195 51.406-106.307 114.819-106.307c63.412 0 114.819 47.595 114.819 106.307z"
            style="" fill="#5cb38e" data-original="#5cb38e" class=""></path>
        <path
            d="M357.729 327.876c0-.468-.013-.933-.019-1.4-23.915-6.137-71.351-7.922-104.361 27.159-24.055 25.564-27.536 53.151-24.955 75.152 4.624.188 9.459.284 14.517.284 106.843 0 114.818-42.483 114.818-101.195z"
            style="" fill="#9bdfc1" data-original="#9bdfc1"></path>
        <path
            d="M221.112 223.49c-52.987 9.43-93.022 52.575-93.022 104.386 0 54.364 6.851 94.808 92.686 100.501-47.658-48.373-38.44-148.252.336-204.887z"
            style="opacity:0.05;enable-background:new ;" fill="#000000" data-original="#000000"></path>
        <path
            d="M348.302 68.465a105.894 105.894 0 0 0-88.328-47.484h-43.695c-62.122 0-112.482 50.36-112.482 112.482v51.715c0 55.754 45.197 100.951 100.951 100.951h231.628c41.767 0 75.625-33.859 75.625-75.625v-35.197c0-41.767-33.858-75.625-75.625-75.625H406.37a69.614 69.614 0 0 1-58.068-31.217z"
            style="" fill="#5cb38e" data-original="#5cb38e" class=""></path>
        <g style="opacity:0.1;">
            <circle cx="164.901" cy="209.76" r="7.741" fill="#000000" data-original="#000000"></circle>
            <circle cx="219.931" cy="221.57" r="7.741" fill="#000000" data-original="#000000"></circle>
            <circle cx="188.441" cy="247.97" r="7.741" fill="#000000" data-original="#000000"></circle>
        </g>
        <ellipse cx="176.671" cy="103.89" rx="19.511" ry="10.01" style="" fill="#ffa8cb" data-original="#ffa8cb">
        </ellipse>
        <ellipse cx="307.661" cy="103.89" rx="19.511" ry="10.01" style="" fill="#ffa8cb" data-original="#ffa8cb">
        </ellipse>
        <path
            d="M201.42 91.547a7.499 7.499 0 0 1-7.5-7.5v-9.723c0-4.143 3.357-7.5 7.5-7.5s7.5 3.357 7.5 7.5v9.723a7.5 7.5 0 0 1-7.5 7.5zM282.905 91.547a7.499 7.499 0 0 1-7.5-7.5v-9.723c0-4.143 3.357-7.5 7.5-7.5s7.5 3.357 7.5 7.5v9.723a7.5 7.5 0 0 1-7.5 7.5z"
            style="" fill="#495059" data-original="#495059"></path>
        <circle cx="396.741" cy="139.18" r="7.741" style="" fill="#495059" data-original="#495059"></circle>
        <circle cx="446.071" cy="139.18" r="7.741" style="" fill="#495059" data-original="#495059"></circle>
        <path
            d="M191.29 23.771c-50.094 11.364-87.493 56.158-87.493 109.691v51.715c0 55.754 45.197 100.951 100.951 100.951h61.257C176.793 234.221 161.671 91.537 191.29 23.771z"
            style="opacity:0.05;enable-background:new ;" fill="#000000" data-original="#000000"></path>
        <path
            d="M305.412 399.674h-32.446a7.68 7.68 0 0 1-7.63-6.811l-5.652-49.653h59.011l-5.652 49.653a7.68 7.68 0 0 1-7.631 6.811z"
            style="" fill="#cd5b5b" data-original="#cd5b5b"></path>
        <path
            d="M436.18 223.987c-3.728 3.894-8.954 6.341-14.771 6.341a20.339 20.339 0 0 1-11.868-3.819l8.08 30.79c2.828 10.774-2.864 21.956-13.238 26.011-10.481 4.094-22.379 2.889-31.825-3.228l-34.23-22.173a40.372 40.372 0 0 0-41.25-1.582 40.36 40.36 0 0 0-21.093 35.48v34.128c0 7.292 5.911 13.203 13.203 13.203s13.203-5.911 13.203-13.203v-34.128c0-7.502 5.106-11.087 7.301-12.281 2.196-1.195 7.982-3.53 14.28.547l34.23 22.173c16.56 10.725 37.416 12.838 55.792 5.659 22.859-8.932 35.398-33.569 29.168-57.307l-6.982-26.611z"
            style="" fill="#a3e3ff" data-original="#a3e3ff"></path>
        <path
            d="M374.6 281.299a34.978 34.978 0 0 1-2.042-1.217l-34.23-22.174a40.372 40.372 0 0 0-41.25-1.582 40.36 40.36 0 0 0-21.093 35.48v34.128c0 7.292 5.911 13.203 13.203 13.203s13.203-5.911 13.203-13.203v-34.128c0-7.502 5.106-11.087 7.301-12.281 2.196-1.195 7.982-3.53 14.28.546l34.229 22.173a61.24 61.24 0 0 0 16.296 7.422c-3.344-8.807-3.581-20.427.103-28.367z"
            style="" fill="#806c6c" data-original="#806c6c"></path>
        <path
            d="M326.426 317.736h-74.474a5.021 5.021 0 0 0-5.022 5.022v15.429a5.021 5.021 0 0 0 5.022 5.022h74.474a5.022 5.022 0 0 0 5.022-5.022v-15.429a5.023 5.023 0 0 0-5.022-5.022z"
            style="" fill="#ffffff" data-original="#ffffff"></path>
        <path
            d="M258.997 385.052c-.922 0-1.855-.077-2.794-.24-14.874-2.561-35.097-12.242-41.945-17.52-7.152-5.511-8.48-15.776-2.969-22.926 5.5-7.137 15.735-8.477 22.886-3 3.054 2.202 17.962 9.571 27.577 11.226 8.897 1.533 14.868 9.987 13.336 18.884-1.371 7.959-8.281 13.576-16.091 13.576z"
            style="" fill="#498a68" data-original="#498a68"></path>
        <path
            d="M421.409 237.827a27.986 27.986 0 0 1-21.097-9.607 7.5 7.5 0 0 1 11.309-9.855c2.472 2.836 6.039 4.463 9.788 4.463s7.316-1.627 9.788-4.463a7.5 7.5 0 0 1 11.309 9.855 27.984 27.984 0 0 1-21.097 9.607z"
            style="" fill="#495059" data-original="#495059"></path>
    </g>
</svg>