<svg xmlns="http://www.w3.org/2000/svg" version="1.1" xmlns:xlink="http://www.w3.org/1999/xlink"
    xmlns:svgjs="http://svgjs.com/svgjs" width="512" height="512" x="0" y="0" viewBox="0 0 512 512"
    style="enable-background:new 0 0 512 512" xml:space="preserve" class="">
    <g>
        <path
            d="M75.154 152.569c-.377 0-.758-.028-1.141-.087l-34.985-5.337a7.499 7.499 0 0 1-6.283-8.545c.625-4.096 4.466-6.905 8.545-6.283l34.985 5.337a7.5 7.5 0 0 1-1.121 14.915zM106.287 66.826a7.466 7.466 0 0 1-4.713-1.67L78.253 46.285a7.5 7.5 0 0 1-1.112-10.548 7.498 7.498 0 0 1 10.548-1.112l23.321 18.871a7.5 7.5 0 0 1-4.723 13.33zM333.916 61.036a7.47 7.47 0 0 1-5.159-2.058 7.5 7.5 0 0 1-.282-10.603l17.036-17.968a7.498 7.498 0 0 1 10.603-.282 7.5 7.5 0 0 1 .282 10.603L339.36 58.696a7.478 7.478 0 0 1-5.444 2.34zM233.24 39.904a7.499 7.499 0 0 1-7.5-7.5V7.5c0-4.143 3.357-7.5 7.5-7.5s7.5 3.357 7.5 7.5v24.904c0 4.143-3.357 7.5-7.5 7.5z"
            style="" fill="#495059" data-original="#495059"></path>
        <path
            d="M342.444 389.316a15.38 15.38 0 0 1-11.853-5.55c-5.45-6.542-4.564-16.264 1.978-21.713 4.707-3.92 13.249-9.478 29.487-19.182 7.31-4.366 16.777-1.983 21.143 5.325 4.367 7.309 1.984 16.775-5.325 21.143-5.688 3.399-20.794 12.427-25.571 16.405a15.356 15.356 0 0 1-9.859 3.572z"
            style="" fill="#498a68" data-original="#498a68"></path>
        <path
            d="M235.226 441.82c-71.946 0-154.742 0-215.356-38.698-10.372-6.622-4.373-22.616 7.824-20.987 48 6.408 88.319-5.81 111.311-25.603l96.221 85.288z"
            style="" fill="#5cb38e" data-original="#5cb38e"></path>
        <path
            d="M111.866 372.86c.802 22.976 4.329 45.911 18.492 64.981 35.073 3.979 71.161 3.98 104.868 3.98l-96.221-85.288c-7.369 6.343-16.527 11.903-27.139 16.327z"
            style="opacity:0.1;enable-background:new ;" fill="#000000" data-original="#000000"></path>
        <path
            d="M203.017 512c-.61 0-1.225-.023-1.844-.071-13.06-1.004-22.835-12.406-21.831-25.468.911-11.853-.066-51.387-1.766-60.14-3.903-11.752 1.934-24.679 13.569-29.419 12.132-4.94 25.972.886 30.915 13.017 6.393 15.695 4.872 76.382 4.58 80.178C225.684 502.54 215.291 512 203.017 512zm-24.9-84.208.01.027a.17.17 0 0 0-.01-.027zM289.037 512c-.611 0-1.226-.023-1.846-.071-13.06-1.005-22.834-12.408-21.829-25.47.913-11.85-.065-51.376-1.766-60.135-3.904-11.752 1.932-24.678 13.566-29.42 12.126-4.943 25.971.883 30.917 13.014 6.397 15.7 4.873 76.385 4.582 80.183C311.703 502.542 301.31 512 289.037 512zm-24.898-84.205.009.025-.009-.025z"
            style="" fill="#498a68" data-original="#498a68"></path>
        <path
            d="M313.027 468.12c-.019-20.161-.888-48.238-4.948-58.202-4.945-12.132-18.791-17.957-30.917-13.014-11.635 4.743-17.47 17.669-13.566 29.42 1.364 7.024 2.262 33.821 2.094 50.278 18.311-1.202 34.002-4.001 47.337-8.482zM191.145 396.903c-11.635 4.74-17.472 17.668-13.569 29.419 1.188 6.118 2.022 27.263 2.106 43.493 13.457 3.891 29.144 6.225 47.28 7.089.219-19.711-.21-55.465-4.902-66.984-4.942-12.131-18.783-17.957-30.915-13.017z"
            style="opacity:0.1;enable-background:new ;" fill="#000000" data-original="#000000"></path>
        <path
            d="M351.943 358.135c0 55.373-7.521 95.44-108.29 95.44s-108.29-40.067-108.29-95.44 48.483-100.262 108.29-100.262c59.807 0 108.29 44.889 108.29 100.262z"
            style="" fill="#5cb38e" data-original="#5cb38e"></path>
        <path
            d="M351.943 358.135c0-.441-.012-.88-.018-1.32-22.555-5.788-67.294-7.472-98.426 25.614-22.687 24.11-25.97 50.128-23.536 70.878 4.361.177 8.921.267 13.691.267 100.767.001 108.289-40.066 108.289-95.439z"
            style="" fill="#9bdfc1" data-original="#9bdfc1"></path>
        <path
            d="M223.095 259.685c-49.974 8.893-87.732 49.586-87.732 98.45 0 51.273 6.461 89.417 87.415 94.786-44.947-45.623-36.254-139.822.317-193.236z"
            style="opacity:0.05;enable-background:new ;" fill="#000000" data-original="#000000"></path>
        <path
            d="M343.052 113.477a99.871 99.871 0 0 0-83.305-44.784h-41.21c-58.589 0-106.085 47.496-106.085 106.085v48.774c0 52.583 42.627 95.21 95.21 95.21h218.455c39.391 0 71.324-31.933 71.324-71.324v-33.195c0-39.391-31.933-71.324-71.324-71.324h-28.3a65.661 65.661 0 0 1-54.765-29.442z"
            style="" fill="#5cb38e" data-original="#5cb38e"></path>
        <ellipse cx="412" cy="254.03" rx="33.33" ry="37.619" style="" fill="#495059" data-original="#495059"></ellipse>
        <g style="opacity:0.1;">
            <circle cx="170.08" cy="246.73" r="7.301" fill="#000000" data-original="#000000"></circle>
            <circle cx="221.98" cy="257.87" r="7.301" fill="#000000" data-original="#000000"></circle>
            <circle cx="192.28" cy="282.78" r="7.301" fill="#000000" data-original="#000000"></circle>
        </g>
        <ellipse cx="181.18" cy="157.87" rx="18.402" ry="9.441" style="" fill="#ffa8cb" data-original="#ffa8cb">
        </ellipse>
        <ellipse cx="304.72" cy="157.87" rx="18.402" ry="9.441" style="" fill="#ffa8cb" data-original="#ffa8cb">
        </ellipse>
        <circle cx="388.74" cy="180.17" r="7.301" style="" fill="#495059" data-original="#495059"></circle>
        <circle cx="435.27" cy="180.17" r="7.301" style="" fill="#495059" data-original="#495059"></circle>
        <path
            d="M194.969 71.324c-47.245 10.718-82.517 52.965-82.517 103.453v48.774c0 52.583 42.627 95.21 95.21 95.21h57.774c-84.14-48.955-98.401-183.525-70.467-247.437z"
            style="opacity:0.05;enable-background:new ;" fill="#000000" data-original="#000000"></path>
        <circle cx="199.58" cy="120.09" r="34.478" style="" fill="#ffffff" data-original="#ffffff"></circle>
        <circle cx="199.58" cy="120.09" r="8.811" style="" fill="#495059" data-original="#495059"></circle>
        <circle cx="286.32" cy="120.09" r="34.478" style="" fill="#ffffff" data-original="#ffffff"></circle>
        <circle cx="286.32" cy="120.09" r="8.811" style="" fill="#495059" data-original="#495059"></circle>
        <path
            d="M228.493 389.316a15.363 15.363 0 0 1-10.43-4.067c-3.834-3.524-11.957-10.751-23.28-19.553-6.722-5.227-7.934-14.912-2.709-21.635 5.227-6.723 14.911-7.934 21.635-2.709 12.196 9.483 21.036 17.351 25.221 21.197 6.269 5.762 6.679 15.514.916 21.784a15.378 15.378 0 0 1-11.353 4.983z"
            style="" fill="#498a68" data-original="#498a68"></path>
    </g>
</svg>