<svg xmlns="http://www.w3.org/2000/svg" version="1.1" xmlns:xlink="http://www.w3.org/1999/xlink"
    xmlns:svgjs="http://svgjs.com/svgjs" width="512" height="512" x="0" y="0" viewBox="0 0 511.999 511.999"
    style="enable-background:new 0 0 512 512" xml:space="preserve" class="">
    <g>
        <circle cx="414.66" cy="101.999" r="63.857" style="" fill="#fae17c" data-original="#fae17c"></circle>
        <path
            d="M488.168 57.83a7.488 7.488 0 0 1-6.138-3.183 82.517 82.517 0 0 0-21.456-21.007 7.5 7.5 0 0 1-2.034-10.409 7.498 7.498 0 0 1 10.41-2.034 97.455 97.455 0 0 1 25.344 24.813 7.5 7.5 0 0 1-1.813 10.45 7.46 7.46 0 0 1-4.313 1.37z"
            style="" fill="#fae17c" data-original="#fae17c"></path>
        <path
            d="M347.183 50.189a7.5 7.5 0 0 1-5.629-12.454 97.4 97.4 0 0 1 73.107-33.071 7.5 7.5 0 0 1 0 15 82.396 82.396 0 0 0-61.844 27.979 7.485 7.485 0 0 1-5.634 2.546z"
            style="" fill="#ffa8cb" data-original="#ffa8cb"></path>
        <path
            d="M389.194 195.68c-.703 0-1.418-.1-2.126-.309-19.734-5.824-37.487-18.103-49.989-34.577-12.924-17.03-19.755-37.36-19.755-58.792 0-4.143 3.358-7.5 7.5-7.5s7.5 3.357 7.5 7.5c0 18.13 5.776 35.324 16.704 49.725 10.581 13.942 25.599 24.333 42.286 29.258a7.5 7.5 0 0 1 5.07 9.316 7.504 7.504 0 0 1-7.19 5.379zM414.662 199.34c-4.142 0-7.5-3.357-7.5-7.5s3.358-7.5 7.5-7.5c22.16 0 42.947-8.676 58.534-24.43a7.499 7.499 0 0 1 10.607-.056 7.5 7.5 0 0 1 .057 10.606c-18.427 18.624-43.002 28.88-69.198 28.88z"
            style="" fill="#fae17c" data-original="#fae17c"></path>
        <path
            d="M501.553 132.432a7.5 7.5 0 0 1-7.258-9.411A82.619 82.619 0 0 0 497 102.002a82.285 82.285 0 0 0-3.948-25.269 7.5 7.5 0 1 1 14.277-4.599 97.28 97.28 0 0 1 4.67 29.868 97.626 97.626 0 0 1-3.199 24.837 7.503 7.503 0 0 1-7.247 5.593z"
            style="" fill="#ffa8cb" data-original="#ffa8cb"></path>
        <path
            d="M142.312 337.782c0 54.16 7.357 93.35 105.918 93.35s105.918-39.19 105.918-93.35-47.421-98.066-105.918-98.066-105.918 43.905-105.918 98.066z"
            style="" fill="#5cb38e" data-original="#5cb38e"></path>
        <path
            d="M142.312 337.782c0-.432.012-.861.018-1.291 22.061-5.661 65.82-7.308 96.27 25.053 22.19 23.582 25.401 49.03 23.021 69.326-4.266.173-8.725.262-13.391.262-98.561-.001-105.918-39.19-105.918-93.35z"
            style="" fill="#9bdfc1" data-original="#9bdfc1"></path>
        <path
            d="M268.337 241.488c48.88 8.699 85.81 48.499 85.81 96.293 0 50.15-6.32 87.458-85.5 92.71 43.963-44.623 35.46-136.758-.31-189.003z"
            style="opacity:0.05;enable-background:new ;" fill="#000000" data-original="#000000"></path>
        <path
            d="M151.008 98.482a97.685 97.685 0 0 1 81.48-43.803h40.307c57.306 0 103.761 46.455 103.761 103.761v47.706c0 51.431-41.693 93.125-93.125 93.125H69.762C31.233 299.271 0 268.037 0 229.509v-32.468c0-38.529 31.233-69.762 69.762-69.762h27.68a64.22 64.22 0 0 0 53.566-28.797z"
            style="" fill="#5cb38e" data-original="#5cb38e"></path>
        <g style="opacity:0.1;">
            <circle cx="320.19" cy="228.819" r="7.141" fill="#000000" data-original="#000000"></circle>
            <circle cx="269.43" cy="239.719" r="7.141" fill="#000000" data-original="#000000"></circle>
            <circle cx="298.48" cy="264.069" r="7.141" fill="#000000" data-original="#000000"></circle>
        </g>
        <ellipse cx="309.34" cy="131.159" rx="17.999" ry="9.234" style="" fill="#ffa8cb" data-original="#ffa8cb">
        </ellipse>
        <ellipse cx="188.5" cy="131.159" rx="17.999" ry="9.234" style="" fill="#ffa8cb" data-original="#ffa8cb">
        </ellipse>
        <path
            d="M286.502 120.355a7.5 7.5 0 0 1-7.5-7.5v-8.969c0-4.143 3.358-7.5 7.5-7.5s7.5 3.357 7.5 7.5v8.969c0 4.143-3.357 7.5-7.5 7.5zM211.335 120.355a7.5 7.5 0 0 1-7.5-7.5v-8.969c0-4.143 3.358-7.5 7.5-7.5s7.5 3.357 7.5 7.5v8.969a7.5 7.5 0 0 1-7.5 7.5zM83.569 255.295a26.393 26.393 0 0 1-19.899-9.062 7.5 7.5 0 0 1 11.309-9.855 11.396 11.396 0 0 0 8.591 3.917c3.291 0 6.421-1.428 8.59-3.916a7.5 7.5 0 1 1 11.308 9.853 26.388 26.388 0 0 1-19.899 9.063z"
            style="" fill="#495059" data-original="#495059"></path>
        <circle cx="106.32" cy="163.719" r="7.141" style="" fill="#495059" data-original="#495059"></circle>
        <circle cx="60.814" cy="163.719" r="7.141" style="" fill="#495059" data-original="#495059"></circle>
        <path
            d="M295.847 57.253c46.211 10.483 80.71 51.805 80.71 101.187v47.706c0 51.431-41.693 93.125-93.125 93.125h-56.508c82.296-47.883 96.246-179.506 68.923-242.018z"
            style="opacity:0.05;enable-background:new ;" fill="#000000" data-original="#000000"></path>
        <path
            d="M359.563 343.823H154.234c-6.917-15.919-22.772-27.056-41.235-27.056-24.823 0-44.946 20.123-44.946 44.946s20.123 44.946 44.946 44.946h246.564c17.352 0 31.418-14.066 31.418-31.419 0-17.35-14.066-31.417-31.418-31.417z"
            style="" fill="#fae17c" data-original="#fae17c"></path>
        <path
            d="M84.393 386.933h-25.24c-9.667 0-17.504-7.837-17.504-17.504 0-9.667 7.837-17.504 17.504-17.504h25.24c9.667 0 17.504 7.837 17.504 17.504 0 9.667-7.837 17.504-17.504 17.504z"
            style="" fill="#ffa8cb" data-original="#ffa8cb"></path>
        <path
            d="M228.758 378.526c-.959 0-1.933-.093-2.909-.283-8.174-1.598-13.504-9.519-11.907-17.693 2.981-15.255 10.072-26.763 12.74-31.096l.224-.362c4.357-7.099 13.642-9.32 20.74-4.965 7.098 4.357 9.32 13.642 4.964 20.74l-.25.407c-1.884 3.057-6.888 11.179-8.819 21.063-1.406 7.195-7.715 12.189-14.783 12.189z"
            style="" fill="#498a68" data-original="#498a68"></path>
        <path
            d="m404.76 388.632-17.514-3.755a86.327 86.327 0 0 0-55.244 6.483 86.33 86.33 0 0 1-64.893 3.821l-7.495-2.544a86.337 86.337 0 0 0-39.589-3.764l-71.784 9.942a86.33 86.33 0 0 1-42.149-4.678l-17.657-6.62a86.326 86.326 0 0 0-65.075 1.817 29.842 29.842 0 0 0-17.823 27.314v24.791c0 36.392 29.502 65.894 65.894 65.894h291.021c36.392 0 65.894-29.502 65.894-65.894v-23.63c0-14.069-9.828-26.227-23.586-29.177z"
            style="" fill="#80b0e3" data-original="#80b0e3"></path>
        <path
            d="m163.943 396.642-15.702 2.175a86.33 86.33 0 0 1-42.149-4.678l-17.657-6.62a86.326 86.326 0 0 0-65.075 1.817A29.842 29.842 0 0 0 5.537 416.65v24.791c0 36.392 29.502 65.894 65.894 65.894h181.62c-45.367-11.175-82.354-70.438-89.108-110.693z"
            style="opacity:0.1;enable-background:new ;" fill="#000000" data-original="#000000"></path>
        <path d="M120.858 364.103a7.5 7.5 0 0 1-7.5-7.5v-4.484a7.5 7.5 0 0 1 15 0v4.484a7.5 7.5 0 0 1-7.5 7.5z" style=""
            fill="#495059" data-original="#495059"></path>
        <g style="opacity:0.1;">
            <path
                d="M118.925 472.659a44.472 44.472 0 0 1-16.974-3.383 7.499 7.499 0 1 1 5.716-13.868c8.404 3.464 17.764 2.892 25.682-1.568a44.347 44.347 0 0 1 45.886 1.353 7.5 7.5 0 1 1-8.12 12.611 29.387 29.387 0 0 0-30.403-.896c-6.782 3.821-14.265 5.751-21.787 5.751zM333.765 447.607a41.008 41.008 0 0 1-15.048-2.846 25.9 25.9 0 0 0-19.428.13 7.5 7.5 0 0 1-9.786-4.091 7.5 7.5 0 0 1 4.091-9.786c9.849-4.041 20.726-4.115 30.629-.206 6.496 2.564 13.873 2.389 20.241-.478a7.5 7.5 0 1 1 6.161 13.676 41.083 41.083 0 0 1-16.86 3.601z"
                fill="#000000" data-original="#000000"></path>
        </g>
    </g>
</svg>