<svg xmlns="http://www.w3.org/2000/svg" version="1.1" xmlns:xlink="http://www.w3.org/1999/xlink"
    xmlns:svgjs="http://svgjs.com/svgjs" width="512" height="512" x="0" y="0" viewBox="0 0 512 512"
    style="enable-background:new 0 0 512 512" xml:space="preserve" class="">
    <g>
        <path
            d="M145.477 404.581a16.3 16.3 0 0 1-11.952-5.191c-6.161-6.598-5.806-16.943.793-23.104 9.321-8.703 13.398-16.071 17.76-24.799 4.036-8.076 13.853-11.352 21.929-7.316 8.076 4.035 11.352 13.853 7.316 21.929-5.226 10.46-11.438 21.707-24.694 34.084a16.29 16.29 0 0 1-11.152 4.397z"
            style="" fill="#498a68" data-original="#498a68"></path>
        <path
            d="M278.026 416.608c76.284 0 164.073 0 228.341-41.032 10.998-7.021 4.637-23.979-8.296-22.253-50.895 6.794-93.645-6.161-118.022-27.147l-102.023 90.432z"
            style="" fill="#5cb38e" data-original="#5cb38e"></path>
        <path
            d="M408.825 343.489c-.85 24.362-4.59 48.679-19.607 68.899-37.188 4.219-75.452 4.22-111.191 4.22l102.023-90.431c7.813 6.726 17.523 12.621 28.775 17.312z"
            style="opacity:0.1;enable-background:new ;" fill="#000000" data-original="#000000"></path>
        <path
            d="M312.177 491.019c-13.015.001-24.034-10.029-25.048-23.223-.309-4.025-1.922-68.372 4.857-85.013 5.241-12.864 19.915-19.043 32.78-13.802 12.336 5.025 18.525 18.732 14.387 31.193-1.803 9.281-2.839 51.198-1.873 63.767 1.065 13.849-9.299 25.938-23.147 27.003a25.26 25.26 0 0 1-1.956.075zm26.402-89.288-.011.029.011-.029zM220.97 491.019c-13.014.001-24.033-10.029-25.048-23.222-.31-4.025-1.924-68.372 4.857-85.016 5.242-12.862 19.92-19.039 32.779-13.8 12.336 5.027 18.525 18.733 14.386 31.194-1.803 9.282-2.84 51.197-1.873 63.765 1.065 13.848-9.298 25.939-23.146 27.003a25.2 25.2 0 0 1-1.955.076zm26.401-89.286-.012.029.012-.029z"
            style="" fill="#498a68" data-original="#498a68"></path>
        <path
            d="M233.559 368.982c-12.859-5.239-27.538.938-32.779 13.8-4.304 10.562-5.226 40.333-5.246 61.71 14.139 4.751 30.775 7.719 50.191 8.994-.178-17.452.774-45.867 2.22-53.31 4.139-12.461-2.049-26.167-14.386-31.194zM324.765 368.981c-12.864-5.241-27.538.938-32.78 13.802-4.975 12.213-5.43 50.122-5.198 71.023 19.23-.916 35.862-3.391 50.131-7.517.089-17.209.974-39.629 2.233-46.115 4.139-12.461-2.049-26.167-14.386-31.193z"
            style="opacity:0.1;enable-background:new ;" fill="#000000" data-original="#000000"></path>
        <path
            d="M154.272 327.876c0 58.712 7.975 101.195 114.819 101.195S383.91 386.588 383.91 327.876s-51.406-106.307-114.819-106.307c-63.412-.001-114.819 47.595-114.819 106.307z"
            style="" fill="#5cb38e" data-original="#5cb38e"></path>
        <path
            d="M154.272 327.876c0-.468.013-.933.019-1.4 23.915-6.137 71.351-7.922 104.361 27.159 24.055 25.564 27.536 53.151 24.955 75.152-4.624.188-9.459.284-14.517.284-106.843-.001-114.818-42.484-114.818-101.195z"
            style="" fill="#9bdfc1" data-original="#9bdfc1"></path>
        <path
            d="M290.889 223.49c52.987 9.43 93.022 52.575 93.022 104.386 0 54.364-6.851 94.809-92.686 100.501 47.658-48.373 38.44-148.252-.336-204.887z"
            style="opacity:0.05;enable-background:new ;" fill="#000000" data-original="#000000"></path>
        <path
            d="M163.699 68.465a105.894 105.894 0 0 1 88.328-47.484h43.695c62.122 0 112.482 50.36 112.482 112.482v51.715c0 55.754-45.197 100.951-100.951 100.951H75.625C33.858 286.128 0 252.27 0 210.504v-35.197c0-41.766 33.858-75.625 75.625-75.625h30.006a69.616 69.616 0 0 0 58.068-31.217z"
            style="" fill="#5cb38e" data-original="#5cb38e"></path>
        <path
            d="M50.916 217.104c0 21.912 17.763 30.792 39.676 30.792 21.912 0 39.676-8.88 39.676-30.792s-17.763-39.676-39.676-39.676c-21.912.001-39.676 17.764-39.676 39.676z"
            style="" fill="#495059" data-original="#495059"></path>
        <g style="opacity:0.1;">
            <circle cx="347.1" cy="209.76" r="7.741" fill="#000000" data-original="#000000"></circle>
            <circle cx="292.07" cy="221.57" r="7.741" fill="#000000" data-original="#000000"></circle>
            <circle cx="323.56" cy="247.97" r="7.741" fill="#000000" data-original="#000000"></circle>
        </g>
        <ellipse cx="302.26" cy="108.75" rx="19.511" ry="10.01" style="" fill="#ffa8cb" data-original="#ffa8cb">
        </ellipse>
        <ellipse cx="171.27" cy="108.75" rx="19.511" ry="10.01" style="" fill="#ffa8cb" data-original="#ffa8cb">
        </ellipse>
        <path
            d="M209.8 95.101a7.5 7.5 0 0 1-7.5-7.5c0-3.462-2.817-6.279-6.279-6.279s-6.279 2.817-6.279 6.279a7.5 7.5 0 0 1-15 0c0-11.733 9.545-21.279 21.279-21.279 11.733 0 21.279 9.545 21.279 21.279a7.5 7.5 0 0 1-7.5 7.5zM291.285 95.101a7.5 7.5 0 0 1-7.5-7.5 6.286 6.286 0 0 0-6.279-6.279 6.286 6.286 0 0 0-6.278 6.279 7.5 7.5 0 0 1-15 0c0-11.733 9.545-21.279 21.278-21.279s21.279 9.545 21.279 21.279a7.5 7.5 0 0 1-7.5 7.5z"
            style="" fill="#495059" data-original="#495059"></path>
        <circle cx="115.26" cy="139.18" r="7.741" style="" fill="#495059" data-original="#495059"></circle>
        <circle cx="65.925" cy="139.18" r="7.741" style="" fill="#495059" data-original="#495059"></circle>
        <path
            d="M320.711 23.771c50.094 11.364 87.493 56.158 87.493 109.691v51.715c0 55.754-45.197 100.951-100.951 100.951h-61.257c89.212-51.907 104.333-194.591 74.715-262.357z"
            style="opacity:0.05;enable-background:new ;" fill="#000000" data-original="#000000"></path>
        <path
            d="M139.64 381.35c-5.389 5.389-12.833 8.722-21.056 8.722-16.446 0-29.778-13.332-29.778-29.778 0-20.656-24.489-48.832-24.489-83.02 0-27.705 22.46-50.165 50.165-50.165s50.165 22.46 50.165 50.165c-.001 34.333-3.811 82.879-25.007 104.076z"
            style="" fill="#f27979" data-original="#f27979"></path>
        <path
            d="M118.584 364.922a4.635 4.635 0 0 1-4.63-4.629c0-14.402-5.9-27.594-12.147-41.56-6.067-13.565-12.342-27.593-12.342-41.46 0-13.794 11.222-25.016 25.016-25.016s25.016 11.222 25.016 25.016c0 63.702-13.502 82.154-17.64 86.293a4.543 4.543 0 0 1-3.273 1.356z"
            style="" fill="#cd5b5b" data-original="#cd5b5b"></path>
        <path
            d="M143.557 377.468c-.856 0-1.719-.075-2.58-.227l-10.641-1.876a7.5 7.5 0 0 1 2.604-14.772l10.326 1.821 4.011-22.749-10.326-1.821a7.5 7.5 0 1 1 2.605-14.772l10.641 1.876a14.583 14.583 0 0 1 9.476 6.037 14.581 14.581 0 0 1 2.432 10.97l-4.122 23.378a14.583 14.583 0 0 1-6.037 9.476 14.568 14.568 0 0 1-8.389 2.659zm4.036-37.747h.01-.01z"
            style="" fill="#495059" data-original="#495059"></path>
        <path
            d="M250.892 377.163a7.6 7.6 0 0 1-1.311-.115l-98.225-17.32a7.5 7.5 0 0 1 2.604-14.772l98.225 17.32a7.5 7.5 0 0 1-1.293 14.887z"
            style="" fill="#495059" data-original="#495059"></path>
        <path
            d="M257.493 385.415c-5.289 0-10.479-2.563-13.628-7.298-4.998-7.518-2.955-17.665 4.563-22.663 10.578-7.032 15.712-15.045 16.677-17.297 3.554-8.299 13.163-12.145 21.461-8.593 8.299 3.554 12.146 13.162 8.592 21.461-3.652 8.53-13.09 21.325-28.63 31.656a16.283 16.283 0 0 1-9.035 2.734z"
            style="" fill="#498a68" data-original="#498a68"></path>
    </g>
</svg>