<svg xmlns="http://www.w3.org/2000/svg" version="1.1" xmlns:xlink="http://www.w3.org/1999/xlink"
    xmlns:svgjs="http://svgjs.com/svgjs" width="512" height="512" x="0" y="0" viewBox="0 0 512 512"
    style="enable-background:new 0 0 512 512" xml:space="preserve" class="">
    <g>
        <circle cx="256.001" cy="251.16" r="251.16" style="" fill="#959ba0" data-original="#959ba0"></circle>
        <path
            d="M203.01 5.619C89.748 29.947 4.838 130.631 4.838 251.163c0 138.713 112.449 251.163 251.163 251.163 37.525 0 73.12-8.243 105.094-22.996C69.944 350.935 134.654 84.312 203.01 5.619z"
            style="opacity:0.1;enable-background:new ;" fill="#000000" data-original="#000000"></path>
        <circle cx="256.001" cy="251.16" r="218.84" style="" fill="#e5e5e5" data-original="#e5e5e5"></circle>
        <path
            d="M295.853 388.329c-3.055 0-6.131-.987-8.718-3.022-6.128-4.82-7.188-13.694-2.368-19.822l.251-.319c3.003-3.831 12.14-15.488 26.462-23.235 6.857-3.71 15.423-1.158 19.132 5.701 3.709 6.858 1.157 15.423-5.701 19.132-9.156 4.952-15.344 12.846-17.673 15.818l-.28.357a14.094 14.094 0 0 1-11.105 5.39z"
            style="" fill="#498a68" data-original="#498a68"></path>
        <path
            d="M307.214 366.257c0 51.218-6.957 88.279-100.164 88.279s-100.164-37.061-100.164-88.279 44.845-92.738 100.164-92.738 100.164 41.52 100.164 92.738z"
            style="" fill="#5cb38e" data-original="#5cb38e"></path>
        <path
            d="M307.214 366.257c0-.408-.011-.814-.017-1.221-20.863-5.354-62.244-6.911-91.041 23.692-20.985 22.301-24.021 46.367-21.77 65.56 4.034.164 8.251.247 12.664.247 93.207 0 100.164-37.06 100.164-88.278z"
            style="" fill="#9bdfc1" data-original="#9bdfc1"></path>
        <path
            d="M188.035 275.195c-46.224 8.226-81.149 45.865-81.149 91.062 0 47.425 5.976 82.707 80.856 87.673-41.576-42.199-33.535-129.329.293-178.735z"
            style="opacity:0.05;enable-background:new ;" fill="#000000" data-original="#000000"></path>
        <path
            d="M197.425 394.954a14.085 14.085 0 0 1-10.896-5.132l-.257-.31c-3.106-3.753-12.56-15.171-17.077-30.831-2.161-7.491 2.16-15.316 9.651-17.476 7.489-2.164 15.315 2.159 17.476 9.65 2.887 10.01 9.288 17.741 11.697 20.652l.287.347c4.962 6.014 4.109 14.911-1.905 19.872a14.05 14.05 0 0 1-8.976 3.228z"
            style="" fill="#498a68" data-original="#498a68"></path>
        <path
            d="M298.991 139.957a92.377 92.377 0 0 0-77.054-41.424h-38.118c-54.193 0-98.125 43.932-98.125 98.125v45.114c0 48.638 39.428 88.066 88.066 88.066h202.063c36.436 0 65.972-29.537 65.972-65.972v-30.704c0-36.436-29.537-65.972-65.972-65.972h-26.176a60.732 60.732 0 0 1-50.656-27.233z"
            style="" fill="#5cb38e" data-original="#5cb38e"></path>
        <ellipse cx="362.762" cy="272.81" rx="33.968" ry="29.09" style="" fill="#495059" data-original="#495059">
        </ellipse>
        <g style="opacity:0.1;">
            <circle cx="138.992" cy="263.21" r="6.753" fill="#000000" data-original="#000000"></circle>
            <circle cx="187.001" cy="273.52" r="6.753" fill="#000000" data-original="#000000"></circle>
            <circle cx="159.531" cy="296.55" r="6.753" fill="#000000" data-original="#000000"></circle>
        </g>
        <ellipse cx="149.261" cy="170.86" rx="17.02" ry="8.732" style="" fill="#ffa8cb" data-original="#ffa8cb">
        </ellipse>
        <ellipse cx="263.531" cy="170.86" rx="17.02" ry="8.732" style="" fill="#ffa8cb" data-original="#ffa8cb">
        </ellipse>
        <path
            d="M170.856 161.049a7.5 7.5 0 0 1-7.5-7.5v-8.481c0-4.143 3.358-7.5 7.5-7.5s7.5 3.357 7.5 7.5v8.481a7.5 7.5 0 0 1-7.5 7.5zM241.94 161.049a7.5 7.5 0 0 1-7.5-7.5v-8.481c0-4.143 3.358-7.5 7.5-7.5s7.5 3.357 7.5 7.5v8.481a7.5 7.5 0 0 1-7.5 7.5z"
            style="" fill="#495059" data-original="#495059"></path>
        <path
            d="M178.43 140.768c-.299 0-.601-.019-.905-.055l-17.988-2.164a7.5 7.5 0 1 1 1.792-14.893l17.988 2.164a7.5 7.5 0 0 1 6.55 8.342 7.5 7.5 0 0 1-7.437 6.606zM234.367 140.768a7.5 7.5 0 0 1-.887-14.947l17.988-2.164a7.495 7.495 0 0 1 8.342 6.551 7.5 7.5 0 0 1-6.55 8.342l-17.988 2.164a7.943 7.943 0 0 1-.905.054z"
            style="" fill="#495059" data-original="#495059"></path>
        <circle cx="341.251" cy="201.65" r="6.753" style="" fill="#495059" data-original="#495059"></circle>
        <circle cx="384.281" cy="201.65" r="6.753" style="" fill="#495059" data-original="#495059"></circle>
        <path
            d="M162.02 100.967c-43.7 9.914-76.326 48.991-76.326 95.691v45.115c0 48.637 39.428 88.066 88.066 88.066h53.439c-77.827-45.283-91.018-169.756-65.179-228.872z"
            style="opacity:0.05;enable-background:new ;" fill="#000000" data-original="#000000"></path>
        <path
            d="M454.966 512H57.036c-9.218 0-16.692-7.473-16.692-16.691v-108.61c0-9.219 7.473-16.691 16.692-16.691h397.931c9.218 0 16.691 7.473 16.691 16.691v108.609c.001 9.219-7.473 16.692-16.692 16.692z"
            style="" fill="#495059" data-original="#495059"></path>
        <path
            d="M82.886 404.494h-9.04c-4.142 0-7.5-3.357-7.5-7.5s3.358-7.5 7.5-7.5h9.04c4.142 0 7.5 3.357 7.5 7.5s-3.358 7.5-7.5 7.5zM133.639 404.494h-9.04c-4.142 0-7.5-3.357-7.5-7.5s3.358-7.5 7.5-7.5h9.04c4.142 0 7.5 3.357 7.5 7.5s-3.358 7.5-7.5 7.5zM184.393 404.494h-9.04c-4.142 0-7.5-3.357-7.5-7.5s3.358-7.5 7.5-7.5h9.04c4.142 0 7.5 3.357 7.5 7.5s-3.358 7.5-7.5 7.5zM235.145 404.494h-9.04c-4.142 0-7.5-3.357-7.5-7.5s3.358-7.5 7.5-7.5h9.04c4.142 0 7.5 3.357 7.5 7.5s-3.358 7.5-7.5 7.5zM285.897 404.494h-9.04c-4.142 0-7.5-3.357-7.5-7.5s3.358-7.5 7.5-7.5h9.04c4.142 0 7.5 3.357 7.5 7.5s-3.357 7.5-7.5 7.5zM336.65 404.494h-9.04c-4.142 0-7.5-3.357-7.5-7.5s3.358-7.5 7.5-7.5h9.04c4.142 0 7.5 3.357 7.5 7.5s-3.358 7.5-7.5 7.5zM387.404 404.494h-9.04c-4.142 0-7.5-3.357-7.5-7.5s3.358-7.5 7.5-7.5h9.04c4.142 0 7.5 3.357 7.5 7.5s-3.358 7.5-7.5 7.5zM438.156 404.494h-9.04c-4.142 0-7.5-3.357-7.5-7.5s3.358-7.5 7.5-7.5h9.04c4.142 0 7.5 3.357 7.5 7.5s-3.358 7.5-7.5 7.5zM82.886 492.514h-9.04c-4.142 0-7.5-3.357-7.5-7.5s3.358-7.5 7.5-7.5h9.04c4.142 0 7.5 3.357 7.5 7.5s-3.358 7.5-7.5 7.5zM133.639 492.514h-9.04c-4.142 0-7.5-3.357-7.5-7.5s3.358-7.5 7.5-7.5h9.04c4.142 0 7.5 3.357 7.5 7.5s-3.358 7.5-7.5 7.5zM184.393 492.514h-9.04c-4.142 0-7.5-3.357-7.5-7.5s3.358-7.5 7.5-7.5h9.04c4.142 0 7.5 3.357 7.5 7.5s-3.358 7.5-7.5 7.5zM235.145 492.514h-9.04c-4.142 0-7.5-3.357-7.5-7.5s3.358-7.5 7.5-7.5h9.04c4.142 0 7.5 3.357 7.5 7.5s-3.358 7.5-7.5 7.5zM285.897 492.514h-9.04c-4.142 0-7.5-3.357-7.5-7.5s3.358-7.5 7.5-7.5h9.04c4.142 0 7.5 3.357 7.5 7.5s-3.357 7.5-7.5 7.5zM336.65 492.514h-9.04c-4.142 0-7.5-3.357-7.5-7.5s3.358-7.5 7.5-7.5h9.04c4.142 0 7.5 3.357 7.5 7.5s-3.358 7.5-7.5 7.5zM387.404 492.514h-9.04c-4.142 0-7.5-3.357-7.5-7.5s3.358-7.5 7.5-7.5h9.04c4.142 0 7.5 3.357 7.5 7.5s-3.358 7.5-7.5 7.5zM438.156 492.514h-9.04c-4.142 0-7.5-3.357-7.5-7.5s3.358-7.5 7.5-7.5h9.04c4.142 0 7.5 3.357 7.5 7.5s-3.358 7.5-7.5 7.5z"
            style="" fill="#ffffff" data-original="#ffffff"></path>
        <path
            d="M127.979 422.673H79.507a5.66 5.66 0 0 0-5.66 5.66v25.341a5.66 5.66 0 0 0 5.66 5.66h48.472a5.66 5.66 0 0 0 5.66-5.66v-25.341a5.66 5.66 0 0 0-5.66-5.66zM229.484 422.673h-48.472a5.66 5.66 0 0 0-5.66 5.66v25.341a5.66 5.66 0 0 0 5.66 5.66h48.472a5.66 5.66 0 0 0 5.66-5.66v-25.341a5.66 5.66 0 0 0-5.66-5.66zM330.991 422.673h-48.472a5.66 5.66 0 0 0-5.66 5.66v25.341a5.66 5.66 0 0 0 5.66 5.66h48.472a5.66 5.66 0 0 0 5.66-5.66v-25.341a5.661 5.661 0 0 0-5.66-5.66zM432.495 422.673h-48.472a5.66 5.66 0 0 0-5.66 5.66v25.341a5.66 5.66 0 0 0 5.66 5.66h48.472a5.66 5.66 0 0 0 5.66-5.66v-25.341a5.66 5.66 0 0 0-5.66-5.66z"
            style="" fill="#959ba0" data-original="#959ba0"></path>
    </g>
</svg>