<svg xmlns="http://www.w3.org/2000/svg" version="1.1" xmlns:xlink="http://www.w3.org/1999/xlink"
    xmlns:svgjs="http://svgjs.com/svgjs" width="512" height="512" x="0" y="0" viewBox="0 0 512 512"
    style="enable-background:new 0 0 512 512" xml:space="preserve" class="">
    <g>
        <path
            d="M144.473 383.555a15.862 15.862 0 0 1-12.314-5.834c-5.557-6.795-4.552-16.807 2.244-22.363 5.518-4.512 10.429-11.036 14.013-15.798 3.095-4.112 5.332-7.083 8.175-9.343 6.874-5.46 16.869-4.315 22.331 2.557 5.296 6.667 4.378 16.274-1.955 21.827-.652.749-2.086 2.654-3.154 4.073-4.302 5.715-10.803 14.351-19.29 21.291a15.825 15.825 0 0 1-10.05 3.59zm31.905-28.461a.106.106 0 0 0-.012.01l.012-.01z"
            style="" fill="#498a68" data-original="#498a68"></path>
        <path
            d="M276.999 412.679c74.167 0 159.521 0 222.005-39.893 10.693-6.827 4.509-23.314-8.066-21.635-49.482 6.606-91.046-5.99-114.748-26.393l-99.191 87.921z"
            style="" fill="#5cb38e" data-original="#5cb38e" class=""></path>
        <path
            d="M404.168 341.589c-.827 23.686-4.462 47.329-19.063 66.987-36.157 4.103-73.359 4.103-108.106 4.103l99.192-87.922c7.597 6.54 17.037 12.272 27.977 16.832z"
            style="opacity:0.1;enable-background:new ;" fill="#000000" data-original="#000000" class=""></path>
        <path
            d="M310.203 485.026c-12.654.001-23.366-9.75-24.353-22.576-.301-3.914-1.872-66.475 4.723-82.66 5.098-12.507 19.368-18.509 31.872-13.415 11.994 4.888 18.01 18.214 13.985 30.329-1.754 9.029-2.762 49.777-1.821 61.994 1.036 13.464-9.039 25.219-22.504 26.255-.638.049-1.273.073-1.902.073zm25.668-86.808-.011.029.011-.029zm.647-1.938zM221.525 485.026c-12.655.001-23.367-9.751-24.353-22.578-.301-3.914-1.869-66.48 4.724-82.657 5.097-12.507 19.369-18.509 31.871-13.415 11.994 4.888 18.01 18.213 13.985 30.329-1.753 9.026-2.76 49.775-1.821 61.996 1.035 13.464-9.042 25.218-22.505 26.253-.637.048-1.273.072-1.901.072zm25.668-86.806-.011.027.011-.027zm.647-1.94v.001-.001z"
            style="" fill="#498a68" data-original="#498a68"></path>
        <path
            d="M233.767 366.376c-12.502-5.094-26.774.909-31.871 13.415-4.184 10.267-5.081 39.213-5.101 59.999 13.746 4.62 29.922 7.505 48.798 8.745-.173-16.968.753-44.592 2.158-51.83 4.026-12.116-1.991-25.441-13.984-30.329zM322.444 366.376c-12.503-5.094-26.773.909-31.872 13.415-4.84 11.878-5.282 48.734-5.055 69.055 18.696-.891 34.867-3.297 48.739-7.308.086-16.728.947-38.523 2.172-44.833 4.026-12.115-1.99-25.441-13.984-30.329z"
            style="opacity:0.1;enable-background:new ;" fill="#000000" data-original="#000000" class=""></path>
        <path
            d="M156.679 326.41c0 57.083 7.754 98.387 111.634 98.387s111.634-41.304 111.634-98.387-49.98-103.358-111.634-103.358c-61.655 0-111.634 46.275-111.634 103.358z"
            style="" fill="#5cb38e" data-original="#5cb38e" class=""></path>
        <path
            d="M156.679 326.41c0-.455.012-.907.019-1.361 23.252-5.967 69.371-7.703 101.465 26.405 23.387 24.855 26.772 51.676 24.263 73.067a347.28 347.28 0 0 1-14.113.276c-103.88 0-111.634-41.305-111.634-98.387z"
            style="" fill="#9bdfc1" data-original="#9bdfc1"></path>
        <path
            d="M289.505 224.921c51.517 9.168 90.44 51.117 90.44 101.489 0 52.856-6.661 92.177-90.114 97.712 46.336-47.03 37.373-144.139-.326-199.201z"
            style="opacity:0.05;enable-background:new ;" fill="#000000" data-original="#000000" class=""></path>
        <path
            d="M162.981 75.618a102.955 102.955 0 0 1 84.214-49.136l42.457-1.483c60.362-2.108 111.003 45.116 113.111 105.477l1.755 50.25c1.892 54.174-40.491 99.624-94.665 101.516l-225.063 7.86c-40.582 1.417-74.631-30.333-76.048-70.916l-1.194-34.199c-1.417-40.582 30.333-74.63 70.915-76.048l29.156-1.018a67.684 67.684 0 0 0 55.362-32.303z"
            style="" fill="#5cb38e" data-original="#5cb38e" class=""></path>
        <path
            d="M34.512 174.285c5.85-2.868 7.902-10.188 4.395-15.677l-14.631-22.909c-11.008 13.36-17.381 30.628-16.73 49.288l1.194 34.199c.279 8 1.844 15.647 4.459 22.774a28.55 28.55 0 0 0 2.886-2.956l21.343-25.398a10.916 10.916 0 0 0 .298-13.675l-7.065-9.192c-4.203-5.47-2.343-13.419 3.851-16.454z"
            style="" fill="#fae17c" data-original="#fae17c"></path>
        <g style="opacity:0.1;">
            <circle cx="345.987" cy="206.681" r="7.527" fill="#000000" data-original="#000000" class=""></circle>
            <circle cx="292.909" cy="220.031" r="7.527" fill="#000000" data-original="#000000" class=""></circle>
            <circle cx="324.407" cy="244.61" r="7.527" fill="#000000" data-original="#000000" class=""></circle>
        </g>
        <path
            d="m307.449 192.55.287.567a13.905 13.905 0 0 1-.837 13.998l-.985 1.477c-7.045 10.563 2.588 24.266 14.911 21.214l2.959-.732a13.907 13.907 0 0 1 13.087 3.577l3.099 3.044c7.849 7.709 21.116 3.683 23.358-7.087l2.038-9.787a13.907 13.907 0 0 1 5.533-8.483l6.489-4.634c8.232-5.879 7.633-18.3-1.128-23.359a13.904 13.904 0 0 1-5.823-6.555l-5.533-12.882c-4.491-10.457-18.956-11.386-24.748-1.589l-1.608 2.72a13.903 13.903 0 0 1-9.699 6.642l-11.267 1.866c-9.264 1.536-14.376 11.624-10.133 20.003z"
            style="" fill="#fae17c" data-original="#fae17c"></path>
        <ellipse cx="330.958" cy="104.218" rx="9.732" ry="18.97" style="" transform="rotate(88 330.956 104.22)"
            fill="#ffa8cb" data-original="#ffa8cb"></ellipse>
        <ellipse cx="203.674" cy="108.666" rx="9.732" ry="18.97" style="" transform="rotate(-92 203.674 108.665)"
            fill="#ffa8cb" data-original="#ffa8cb"></ellipse>
        <path
            d="M314.026 26.862c49.06 9.343 86.919 51.598 88.736 103.614l1.755 50.25c1.892 54.174-40.491 99.624-94.665 101.516l-59.522 2.079c84.923-53.464 94.775-192.618 63.696-257.459z"
            style="opacity:0.05;enable-background:new ;" fill="#000000" data-original="#000000" class=""></path>
        <path d="M105.402 351.369h96.617v24.911h-96.617z" style="" transform="rotate(95.003 153.709 363.824)"
            fill="#959ba0" data-original="#959ba0"></path>
        <path
            d="m145.506 314.602-8.421 96.249-52.999-4.638c-4.287-.375-6.475-5.331-3.864-8.752l5.774-7.563a14.453 14.453 0 0 0 1.349-15.412l-4.725-9.129a14.45 14.45 0 0 1 1.348-15.412l6.238-8.17a14.451 14.451 0 0 0 1.348-15.412l-4.373-8.451c-1.978-3.822 1.037-8.323 5.325-7.948l53 4.638z"
            style="" fill="#495059" data-original="#495059"></path>
        <path
            d="m170.322 316.773-8.421 96.249 15.665 1.371a13.843 13.843 0 0 0 13.395-7.225l8.51-15.791a11.284 11.284 0 0 1 10.915-5.887l32.349 2.83c9.164.802 17.242-5.977 18.043-15.14.802-9.164-5.977-17.242-15.14-18.043l-32.35-2.83a11.284 11.284 0 0 1-9.727-7.693l-5.638-17.028a13.848 13.848 0 0 0-11.938-9.442l-15.663-1.371z"
            style="" fill="#cd5b5b" data-original="#cd5b5b"></path>
        <path
            d="m118.478 312.237-26.412-2.311c-4.287-.375-7.302 4.126-5.325 7.948l4.373 8.451a14.45 14.45 0 0 1-1.348 15.412l-6.238 8.17a14.451 14.451 0 0 0-1.349 15.412l4.725 9.13a14.449 14.449 0 0 1-1.349 15.412l-5.774 7.563c-2.27 2.737-4.168 17.921-5.359 30.145-.86 8.829 5.657 16.657 14.493 17.43 8.78.768 16.52-5.727 17.288-14.506l.976-11.159c.532-6.084 5.896-10.584 11.979-10.052l2.809.246c-22.38-29.157-3.374-70.192-3.489-97.291z"
            style="" fill="#fae17c" data-original="#fae17c"></path>
        <path
            d="M257.032 383.574c-4.783 0-9.51-2.149-12.639-6.242-5.331-6.974-3.999-16.948 2.975-22.279 10.445-7.985 15.052-15.611 17.806-20.168l.277-.457c4.544-7.506 14.316-9.912 21.827-5.363 7.509 4.546 9.91 14.318 5.363 21.827l-.26.431c-3.402 5.629-10.478 17.34-25.708 28.984a15.825 15.825 0 0 1-9.641 3.267z"
            style="" fill="#498a68" data-original="#498a68"></path>
        <path
            d="M386.645 397.408H278.786v79.829c0 5.428 4.4 9.828 9.828 9.828h88.204c5.428 0 9.828-4.4 9.828-9.828v-79.829z"
            style="" fill="#959ba0" data-original="#959ba0"></path>
        <path d="M278.789 441.392h107.856v14.999H278.789z" style="opacity:0.1;enable-background:new ;" fill="#000000"
            data-original="#000000" class=""></path>
        <path
            d="M267.476 393.476v41.751c0 11.764 9.537 21.3 21.3 21.3 10.933 0 19.796-8.863 19.796-19.796v-3.857c0-6.568 5.325-11.893 11.893-11.893h25.608c6.789 0 12.293 5.504 12.293 12.293v14.839c0 10.933 8.863 19.796 19.796 19.796s19.796-8.863 19.796-19.796v-54.637c0-9.344-7.575-16.918-16.918-16.918h-96.644c-9.347.001-16.92 7.575-16.92 16.918z"
            style="" fill="#fae17c" data-original="#fae17c"></path>
        <path
            d="M310.405 79.506a6.17 6.17 0 0 1 1.972 4.327c.143 4.139 3.643 7.362 7.756 7.234a7.5 7.5 0 0 0 7.234-7.757c-.197-5.663-2.588-10.91-6.732-14.773s-9.545-5.891-15.206-5.686c-11.69.409-20.867 10.252-20.458 21.94a7.5 7.5 0 0 0 14.99-.524 6.22 6.22 0 0 1 5.992-6.425 6.1 6.1 0 0 1 4.452 1.664zM77.898 147.388a7.526 7.526 0 1 0-15.044.526 7.526 7.526 0 1 0 15.044-.526zm148.354-81.772c-5.663.198-10.91 2.589-14.773 6.733s-5.883 9.545-5.686 15.206a7.5 7.5 0 0 0 7.758 7.234 7.5 7.5 0 0 0 7.234-7.757 6.17 6.17 0 0 1 1.665-4.454 6.17 6.17 0 0 1 4.327-1.972c1.65-.07 3.24.533 4.454 1.665a6.17 6.17 0 0 1 1.972 4.327c.145 4.14 3.629 7.372 7.757 7.234a7.5 7.5 0 0 0 7.234-7.757 21.068 21.068 0 0 0-6.733-14.772 21.07 21.07 0 0 0-15.209-5.687zm284.52 290.673c-3.201-8.756-11.576-13.808-20.826-12.573-39.521 5.277-77.503-2.104-102.551-19.76-.459-19.748-6.447-38.717-17.462-55.415 7.68-5.782 14.607-12.6 20.503-20.321 14.764-19.337 22.426-43.4 21.575-67.756l-1.754-50.249C408.008 65.818 353.8 15.289 289.39 17.504l-42.457 1.483c-37.159 1.298-70.934 21.004-90.348 52.715-10.579 17.278-28.981 28.017-49.228 28.724L78.2 101.443C33.55 103.002-1.509 140.596.05 185.248l1.194 34.199c1.526 43.694 37.556 78.2 80.941 78.2.95 0 1.908-.017 2.864-.05l68.931-2.407a103.728 103.728 0 0 0-3.07 12.357l-4.749-.415h-.004l-27.027-2.365-26.412-2.311a12.96 12.96 0 0 0-12.639 18.867l4.373 8.45a6.983 6.983 0 0 1-.648 7.415l-6.239 8.17c-5.128 6.717-5.932 15.906-2.048 23.411l4.725 9.129a6.983 6.983 0 0 1-.648 7.415l-5.685 7.445c-1.678 2.032-4.169 5.524-6.953 34.087-.611 6.273 1.271 12.399 5.3 17.248 4.033 4.854 9.717 7.831 16.004 8.381.698.061 1.393.091 2.085.091 5.5 0 10.775-1.913 15.038-5.49a23.31 23.31 0 0 0 8.291-15.925l.976-11.158a3.558 3.558 0 0 1 3.854-3.234l2.809.246 15.111 1.322.005.001h.006l24.81 2.171 15.665 1.371a21.31 21.31 0 0 0 12.721-2.887c-.321 9.593-.362 18.848-.329 25.35a7.5 7.5 0 0 0 7.499 7.462h.039a7.5 7.5 0 0 0 7.462-7.538c-.026-5.22-.005-12.249.176-19.768 9.726 3.049 20.937 5.195 33.744 6.454-.225 10.773-.23 22.356.23 28.339.717 9.32-6.283 17.484-15.6 18.201a16.942 16.942 0 0 1-15.277-7.3 7.5 7.5 0 0 0-12.352 8.51A31.942 31.942 0 0 0 224 492.437c17.566-1.351 30.759-16.74 29.408-34.306-.363-4.721-.432-14.877-.205-26.15 2.217.095 4.473.17 6.772.221v3.03c0 9.307 4.441 17.591 11.311 22.86v19.149c0 9.555 7.773 17.327 17.327 17.327h88.204c9.555 0 17.327-7.773 17.327-17.327v-7.019c6.846-4.964 11.311-13.02 11.311-22.104v-34.747c39.373-6.289 71.357-17.514 97.585-34.259 7.795-4.981 10.902-14.15 7.732-22.823zm-401.049 47.492a18.74 18.74 0 0 0-3.454 2.301 18.436 18.436 0 0 0-6.559 12.599l-.976 11.158c-.406 4.647-4.524 8.091-9.164 7.69a8.403 8.403 0 0 1-5.774-3.024 8.378 8.378 0 0 1-1.909-6.21c1.981-20.337 3.639-25.543 4.047-26.572l5.583-7.311c5.128-6.717 5.932-15.906 2.047-23.411l-4.724-9.129a6.984 6.984 0 0 1 .649-7.415l6.239-8.17c5.128-6.717 5.932-15.906 2.048-23.411l-2.669-5.156 15.523 1.358c-.559 5.832-1.714 12.311-2.917 19.054-3.598 20.164-7.949 44.549 2.01 65.649zm20.545-1.055-4.182-.366c-11.462-17.506-7.478-39.899-3.608-61.592 1.268-7.108 2.473-13.931 3.082-20.382l11.821 1.034-7.113 81.306zm24.816 2.171-9.874-.864 7.113-81.306 9.874.864-7.113 81.306zm37.787-17.079-8.509 15.79a6.342 6.342 0 0 1-6.141 3.312l-8.194-.717 7.114-81.307 8.194.717a6.341 6.341 0 0 1 5.472 4.328l5.639 17.029a18.767 18.767 0 0 0 16.192 12.806l21.789 1.906c-1.632 6.177-.735 12.957 2.918 18.636l-26.303-2.301a18.772 18.772 0 0 0-18.171 9.801zm67.105 5.659v23.713c-25.845-.598-45.705-4.038-60.259-10.457l6.358-11.799a3.785 3.785 0 0 1 3.659-1.974l32.349 2.83a24.084 24.084 0 0 0 16.636-4.786c.47-.033.935-.09 1.399-.151a24.739 24.739 0 0 0-.142 2.624zm2.143-19.128a8.31 8.31 0 0 1-5.087 1.726c-.099 0-.195-.013-.294-.017a7.622 7.622 0 0 0-.692-.04 8.327 8.327 0 0 1-5.694-3.24c-2.762-3.613-2.122-8.768 1.391-11.613.091-.073.181-.145.269-.223 11.513-8.826 16.761-17.508 19.573-22.163l.284-.468a8.52 8.52 0 0 1 .884-1.207 7.501 7.501 0 0 0-11.269-9.901 23.477 23.477 0 0 0-2.442 3.331l-.287.473c-2.443 4.045-6.053 10.007-13.975 16.524l-30.836-2.698a3.778 3.778 0 0 1-3.261-2.579l-5.639-17.028a21.33 21.33 0 0 0-18.404-14.555l-15.663-1.37h-.001l-5.04-.441a89.23 89.23 0 0 1 4.127-14.232l125.408-4.38a7.5 7.5 0 0 0 7.233-7.757c-.145-4.14-3.602-7.388-7.757-7.234l-210.422 7.349c-36.416 1.263-67.02-27.297-68.29-63.682l-1.194-34.199c-1.271-36.386 27.297-67.02 63.683-68.29l29.156-1.018c25.293-.883 48.283-14.297 61.498-35.883 16.777-27.405 45.966-44.435 78.079-45.556l42.457-1.483c56.136-1.965 103.394 42.112 105.354 98.244l1.754 50.249c1.487 42.579-27.398 80.912-68.683 91.146a7.5 7.5 0 1 0 3.609 14.56c8.894-2.205 17.429-5.588 25.402-9.987 9.889 14.956 15.096 32.006 15.096 49.702 0 14.625-.494 29.769-3.745 42.649h-79.543c4.745-5.772 7.74-10.707 9.642-13.853l.262-.434a23.854 23.854 0 0 0 1.704-3.411 7.5 7.5 0 0 0-4.162-9.756 7.5 7.5 0 0 0-9.756 4.162 8.624 8.624 0 0 1-.623 1.246l-.262.434c-3.163 5.233-9.744 16.122-23.844 26.903zm117.026 102.888a2.33 2.33 0 0 1-2.328 2.328h-88.204a2.33 2.33 0 0 1-2.328-2.328v-13.324c.821.071 1.65.115 2.489.115 15.051 0 27.296-12.245 27.296-27.296v-3.857a4.398 4.398 0 0 1 4.393-4.393h25.608a4.798 4.798 0 0 1 4.792 4.792v14.839c0 15.05 12.245 27.295 27.296 27.295.331 0 .659-.013.986-.025v1.854zm11.311-29.123c0 6.78-5.517 12.296-12.297 12.296s-12.297-5.516-12.297-12.296v-14.839c0-10.914-8.879-19.791-19.791-19.791h-25.608c-10.693 0-19.392 8.7-19.392 19.392v3.857c0 6.781-5.517 12.297-12.297 12.297-7.609 0-13.8-6.191-13.8-13.8v-41.751c0-5.194 4.225-9.419 9.419-9.419h89.915l.025.002.025-.002h6.679c5.193 0 9.419 4.225 9.419 9.419v54.635zm104.513-81.649c-23.943 15.285-53.301 25.685-89.513 31.706v-4.695c0-12.443-9.357-22.734-21.403-24.225 1.9-8.825 2.762-18.225 3.132-27.678 27.7 15.889 65.71 22.223 104.746 17.011 3.192-.419 4.389 1.854 4.754 2.854.35.96.884 3.367-1.716 5.027zm-376.92-228.01a7.526 7.526 0 1 0 .526 15.044 7.526 7.526 0 1 0-.526-15.044zm-1.12 83.737a7.5 7.5 0 0 0-10.55 1.096 12.417 12.417 0 0 1-9.206 4.591c-3.581.138-7.046-1.31-9.504-3.938a7.5 7.5 0 0 0-10.601-.355 7.5 7.5 0 0 0-.355 10.601 27.413 27.413 0 0 0 20.983 8.684 27.41 27.41 0 0 0 20.326-10.128 7.498 7.498 0 0 0-1.093-10.551z"
            fill="#000000" data-original="#000000" class=""></path>
    </g>
</svg>