<svg xmlns="http://www.w3.org/2000/svg" version="1.1" xmlns:xlink="http://www.w3.org/1999/xlink"
    xmlns:svgjs="http://svgjs.com/svgjs" width="512" height="512" x="0" y="0" viewBox="0 0 512.001 512.001"
    style="enable-background:new 0 0 512 512" xml:space="preserve" class="">
    <g>
        <path
            d="M162.054 394.903c-4.948 0-9.802-2.394-12.751-6.82-4.688-7.035-2.785-16.538 4.25-21.226 14.574-9.711 30.248-12.524 35.398-13.447l.425-.077c8.319-1.508 16.284 4.016 17.79 12.333 1.506 8.319-4.015 16.283-12.333 17.79l-.476.085c-3.981.714-14.555 2.611-23.829 8.792a15.23 15.23 0 0 1-8.474 2.57z"
            style="" fill="#498a68" data-original="#498a68"></path>
        <path
            d="M312.369 405.984c68.995-18.487 148.395-39.762 196.579-92.448 8.245-9.016-1.617-22.812-12.896-18.116-44.385 18.479-86.19 17.122-113.324 4.05l-70.359 106.514z"
            style="" fill="#5cb38e" data-original="#5cb38e"></path>
        <path
            d="M412.949 308.153c5.135 22.24 7.646 45.14-1.036 67.067-32.612 12.829-67.22 22.102-99.544 30.763l70.359-106.515c8.697 4.191 18.907 7.17 30.221 8.685z"
            style="opacity:0.1;enable-background:new ;" fill="#000000" data-original="#000000"></path>
        <path
            d="M326.486 485.463c-12.186.001-22.503-9.389-23.454-21.742-.29-3.77-1.803-64.021 4.549-79.607 4.91-12.044 18.654-17.826 30.694-12.921 11.551 4.708 17.345 17.542 13.469 29.209-1.689 8.693-2.659 47.938-1.754 59.704.998 12.968-8.705 24.289-21.672 25.287a24.04 24.04 0 0 1-1.832.07zm24.72-83.602-.01.026a.2.2 0 0 1 .01-.026zM230.462 481.431c-10.614 0-20.249-7.227-22.865-17.998-8.02-33.032.045-68.159 20.069-87.408 9.376-9.016 24.283-8.719 33.295.657 9.013 9.376 8.719 24.282-.657 33.295-8.624 8.291-10.317 28.435-6.94 42.344 3.069 12.638-4.689 25.371-17.328 28.44-1.865.452-3.735.67-5.574.67z"
            style="" fill="#498a68" data-original="#498a68"></path>
        <path
            d="M260.305 409.976c9.376-9.013 9.67-23.92.657-33.295-9.012-9.376-23.92-9.672-33.295-.657-15.354 14.76-23.665 38.856-23.097 64.183 13.372 7.567 29.401 11.285 48.404 11.286h.014l.188-.002c-3.116-13.869-1.326-33.386 7.129-41.515zM338.275 371.193c-12.041-4.905-25.785.876-30.694 12.921-4.235 10.392-4.973 40.633-4.909 60.757 3.494-.826 7.063-1.72 10.732-2.703 13.598-3.643 25.718-7.679 36.467-12.151.332-12.688 1.008-25.161 1.874-29.614 3.875-11.668-1.919-24.501-13.47-29.21z"
            style="opacity:0.1;enable-background:new ;" fill="#000000" data-original="#000000"></path>
        <path
            d="M178.936 355.722c14.229 53.102 31.737 89.593 128.372 63.7s93.552-66.25 79.324-119.352-72.258-83.691-129.611-68.323c-57.354 15.367-92.314 70.873-78.085 123.975z"
            style="" fill="#5cb38e" data-original="#5cb38e"></path>
        <path
            d="M178.936 355.722c-.113-.423-.215-.847-.322-1.271 20.143-11.347 62.614-24.457 100.971-.728 27.952 17.292 37.785 41.399 40.784 61.923a336.37 336.37 0 0 1-13.061 3.775c-96.635 25.893-114.143-10.598-128.372-63.699z"
            style="" fill="#9bdfc1" data-original="#9bdfc1"></path>
        <path
            d="M277.201 228.202c50.21-4.313 96.875 25.008 109.431 71.868 13.175 49.17 16.78 87.41-59.474 113.36 31.381-55.301-1.161-143.402-49.957-185.228z"
            style="opacity:0.05;enable-background:new ;" fill="#000000" data-original="#000000"></path>
        <path
            d="M356.053 56.671s65.622 83.865 84.335 133.409c1.886 4.993 1.632 10.541-.601 15.389l-14.087 30.58c-3.297 7.157-12.154 9.755-18.794 5.513l-21.241-13.568a20.547 20.547 0 0 1-8.992-12.823c-5.866-26.152-17.488-86.701-34.45-127.678l13.83-30.822z"
            style="" fill="#cd5b5b" data-original="#cd5b5b"></path>
        <path
            d="m372.46 195.758 69.076 3.146c.282-2.967-.075-5.985-1.147-8.824a155.446 155.446 0 0 0-2.579-6.361l-68.674-3.128a2265.879 2265.879 0 0 1 3.324 15.167zM350.363 109.704a485.899 485.899 0 0 1 4.625 14.897l48.779-1.133a901.139 901.139 0 0 0-9.889-14.774l-43.515 1.01z"
            style="" fill="#fae17c" data-original="#fae17c"></path>
        <path
            d="m357.732 65.917-8.918 15.446a15.384 15.384 0 0 1-17.079 7.226l-23.049-5.806c-8.3-2.09-12.297-11.538-8.017-18.951l17.809-30.846c4.279-7.412 14.46-8.675 20.42-2.532l16.552 17.058a15.386 15.386 0 0 1 2.282 18.405z"
            style="" fill="#cd5b5b" data-original="#cd5b5b"></path>
        <path
            d="m357.732 65.917-8.918 15.446a15.384 15.384 0 0 1-17.079 7.226l-23.049-5.806c-8.3-2.09-12.297-11.538-8.017-18.951l17.809-30.846c4.279-7.412 14.46-8.675 20.42-2.532l16.552 17.058a15.386 15.386 0 0 1 2.282 18.405z"
            style="opacity:0.2;enable-background:new ;" fill="#000000" data-original="#000000"></path>
        <path
            d="M124.595 118.814a99.153 99.153 0 0 1 68.38-64.353l39.52-10.589c56.186-15.055 113.938 18.288 128.993 74.474l12.533 46.774c13.512 50.426-16.413 102.258-66.84 115.77L97.686 337.023c-37.775 10.122-76.604-12.296-86.726-50.071l-8.53-31.833c-10.122-37.775 12.296-76.604 50.071-86.726l27.139-7.272a65.188 65.188 0 0 0 44.955-42.307z"
            style="" fill="#5cb38e" data-original="#5cb38e"></path>
        <path
            d="M89.841 307.306c-18.837 0-36.814-9.912-46.613-26.727a7.501 7.501 0 0 1 12.961-7.553c8.802 15.105 26.761 22.484 43.67 17.959 16.911-4.532 28.772-19.906 28.842-37.388a7.5 7.5 0 0 1 7.499-7.47h.031a7.5 7.5 0 0 1 7.47 7.53c-.098 24.23-16.529 45.537-39.959 51.816a53.64 53.64 0 0 1-13.901 1.833z"
            style="" fill="#495059" data-original="#495059"></path>
        <path
            d="M138.597 261.287c-1.125 0-2.254-.074-3.382-.225a25.391 25.391 0 0 1-13.571-6.197 7.5 7.5 0 0 1 9.957-11.219 10.448 10.448 0 0 0 5.585 2.547c2.089.276 4.181-.07 6.054-1.004a7.5 7.5 0 1 1 6.694 13.424 25.362 25.362 0 0 1-11.337 2.674zM39.844 288.002a7.501 7.501 0 0 1-.453-14.986 10.445 10.445 0 0 0 5.746-2.159 10.448 10.448 0 0 0 3.564-4.998 7.5 7.5 0 0 1 14.232 4.738 25.39 25.39 0 0 1-8.655 12.152 25.4 25.4 0 0 1-13.968 5.239 8.11 8.11 0 0 1-.466.014z"
            style="" fill="#495059" data-original="#495059"></path>
        <g style="opacity:0.1;">
            <circle cx="324.72" cy="202.161" r="7.248" fill="#000000" data-original="#000000"></circle>
            <circle cx="277.8" cy="226.181" r="7.248" fill="#000000" data-original="#000000"></circle>
            <circle cx="312.69" cy="242.431" r="7.248" fill="#000000" data-original="#000000"></circle>
        </g>
        <ellipse cx="293.66" cy="128.81" rx="15.477" ry="22.59" style="" transform="rotate(75.001 293.67 128.814)"
            fill="#ffa8cb" data-original="#ffa8cb"></ellipse>
        <ellipse cx="175.184" cy="160.552" rx="15.477" ry="22.59" style="" transform="rotate(75.001 175.189 160.557)"
            fill="#ffa8cb" data-original="#ffa8cb"></ellipse>
        <path
            d="M185.231 138.621a7.449 7.449 0 0 1-7.225-5.584l-.021-.083a7.5 7.5 0 0 1 5.382-9.14c4.013-1.042 8.102 1.373 9.14 5.382 1.038 4.01-1.36 8.144-5.371 9.182a7.64 7.64 0 0 1-1.905.243zM271.211 119.625a7.502 7.502 0 0 1-7.239-5.561l-3.001-11.199a7.5 7.5 0 0 1 5.303-9.186 7.497 7.497 0 0 1 9.186 5.303l3.001 11.199a7.5 7.5 0 0 1-7.25 9.444z"
            style="" fill="#495059" data-original="#495059"></path>
        <circle cx="97.92" cy="194.511" r="7.248" style="" fill="#495059" data-original="#495059"></circle>
        <circle cx="53.3" cy="206.471" r="7.248" style="" fill="#495059" data-original="#495059"></circle>
        <path
            d="M255.772 40.339c48.062-1.862 92.743 29.589 105.716 78.007l12.533 46.774c13.512 50.426-16.413 102.258-66.84 115.77l-55.404 14.845c68.109-68.568 47.207-201.283 3.995-255.396z"
            style="opacity:0.05;enable-background:new ;" fill="#000000" data-original="#000000"></path>
        <path
            d="M327.027 71.006 136 102.246c-8.656 1.416-15.296-7.537-11.429-15.41l9.954-20.266a28.096 28.096 0 0 1 20.684-15.341l141.04-23.066a26.777 26.777 0 0 1 23.149 7.386l14.399 14.238c7.262 7.182 3.309 19.57-6.77 21.219z"
            style="" fill="#cd5b5b" data-original="#cd5b5b"></path>
        <path
            d="m147.249 100.407 22.884-3.743 47.343-55.618-22.884 3.743zM305.023 28.197a26.743 26.743 0 0 0-8.775-.033l-12.657 2.07-47.344 55.618 22.884-3.742 45.892-53.913z"
            style="" fill="#fae17c" data-original="#fae17c"></path>
        <path
            d="M317.134 358.639c-11.757 0-21.786-2.35-26.155-4.153-7.814-3.226-11.533-12.175-8.307-19.99 3.213-7.781 12.095-11.499 19.887-8.349 1.987.699 14.691 3.597 26.401.461 8.169-2.192 16.56 2.658 18.747 10.822 2.188 8.166-2.657 16.559-10.822 18.747-6.676 1.79-13.461 2.462-19.751 2.462z"
            style="" fill="#498a68" data-original="#498a68"></path>
        <path
            d="M360.319 362.727h-19.435a9.551 9.551 0 0 1-9.439-8.091l-8.642-55.851a4.018 4.018 0 0 1 3.97-4.632h47.656a4.017 4.017 0 0 1 3.97 4.632l-8.642 55.851a9.55 9.55 0 0 1-9.438 8.091z"
            style="" fill="#e5e5e5" data-original="#e5e5e5" class=""></path>
        <path
            d="M82.739 432.869c-7.876 0-15.498-2.553-21.878-7.399-7.72-5.863-12.693-14.383-14.005-23.988-2.279-16.682 9.438-32.107 26.121-34.385 6.861-.942 13.677.854 19.191 5.043 5.515 4.189 9.068 10.275 10.005 17.137.92 6.726-1.268 13.278-5.852 17.525-4.265 3.954-10.175 5.477-16.21 4.178a7.499 7.499 0 1 1 3.154-14.664c1.871.398 2.614-.288 2.859-.516.971-.899 1.437-2.663 1.187-4.493-.815-5.971-6.337-10.154-12.306-9.349-8.486 1.159-14.448 9.007-13.289 17.494.771 5.635 3.688 10.633 8.217 14.073s10.122 4.912 15.763 4.142c15.564-2.127 26.498-16.52 24.372-32.085a7.498 7.498 0 0 1 6.415-8.445c4.106-.564 7.885 2.312 8.446 6.416 3.246 23.76-13.443 45.73-37.203 48.975a36.618 36.618 0 0 1-4.987.341z"
            style="" fill="#a9a6de" data-original="#a9a6de"></path>
        <path
            d="M461.007 120.832a7.502 7.502 0 0 1-4.542-13.473c12.51-9.502 14.956-27.41 5.453-39.92-7.102-9.349-20.487-11.178-29.835-4.075-3.305 2.51-5.434 6.156-5.995 10.267s.512 8.195 3.022 11.499c3.646 4.799 10.514 5.737 15.311 2.091 1.471-1.117 2.389-2.693 2.339-4.016-.013-.334-.052-1.349-1.658-2.387a7.498 7.498 0 0 1-2.23-10.369 7.5 7.5 0 0 1 10.369-2.23c5.186 3.351 8.287 8.604 8.509 14.415.237 6.245-2.848 12.425-8.254 16.531-11.385 8.648-27.681 6.422-36.329-4.961-10.186-13.407-7.563-32.6 5.843-42.785 15.935-12.103 38.749-8.989 50.853 6.946 14.507 19.097 10.773 46.434-8.323 60.939a7.477 7.477 0 0 1-4.533 1.528z"
            style="" fill="#8783d2" data-original="#8783d2"></path>
    </g>
</svg>