<svg xmlns="http://www.w3.org/2000/svg" version="1.1" xmlns:xlink="http://www.w3.org/1999/xlink"
    xmlns:svgjs="http://svgjs.com/svgjs" width="512" height="512" x="0" y="0" viewBox="0 0 512 512"
    style="enable-background:new 0 0 512 512" xml:space="preserve" class="">
    <g>
        <path
            d="M141.695 378.37c-2.6 0-5.237-.623-7.69-1.933-7.963-4.255-10.968-14.16-6.713-22.122 8.816-16.497 22.148-27.053 26.53-30.522l.363-.287c7.068-5.614 17.352-4.439 22.967 2.63 5.616 7.068 4.439 17.351-2.63 22.968l-.406.322c-3.386 2.681-12.38 9.802-17.989 20.298-2.944 5.508-8.593 8.646-14.432 8.646z"
            style="" fill="#498a68" data-original="#498a68"></path>
        <path
            d="M278.026 408.322c76.284 0 164.073 0 228.341-41.032 10.998-7.021 4.637-23.979-8.296-22.253-50.895 6.794-93.645-6.161-118.022-27.147l-102.023 90.432z"
            style="" fill="#5cb38e" data-original="#5cb38e"></path>
        <path
            d="M408.825 335.203c-.85 24.362-4.59 48.679-19.607 68.899-37.188 4.219-75.452 4.22-111.191 4.22l102.023-90.431c7.813 6.726 17.523 12.621 28.775 17.312z"
            style="opacity:0.1;enable-background:new ;" fill="#000000" data-original="#000000"></path>
        <path
            d="M312.178 482.733c-13.014 0-24.033-10.029-25.048-23.221-.31-4.027-1.925-68.372 4.857-85.015 5.241-12.862 19.916-19.04 32.779-13.8 12.336 5.026 18.525 18.733 14.386 31.193-1.803 9.282-2.839 51.197-1.873 63.764 1.065 13.849-9.298 25.939-23.146 27.004-.655.05-1.308.075-1.955.075zm26.4-89.286-.012.029.012-.029zM207.822 480.592c-12.929 0-23.919-9.909-25.031-23.026-2.7-31.854 17.143-80.993 17.989-83.07 5.241-12.862 19.916-19.04 32.779-13.8 12.862 5.241 19.041 19.916 13.8 32.779-5.635 13.829-15.658 45.581-14.45 59.842 1.173 13.84-9.096 26.011-22.936 27.184-.721.062-1.439.091-2.151.091z"
            style="" fill="#498a68" data-original="#498a68"></path>
        <path
            d="M324.766 360.697c-12.864-5.24-27.538.938-32.779 13.8-4.977 12.215-5.432 50.124-5.199 71.025 19.23-.916 35.862-3.391 50.13-7.517.089-17.207.973-39.627 2.234-46.114 4.139-12.462-2.049-26.168-14.386-31.194zM233.559 360.697c-12.864-5.24-27.538.938-32.779 13.8-.637 1.564-12.056 29.849-16.494 57.325 13.509 6.085 29.723 10.145 48.977 12.289 1.911-15.916 9.476-39.296 14.096-50.635 5.241-12.863-.937-27.538-13.8-32.779z"
            style="opacity:0.1;enable-background:new ;" fill="#000000" data-original="#000000"></path>
        <path
            d="M154.272 319.59c0 58.712 7.975 101.195 114.819 101.195S383.91 378.302 383.91 319.59s-51.406-106.307-114.819-106.307c-63.412-.001-114.819 47.595-114.819 106.307z"
            style="" fill="#5cb38e" data-original="#5cb38e"></path>
        <path
            d="M154.272 319.59c0-.468.013-.933.019-1.4 23.915-6.137 71.351-7.922 104.361 27.159 24.055 25.564 27.536 53.151 24.955 75.152-4.624.188-9.459.284-14.517.284-106.843-.001-114.818-42.483-114.818-101.195z"
            style="" fill="#9bdfc1" data-original="#9bdfc1"></path>
        <path
            d="M290.889 215.204c52.987 9.43 93.022 52.575 93.022 104.386 0 54.364-6.851 94.809-92.686 100.501 47.657-48.373 38.44-148.252-.336-204.887z"
            style="opacity:0.05;enable-background:new ;" fill="#000000" data-original="#000000"></path>
        <path
            d="M362.981 306.647H160.914c-16.282 0-29.481-13.199-29.481-29.481v-15.739c0-16.282 13.199-29.481 29.481-29.481h202.067c16.282 0 29.481 13.199 29.481 29.481v15.739c0 16.282-13.199 29.481-29.481 29.481z"
            style="" fill="#959ba0" data-original="#959ba0"></path>
        <g style="opacity:0.1;">
            <path
                d="M254.45 231.95h15v74.7h-15zM206.45 231.95h15v74.7h-15zM163.79 231.95h15v74.7h-15zM302.45 231.95h15v74.7h-15zM345.11 231.95h15v74.7h-15z"
                fill="#000000" data-original="#000000"></path>
        </g>
        <path
            d="M163.699 60.179a105.895 105.895 0 0 1 88.328-47.485h43.695c62.122 0 112.482 50.36 112.482 112.482v51.715c0 55.754-45.197 100.951-100.951 100.951H75.625C33.858 277.842 0 243.984 0 202.218v-35.197c0-41.766 33.858-75.625 75.625-75.625h30.006a69.616 69.616 0 0 0 58.068-31.217z"
            style="" fill="#495059" data-original="#495059"></path>
        <path
            d="M316.836 105.257h-93.995c-18.975 0-34.358-15.382-34.358-34.358 0-18.975 15.382-34.358 34.358-34.358h93.995c18.975 0 34.358 15.382 34.358 34.358s-15.383 34.358-34.358 34.358z"
            style="" fill="#5cb38e" data-original="#5cb38e"></path>
        <g style="opacity:0.1;">
            <circle cx="347.1" cy="201.47" r="7.741" fill="#000000" data-original="#000000"></circle>
            <circle cx="292.07" cy="213.28" r="7.741" fill="#000000" data-original="#000000"></circle>
            <circle cx="323.56" cy="239.69" r="7.741" fill="#000000" data-original="#000000"></circle>
        </g>
        <path
            d="M310.581 90.805a7.5 7.5 0 0 1-7.5-7.5v-9.723c0-4.143 3.358-7.5 7.5-7.5s7.5 3.357 7.5 7.5v9.723a7.5 7.5 0 0 1-7.5 7.5zM229.096 90.805a7.5 7.5 0 0 1-7.5-7.5v-9.723c0-4.143 3.358-7.5 7.5-7.5s7.5 3.357 7.5 7.5v9.723a7.5 7.5 0 0 1-7.5 7.5z"
            style="" fill="#495059" data-original="#495059"></path>
        <path
            d="M239.456 68.61c-.212 0-.426-.009-.642-.026l-21.456-1.818a7.502 7.502 0 0 1-6.84-8.107c.35-4.127 3.977-7.183 8.106-6.84l21.456 1.818a7.5 7.5 0 0 1-.624 14.973zM300.221 68.61a7.5 7.5 0 0 1-.625-14.973l21.456-1.818a7.5 7.5 0 1 1 1.266 14.947l-21.456 1.818a7.683 7.683 0 0 1-.641.026z"
            style="" fill="#495059" data-original="#495059"></path>
        <path
            d="M90.592 229.541a27.982 27.982 0 0 1-21.096-9.607 7.5 7.5 0 0 1 11.309-9.855c2.472 2.836 6.039 4.463 9.788 4.463s7.316-1.627 9.788-4.463a7.501 7.501 0 0 1 11.309 9.855 27.99 27.99 0 0 1-21.098 9.607z"
            style="" fill="#ffffff" data-original="#ffffff"></path>
        <circle cx="115.26" cy="130.9" r="7.741" style="" fill="#ffffff" data-original="#ffffff"></circle>
        <circle cx="65.925" cy="130.9" r="7.741" style="" fill="#ffffff" data-original="#ffffff"></circle>
        <path
            d="M320.711 15.485c50.094 11.364 87.493 56.159 87.493 109.691v51.715c0 55.754-45.197 100.951-100.951 100.951h-61.257c89.212-51.907 104.333-194.591 74.715-262.357z"
            style="opacity:0.05;enable-background:new ;" fill="#000000" data-original="#000000"></path>
        <path
            d="m274.361 376.773-15.868-38.914c-2.88-7.063-12.381-8.252-16.912-2.116a82.992 82.992 0 0 1-29.793 25c-6.83 3.397-7.309 12.96-.853 17.023l35.568 22.384 27.858-23.377z"
            style="" fill="#e5e5e5" data-original="#e5e5e5"></path>
        <path
            d="m274.361 376.773-15.868-38.914c-2.88-7.063-12.381-8.252-16.912-2.116a82.992 82.992 0 0 1-29.793 25c-6.83 3.397-7.309 12.96-.853 17.023l35.568 22.384 27.858-23.377z"
            style="opacity:0.05;enable-background:new ;" fill="#000000" data-original="#000000"></path>
        <path
            d="M351.319 380.675c24.79 29.544 21.794 59.337-18.947 93.522s-70.601 31.963-95.391 2.419-19.291-74.971 12.282-101.464c31.574-26.493 77.266-24.02 102.056 5.523z"
            style="" fill="#e5e5e5" data-original="#e5e5e5"></path>
        <path
            d="M292.394 461.807a7.5 7.5 0 0 1-4.825-13.245l18.253-15.315c.892-.749 1.439-1.8 1.541-2.96s-.255-2.291-1.003-3.183a4.328 4.328 0 0 0-2.961-1.541 4.313 4.313 0 0 0-3.182 1.003l-9.168 7.691c-3.96 3.325-8.976 4.915-14.132 4.456a19.232 19.232 0 0 1-13.144-6.843 19.235 19.235 0 0 1-4.456-14.131 19.238 19.238 0 0 1 6.843-13.145l18.251-15.314a7.5 7.5 0 1 1 9.642 11.49l-18.252 15.315a4.327 4.327 0 0 0-1.541 2.96 4.333 4.333 0 0 0 1.003 3.183c.749.894 1.8 1.44 2.96 1.542a4.354 4.354 0 0 0 3.182-1.004l9.167-7.691c3.961-3.325 8.98-4.913 14.132-4.456a19.237 19.237 0 0 1 13.143 6.842 19.234 19.234 0 0 1 4.456 14.133 19.232 19.232 0 0 1-6.842 13.142l-18.253 15.316a7.457 7.457 0 0 1-4.814 1.755z"
            style="" fill="#495059" data-original="#495059"></path>
        <path
            d="M275.567 413.995a7.481 7.481 0 0 1-5.749-2.679l-8.95-10.666a7.5 7.5 0 0 1 .925-10.566c3.172-2.665 7.903-2.248 10.566.924l8.95 10.666a7.5 7.5 0 0 1-.925 10.566 7.463 7.463 0 0 1-4.817 1.755zM315.012 461.003a7.481 7.481 0 0 1-5.749-2.679l-8.95-10.665a7.5 7.5 0 1 1 11.49-9.642l8.95 10.665a7.5 7.5 0 0 1-5.741 12.321z"
            style="" fill="#495059" data-original="#495059"></path>
        <path
            d="M261.962 379.456c-5.783 0-11.386-3.075-14.357-8.506-4.332-7.922-1.423-17.854 6.498-22.186 6.317-3.456 9.303-10.848 9.689-12.924.246-8.813 7.467-15.883 16.34-15.883 9.028 0 16.347 7.319 16.347 16.347 0 11.023-8.28 31.076-26.688 41.143a16.268 16.268 0 0 1-7.829 2.009zm1.824-43.163v.011-.011z"
            style="" fill="#498a68" data-original="#498a68"></path>
    </g>
</svg>