<svg xmlns="http://www.w3.org/2000/svg" version="1.1" xmlns:xlink="http://www.w3.org/1999/xlink"
    xmlns:svgjs="http://svgjs.com/svgjs" width="512" height="512" x="0" y="0" viewBox="0 0 512.001 512.001"
    style="enable-background:new 0 0 512 512" xml:space="preserve" class="">
    <g>
        <path
            d="M135.992 353.313c-3.077 0-6.186-.883-8.932-2.726l-.376-.252c-4.562-3.051-18.444-12.336-28.372-27.791-4.792-7.46-2.629-17.391 4.831-22.182 7.461-4.792 17.39-2.628 22.182 4.831 6.317 9.835 15.681 16.098 19.207 18.456l.421.282c7.361 4.941 9.323 14.914 4.382 22.275-3.098 4.614-8.174 7.107-13.343 7.107z"
            style="" fill="#498a68" data-original="#498a68"></path>
        <path
            d="M236.09 440.469c74.542 7.437 160.327 15.995 227.128-17.834 11.431-5.789 6.869-22.98-5.937-22.553-50.395 1.678-90.906-15.149-112.681-38.033l-108.51 78.42z"
            style="" fill="#5cb38e" data-original="#5cb38e"></path>
        <path
            d="M371.03 381.771c-3.206 23.723-9.231 47.12-25.876 65.414-36.75.498-74.141-3.232-109.064-6.717l108.509-78.42c6.98 7.336 15.893 14.043 26.431 19.723z"
            style="opacity:0.1;enable-background:new ;" fill="#000000" data-original="#000000"></path>
        <path
            d="M252.261 512.001c-9.886.001-19.218-5.977-23.02-15.745-15.472-39.745 8.03-84.46 31.69-99.021 11.615-7.149 26.827-3.528 33.977 8.089 7.147 11.615 3.528 26.824-8.084 33.974-5.51 3.524-17.546 23.649-11.555 39.041 4.949 12.71-1.345 27.025-14.055 31.973a24.633 24.633 0 0 1-8.953 1.689zM137.62 470.517a24.608 24.608 0 0 1-9.745-2.015c-12.53-5.389-18.319-19.915-12.93-32.445 15.664-36.421 44.931-56.388 82.321-56.111 13.64.087 24.626 11.214 24.539 24.853-.086 13.586-11.127 24.54-24.693 24.54-.197.001-.391-.002-.589-.002-11.699 0-26.264 3.123-36.203 26.235-4.022 9.349-13.13 14.945-22.7 14.945z"
            style="" fill="#498a68" data-original="#498a68"></path>
        <path
            d="M260.931 397.235c-18.091 11.134-36.068 39.899-36.622 70.59 18.795 4.512 35.254 6.889 49.965 7.209-3.33-14.832 7.427-32.46 12.55-35.736 11.613-7.15 15.232-22.36 8.084-33.974-7.149-11.617-22.362-15.238-33.977-8.089zM221.804 404.799c.087-13.639-10.899-24.766-24.539-24.853-30.626-.227-55.796 13.137-72.511 37.992 9.563 11.302 22.699 21.02 39.787 29.402 9.566-15.648 21.848-18.002 31.981-18.002l.589.002c13.566-.001 24.607-10.955 24.693-24.541z"
            style="opacity:0.1;enable-background:new ;" fill="#000000" data-original="#000000"></path>
        <path
            d="M137.52 316.262c-14.923 55.691-18.156 98.016 83.192 125.172s119.71-11.115 134.633-66.806-21.742-113.904-81.893-130.022c-60.15-16.116-121.009 15.965-135.932 71.656z"
            style="" fill="#5cb38e" data-original="#5cb38e"></path>
        <path
            d="M137.52 316.262c.119-.444.249-.882.374-1.323 24.245.257 69.694 10.62 92.09 52.286 16.32 30.363 12.61 57.415 4.571 77.629a350.584 350.584 0 0 1-13.842-3.421c-101.348-27.155-98.115-69.479-83.193-125.171z"
            style="" fill="#9bdfc1" data-original="#9bdfc1"></path>
        <path
            d="M293.64 251.97c47.865 22.412 74.874 73.514 61.705 122.659-13.817 51.568-30.595 88.19-113.462 71.773 57.501-33.772 74.144-130.855 51.757-194.432z"
            style="opacity:0.05;enable-background:new ;" fill="#000000" data-original="#000000"></path>
        <path
            d="M212.395 72.593a103.986 103.986 0 0 1 95.853-22.592l41.447 11.106c58.926 15.789 93.896 76.358 78.106 135.284l-13.144 49.055c-14.171 52.886-68.53 84.27-121.416 70.1L73.529 256.673c-39.618-10.616-63.129-51.338-52.513-90.956l8.946-33.386C40.577 92.714 81.3 69.203 120.917 79.819l28.463 7.627a68.37 68.37 0 0 0 63.015-14.853z"
            style="" fill="#5cb38e" data-original="#5cb38e"></path>
        <g style="opacity:0.1;">
            <circle cx="350.45" cy="253.231" r="7.602" fill="#000000" data-original="#000000"></circle>
            <circle cx="295.25" cy="250.451" r="7.602" fill="#000000" data-original="#000000"></circle>
            <circle cx="318.41" cy="283.501" r="7.602" fill="#000000" data-original="#000000"></circle>
        </g>
        <ellipse cx="366.211" cy="149.829" rx="9.83" ry="19.159" style=""
            transform="scale(-1) rotate(-75.001 -195.265 477.263)" fill="#ffa8cb" data-original="#ffa8cb"></ellipse>
        <ellipse cx="241.932" cy="116.522" rx="9.83" ry="19.159" style="" transform="rotate(-75.001 241.94 116.525)"
            fill="#ffa8cb" data-original="#ffa8cb"></ellipse>
        <circle cx="148.47" cy="127.361" r="7.602" style="" fill="#495059" data-original="#495059"></circle>
        <circle cx="101.68" cy="114.821" r="7.602" style="" fill="#495059" data-original="#495059"></circle>
        <path
            d="M372.689 70.105c44.629 23.512 68.719 75.507 55.112 126.286l-13.144 49.055c-14.171 52.885-68.53 84.27-121.416 70.1l-58.106-15.569c97.817-26.564 148.426-158.065 137.554-229.872z"
            style="opacity:0.05;enable-background:new ;" fill="#000000" data-original="#000000"></path>
        <path
            d="M267.691 384.625c-8.142 0-15.119-6.171-15.953-14.445-.888-8.821 5.542-16.693 14.363-17.581l.509-.051c4.224-.418 15.444-1.528 25.65-7.228 7.739-4.323 17.519-1.552 21.842 6.189 4.322 7.741 1.551 17.519-6.19 21.842-16.044 8.959-32.675 10.606-38.14 11.147l-.455.045c-.544.055-1.088.082-1.626.082z"
            style="" fill="#498a68" data-original="#498a68"></path>
        <path
            d="M366.001 135.252a7.5 7.5 0 0 1-7.249-9.444c.45-1.681.219-3.436-.651-4.943s-2.274-2.586-3.956-3.036a6.523 6.523 0 0 0-7.979 4.607 7.5 7.5 0 0 1-14.488-3.883c3.072-11.46 14.893-18.282 26.35-15.214a21.38 21.38 0 0 1 13.064 10.024 21.372 21.372 0 0 1 2.148 16.327 7.502 7.502 0 0 1-7.239 5.562zM280.232 112.271a7.5 7.5 0 0 1-7.249-9.443 6.522 6.522 0 0 0-4.606-7.979c-3.47-.929-7.051 1.137-7.981 4.607a7.5 7.5 0 0 1-14.489-3.883c3.071-11.458 14.887-18.284 26.352-15.213 11.458 3.07 18.283 14.891 15.213 26.351a7.503 7.503 0 0 1-7.24 5.56zM94.766 234.206c19.312 5.175 39.162-6.286 44.337-25.598l5.043-18.821c2.389-8.917-2.903-18.083-11.82-20.473l-37.643-10.086c-8.917-2.389-18.083 2.902-20.473 11.82l-5.043 18.822c-5.174 19.311 6.287 39.161 25.599 44.336z"
            style="" fill="#495059" data-original="#495059"></path>
        <path
            d="M438.282 158.275c-22.035-10.509-21.297-22.589-35.156-27.172-6.4-2.116-8.734-9.96-4.457-15.17 19.231-23.425 43.729-39.499 72.518-26.411 19.027 8.651 27.513 30.992 19.099 50.066-8.732 19.792-32.479 27.999-52.004 18.687zM172.361 74.396c23.064 8 31.026-1.116 44.109 5.359 6.041 2.99 13.213-.953 13.829-7.665 2.769-30.181-3.373-58.831-33.057-69.74-19.618-7.21-41.353 2.729-48.764 22.215-7.69 20.219 3.446 42.742 23.883 49.831z"
            style="" fill="#a3e3ff" data-original="#a3e3ff"></path>
    </g>
</svg>