<svg xmlns="http://www.w3.org/2000/svg" version="1.1" xmlns:xlink="http://www.w3.org/1999/xlink"
    xmlns:svgjs="http://svgjs.com/svgjs" width="512" height="512" x="0" y="0" viewBox="0 0 512 512"
    style="enable-background:new 0 0 512 512" xml:space="preserve" class="">
    <g>
        <path
            d="M189.77 0h154.569c8.521 0 15.429 6.908 15.429 15.429v47.185c0 8.521-6.908 15.429-15.429 15.429h-43.138a24.365 24.365 0 0 0-17.584 7.5L273.174 96.43c-3.338 3.48-8.902 3.48-12.239 0l-10.443-10.888a24.365 24.365 0 0 0-17.584-7.5H189.77c-8.521 0-15.429-6.908-15.429-15.429V15.429C174.342 6.908 181.249 0 189.77 0z"
            style="" fill="#e5e5e5" data-original="#e5e5e5"></path>
        <path
            d="M159.479 423.873a13.74 13.74 0 0 1-6.494-1.632c-6.723-3.593-9.261-11.956-5.668-18.68 7.446-13.932 18.705-22.846 22.405-25.775l.304-.241c5.97-4.741 14.652-3.746 19.394 2.223 4.742 5.97 3.747 14.652-2.223 19.394l-.34.27c-2.859 2.264-10.455 8.276-15.192 17.142a13.804 13.804 0 0 1-12.186 7.299z"
            style="" fill="#498a68" data-original="#498a68"></path>
        <path
            d="M274.6 449.166c64.416 0 138.547 0 192.816-34.648 9.287-5.929 3.916-20.249-7.005-18.791-42.977 5.737-79.076-5.202-99.661-22.923l-86.15 76.362z"
            style="" fill="#5cb38e" data-original="#5cb38e" class=""></path>
        <path
            d="M385.049 387.422c-.718 20.572-3.876 41.106-16.556 58.18-31.402 3.563-63.714 3.563-93.892 3.563l86.15-76.362c6.597 5.681 14.796 10.659 24.298 14.619z"
            style="opacity:0.1;enable-background:new ;" fill="#000000" data-original="#000000" class=""></path>
        <path
            d="M303.437 512c-10.99.001-20.295-8.469-21.151-19.609-.261-3.4-1.623-57.735 4.101-71.787 4.426-10.862 16.817-16.081 27.68-11.655 10.417 4.244 15.643 15.818 12.149 26.34-1.522 7.837-2.397 43.233-1.581 53.846.899 11.695-7.853 21.903-19.546 22.802-.555.042-1.106.063-1.652.063zm22.294-75.396-.009.024.009-.024zM226.42 512c-10.989 0-20.294-8.469-21.151-19.609-.262-3.399-1.625-57.734 4.102-71.789 4.426-10.861 16.821-16.078 27.68-11.653 10.417 4.245 15.643 15.818 12.148 26.341-1.523 7.838-2.398 43.232-1.582 53.844.9 11.694-7.851 21.902-19.545 22.802-.554.043-1.106.064-1.652.064zm22.293-75.395-.01.024a.244.244 0 0 0 .01-.024z"
            style="" fill="#498a68" data-original="#498a68"></path>
        <path
            d="M314.067 408.949c-10.863-4.426-23.254.793-27.68 11.655-4.201 10.313-4.585 42.324-4.389 59.973 16.238-.774 30.283-2.863 42.331-6.348.075-14.531.822-33.463 1.886-38.94 3.495-10.522-1.731-22.096-12.148-26.34zM237.051 408.95c-10.859-4.425-23.254.792-27.68 11.653-3.634 8.919-4.413 34.058-4.43 52.109 11.939 4.012 25.987 6.518 42.382 7.595-.15-14.736.654-38.731 1.875-45.016 3.495-10.523-1.73-22.097-12.147-26.341z"
            style="opacity:0.1;enable-background:new ;" fill="#000000" data-original="#000000" class=""></path>
        <path
            d="M170.099 374.238c0 49.578 6.734 85.451 96.956 85.451s96.956-35.874 96.956-85.451-43.409-89.768-96.956-89.768-96.956 40.191-96.956 89.768z"
            style="" fill="#5cb38e" data-original="#5cb38e" class=""></path>
        <path
            d="M170.099 374.238c0-.395.011-.788.016-1.182 20.194-5.183 60.25-6.69 88.125 22.933 20.313 21.587 23.252 44.882 21.073 63.46-3.905.159-7.987.24-12.258.24-90.222 0-96.956-35.873-96.956-85.451z"
            style="" fill="#9bdfc1" data-original="#9bdfc1"></path>
        <path
            d="M285.461 286.093c44.744 7.963 78.55 44.396 78.55 88.146 0 45.906-5.785 80.058-78.266 84.865 40.243-40.848 32.459-125.187-.284-173.011z"
            style="opacity:0.05;enable-background:new ;" fill="#000000" data-original="#000000" class=""></path>
        <path
            d="M178.059 155.187a89.418 89.418 0 0 1 74.586-40.097h36.897c52.457 0 94.982 42.525 94.982 94.982v43.669c0 47.08-38.166 85.245-85.245 85.245H103.687c-35.269 0-63.859-28.591-63.859-63.859v-29.721c0-35.268 28.591-63.859 63.859-63.859h25.338a58.786 58.786 0 0 0 49.034-26.36z"
            style="" fill="#5cb38e" data-original="#5cb38e" class=""></path>
        <g style="opacity:0.1;">
            <circle cx="332.93" cy="274.5" r="6.537" fill="#000000" data-original="#000000" class=""></circle>
            <circle cx="286.46" cy="284.47" r="6.537" fill="#000000" data-original="#000000" class=""></circle>
            <circle cx="313.05" cy="306.77" r="6.537" fill="#000000" data-original="#000000" class=""></circle>
        </g>
        <ellipse cx="311.31" cy="176.6" rx="16.476" ry="8.452" style="" fill="#ffa8cb" data-original="#ffa8cb">
        </ellipse>
        <ellipse cx="200.69" cy="176.6" rx="16.476" ry="8.452" style="" fill="#ffa8cb" data-original="#ffa8cb">
        </ellipse>
        <path
            d="M290.404 167.343a7.5 7.5 0 0 1-7.5-7.5v-8.21c0-4.142 3.357-7.5 7.5-7.5s7.5 3.358 7.5 7.5v8.21a7.5 7.5 0 0 1-7.5 7.5zM221.596 167.343a7.5 7.5 0 0 1-7.5-7.5v-8.21a7.5 7.5 0 0 1 15 0v8.21a7.5 7.5 0 0 1-7.5 7.5z"
            style="" fill="#495059" data-original="#495059"></path>
        <path
            d="M301.653 146.585h-.018l-16.182-.04a7.5 7.5 0 0 1 .019-15h.019l16.182.04a7.5 7.5 0 0 1-.02 15zM226.507 147.252c-.213 0-.427-.009-.644-.027l-16.123-1.371a7.5 7.5 0 0 1 1.27-14.946l16.123 1.371a7.5 7.5 0 0 1-.626 14.973z"
            style="" fill="#495059" data-original="#495059"></path>
        <circle cx="137.16" cy="214.9" r="6.537" style="" fill="#495059" data-original="#495059"></circle>
        <circle cx="95.5" cy="214.9" r="6.537" style="" fill="#495059" data-original="#495059"></circle>
        <path
            d="M310.643 117.446c42.301 9.596 73.881 47.422 73.881 92.626v43.669c0 47.08-38.166 85.245-85.245 85.245h-51.727c75.333-43.831 88.102-164.317 63.091-221.54z"
            style="opacity:0.05;enable-background:new ;" fill="#000000" data-original="#000000" class=""></path>
        <path
            d="M275.312 403.222c-1.709 0-3.446-.319-5.129-.993-16.696-6.687-27.617-17.879-32.46-33.264-2.288-7.272 1.751-15.023 9.022-17.312 7.272-2.289 15.022 1.75 17.311 9.022 2.331 7.407 7.387 12.318 16.392 15.925 7.077 2.834 10.516 10.869 7.681 17.946-2.16 5.395-7.341 8.676-12.817 8.676z"
            style="" fill="#498a68" data-original="#498a68"></path>
        <path
            d="M131.839 298.912a7.465 7.465 0 0 1-4.121-1.239c-2.94-1.938-8.23-4.247-16.74-4.247h-7.832a7.5 7.5 0 0 1 0-15h7.832c9.679 0 18.322 2.325 24.995 6.723a7.5 7.5 0 0 1-4.134 13.763z"
            style="" fill="#495059" data-original="#495059"></path>
        <circle cx="321.34" cy="39.02" r="13.258" style="" fill="#495059" data-original="#495059"></circle>
        <circle cx="267.06" cy="39.02" r="13.258" style="" fill="#495059" data-original="#495059"></circle>
        <circle cx="212.77" cy="39.02" r="13.258" style="" fill="#495059" data-original="#495059"></circle>
    </g>
</svg>