<svg xmlns="http://www.w3.org/2000/svg" version="1.1" xmlns:xlink="http://www.w3.org/1999/xlink"
    xmlns:svgjs="http://svgjs.com/svgjs" width="512" height="512" x="0" y="0" viewBox="0 0 511.999 511.999"
    style="enable-background:new 0 0 512 512" xml:space="preserve" class="">
    <g>
        <path
            d="M292.48 307.968a95.615 95.615 0 0 0-79.753-42.875h-39.453c-56.091 0-101.561 45.471-101.561 101.561v46.694c0 50.341 40.809 91.15 91.15 91.15h209.14c37.712 0 68.283-30.571 68.283-68.283v-31.779c0-37.712-30.571-68.283-68.283-68.283H344.91a62.85 62.85 0 0 1-52.43-28.185z"
            style="" fill="#5cb38e" data-original="#5cb38e"></path>
        <path
            d="M378.637 450.94c0-15.11-7.833-27.36-20.148-27.36s-20.148 12.249-20.148 27.36c0 15.11 9.02 22.067 20.148 22.067s20.148-6.957 20.148-22.067z"
            style="" fill="#495059" data-original="#495059"></path>
        <g style="opacity:0.1;">
            <circle cx="126.88" cy="435.54" r="6.99" fill="#000000" data-original="#000000"></circle>
            <circle cx="176.57" cy="446.21" r="6.99" fill="#000000" data-original="#000000"></circle>
            <circle cx="148.14" cy="470.05" r="6.99" fill="#000000" data-original="#000000"></circle>
        </g>
        <ellipse cx="137.51" cy="339.96" rx="17.617" ry="9.04" style="" fill="#ffa8cb" data-original="#ffa8cb">
        </ellipse>
        <ellipse cx="255.78" cy="339.96" rx="17.617" ry="9.04" style="" fill="#ffa8cb" data-original="#ffa8cb">
        </ellipse>
        <path
            d="M150.712 267.613c-45.231 10.261-78.999 50.706-78.999 99.042v46.694c0 50.341 40.809 91.15 91.15 91.15h55.31c-80.551-46.867-94.205-175.699-67.461-236.886z"
            style="opacity:0.05;enable-background:new ;" fill="#000000" data-original="#000000"></path>
        <path
            d="M219.361 167.658c0-26.663 27.075-29.615 27.075-70.088 0-31.582-25.602-57.184-57.184-57.184s-57.184 25.602-57.184 57.184c0 40.474 27.075 43.425 27.075 70.088h60.218z"
            style="" fill="#fae17c" data-original="#fae17c"></path>
        <circle cx="189.25" cy="218.68" r="25.18" style="" fill="#495059" data-original="#495059"></circle>
        <path
            d="M187.645 193.545c-12.62.783-22.858 11.112-23.539 23.738-.799 14.821 11.225 27.04 25.978 26.564l.003-.008c-4.706-3.999-8.407-9.598-9.87-14.266-.607-1.937.865-3.902 2.895-3.902h30.33c.641-2.221.992-4.566.992-6.994.001-14.439-12.153-26.041-26.789-25.132z"
            style="opacity:0.05;enable-background:new ;" fill="#000000" data-original="#000000"></path>
        <path
            d="M222.946 167.658h-67.389a8.585 8.585 0 0 0-8.585 8.585v33.85a8.585 8.585 0 0 0 8.585 8.585h67.389a8.585 8.585 0 0 0 8.585-8.585v-33.85a8.584 8.584 0 0 0-8.585-8.585z"
            style="" fill="#959ba0" data-original="#959ba0"></path>
        <path
            d="M155.557 167.658a8.585 8.585 0 0 0-8.585 8.585v33.85a8.585 8.585 0 0 0 8.585 8.585h23.981c-10.595-10.559-13.741-31.809-9.228-51.02h-14.753z"
            style="opacity:0.05;enable-background:new ;" fill="#000000" data-original="#000000"></path>
        <path d="M146.97 185.67h84.56v15h-84.56z" style="opacity:0.1;enable-background:new ;" fill="#000000"
            data-original="#000000"></path>
        <path
            d="M164.069 124.096c-21.142-22.551-14.31-64.052 7.155-80.793-22.745 7.553-39.156 28.986-39.156 54.267 0 40.473 27.075 43.425 27.075 70.088h22.792c.105-13.506-2.859-27.556-17.866-43.562z"
            style="opacity:0.05;enable-background:new ;" fill="#000000" data-original="#000000"></path>
        <path
            d="M141.727 145.116c4.23 5.593 7.59 10.051 9.078 15.76-6.557 2.031-11.333 8.151-11.333 15.367v33.851c0 8.869 7.216 16.085 16.085 16.085h1.89c3.4 14.417 16.364 25.183 31.804 25.183s28.405-10.766 31.805-25.183h1.89c8.869 0 16.085-7.216 16.085-16.085v-33.851c0-7.212-4.771-13.329-11.323-15.364.782-2.969 2.13-5.849 4.209-9.036a7.5 7.5 0 1 0-12.561-8.197c-2.64 4.045-5.571 9.36-6.845 16.513h-46.508c-1.801-10.188-7.128-17.235-12.312-24.09-7.263-9.604-14.123-18.675-14.123-38.499 0-27.396 22.288-49.684 49.684-49.684s49.684 22.288 49.684 49.684c0 7.02-.874 13.12-2.67 18.65a7.5 7.5 0 1 0 14.265 4.635c2.291-7.051 3.404-14.668 3.404-23.285 0-35.667-29.017-64.684-64.684-64.684s-64.684 29.017-64.684 64.684c.001 24.857 9.515 37.438 17.16 47.546zm47.525 91.244c-7.067 0-13.161-4.177-15.99-10.183h31.98c-2.829 6.007-8.923 10.183-15.99 10.183zm-34.78-60.118c0-.598.487-1.084 1.085-1.084h67.389c.598 0 1.085.486 1.085 1.084v33.851c0 .599-.487 1.085-1.085 1.085h-67.389a1.086 1.086 0 0 1-1.085-1.085v-33.851zM129.907 48.831a7.474 7.474 0 0 0 5.303 2.197 7.5 7.5 0 0 0 5.303-12.802l-9.647-9.648a7.5 7.5 0 1 0-10.606 10.606l9.647 9.647zm59.345-20.187a7.5 7.5 0 0 0 7.5-7.5V7.5c0-4.143-3.358-7.5-7.5-7.5s-7.5 3.357-7.5 7.5v13.644a7.5 7.5 0 0 0 7.5 7.5zm68.926 68.925c0 4.143 3.357 7.5 7.5 7.5h13.644c4.143 0 7.5-3.357 7.5-7.5a7.5 7.5 0 0 0-7.5-7.5h-13.644a7.5 7.5 0 0 0-7.5 7.5zm-14.884-46.541a7.474 7.474 0 0 0 5.303-2.197l9.647-9.647a7.5 7.5 0 0 0-10.606-10.606l-9.647 9.648a7.5 7.5 0 0 0 5.303 12.802zm128.71 277.626h-27.093c-18.635 0-35.896-9.279-46.175-24.822-19.146-28.953-51.298-46.238-86.009-46.238h-39.453c-60.137 0-109.062 48.925-109.062 109.061v46.694c0 24.891 9.297 48.66 26.178 66.931 16.783 18.165 39.55 29.306 64.107 31.369a7.5 7.5 0 0 0 1.256-14.948c-20.812-1.749-40.112-11.196-54.346-26.602-14.313-15.49-22.195-35.645-22.195-56.751v-46.694c0-51.865 42.196-94.061 94.062-94.061h39.453c29.661 0 57.137 14.77 73.497 39.512 13.064 19.755 35.003 31.549 58.687 31.549h27.093c33.516 0 60.783 27.268 60.783 60.783v31.779c0 33.516-27.268 60.783-60.783 60.783H190.925c-4.142 0-7.5 3.357-7.5 7.5s3.358 7.5 7.5 7.5h181.079c41.787 0 75.783-33.996 75.783-75.783v-31.779c0-41.787-33.996-75.783-75.783-75.783zM99.182 105.069h13.643a7.5 7.5 0 0 0 0-15H99.182a7.5 7.5 0 0 0 0 15zm237.036 259.763a6.99 6.99 0 1 0 0 13.98 6.99 6.99 0 0 0 0-13.98zm-5.376 86.108c0 17.685 11.111 29.568 27.648 29.568s27.647-11.883 27.647-29.568c0-20.199-11.627-34.859-27.647-34.859s-27.648 14.659-27.648 34.859zm40.295 0c0 9.53-4.373 14.568-12.647 14.568s-12.648-5.038-12.648-14.568c0-9.869 4.345-19.859 12.648-19.859 8.303-.001 12.647 9.989 12.647 19.859zm16.614-79.118a6.99 6.99 0 1 0-13.98 0 6.99 6.99 0 0 0 13.98 0zm-146.819-49.785v-8.779c0-4.143-3.358-7.5-7.5-7.5s-7.5 3.357-7.5 7.5v8.779c0 4.143 3.358 7.5 7.5 7.5s7.5-3.357 7.5-7.5zm-81.074-16.279a7.5 7.5 0 0 0-7.5 7.5v8.779c0 4.143 3.358 7.5 7.5 7.5s7.5-3.357 7.5-7.5v-8.779a7.5 7.5 0 0 0-7.5-7.5z"
            fill="#000000" data-original="#000000"></path>
    </g>
</svg>