<svg xmlns="http://www.w3.org/2000/svg" version="1.1" xmlns:xlink="http://www.w3.org/1999/xlink"
    xmlns:svgjs="http://svgjs.com/svgjs" width="512" height="512" x="0" y="0" viewBox="0 0 511.999 511.999"
    style="enable-background:new 0 0 512 512" xml:space="preserve" class="">
    <g>
        <path
            d="M327.452 358.656a14.08 14.08 0 0 1-2.552-.234c-17.506-3.219-33.321-10.975-38.96-15.455-6.063-4.817-7.073-13.638-2.256-19.701 4.799-6.04 13.57-7.065 19.629-2.313 1.523 1.092 12.439 7.274 26.658 9.888 7.616 1.4 12.655 8.71 11.255 16.326-1.242 6.76-7.139 11.489-13.774 11.489z"
            style="" fill="#498a68" data-original="#498a68"></path>
        <path
            d="M200.694 393.762c-65.434 0-140.736 0-195.863-35.195-9.433-6.023-3.977-20.568 7.116-19.087 43.655 5.828 80.325-5.285 101.235-23.285l87.512 77.567z"
            style="" fill="#5cb38e" data-original="#5cb38e"></path>
        <path
            d="M88.5 331.044c.729 20.897 3.937 41.755 16.818 59.099 31.898 3.619 64.72 3.62 95.376 3.62l-87.511-77.568c-6.703 5.769-15.031 10.825-24.683 14.849z"
            style="opacity:0.1;enable-background:new ;" fill="#000000" data-original="#000000"></path>
        <path
            d="M171.4 457.59c-.556 0-1.114-.021-1.677-.065-11.879-.913-20.768-11.284-19.854-23.162.829-10.78-.06-46.733-1.607-54.695-3.55-10.688 1.758-22.445 12.34-26.757 11.035-4.494 23.622.805 28.117 11.837 5.817 14.276 4.432 69.471 4.166 72.923-.87 11.316-10.323 19.919-21.485 19.919zm-22.645-76.587.01.025-.01-.025zM249.635 457.59c-.556 0-1.114-.021-1.677-.065-11.879-.913-20.768-11.284-19.854-23.162.829-10.78-.06-46.733-1.607-54.695-3.55-10.688 1.758-22.445 12.34-26.757 11.032-4.494 23.622.804 28.117 11.837 5.817 14.276 4.432 69.471 4.166 72.923-.871 11.316-10.323 19.919-21.485 19.919zm-22.646-76.587.01.025-.01-.025z"
            style="" fill="#498a68" data-original="#498a68"></path>
        <path
            d="M271.453 417.68c-.017-18.336-.808-43.872-4.5-52.932-4.496-11.033-17.085-16.332-28.117-11.837-10.581 4.312-15.89 16.068-12.34 26.757 1.24 6.384 2.057 30.758 1.905 45.727 16.654-1.093 30.924-3.639 43.052-7.715zM160.602 352.911c-10.582 4.312-15.889 16.068-12.34 26.757 1.081 5.564 1.84 24.795 1.916 39.555 12.239 3.539 26.505 5.662 43 6.448.2-17.928-.19-50.445-4.459-60.922-4.495-11.033-17.082-16.333-28.117-11.838z"
            style="opacity:0.1;enable-background:new ;" fill="#000000" data-original="#000000"></path>
        <path
            d="M306.846 317.651c0 50.361-6.841 86.801-98.488 86.801s-98.488-36.44-98.488-86.801 44.094-91.187 98.488-91.187 98.488 40.826 98.488 91.187z"
            style="" fill="#5cb38e" data-original="#5cb38e"></path>
        <path
            d="M306.846 317.651c0-.401-.011-.8-.016-1.201-20.513-5.264-61.203-6.795-89.517 23.296-20.633 21.928-23.619 45.591-21.406 64.463 3.967.161 8.113.243 12.452.243 91.646 0 98.487-36.44 98.487-86.801z"
            style="" fill="#9bdfc1" data-original="#9bdfc1"></path>
        <path
            d="M189.661 228.113c-45.451 8.088-79.791 45.097-79.791 89.538 0 46.632 5.876 81.323 79.503 86.206-40.879-41.492-32.973-127.164.288-175.744z"
            style="opacity:0.05;enable-background:new ;" fill="#000000" data-original="#000000"></path>
        <path
            d="M327.67 100.896a32.007 32.007 0 0 0-.272-5.242c-2.07-15.353-15.113-27.215-30.595-27.769-18.242-.653-33.235 13.942-33.235 32.038 0 2.152.212 4.254.616 6.286.566 2.845-.184 5.822-2.155 7.951a31.952 31.952 0 0 0-8.469 23.687c.953 16.285 14.358 29.436 30.657 30.105 4.614.189 9.02-.601 13.032-2.175 2.505-.983 5.28-.774 7.632.534 5.097 2.835 11.047 4.32 17.369 3.972 16.461-.907 29.719-14.514 30.229-30.992.426-13.755-7.816-25.639-19.674-30.602-3.138-1.315-5.239-4.392-5.135-7.793z"
            style="" fill="#e5e5e5" data-original="#e5e5e5"></path>
        <path
            d="M298.76 95.139a90.83 90.83 0 0 0-75.765-40.73h-37.48c-53.286 0-96.483 43.197-96.483 96.483v44.359c0 47.824 38.769 86.592 86.592 86.592h198.682c35.826 0 64.868-29.043 64.868-64.868v-30.19c0-35.826-29.042-64.868-64.868-64.868h-25.738a59.721 59.721 0 0 1-49.808-26.778z"
            style="" fill="#5cb38e" data-original="#5cb38e"></path>
        <path
            d="M361.468 185.132c-33.07 0-53.858 15.846-55.461 38.058-.981 13.595 8.939 25.873 22.558 26.441a23.514 23.514 0 0 0 16.22-5.546 4.947 4.947 0 0 1 5.393-.672c3.407 1.671 7.239 2.61 11.29 2.61s7.882-.939 11.29-2.61a4.947 4.947 0 0 1 5.393.672 23.514 23.514 0 0 0 16.22 5.546c13.619-.569 23.539-12.846 22.558-26.441-1.602-22.212-22.39-38.058-55.461-38.058z"
            style="" fill="#e5e5e5" data-original="#e5e5e5"></path>
        <g style="opacity:0.1;">
            <circle cx="141.44" cy="216.339" r="6.64" fill="#000000" data-original="#000000"></circle>
            <circle cx="188.65" cy="226.469" r="6.64" fill="#000000" data-original="#000000"></circle>
            <circle cx="161.63" cy="249.119" r="6.64" fill="#000000" data-original="#000000"></circle>
        </g>
        <ellipse cx="159.09" cy="125.529" rx="16.736" ry="8.586" style="" fill="#ffa8cb" data-original="#ffa8cb">
        </ellipse>
        <ellipse cx="275.76" cy="125.529" rx="16.736" ry="8.586" style="" fill="#ffa8cb" data-original="#ffa8cb">
        </ellipse>
        <path
            d="M182.478 116.003a7.5 7.5 0 0 1-7.5-7.5v-8.339a7.5 7.5 0 0 1 15 0v8.339a7.5 7.5 0 0 1-7.5 7.5zM252.373 116.003a7.5 7.5 0 0 1-7.5-7.5v-8.339a7.5 7.5 0 0 1 15 0v8.339a7.5 7.5 0 0 1-7.5 7.5z"
            style="" fill="#495059" data-original="#495059"></path>
        <circle cx="340.31" cy="155.799" r="6.64" style="" fill="#495059" data-original="#495059"></circle>
        <circle cx="382.63" cy="155.799" r="6.64" style="" fill="#495059" data-original="#495059"></circle>
        <path
            d="M164.081 56.801c-42.969 9.748-75.048 48.171-75.048 94.089v44.359c0 47.824 38.769 86.592 86.592 86.592h52.544c-76.523-44.523-89.494-166.913-64.088-225.04z"
            style="opacity:0.05;enable-background:new ;" fill="#000000" data-original="#000000"></path>
        <path
            d="M70.442 100.875a32.007 32.007 0 0 1 .272-5.242c2.07-15.353 15.113-27.215 30.595-27.769 18.242-.653 33.235 13.942 33.235 32.038 0 2.152-.212 4.254-.617 6.286-.566 2.845.184 5.822 2.155 7.951a31.952 31.952 0 0 1 8.469 23.687c-.953 16.285-14.358 29.436-30.657 30.105a31.993 31.993 0 0 1-13.032-2.175c-2.505-.983-5.28-.774-7.632.534-5.097 2.835-11.047 4.32-17.369 3.972-16.461-.907-29.719-14.514-30.229-30.992-.425-13.755 7.816-25.638 19.674-30.602 3.139-1.315 5.24-4.392 5.136-7.793z"
            style="" fill="#e5e5e5" data-original="#e5e5e5"></path>
        <path
            d="M182.009 138.183c-18.665 0-33.85-15.185-33.85-33.85s15.185-33.849 33.85-33.849 33.849 15.185 33.849 33.849c0 18.665-15.185 33.85-33.849 33.85zm0-52.699c-10.394 0-18.85 8.455-18.85 18.849s8.456 18.85 18.85 18.85c10.394 0 18.849-8.456 18.849-18.85 0-10.393-8.456-18.849-18.849-18.849zM252.373 138.183c-18.665 0-33.85-15.185-33.85-33.85s15.185-33.849 33.85-33.849 33.849 15.185 33.849 33.849c0 18.665-15.185 33.85-33.849 33.85zm0-52.699c-10.394 0-18.85 8.455-18.85 18.849s8.456 18.85 18.85 18.85c10.394 0 18.849-8.456 18.849-18.85 0-10.393-8.456-18.849-18.849-18.849z"
            style="" fill="#495059" data-original="#495059"></path>
        <path d="M226.023 111.834h-17.665a7.5 7.5 0 0 1 0-15h17.665a7.5 7.5 0 0 1 0 15z" style="" fill="#495059"
            data-original="#495059"></path>
        <path
            d="M214.383 371.007c-5.861 0-11.325-3.703-13.292-9.566-3.249-9.685-9.847-16.995-12.331-19.747l-.296-.329c-5.179-5.757-4.711-14.623 1.046-19.802 5.758-5.179 14.624-4.71 19.802 1.046l.264.294c3.215 3.561 12.996 14.397 18.103 29.618 2.463 7.342-1.493 15.29-8.834 17.754a13.99 13.99 0 0 1-4.462.732z"
            style="" fill="#498a68" data-original="#498a68"></path>
        <path
            d="M432.644 340.867v-23.238h37.322v23.238c0 4.352 1.382 8.59 3.948 12.105l18.87 25.855c2.695 3.693.058 8.883-4.514 8.883h-73.93c-4.571 0-7.209-5.19-4.514-8.883l18.87-25.855a20.525 20.525 0 0 0 3.948-12.105z"
            style="" fill="#a3e3ff" data-original="#a3e3ff"></path>
        <path
            d="M488.27 387.71c4.572 0 7.209-5.19 4.514-8.883l-17.963-24.612c-14.197-.005-31.046-2.397-45.049-2.895a20.564 20.564 0 0 1-1.075 1.652l-18.87 25.855c-2.695 3.693-.058 8.883 4.514 8.883h73.929z"
            style="" fill="#fae17c" data-original="#fae17c" class=""></path>
        <path
            d="M476.495 317.629h-50.381c-6.342 0-11.483-5.141-11.483-11.483 0-6.342 5.141-11.483 11.483-11.483h50.381c6.342 0 11.483 5.141 11.483 11.483 0 6.342-5.141 11.483-11.483 11.483z"
            style="" fill="#80b0e3" data-original="#80b0e3"></path>
        <path
            d="m367.101 330.694-29.576-10.765-14.334 39.382c-2.973 8.167 1.238 17.198 9.406 20.17 8.167 2.973 17.198-1.238 20.17-9.406l14.334-39.381z"
            style="" fill="#a3e3ff" data-original="#a3e3ff"></path>
        <path
            d="m367.668 330.901-30.711-11.178c-5.959-2.169-9.032-8.759-6.863-14.718 2.169-5.959 8.758-9.032 14.718-6.863l30.711 11.178c5.959 2.169 9.032 8.758 6.863 14.718-2.169 5.959-8.758 9.032-14.718 6.863z"
            style="" fill="#80b0e3" data-original="#80b0e3"></path>
        <path
            d="M504.021 414.776H338.303a7.98 7.98 0 0 1-7.979-7.979V395.69a7.98 7.98 0 0 1 7.979-7.979H504.02a7.98 7.98 0 0 1 7.979 7.979v11.107a7.978 7.978 0 0 1-7.978 7.979zM375.542 451.291H358.98a5.699 5.699 0 0 1-5.699-5.699v-30.816h27.961v30.816a5.7 5.7 0 0 1-5.7 5.699z"
            style="" fill="#806c6c" data-original="#806c6c" class=""></path>
        <path d="M353.28 414.779h27.961v13.891H353.28z" style="opacity:0.1;enable-background:new ;" fill="#000000"
            data-original="#000000"></path>
        <path d="M466.783 451.291h16.562a5.699 5.699 0 0 0 5.699-5.699v-30.816h-27.961v30.816a5.7 5.7 0 0 0 5.7 5.699z"
            style="" fill="#806c6c" data-original="#806c6c" class=""></path>
        <path d="M461.08 414.779h27.961v13.891H461.08z" style="opacity:0.1;enable-background:new ;" fill="#000000"
            data-original="#000000"></path>
    </g>
</svg>