<svg xmlns="http://www.w3.org/2000/svg" version="1.1" xmlns:xlink="http://www.w3.org/1999/xlink"
    xmlns:svgjs="http://svgjs.com/svgjs" width="512" height="512" x="0" y="0" viewBox="0 0 511.999 511.999"
    style="enable-background:new 0 0 512 512" xml:space="preserve" class="">
    <g>
        <path
            d="M347.4 419.953c-6.043 0-11.593-3.998-13.296-10.104-2.702-9.688-8.816-17.21-11.118-20.043l-.274-.337c-4.801-5.928-3.887-14.625 2.041-19.426 5.928-4.8 14.625-3.887 19.426 2.041l.245.302c2.978 3.664 12.04 14.815 16.288 30.041 2.05 7.347-2.245 14.966-9.593 17.015-1.24.346-2.49.511-3.719.511z"
            style="" fill="#498a68" data-original="#498a68"></path>
        <path
            d="M237.399 441.627c-64.456 0-138.632 0-192.935-34.669-9.292-5.933-3.918-20.261 7.01-18.802 43.003 5.741 79.125-5.206 99.722-22.937l86.203 76.408z"
            style="" fill="#5cb38e" data-original="#5cb38e"></path>
        <path
            d="M126.882 379.845c.718 20.584 3.878 41.131 16.567 58.216 31.422 3.565 63.753 3.566 93.95 3.566l-86.203-76.409c-6.603 5.683-14.807 10.664-24.314 14.627z"
            style="opacity:0.1;enable-background:new ;" fill="#000000" data-original="#000000"></path>
        <path
            d="M208.543 504.5c-.547 0-1.098-.021-1.652-.063-11.701-.901-20.457-11.115-19.557-22.817.817-10.618-.059-46.035-1.582-53.878-3.498-10.529 1.732-22.109 12.156-26.356 10.87-4.429 23.268.793 27.696 11.661 5.729 14.063 4.365 68.431 4.103 71.833-.857 11.145-10.169 19.619-21.164 19.62zm-22.307-75.442.009.023-.009-.023zM285.608 504.5c-.547 0-1.098-.021-1.652-.063-11.701-.901-20.457-11.115-19.557-22.817.817-10.618-.059-46.035-1.583-53.878-3.498-10.529 1.732-22.109 12.156-26.356 10.871-4.429 23.268.793 27.696 11.661 5.729 14.064 4.366 68.432 4.104 71.833-.857 11.145-10.169 19.619-21.164 19.62zM263.3 429.056l.01.025-.01-.025z"
            style="" fill="#498a68" data-original="#498a68"></path>
        <path
            d="M307.1 465.187c-.017-18.062-.796-43.215-4.432-52.14-4.428-10.868-16.825-16.091-27.696-11.661-10.424 4.247-15.654 15.827-12.156 26.356 1.222 6.289 2.026 30.299 1.876 45.044 16.405-1.077 30.462-3.585 42.408-7.599zM197.907 401.385c-10.424 4.247-15.654 15.827-12.156 26.356 1.065 5.481 1.812 24.424 1.887 38.964 12.056 3.486 26.109 5.577 42.357 6.352.197-17.66-.187-49.689-4.392-60.011-4.427-10.868-16.826-16.09-27.696-11.661z"
            style="opacity:0.1;enable-background:new ;" fill="#000000" data-original="#000000"></path>
        <path
            d="M341.964 366.653c0 49.608-6.738 85.504-97.016 85.504-90.277 0-97.016-35.896-97.016-85.504s43.435-89.823 97.016-89.823 97.016 40.215 97.016 89.823z"
            style="" fill="#5cb38e" data-original="#5cb38e"></path>
        <path
            d="M341.964 366.653c0-.395-.011-.788-.016-1.183-20.207-5.186-60.288-6.694-88.179 22.948-20.325 21.6-23.266 44.909-21.086 63.499 3.907.159 7.992.24 12.266.24 90.277 0 97.015-35.895 97.015-85.504z"
            style="" fill="#9bdfc1" data-original="#9bdfc1"></path>
        <path
            d="M226.531 278.453c-44.771 7.967-78.598 44.423-78.598 88.2 0 45.935 5.788 80.108 78.314 84.917-40.268-40.872-32.48-125.263.284-173.117z"
            style="opacity:0.05;enable-background:new ;" fill="#000000" data-original="#000000"></path>
        <path
            d="M206.375 418.152h-24.071c-5.419 0-9.812-4.393-9.812-9.812v-65.674h43.695v65.674c0 5.419-4.393 9.812-9.812 9.812z"
            style="" fill="#a3e3ff" data-original="#a3e3ff"></path>
        <path d="M172.492 370.081a492.957 492.957 0 0 0 43.695 5.135v-32.55h-43.695v27.415z"
            style="opacity:0.1;enable-background:new ;" fill="#000000" data-original="#000000"></path>
        <path
            d="M172.492 388.728v19.613c0 5.419 4.393 9.812 9.812 9.812h24.071c5.419 0 9.812-4.393 9.812-9.812v-19.613h-43.695z"
            style="" fill="#ffffff" data-original="#ffffff"></path>
        <path
            d="M341.338 355.591a493.264 493.264 0 0 1-178.896 0c-12.121-2.235-20.919-12.804-20.919-25.129v-18.517c0-14.112 11.44-25.553 25.553-25.553h169.629c14.112 0 25.553 11.44 25.553 25.553v18.517c-.001 12.325-8.799 22.894-20.92 25.129z"
            style="" fill="#a3e3ff" data-original="#a3e3ff"></path>
        <path
            d="M184.357 359.122a493.352 493.352 0 0 0 44.843 4.123v-76.854h-44.843v72.731zM274.579 363.246a493.352 493.352 0 0 0 44.843-4.123v-72.73h-44.843v76.853z"
            style="" fill="#ffffff" data-original="#ffffff"></path>
        <path
            d="M333.999 147.467a89.477 89.477 0 0 0-74.632-40.122h-36.92c-52.489 0-95.04 42.551-95.04 95.04v43.696c0 47.109 38.189 85.298 85.298 85.298h195.712c35.29 0 63.899-28.608 63.899-63.899v-29.739c0-35.29-28.608-63.899-63.899-63.899h-25.353a58.82 58.82 0 0 1-49.065-26.375z"
            style="" fill="#5cb38e" data-original="#5cb38e"></path>
        <g style="opacity:0.1;">
            <circle cx="179.03" cy="266.85" r="6.541" fill="#000000" data-original="#000000"></circle>
            <circle cx="225.53" cy="276.83" r="6.541" fill="#000000" data-original="#000000"></circle>
            <circle cx="198.92" cy="299.14" r="6.541" fill="#000000" data-original="#000000"></circle>
        </g>
        <ellipse cx="188.98" cy="177.4" rx="16.486" ry="8.458" style="" fill="#ffa8cb" data-original="#ffa8cb">
        </ellipse>
        <ellipse cx="299.66" cy="177.4" rx="16.486" ry="8.458" style="" fill="#ffa8cb" data-original="#ffa8cb">
        </ellipse>
        <path
            d="M201.333 109.702c-42.327 9.602-73.927 47.451-73.927 92.683v43.696c0 47.109 38.189 85.298 85.298 85.298h51.759c-75.379-43.858-88.156-164.418-63.13-221.677z"
            style="opacity:0.05;enable-background:new ;" fill="#000000" data-original="#000000"></path>
        <path
            d="M256.063 425.619c-5.743 0-11.106-3.61-13.068-9.347-3.256-9.523-9.798-16.684-12.261-19.38l-.293-.321c-5.136-5.64-4.727-14.376.914-19.512 5.64-5.137 14.376-4.727 19.511.914l.262.286c3.187 3.489 12.886 14.106 18.004 29.074 2.468 7.217-1.382 15.07-8.6 17.538-1.48.507-2.987.748-4.469.748z"
            style="" fill="#498a68" data-original="#498a68"></path>
        <circle cx="238.77" cy="33.19" r="25.693" style="" fill="#dee2e5" data-original="#dee2e5"></circle>
        <path
            d="M316.948 134.613H160.591c-10.532 0-19.069-8.538-19.069-19.07v-12.472c0-10.532 8.538-19.07 19.069-19.07h156.357c10.532 0 19.069 8.538 19.069 19.07v12.472c.001 10.532-8.537 19.07-19.069 19.07z"
            style="" fill="#a3e3ff" data-original="#a3e3ff"></path>
        <path d="M316.948 84.002c-9.884-23.527-37.984-42.627-78.178-42.627s-68.294 19.1-78.178 42.627h156.356z" style=""
            fill="#80b0e3" data-original="#80b0e3"></path>
        <path
            d="M413.745 272.632a7.498 7.498 0 0 0-10.582.728c-1.867 2.143-4.562 3.371-7.393 3.371s-5.526-1.229-7.394-3.372a7.5 7.5 0 0 0-11.309 9.855c4.717 5.412 11.534 8.517 18.702 8.517s13.985-3.104 18.702-8.518a7.5 7.5 0 0 0-.726-10.581zm2.867-71.953a6.541 6.541 0 1 0 0 13.082 6.541 6.541 0 0 0 0-13.082zm-8.195-34.336h-25.354c-17.276 0-33.279-8.603-42.809-23.013a96.57 96.57 0 0 0-5.781-7.841c5.539-4.873 9.044-12.005 9.044-19.945v-12.473c0-12.945-9.308-23.751-21.581-26.093-6.048-11.886-15.966-22.06-28.945-29.599-6.541-3.799-13.74-6.823-21.428-9.041.264-1.691.399-3.408.399-5.146C271.964 14.891 257.073 0 238.77 0s-33.194 14.891-33.194 33.193c0 1.727.134 3.434.395 5.116-5.761 1.669-11.264 3.801-16.477 6.404a7.5 7.5 0 1 0 6.7 13.419c12.132-6.057 26.854-9.259 42.575-9.259 28.226 0 52.483 10.547 65.269 27.627H173.552c.229-.304.438-.616.674-.917a7.5 7.5 0 1 0-11.796-9.265 65.509 65.509 0 0 0-6.835 10.66c-12.269 2.345-21.573 13.149-21.573 26.092v12.473c0 8.393 3.916 15.884 10.011 20.756-15.627 18.456-24.127 41.563-24.127 66.085v43.697c0 19.716 6.185 38.013 16.711 53.06a32.987 32.987 0 0 0-2.596 12.802v18.518c0 7.979 2.85 15.389 7.663 21.163a91.728 91.728 0 0 0-1.211 12.383c-21.572 14.996-54.123 21.237-88.008 16.714-8.515-1.138-16.208 3.509-19.151 11.561-2.917 7.979-.059 16.417 7.113 20.995 42.558 27.171 95.268 32.996 136.84 34.898.823.395 1.659.782 2.513 1.157.451 12.706.497 26.213.075 31.711-1.215 15.806 10.654 29.654 26.456 30.87.735.057 1.486.086 2.232.086 14.915-.001 27.497-11.661 28.642-26.547.131-1.703.451-12.686.321-25.883a322.588 322.588 0 0 0 19.61-.142c.173 9.353.108 17.681-.194 21.616-1.215 15.806 10.654 29.654 26.456 30.87.735.057 1.486.086 2.232.086 8.92-.001 17.186-4.051 22.681-11.11a7.5 7.5 0 1 0-11.838-9.212c-2.632 3.383-6.585 5.322-10.844 5.323-.355 0-.713-.013-1.077-.041-7.559-.582-13.236-7.205-12.654-14.765.389-5.061.398-14.681.22-23.803 10.273-1.052 19.368-2.77 27.373-5.176.119 5.538.14 10.656.128 14.55a7.5 7.5 0 0 0 7.478 7.522h.023a7.5 7.5 0 0 0 7.499-7.478c.016-5.261-.027-12.706-.282-20.471 7.559-3.868 13.751-8.672 18.697-14.459a55.095 55.095 0 0 0 5.342-7.441 21.259 21.259 0 0 0 9.046 2.013c1.934 0 3.864-.266 5.734-.787a21.167 21.167 0 0 0 12.839-10.063 21.174 21.174 0 0 0 1.963-16.193c-4.671-16.737-14.472-28.794-17.686-32.747l-.242-.298c-.175-.216-.361-.425-.545-.635v-.077c0-1.864-.064-3.74-.18-5.614a32.722 32.722 0 0 0 19.377-22.159h39.755c39.369 0 71.398-32.029 71.398-71.399v-29.738c0-39.369-32.029-71.398-71.398-71.398zM256.854 35.173a124.808 124.808 0 0 0-18.085-1.298c-6.236 0-12.268.434-18.088 1.278a18.48 18.48 0 0 1-.106-1.96c0-10.032 8.162-18.193 18.194-18.193s18.193 8.161 18.193 18.193c.002.666-.037 1.327-.108 1.98zm-107.832 67.898c0-6.372 5.178-11.557 11.548-11.568l.018.001.027-.002h156.31l.027.002.018-.001c6.37.012 11.548 5.197 11.548 11.568v12.473c0 6.379-5.19 11.569-11.569 11.569H160.591c-.857 0-1.689-.101-2.494-.278-.075-.018-.148-.042-.223-.057-5.071-1.227-8.853-5.792-8.853-11.234v-12.473h.001zM48.5 400.636c-1.22-.779-1.589-1.856-1.097-3.202.268-.732.946-1.88 2.569-1.88.161 0 .33.012.509.035 33.471 4.468 66.102-.777 90.231-14.1.827 18.398 3.983 36.37 15.282 50.306-35.181-2.978-74.93-10.369-107.494-31.159zm173.729 83.669c-.547 7.118-6.56 12.694-13.686 12.695-.355 0-.713-.013-1.077-.041-7.559-.582-13.236-7.205-12.654-14.765.435-5.66.41-16.995.132-27.728 8.125 2.081 17.284 3.524 27.553 4.35.151 13.352-.183 24.332-.268 25.489zm99.38-61.169c-4.31 5.043-10.013 9.16-17.255 12.393a7.42 7.42 0 0 0-1.31.56c-9.996 4.213-22.8 6.826-38.76 7.939-.032.001-.063-.003-.094-.001a7.464 7.464 0 0 0-.603.049c-5.798.386-11.998.581-18.638.581-4.992 0-9.74-.108-14.253-.326a7.61 7.61 0 0 0-.817-.047h-.038c-16.005-.827-29.012-3.057-39.345-6.777a7.332 7.332 0 0 0-1.613-.601 66.605 66.605 0 0 1-5.724-2.51 7.529 7.529 0 0 0-.577-.326 67.595 67.595 0 0 1-3.13-1.692c-4.435-2.638-8.145-5.711-11.163-9.243a42.073 42.073 0 0 1-4.123-5.687c-5.334-9.383-8.296-23.18-8.684-45.229-.006-.33-.01-.667-.014-1.001-.013-.939-.022-1.891-.026-2.86-.003-.567-.008-1.125-.008-1.705 0-1.728.081-3.457.199-5.184a33.156 33.156 0 0 0 5.45 1.497c1.303.24 2.607.469 3.911.698v44.676c0 9.546 7.766 17.312 17.312 17.312h24.071c9.546 0 17.312-7.766 17.312-17.312v-8.883a7.486 7.486 0 0 0 1.51 2.494c2.174 2.379 7.949 8.699 10.701 16.747a21.313 21.313 0 0 0 20.165 14.421c2.341 0 4.661-.387 6.898-1.15 11.119-3.804 17.071-15.942 13.269-27.062-5.62-16.435-16.11-27.923-19.557-31.698l-3.798 3.459-7.28 6.655c2.926 3.205 11.831 12.956 16.441 26.438 1.126 3.293-.637 6.889-3.927 8.014a6.338 6.338 0 0 1-2.047.345 6.314 6.314 0 0 1-5.971-4.274c-3.764-11.006-11.07-19.002-13.821-22.013a7.501 7.501 0 0 0-10.596-.478 7.453 7.453 0 0 0-1.987 2.977v-23.833a496.99 496.99 0 0 0 28.202.801c27.562-.001 55.133-2.302 82.537-6.887.022.748.037 1.495.037 2.24-.001 25.584-2.151 43.957-12.856 56.483zm-141.617-14.795v-42.263a501.961 501.961 0 0 0 28.695 3.335v38.928a2.315 2.315 0 0 1-2.312 2.312h-24.071a2.316 2.316 0 0 1-2.312-2.312zm173.496-3.901c.453 1.625.246 3.328-.582 4.797s-2.178 2.527-3.804 2.98c-1.566.436-3.223.202-4.621-.53 2.014-6.335 3.227-13.022 3.949-19.868 1.94 3.722 3.759 7.964 5.058 12.621zm-13.51-56.225c-40.712 7.508-81.823 9.78-122.778 6.829a7.511 7.511 0 0 0-1.013-.076h-.006a487.558 487.558 0 0 1-52.38-6.753 17.98 17.98 0 0 1-9.057-4.589c-.041-.037-.079-.077-.122-.113-3.47-3.314-5.6-7.965-5.6-13.051v-16.947c16.631 15.715 39.05 25.365 63.683 25.365H352.67c-2.495 4.778-7.067 8.298-12.692 9.335zm124.837-80.735c0 31.099-25.3 56.399-56.398 56.399H212.705c-42.898 0-77.798-34.9-77.798-77.798v-43.697c0-22.705 8.551-43.98 24.129-60.321.515.03 1.033.049 1.555.049h156.357c1.107 0 2.196-.076 3.268-.208a81.747 81.747 0 0 1 7.527 9.699c12.314 18.622 32.995 29.739 55.32 29.739h25.354c31.098 0 56.398 25.301 56.398 56.399v29.739zM278.742 144.917a7.5 7.5 0 0 0-7.5 7.5v8.215c0 4.143 3.358 7.5 7.5 7.5s7.5-3.357 7.5-7.5v-8.215a7.5 7.5 0 0 0-7.5-7.5zm-68.85 0a7.5 7.5 0 0 0-7.5 7.5v8.215c0 4.143 3.358 7.5 7.5 7.5s7.5-3.357 7.5-7.5v-8.215a7.5 7.5 0 0 0-7.5-7.5zm171.577 62.303a6.541 6.541 0 1 0-13.082 0 6.541 6.541 0 0 0 13.082 0zm-130.34 171.04 1.747-1.591 3.792-3.466-5.539 5.057z"
            fill="#000000" data-original="#000000"></path>
    </g>
</svg>