<svg xmlns="http://www.w3.org/2000/svg" version="1.1" xmlns:xlink="http://www.w3.org/1999/xlink"
    xmlns:svgjs="http://svgjs.com/svgjs" width="512" height="512" x="0" y="0" viewBox="0 0 512.001 512.001"
    style="enable-background:new 0 0 512 512" xml:space="preserve" class="">
    <g>
        <path
            d="M180.421 377.234c5.228 0 10.286-2.808 12.922-7.741 5.023-9.397 13.077-15.775 16.109-18.176l.365-.289c6.329-5.029 7.382-14.236 2.353-20.566-5.029-6.329-14.236-7.384-20.566-2.354l-.325.258c-3.923 3.106-15.86 12.559-23.753 27.328-3.811 7.13-1.12 15.998 6.009 19.809a14.57 14.57 0 0 0 6.886 1.731z"
            style="" fill="#498a68" data-original="#498a68"></path>
        <path
            d="M302.496 404.054c68.306 0 146.915 0 204.462-36.741 9.847-6.287 4.152-21.471-7.428-19.925-45.572 6.084-83.852-5.517-105.68-24.308l-91.354 80.974z"
            style="" fill="#5cb38e" data-original="#5cb38e"></path>
        <path
            d="M419.616 338.582c-.761 21.814-4.11 43.589-17.556 61.694-33.299 3.778-67.562 3.778-99.563 3.778l91.354-80.974c6.995 6.024 15.689 11.302 25.765 15.502z"
            style="opacity:0.1;enable-background:new ;" fill="#000000" data-original="#000000"></path>
        <path
            d="M310.646 449.89c-.277-3.604-1.721-61.222 4.349-76.122 4.693-11.518 17.834-17.051 29.352-12.359 11.046 4.5 16.588 16.773 12.882 27.931-1.614 8.311-2.542 45.844-1.677 57.099.953 12.4-8.327 23.225-20.727 24.179-.587.045-1.171.067-1.751.067-11.652-.001-21.519-8.982-22.428-20.795zm46.06-59.131.01-.026-.01.026zM228.978 449.892c-.277-3.604-1.724-61.222 4.35-76.127 4.695-11.518 17.84-17.049 29.353-12.355 11.046 4.502 16.587 16.775 12.88 27.932-1.615 8.315-2.543 45.843-1.677 57.094.954 12.4-8.325 23.226-20.724 24.18-.588.046-1.173.068-1.753.068-11.652 0-21.52-8.98-22.429-20.792zm46.058-59.13.01-.025-.01.025z"
            style="" fill="#498a68" data-original="#498a68"></path>
        <path
            d="M228.63 429.022c.018-19.141.843-45.798 4.698-55.257 4.695-11.518 17.84-17.049 29.353-12.355 11.046 4.502 16.587 16.775 12.88 27.932-1.295 6.668-2.147 32.109-1.988 47.734-17.385-1.142-32.282-3.799-44.943-8.054zM344.347 361.409c11.046 4.5 16.588 16.773 12.882 27.931-1.128 5.808-1.92 25.883-2 41.293-12.776 3.695-27.669 5.911-44.888 6.731-.208-18.715.2-52.659 4.654-63.595 4.693-11.519 17.834-17.052 29.352-12.36z"
            style="opacity:0.1;enable-background:new ;" fill="#000000" data-original="#000000"></path>
        <path
            d="M191.683 324.602c0 52.572 7.141 90.612 102.812 90.612s102.812-38.04 102.812-90.612-46.03-95.19-102.812-95.19-102.812 42.618-102.812 95.19z"
            style="" fill="#5cb38e" data-original="#5cb38e"></path>
        <path
            d="M191.683 324.602c0-.419.011-.835.017-1.253 21.414-5.496 63.89-7.094 93.447 24.318 21.539 22.891 24.656 47.592 22.346 67.293-4.141.168-8.469.254-12.998.254-95.671 0-102.812-38.04-102.812-90.612z"
            style="" fill="#9bdfc1" data-original="#9bdfc1"></path>
        <path
            d="M314.013 231.132c47.446 8.443 83.294 47.077 83.294 93.469 0 48.679-6.134 84.894-82.993 89.991 42.674-43.314 34.42-132.747-.301-183.46z"
            style="opacity:0.05;enable-background:new ;" fill="#000000" data-original="#000000"></path>
        <path
            d="M192.358 96.519a94.82 94.82 0 0 1 74.213-50.553l38.911-4.09c55.321-5.815 104.88 34.318 110.695 89.639l4.84 46.053c5.218 49.65-30.8 94.129-80.45 99.347l-206.268 21.68c-37.194 3.909-70.514-23.073-74.424-60.267l-3.294-31.343c-3.909-37.194 23.073-70.514 60.267-74.423l26.721-2.809a62.335 62.335 0 0 0 48.789-33.234z"
            style="" fill="#5cb38e" data-original="#5cb38e"></path>
        <g style="opacity:0.1;">
            <circle cx="368.911" cy="205.18" r="6.932" fill="#000000" data-original="#000000"></circle>
            <circle cx="321.001" cy="220.84" r="6.932" fill="#000000" data-original="#000000"></circle>
            <circle cx="351.521" cy="241.41" r="6.932" fill="#000000" data-original="#000000"></circle>
        </g>
        <ellipse cx="348.524" cy="111.996" rx="8.963" ry="17.471" style="" transform="rotate(84.002 348.53 111.993)"
            fill="#ffa8cb" data-original="#ffa8cb"></ellipse>
        <ellipse cx="231.862" cy="124.263" rx="8.963" ry="17.471" style="" transform="rotate(-95.998 231.863 124.267)"
            fill="#ffa8cb" data-original="#ffa8cb"></ellipse>
        <path
            d="M314.948 106.131a7.468 7.468 0 0 1-4.715-1.672 7.497 7.497 0 0 1-1.108-10.548l17.478-21.583a7.5 7.5 0 1 1 11.656 9.439l-17.478 21.583a7.48 7.48 0 0 1-5.833 2.781z"
            style="" fill="#495059" data-original="#495059"></path>
        <path
            d="M334.479 104.078a7.468 7.468 0 0 1-4.715-1.672l-21.583-17.477a7.498 7.498 0 0 1-1.108-10.548 7.5 7.5 0 0 1 10.548-1.109l21.583 17.477a7.498 7.498 0 0 1 1.108 10.548 7.483 7.483 0 0 1-5.833 2.781zM261.914 111.705a7.468 7.468 0 0 1-4.715-1.672l-21.582-17.478a7.5 7.5 0 0 1 9.44-11.657l21.582 17.478a7.499 7.499 0 0 1 1.108 10.549 7.482 7.482 0 0 1-5.833 2.78z"
            style="" fill="#495059" data-original="#495059"></path>
        <path
            d="M242.385 113.757a7.468 7.468 0 0 1-4.715-1.672 7.5 7.5 0 0 1-1.109-10.548l17.477-21.582a7.5 7.5 0 1 1 11.658 9.439l-17.477 21.583a7.489 7.489 0 0 1-5.834 2.78z"
            style="" fill="#495059" data-original="#495059"></path>
        <circle cx="155.841" cy="164.03" r="6.932" style="" fill="#495059" data-original="#495059"></circle>
        <circle cx="111.911" cy="168.65" r="6.932" style="" fill="#495059" data-original="#495059"></circle>
        <path
            d="M327.997 42.022c45.673 5.431 83.17 41.821 88.181 89.493l4.84 46.053c5.218 49.65-30.8 94.129-80.45 99.348l-54.551 5.734c74.587-54.576 74.699-183.054 41.98-240.628z"
            style="opacity:0.05;enable-background:new ;" fill="#000000" data-original="#000000"></path>
        <path
            d="M284.083 377.251c5.231 0 10.29-2.81 12.925-7.746 5.022-9.405 13.08-15.786 16.114-18.188l.365-.289c6.329-5.029 7.382-14.237 2.353-20.566s-14.236-7.383-20.566-2.354l-.324.258c-3.927 3.109-15.873 12.569-23.766 27.351-3.808 7.131-1.113 15.999 6.018 19.806a14.575 14.575 0 0 0 6.881 1.728z"
            style="" fill="#498a68" data-original="#498a68"></path>
        <path
            d="M167.412 265.79c-60.413 60.414-7.829 156.44-37.248 179.138-15.585 12.024-32.771-2.15-58.268 3.558-19.31 4.323-74.382 28.411-64.939-45.905 11.12-87.518 74.263-144.427 113.542-183.705 12.955-12.955 33.959-12.955 46.913 0 12.954 12.955 12.954 33.959 0 46.914z"
            style="" fill="#ff85b6" data-original="#ff85b6"></path>
        <path
            d="M174.972 230.574c4.475 11.826 1.962 25.694-7.56 35.216-60.413 60.413-7.829 156.44-37.248 179.138-10.156 7.836-20.995 4.547-34.368 2.884-7.743-132.829 41.277-193.828 79.176-217.238z"
            style="" fill="#a3e3ff" data-original="#a3e3ff"></path>
        <path
            d="M120.498 218.877c10.772-10.772 27.105-12.578 39.752-5.437-52.239 35.887-123.497 131.653-110.325 240.64-22.76 4.534-49.813 2.372-42.968-51.498 11.119-87.519 74.263-144.427 113.541-183.705z"
            style="" fill="#fae17c" data-original="#fae17c"></path>
        <path
            d="M183.967 415.452c11.654 7.117 16.461 23.191 4.486 32.364-11.974 9.173-25.369 3.6-30.826-9.865-5.457-13.465 4.411-35.891 26.34-22.499z"
            style="" fill="#a3e3ff" data-original="#a3e3ff"></path>
        <path d="M26.191 259.103c8.77.738 19.021 13.214 4.826 24.634s-24.983 7.601-29.242 0-2.554-26.905 24.416-24.634z"
            style="" fill="#fae17c" data-original="#fae17c"></path>
    </g>
</svg>