<svg xmlns="http://www.w3.org/2000/svg" version="1.1" xmlns:xlink="http://www.w3.org/1999/xlink"
    xmlns:svgjs="http://svgjs.com/svgjs" width="512" height="512" x="0" y="0" viewBox="0 0 512 512"
    style="enable-background:new 0 0 512 512" xml:space="preserve" class="">
    <g>
        <path
            d="M351.34 383.673c-5.111 0-10.054-2.745-12.631-7.567-4.911-9.189-12.784-15.421-15.747-17.767l-.353-.28c-6.188-4.915-7.219-13.915-2.304-20.102 4.914-6.189 13.915-7.22 20.102-2.304l.315.25c3.835 3.036 15.506 12.275 23.223 26.716 3.725 6.969 1.094 15.638-5.875 19.362a14.244 14.244 0 0 1-6.73 1.692z"
            style="" fill="#498a68" data-original="#498a68"></path>
        <path
            d="M511.835 378.331c-1.313-8.761-9.653-14.557-18.244-12.848l-28.281 5.62a13.003 13.003 0 0 1-10.635-2.574l-3.941-3.129c-1.1-.874-.817-2.616.503-3.096l37.795-13.756c7.796-2.838 12.324-11.27 9.856-19.191-2.635-8.457-11.759-12.91-19.987-9.915l-38.204 13.905c-1.32.48-2.657-.672-2.376-2.048l1.007-4.93a13.017 13.017 0 0 1 6.492-8.808l25.277-13.874c7.681-4.215 10.342-14.022 5.714-21.575-4.333-7.07-13.655-9.219-20.924-5.229l-24.894 13.663a43.757 43.757 0 0 0-21.856 29.654l-4.617 22.6a7.317 7.317 0 0 1-4.666 5.411l-90.339 32.881c-7.796 2.837-12.324 11.27-9.856 19.191 2.635 8.457 11.758 12.91 19.987 9.915l90.748-33.03a7.317 7.317 0 0 1 7.053 1.146l18.064 14.346a43.767 43.767 0 0 0 35.805 8.668l27.853-5.536c8.134-1.617 13.895-9.258 12.666-17.461z"
            style="" fill="#cd5b5b" data-original="#cd5b5b"></path>
        <path
            d="M232.016 409.889c-66.767 0-143.605 0-199.855-35.913-9.626-6.145-4.058-20.988 7.261-19.477 44.545 5.947 81.963-5.392 103.299-23.76l89.295 79.15z"
            style="" fill="#5cb38e" data-original="#5cb38e"></path>
        <path
            d="M68.679 355.984c-5.83.201-11.844.1-18.02-.336l5.21-12.7c1.978-4.822-2.448-9.813-7.472-8.426L4.914 346.531c-4.218 1.165-6.201 5.999-4.016 9.79l22.521 39.086c2.602 4.516 9.258 4.071 11.236-.751l6.336-15.444c6.69 3.703 13.627 6.965 20.768 9.831 3.885-8.863 6.195-22.194 6.92-33.059z"
            style="" fill="#cd5b5b" data-original="#cd5b5b"></path>
        <path
            d="M117.535 345.892c.744 21.323 4.017 42.607 17.161 60.304 32.549 3.693 66.039 3.693 97.32 3.693l-89.295-79.149c-6.839 5.887-15.337 11.047-25.186 15.152z"
            style="opacity:0.1;enable-background:new ;" fill="#000000" data-original="#000000"></path>
        <path
            d="M208.898 476.956c-6.94 0-13.771-3.274-18.053-9.392-14.101-20.146-26.218-70.063.9-93.647 9.173-7.978 23.076-7.008 31.054 2.165 7.917 9.103 7.022 22.865-1.957 30.87-.594 1.018-2.136 5.875-.73 15.333 1.428 9.612 4.849 17.248 6.8 20.035 6.971 9.96 4.548 23.684-5.411 30.655a21.907 21.907 0 0 1-12.603 3.981zm12.005-70.1zM293.164 468.544a21.93 21.93 0 0 1-9.344-2.094c-11.003-5.169-15.733-18.278-10.565-29.281 7.035-14.977-3.751-27.257-7.225-30.664-8.679-8.513-8.813-22.449-.301-31.128 8.512-8.678 22.448-8.814 31.128-.301 17.117 16.79 31.643 48.027 16.245 80.809-3.748 7.978-11.672 12.659-19.938 12.659z"
            style="" fill="#498a68" data-original="#498a68"></path>
        <path
            d="M271.844 441.137c19.273-2.204 35.049-6.62 47.758-13.395.13-21.732-10.654-40.806-22.745-52.666-8.68-8.513-22.616-8.377-31.128.301-8.512 8.679-8.378 22.615.301 31.128 3.474 3.407 14.26 15.687 7.225 30.664a22.043 22.043 0 0 0-1.411 3.968zM222.799 376.082c-7.978-9.173-21.88-10.142-31.054-2.165-16.881 14.681-18.554 39.564-14.013 61.12 13.739 4.314 30.078 6.79 49.334 7.529-.055-.081-.098-.165-.154-.246-1.951-2.787-5.372-10.423-6.8-20.035-1.406-9.459.137-14.315.73-15.333 8.979-8.005 9.874-21.767 1.957-30.87z"
            style="opacity:0.1;enable-background:new ;" fill="#000000" data-original="#000000"></path>
        <path
            d="M340.332 332.227c0 51.388-6.98 88.571-100.495 88.571s-100.495-37.183-100.495-88.571c0-51.387 44.993-93.045 100.495-93.045s100.495 41.657 100.495 93.045z"
            style="" fill="#5cb38e" data-original="#5cb38e"></path>
        <path
            d="M340.332 332.227c0-.41-.011-.817-.017-1.225-20.932-5.372-62.45-6.934-91.342 23.771-21.054 22.375-24.101 46.52-21.842 65.777 4.047.164 8.279.248 12.705.248 93.516-.001 100.496-37.184 100.496-88.571z"
            style="" fill="#9bdfc1" data-original="#9bdfc1"></path>
        <path
            d="M220.758 240.863c-46.377 8.253-81.417 46.016-81.417 91.363 0 47.582 5.996 82.981 81.123 87.963-41.712-42.337-33.644-129.756.294-179.326z"
            style="opacity:0.05;enable-background:new ;" fill="#000000" data-original="#000000"></path>
        <path
            d="M317.284 115.396c25.221-18.42 28.789-54.72 18.738-76.592-2.086-4.54-8.379-5.088-11.239-.992-10.988 15.735-35.739 34.148-48.508 36.333-3.613.618-6.302 3.741-6.072 7.4.854 13.543 14.929 35.046 33.518 37.481 4.802.629 9.651-.773 13.563-3.63z"
            style="" fill="#cd5b5b" data-original="#cd5b5b"></path>
        <path
            d="M332.081 105.178a92.684 92.684 0 0 0-77.309-41.561h-38.244c-54.372 0-98.449 44.077-98.449 98.449v45.263c0 48.798 39.559 88.357 88.357 88.357h202.731c36.556 0 66.19-29.635 66.19-66.191v-30.806c0-36.556-29.634-66.191-66.19-66.191h-26.263a60.92 60.92 0 0 1-50.823-27.32z"
            style="" fill="#5cb38e" data-original="#5cb38e"></path>
        <path
            d="M396.068 255.517c-22.414 0-40.583-18.17-40.583-40.583v-2.522a8.71 8.71 0 0 1 8.711-8.71h63.746a8.71 8.71 0 0 1 8.71 8.71v2.522c-.001 22.413-18.172 40.583-40.584 40.583z"
            style="" fill="#ffffff" data-original="#ffffff"></path>
        <g style="opacity:0.1;">
            <path
                d="M402.096 255.069a40.328 40.328 0 0 0 15-5.418v-45.949h-15v51.367zM375.04 249.651a40.322 40.322 0 0 0 15 5.418v-51.367h-15v45.949z"
                fill="#000000" data-original="#000000"></path>
        </g>
        <g style="opacity:0.1;">
            <circle cx="171.56" cy="228.84" r="6.775" fill="#000000" data-original="#000000"></circle>
            <circle cx="219.72" cy="239.18" r="6.775" fill="#000000" data-original="#000000"></circle>
            <circle cx="192.16" cy="262.29" r="6.775" fill="#000000" data-original="#000000"></circle>
        </g>
        <ellipse cx="195.07" cy="140.59" rx="17.08" ry="8.761" style="" fill="#ffa8cb" data-original="#ffa8cb">
        </ellipse>
        <ellipse cx="309.72" cy="140.59" rx="17.08" ry="8.761" style="" fill="#ffa8cb" data-original="#ffa8cb">
        </ellipse>
        <path
            d="M229.673 129.643a7.5 7.5 0 0 1-7.5-7.5c0-2.998-2.439-5.437-5.437-5.437s-5.438 2.439-5.438 5.437a7.5 7.5 0 0 1-15 0c0-11.269 9.169-20.437 20.438-20.437s20.437 9.168 20.437 20.437a7.5 7.5 0 0 1-7.5 7.5zM300.993 129.643a7.5 7.5 0 0 1-7.5-7.5c0-2.998-2.44-5.437-5.438-5.437s-5.437 2.439-5.437 5.437a7.5 7.5 0 0 1-15 0c0-11.269 9.168-20.437 20.437-20.437s20.438 9.168 20.438 20.437a7.5 7.5 0 0 1-7.5 7.5zM232.794 102.33c-.51 0-1.028-.052-1.547-.161l-28.987-6.078a7.5 7.5 0 1 1 3.078-14.68l28.987 6.078a7.5 7.5 0 0 1-1.531 14.841zM271.997 102.33a7.5 7.5 0 0 1-1.532-14.841l28.987-6.078a7.499 7.499 0 0 1 8.879 5.801 7.5 7.5 0 0 1-5.801 8.879l-28.987 6.078a7.568 7.568 0 0 1-1.546.161z"
            style="" fill="#495059" data-original="#495059"></path>
        <circle cx="374.48" cy="167.07" r="6.775" style="" fill="#495059" data-original="#495059"></circle>
        <circle cx="417.66" cy="167.07" r="6.775" style="" fill="#495059" data-original="#495059"></circle>
        <path
            d="M194.657 66.06c-43.845 9.947-76.578 49.153-76.578 96.007v45.264c0 48.798 39.559 88.357 88.357 88.357h53.615c-78.083-45.432-91.318-170.316-65.394-229.628z"
            style="opacity:0.05;enable-background:new ;" fill="#000000" data-original="#000000"></path>
        <path
            d="M137.631 115.396c-25.221-18.42-28.789-54.72-18.738-76.592 2.086-4.54 8.379-5.088 11.239-.992 10.988 15.735 35.739 34.148 48.508 36.333 3.613.618 6.303 3.741 6.072 7.4-.854 13.543-14.929 35.046-33.518 37.481-4.803.629-9.652-.773-13.563-3.63z"
            style="" fill="#cd5b5b" data-original="#cd5b5b"></path>
        <path
            d="M196.841 361.314c-12.327 0-23.108-5.013-32.168-14.987-5.313-5.848-4.879-14.897.971-20.21 5.849-5.313 14.897-4.878 20.21.97 4.235 4.662 8.354 6.942 16.879 4.795 7.662-1.929 15.439 2.718 17.368 10.381 1.929 7.663-2.718 15.439-10.381 17.368-4.461 1.122-8.757 1.683-12.879 1.683z"
            style="" fill="#498a68" data-original="#498a68"></path>
    </g>
</svg>