<svg xmlns="http://www.w3.org/2000/svg" version="1.1" xmlns:xlink="http://www.w3.org/1999/xlink"
    xmlns:svgjs="http://svgjs.com/svgjs" width="512" height="512" x="0" y="0" viewBox="0 0 512 512"
    style="enable-background:new 0 0 512 512" xml:space="preserve" class="">
    <g>
        <path
            d="M184.006 376.947c-2.303 0-4.638-.55-6.811-1.711-7.052-3.769-9.715-12.541-5.946-19.594 7.809-14.614 19.62-23.964 23.501-27.037l.32-.253c6.263-4.973 15.37-3.931 20.344 2.331s3.93 15.369-2.332 20.343l-.357.283c-3 2.374-10.967 8.681-15.935 17.98-2.608 4.88-7.612 7.658-12.784 7.658z"
            style="" fill="#498a68" data-original="#498a68"></path>
        <path
            d="M304.76 403.478c67.568 0 145.326 0 202.251-36.343 9.741-6.219 4.107-21.239-7.348-19.71-45.079 6.018-82.945-5.457-104.537-24.045l-90.366 80.098z"
            style="" fill="#5cb38e" data-original="#5cb38e" class=""></path>
        <path
            d="M420.614 338.714c-.753 21.578-4.065 43.117-17.367 61.027-32.939 3.737-66.831 3.738-98.487 3.738l90.366-80.098c6.921 5.957 15.521 11.178 25.488 15.333z"
            style="opacity:0.1;enable-background:new ;" fill="#000000" data-original="#000000" class=""></path>
        <path
            d="M335.01 469.387c-11.527.001-21.287-8.882-22.186-20.567-.274-3.565-1.706-60.56 4.303-75.304 4.644-11.394 17.646-16.863 29.035-12.222 10.927 4.453 16.407 16.593 12.741 27.63-1.598 8.225-2.516 45.348-1.659 56.477.944 12.266-8.235 22.975-20.501 23.919-.581.045-1.16.067-1.733.067zm23.383-79.084-.01.026.01-.026zm.59-1.765zM254.223 469.387c-11.528.001-21.288-8.883-22.186-20.569-.274-3.566-1.702-60.565 4.303-75.302 4.644-11.394 17.645-16.863 29.035-12.222 10.927 4.453 16.407 16.593 12.741 27.63-1.597 8.222-2.515 45.346-1.659 56.479.943 12.266-8.237 22.974-20.503 23.917-.58.046-1.158.067-1.731.067zm23.384-79.082a.26.26 0 0 0-.01.025l.01-.025zm.59-1.767v.001-.001z"
            style="" fill="#498a68" data-original="#498a68"></path>
        <path
            d="M346.162 361.295c-11.389-4.642-24.391.828-29.035 12.222-4.409 10.82-4.812 44.397-4.605 62.91 17.033-.811 31.764-3.003 44.403-6.658.079-15.24.862-35.095 1.979-40.844 3.665-11.037-1.816-23.177-12.742-27.63zM265.375 361.295c-11.39-4.642-24.391.828-29.035 12.222-3.811 9.353-4.628 35.725-4.646 54.66 12.524 4.208 27.259 6.837 44.456 7.966-.157-15.458.686-40.625 1.966-47.218 3.667-11.037-1.814-23.177-12.741-27.63z"
            style="opacity:0.1;enable-background:new ;" fill="#000000" data-original="#000000" class=""></path>
        <path
            d="M195.146 324.885c0 52.003 7.064 89.632 101.7 89.632s101.7-37.629 101.7-89.632c0-52.004-45.533-94.161-101.7-94.161s-101.7 42.157-101.7 94.161z"
            style="" fill="#5cb38e" data-original="#5cb38e" class=""></path>
        <path
            d="M195.146 324.885c0-.415.011-.826.017-1.24 21.182-5.436 63.199-7.017 92.437 24.056 21.306 22.643 24.389 47.078 22.104 66.565-4.096.166-8.378.251-12.858.251-94.636 0-101.7-37.629-101.7-89.632z"
            style="" fill="#9bdfc1" data-original="#9bdfc1"></path>
        <path
            d="M316.153 232.426c46.933 8.352 82.393 46.568 82.393 92.459 0 48.152-6.068 83.976-82.096 89.018 42.213-42.847 34.049-131.313-.297-181.477z"
            style="opacity:0.05;enable-background:new ;" fill="#000000" data-original="#000000" class=""></path>
        <path
            d="M203.496 95.115a93.796 93.796 0 0 1 78.236-42.059h38.703c55.024 0 99.629 44.606 99.629 99.629v45.806c0 49.383-40.033 89.416-89.416 89.416H125.485c-36.994 0-66.984-29.99-66.984-66.984v-31.175c0-36.994 29.99-66.984 66.984-66.984h26.578a61.659 61.659 0 0 0 51.433-27.649z"
            style="" fill="#5cb38e" data-original="#5cb38e" class=""></path>
        <path
            d="M129.658 263.805c-5.455 0-10.618-2.436-14.214-6.903-4.73-5.877-5.445-13.654-1.867-20.295a2.604 2.604 0 0 0 .001-2.479c-3.579-6.643-2.864-14.419 1.866-20.296 4.729-5.877 12.172-8.24 19.427-6.163l7.645 2.188a7.5 7.5 0 1 1-4.126 14.42l-7.645-2.188c-1.905-.545-3.081.485-3.614 1.146-.533.662-1.286 2.033-.348 3.776a17.557 17.557 0 0 1-.001 16.71c-.938 1.742-.185 3.113.349 3.775.533.662 1.71 1.693 3.614 1.146l7.645-2.188a7.5 7.5 0 1 1 4.126 14.42l-7.645 2.188a18.815 18.815 0 0 1-5.213.743z"
            style="" fill="#495059" data-original="#495059"></path>
        <g style="opacity:0.1;">
            <circle cx="365.94" cy="220.26" r="6.857" fill="#000000" data-original="#000000" class=""></circle>
            <circle cx="317.2" cy="230.72" r="6.857" fill="#000000" data-original="#000000" class=""></circle>
            <circle cx="345.09" cy="254.11" r="6.857" fill="#000000" data-original="#000000" class=""></circle>
        </g>
        <ellipse cx="355.52" cy="126.49" rx="17.282" ry="8.866" style="" fill="#ffa8cb" data-original="#ffa8cb"
            class=""></ellipse>
        <ellipse cx="239.5" cy="126.49" rx="17.282" ry="8.866" style="" fill="#ffa8cb" data-original="#ffa8cb" class="">
        </ellipse>
        <path
            d="M261.42 116.416a7.5 7.5 0 0 1-7.5-7.5v-8.612c0-4.142 3.357-7.5 7.5-7.5s7.5 3.358 7.5 7.5v8.612a7.5 7.5 0 0 1-7.5 7.5z"
            style="" fill="#495059" data-original="#495059"></path>
        <circle cx="160.59" cy="157.75" r="6.857" style="" fill="#495059" data-original="#495059"></circle>
        <circle cx="116.89" cy="157.75" r="6.857" style="" fill="#495059" data-original="#495059"></circle>
        <path
            d="M342.567 55.527c44.371 10.066 77.496 49.742 77.496 97.158v45.806c0 49.383-40.033 89.416-89.416 89.416h-54.258c79.019-45.976 92.413-172.357 66.178-232.38z"
            style="opacity:0.05;enable-background:new ;" fill="#000000" data-original="#000000" class=""></path>
        <path
            d="M320.002 350.501c-4.762 0-9.424-2.345-12.191-6.647-4.327-6.725-2.383-15.684 4.342-20.01.747-.481 1.547-.982 2.39-1.51 5.819-3.645 13.06-8.181 17.945-16.278 4.13-6.847 13.029-9.05 19.877-4.917 6.847 4.131 9.048 13.03 4.917 19.877-8.453 14.011-20.293 21.428-27.367 25.859-.739.463-1.44.902-2.094 1.323a14.414 14.414 0 0 1-7.819 2.303z"
            style="" fill="#498a68" data-original="#498a68"></path>
        <path
            d="M346.719 116.493a7.5 7.5 0 0 1-7.5-7.5 3.297 3.297 0 0 0-3.293-3.293 3.297 3.297 0 0 0-3.294 3.293 7.5 7.5 0 0 1-15 0c0-10.087 8.207-18.293 18.294-18.293s18.293 8.206 18.293 18.293a7.5 7.5 0 0 1-7.5 7.5z"
            style="" fill="#495059" data-original="#495059"></path>
        <path
            d="M42.108 48.152c-11.183-7.183-26.339-5.393-35.484 5.061-9.8 11.201-8.488 28.315 2.358 38.507l29.696 27.905c5.428 5.101 13.964 4.835 19.065-.593l27.905-29.696c10.191-10.846 10.438-28.008-.039-38.578-9.778-9.865-25.015-10.711-35.731-2.847a6.864 6.864 0 0 1-7.77.241z"
            style="" fill="#cd5b5b" data-original="#cd5b5b"></path>
    </g>
</svg>