<svg xmlns="http://www.w3.org/2000/svg" version="1.1" xmlns:xlink="http://www.w3.org/1999/xlink"
    xmlns:svgjs="http://svgjs.com/svgjs" width="512" height="512" x="0" y="0" viewBox="0 0 512 512"
    style="enable-background:new 0 0 512 512" xml:space="preserve" class="">
    <g>
        <path
            d="m408.961 69.558-6.552-18.426c-2.341-6.584 2.659-13.465 9.643-13.273l19.549.538a9.945 9.945 0 0 0 6.338-2.059l15.499-11.926c5.538-4.261 13.628-1.632 15.603 5.07l5.53 18.758a9.944 9.944 0 0 0 3.917 5.391l16.132 11.056c5.764 3.95 5.764 12.456 0 16.406l-16.132 11.056a9.944 9.944 0 0 0-3.917 5.391l-5.53 18.758c-1.976 6.702-10.065 9.331-15.603 5.07l-15.499-11.926a9.943 9.943 0 0 0-6.338-2.059l-19.549.538c-6.985.192-11.985-6.689-9.643-13.273l6.552-18.426a9.95 9.95 0 0 0 0-6.664z"
            style="" fill="#fae17c" data-original="#fae17c"></path>
        <path
            d="m23.339 287.319-17.662-8.396c-6.311-3-7.641-11.401-2.567-16.204l14.203-13.443a9.94 9.94 0 0 0 3.025-5.938l2.527-19.392c.903-6.929 8.482-10.79 14.618-7.448l17.174 9.354a9.944 9.944 0 0 0 6.582 1.042l19.224-3.589c6.869-1.282 12.883 4.732 11.601 11.601l-3.589 19.224a9.944 9.944 0 0 0 1.042 6.582l9.354 17.174c3.342 6.136-.519 13.715-7.448 14.618l-19.392 2.527a9.952 9.952 0 0 0-5.938 3.025L52.652 312.26c-4.803 5.075-13.204 3.744-16.204-2.566l-8.396-17.662a9.947 9.947 0 0 0-4.713-4.713z"
            style="" fill="#ff85b6" data-original="#ff85b6"></path>
        <path
            d="m462.684 391.752-16.256 4.614c-5.808 1.648-11.461-3.05-10.902-9.061l1.563-16.826a8.592 8.592 0 0 0-1.419-5.581l-9.411-14.035c-3.363-5.015-.641-11.842 5.249-13.169l16.485-3.713a8.593 8.593 0 0 0 4.869-3.074l10.44-13.288c3.73-4.748 11.064-4.269 14.146.922l8.626 14.531a8.598 8.598 0 0 0 4.428 3.681l15.863 5.823c5.668 2.081 7.479 9.204 3.494 13.739l-11.154 12.694a8.59 8.59 0 0 0-2.132 5.349l-.636 16.886c-.227 6.033-6.442 9.957-11.987 7.569l-15.519-6.686a8.594 8.594 0 0 0-5.747-.375z"
            style="" fill="#a3e3ff" data-original="#a3e3ff"></path>
        <path
            d="M358.553 350.175c-4.52 0-8.604-.951-11.871-2.996-7.337-4.592-9.562-14.262-4.97-21.599 3.796-6.066 11.06-8.638 17.613-6.752 3.437-.513 11.928-3.579 17.881-11.337 5.27-6.867 15.107-8.161 21.975-2.892 6.867 5.27 8.161 15.107 2.892 21.975-10.961 14.281-29.373 23.601-43.52 23.601z"
            style="" fill="#498a68" data-original="#498a68"></path>
        <path
            d="M254.429 414.705c-72.676 8.187-156.312 17.609-221.943-14.585-11.231-5.509-6.991-22.347 5.515-22.09 49.216 1.011 88.554-15.919 109.526-38.529l106.902 75.204z"
            style="" fill="#5cb38e" data-original="#5cb38e"></path>
        <path
            d="M121.97 359.082c3.425 23.118 9.597 45.884 26.074 63.536 35.882.029 72.336-4.077 106.385-7.913l-106.902-75.204c-6.722 7.247-15.34 13.905-25.557 19.581z"
            style="opacity:0.1;enable-background:new ;" fill="#000000" data-original="#000000"></path>
        <path
            d="M224 489.657c-9.312 0-18.18-5.426-22.127-14.51-15.022-34.58-6.638-78.587 5.985-94.914 8.145-10.536 23.288-12.47 33.822-4.326 10.351 8.003 12.402 22.761 4.744 33.266-3.037 5.747-7.685 29.814-.323 46.761 5.306 12.213-.294 26.415-12.507 31.721a24.03 24.03 0 0 1-9.594 2.002zm22.018-79.941-.01.013.01-.013zm.521-.751zM345.734 470.613c-.783 0-1.573-.038-2.367-.115-13.253-1.292-22.95-13.083-21.658-26.336 1.462-15.003-12.851-33.771-19.337-37.049-12.544-2.641-20.904-14.719-18.807-27.496 2.156-13.14 14.559-22.044 27.698-19.887 20.853 3.423 36.415 23.507 42.137 31.983 7.137 10.573 18.746 32.052 16.302 57.125-1.214 12.459-11.706 21.775-23.968 21.775zm-42.298-63.301.015.002-.015-.002z"
            style="" fill="#498a68" data-original="#498a68"></path>
        <path
            d="M364.48 413.028c-3.403-9.001-7.733-16.357-11.08-21.315-5.723-8.476-21.284-28.56-42.137-31.983-13.139-2.157-25.542 6.747-27.698 19.887-2.097 12.777 6.263 24.855 18.807 27.496 5.65 2.856 17.236 17.465 19.163 31.101 18.169-6.223 32.33-14.542 42.945-25.186zM244.465 451.411c-4.93-16.436-.815-36.986 1.96-42.238 7.658-10.505 5.607-25.263-4.744-33.266-10.534-8.144-25.677-6.209-33.822 4.326-9.458 12.232-16.534 40.001-13.172 67.703 11.12 2.522 23.575 3.776 37.439 3.776 3.954.001 8.073-.1 12.339-.301z"
            style="opacity:0.1;enable-background:new ;" fill="#000000" data-original="#000000"></path>
        <path
            d="M362.806 316.889c6.301 55.935 3.263 97.264-98.527 108.731-101.79 11.467-113.947-28.151-120.248-84.086-6.301-55.935 37.566-106.796 97.979-113.601 60.413-6.806 114.495 33.021 120.796 88.956z"
            style="" fill="#5cb38e" data-original="#5cb38e"></path>
        <path
            d="M362.806 316.889c-.05-.446-.112-.887-.168-1.331-23.442-3.28-68.826.11-96.51 37.074-20.173 26.936-20.529 53.592-15.71 74.275a342.03 342.03 0 0 0 13.86-1.288c101.791-11.466 104.829-52.796 98.528-108.73z"
            style="" fill="#9bdfc1" data-original="#9bdfc1"></path>
        <path
            d="M221.449 232.103c-49.469 14.67-82.979 60.072-77.419 109.431 5.835 51.793 16.702 89.589 99.088 85.8-50.595-40.97-52.532-137.114-21.669-195.231z"
            style="opacity:0.05;enable-background:new ;" fill="#000000" data-original="#000000"></path>
        <path
            d="M334.008 72.01a101.522 101.522 0 0 0-87.252-40.381l-41.817 2.504c-59.451 3.561-104.76 54.642-101.199 114.093l2.964 49.492c3.195 53.357 49.04 94.021 102.397 90.825l221.669-13.276c39.971-2.394 70.433-36.737 68.039-76.708l-2.017-33.683c-2.394-39.971-36.737-70.433-76.708-68.039l-28.716 1.72a66.745 66.745 0 0 1-57.36-26.547z"
            style="" fill="#5cb38e" data-original="#5cb38e"></path>
        <g style="opacity:0.1;">
            <circle cx="166.59" cy="217.74" r="7.422" fill="#000000" data-original="#000000"></circle>
            <circle cx="219.93" cy="225.89" r="7.422" fill="#000000" data-original="#000000"></circle>
            <circle cx="191.31" cy="252.96" r="7.422" fill="#000000" data-original="#000000"></circle>
        </g>
        <ellipse cx="171.781" cy="115.745" rx="9.597" ry="18.706" style="" transform="rotate(-93.428 171.781 115.747)"
            fill="#ffa8cb" data-original="#ffa8cb"></ellipse>
        <ellipse cx="297.142" cy="108.254" rx="9.597" ry="18.706" style="" transform="rotate(86.572 297.144 108.253)"
            fill="#ffa8cb" data-original="#ffa8cb"></ellipse>
        <path
            d="M179.782 101.41a7.5 7.5 0 0 1-7.48-7.052c-.645-10.771 7.594-20.06 18.366-20.705a19.459 19.459 0 0 1 14.157 4.895 19.44 19.44 0 0 1 6.549 13.471 7.5 7.5 0 0 1-14.974.897 4.54 4.54 0 0 0-1.529-3.146 4.513 4.513 0 0 0-3.306-1.143 4.575 4.575 0 0 0-4.289 4.836 7.5 7.5 0 0 1-7.494 7.947zM262.482 96.456a7.5 7.5 0 0 1-7.48-7.052 19.442 19.442 0 0 1 4.895-14.156 19.44 19.44 0 0 1 13.471-6.549c5.221-.317 10.245 1.426 14.156 4.895a19.44 19.44 0 0 1 6.549 13.471 7.5 7.5 0 1 1-14.973.896 4.54 4.54 0 0 0-1.529-3.146 4.53 4.53 0 0 0-3.306-1.143c-1.219.073-2.336.616-3.146 1.529s-1.216 2.087-1.143 3.306a7.5 7.5 0 0 1-7.494 7.949z"
            style="" fill="#495059" data-original="#495059"></path>
        <circle cx="384.42" cy="136.91" r="7.422" style="" fill="#495059" data-original="#495059"></circle>
        <circle cx="431.63" cy="134.09" r="7.422" style="" fill="#495059" data-original="#495059"></circle>
        <path
            d="M181.185 38.236c-47.289 13.747-80.513 58.759-77.445 109.99l2.964 49.492c3.195 53.357 49.04 94.021 102.397 90.825l58.624-3.511c-88.352-44.563-111.001-180.246-86.54-246.796z"
            style="opacity:0.05;enable-background:new ;" fill="#000000" data-original="#000000"></path>
        <path
            d="M414.303 240.314c-13.434.805-24.976-9.434-25.781-22.867l-.618-10.324c-.463-7.732 5.43-14.375 13.162-14.839l20.648-1.237c7.732-.463 14.375 5.43 14.839 13.162l.618 10.324c.804 13.434-9.434 24.977-22.868 25.781z"
            style="" fill="#495059" data-original="#495059"></path>
        <path
            d="M271.103 387.323c-6.952 0-13.303-4.661-15.149-11.702-1.996-7.613-7.362-10.446-14.17-13.359-1.885-.807-3.666-1.569-5.406-2.658-7.337-4.592-9.562-14.262-4.97-21.599 4.505-7.199 13.9-9.477 21.182-5.223.42.2.938.412 1.525.663 7.142 3.056 26.114 11.174 32.158 34.227 2.195 8.372-2.813 16.939-11.185 19.134-1.332.35-2.669.517-3.985.517zm-18.32-54.426c.075.045.15.092.224.138-.069-.043-.144-.09-.224-.138z"
            style="" fill="#498a68" data-original="#498a68"></path>
    </g>
</svg>