<svg xmlns="http://www.w3.org/2000/svg" version="1.1" xmlns:xlink="http://www.w3.org/1999/xlink"
    xmlns:svgjs="http://svgjs.com/svgjs" width="512" height="512" x="0" y="0" viewBox="0 0 512.001 512.001"
    style="enable-background:new 0 0 512 512" xml:space="preserve" class="">
    <g>
        <path
            d="M381.607 384.335c-1.934 0-3.9-.346-5.815-1.076-11.125-4.237-22.584-3.701-26.896-3.503l-.516.025c-9.005.403-16.659-6.579-17.063-15.599s6.579-16.659 15.599-17.063l.461-.021c5.581-.263 22.57-1.05 40.052 5.609 8.437 3.214 12.671 12.658 9.458 21.094-2.485 6.522-8.692 10.533-15.28 10.534z"
            style="" fill="#498a68" data-original="#498a68"></path>
        <path
            d="M233.974 435.467c-76.284 0-164.073 0-228.341-41.032-10.998-7.021-4.637-23.979 8.296-22.253 50.895 6.794 93.645-6.161 118.022-27.146l102.023 90.431z"
            style="" fill="#5cb38e" data-original="#5cb38e"></path>
        <path
            d="M103.176 362.348c.85 24.362 4.59 48.679 19.607 68.899 37.188 4.219 75.452 4.22 111.191 4.22l-102.023-90.431c-7.813 6.727-17.523 12.622-28.775 17.312z"
            style="opacity:0.1;enable-background:new ;" fill="#000000" data-original="#000000"></path>
        <path
            d="M199.776 509.882c-3.875 0-7.809-.899-11.493-2.795-12.348-6.358-17.204-21.524-10.845-33.872 6.021-11.691.174-42.27-4.004-52.595-5.207-12.865.982-27.541 13.84-32.762 12.862-5.218 27.505.936 32.741 13.786.223.551 21.587 56.832 2.14 94.598-4.462 8.664-13.26 13.64-22.379 13.64zM290.996 509.883a25.032 25.032 0 0 1-9.29-1.788c-12.906-5.134-19.206-19.759-14.07-32.664 5.166-12.983-.13-46.591-3.077-55.013-5.094-12.813 1.087-27.362 13.881-32.576 12.858-5.241 27.537.936 32.781 13.799 4.11 10.085 15.744 60.731 3.15 92.384-3.922 9.855-13.378 15.858-23.375 15.858zm-26.397-89.366.042.106-.042-.106z"
            style="" fill="#498a68" data-original="#498a68"></path>
        <path
            d="M320.008 462.106c.658-26.411-5.907-53.397-8.787-60.465-5.243-12.863-19.923-19.04-32.781-13.799-12.794 5.214-18.975 19.763-13.881 32.576 2.727 7.795 7.461 37.149 4.057 51.774 20.047-1.474 37.062-4.807 51.392-10.086zM187.274 387.857c-12.858 5.221-19.047 19.897-13.84 32.762 3.513 8.679 8.202 31.668 6.031 45.722 14.295 3.68 30.831 5.82 49.831 6.496 4.842-34.012-9.1-70.748-9.28-71.193-5.237-12.851-19.88-19.005-32.742-13.787z"
            style="opacity:0.1;enable-background:new ;" fill="#000000" data-original="#000000"></path>
        <path
            d="M357.729 346.735c0 58.712-7.975 101.195-114.819 101.195s-114.819-42.483-114.819-101.195 51.406-106.307 114.819-106.307c63.412 0 114.819 47.595 114.819 106.307z"
            style="" fill="#5cb38e" data-original="#5cb38e"></path>
        <path
            d="M357.729 346.735c0-.468-.013-.933-.019-1.4-23.915-6.137-71.351-7.922-104.361 27.159-24.055 25.564-27.536 53.151-24.955 75.152 4.624.188 9.459.284 14.517.284 106.843 0 114.818-42.483 114.818-101.195z"
            style="" fill="#9bdfc1" data-original="#9bdfc1"></path>
        <path
            d="M221.112 242.349c-52.987 9.43-93.022 52.575-93.022 104.386 0 54.364 6.851 94.809 92.686 100.501-47.658-48.373-38.44-148.252.336-204.887z"
            style="opacity:0.05;enable-background:new ;" fill="#000000" data-original="#000000"></path>
        <path
            d="M348.302 87.325a105.895 105.895 0 0 0-88.328-47.485h-43.695c-62.122 0-112.482 50.36-112.482 112.482v51.715c0 55.754 45.197 100.951 100.951 100.951h231.628c41.767 0 75.625-33.858 75.625-75.625v-35.197c0-41.766-33.858-75.625-75.625-75.625H406.37a69.613 69.613 0 0 1-58.068-31.216z"
            style="" fill="#5cb38e" data-original="#5cb38e"></path>
        <g style="opacity:0.1;">
            <circle cx="164.901" cy="228.62" r="7.741" fill="#000000" data-original="#000000"></circle>
            <circle cx="219.931" cy="240.43" r="7.741" fill="#000000" data-original="#000000"></circle>
            <circle cx="188.441" cy="266.83" r="7.741" fill="#000000" data-original="#000000"></circle>
        </g>
        <ellipse cx="206.931" cy="122.75" rx="19.511" ry="10.01" style="" fill="#ffa8cb" data-original="#ffa8cb">
        </ellipse>
        <ellipse cx="337.921" cy="122.75" rx="19.511" ry="10.01" style="" fill="#ffa8cb" data-original="#ffa8cb">
        </ellipse>
        <path
            d="M421.409 256.686a27.986 27.986 0 0 1-21.097-9.607 7.5 7.5 0 0 1 11.309-9.855c2.472 2.836 6.039 4.463 9.788 4.463s7.316-1.627 9.788-4.463a7.501 7.501 0 0 1 11.309 9.855 27.98 27.98 0 0 1-21.097 9.607z"
            style="" fill="#495059" data-original="#495059"></path>
        <circle cx="396.741" cy="158.04" r="7.741" style="" fill="#495059" data-original="#495059"></circle>
        <circle cx="446.071" cy="158.04" r="7.741" style="" fill="#495059" data-original="#495059"></circle>
        <path
            d="M191.29 42.63c-50.094 11.364-87.493 56.159-87.493 109.691v51.715c0 55.754 45.197 100.951 100.951 100.951h61.257C176.793 253.081 161.671 110.396 191.29 42.63z"
            style="opacity:0.05;enable-background:new ;" fill="#000000" data-original="#000000"></path>
        <path
            d="M254.537 405.535c-5.842 0-11.491-3.139-14.435-8.651-5.608-10.504-14.608-17.63-17.996-20.313l-.408-.323c-7.068-5.616-8.245-15.898-2.628-22.968 5.617-7.067 15.899-8.245 22.968-2.628l.362.287c4.385 3.471 17.727 14.037 26.541 30.546 4.253 7.965 1.243 17.867-6.721 22.119a16.263 16.263 0 0 1-7.683 1.931z"
            style="" fill="#498a68" data-original="#498a68"></path>
        <path
            d="M252.766 39.84h7.208c29.662 0 57.666 12.427 77.52 33.767l-11.127-24.266c-13.152-28.688-42.042-47.224-73.601-47.224h-41.788c-31.558 0-60.448 18.536-73.601 47.223l-17.053 37.194 34.29 15.723 17.053-37.194c7.027-15.323 27.757-25.223 44.613-25.223H252.766z"
            style="" fill="#80b0e3" data-original="#80b0e3"></path>
        <ellipse cx="128.271" cy="123.18" rx="48.654" ry="54.98" style="" fill="#a3e3ff" data-original="#a3e3ff">
        </ellipse>
        <ellipse cx="107.021" cy="123.18" rx="39.443" ry="44.571" style="" fill="#80b0e3" data-original="#80b0e3">
        </ellipse>
        <path
            d="M262.077 2.665a80.337 80.337 0 0 0-9.311-.548h-38.279V39.88c.601-.024 1.2-.04 1.792-.04H259.974c.702 0 1.402.014 2.103.027V2.665z"
            style="" fill="#a3e3ff" data-original="#a3e3ff"></path>
        <path
            d="M245.941 109.522a7.499 7.499 0 0 1-7.5-7.5 6.769 6.769 0 0 0-6.762-6.761 6.77 6.77 0 0 0-6.761 6.761c0 4.143-3.357 7.5-7.5 7.5s-7.5-3.357-7.5-7.5c0-11.999 9.762-21.761 21.761-21.761 11.999 0 21.762 9.762 21.762 21.761 0 4.143-3.357 7.5-7.5 7.5zM327.427 109.522a7.499 7.499 0 0 1-7.5-7.5 6.769 6.769 0 0 0-6.762-6.761 6.769 6.769 0 0 0-6.761 6.761c0 4.143-3.357 7.5-7.5 7.5s-7.5-3.357-7.5-7.5c0-11.999 9.762-21.761 21.761-21.761s21.762 9.762 21.762 21.761a7.5 7.5 0 0 1-7.5 7.5z"
            style="" fill="#495059" data-original="#495059"></path>
        <path
            d="M77.784 235.268v48.483a3.45 3.45 0 0 1-3.348 3.455 42.296 42.296 0 0 0-6.74.752c-17.565 3.372-31.805 16.784-31.805 29.957s14.239 21.119 31.805 17.747c17.565-3.372 31.805-16.784 31.805-29.957v-44.409a5.534 5.534 0 0 1 4.491-5.435l24.583-4.719a11.093 11.093 0 0 0 9.002-10.895v-20.699c0-3.037-2.766-5.323-5.749-4.751L87.7 223.268a12.22 12.22 0 0 0-9.916 12z"
            style="" fill="#ff85b6" data-original="#ff85b6"></path>
        <path
            d="M425.707 365.229v48.483a3.45 3.45 0 0 1-3.348 3.455 42.283 42.283 0 0 0-6.74.752c-17.565 3.372-31.805 16.785-31.805 29.958s14.24 21.119 31.805 17.747c17.565-3.372 31.805-16.784 31.805-29.957v-44.409a5.534 5.534 0 0 1 4.491-5.435l24.583-4.719a11.093 11.093 0 0 0 9.002-10.895V349.51c0-3.037-2.766-5.323-5.749-4.751l-44.128 8.471a12.219 12.219 0 0 0-9.916 11.999z"
            style="" fill="#a9a6de" data-original="#a9a6de"></path>
    </g>
</svg>