<svg xmlns="http://www.w3.org/2000/svg" version="1.1" xmlns:xlink="http://www.w3.org/1999/xlink"
    xmlns:svgjs="http://svgjs.com/svgjs" width="512" height="512" x="0" y="0" viewBox="0 0 512.001 512.001"
    style="enable-background:new 0 0 512 512" xml:space="preserve" class="">
    <g>
        <path
            d="m95.797 140.503-40.548-25.304c-4.535-2.83-10.354.73-9.899 6.056l3.419 40.061a6.487 6.487 0 0 1-3.917 6.518L3.94 185.303c-5.499 2.348-5.164 10.254.514 12.128l31.13 10.273c4.238 1.398 5.831 6.558 3.12 10.103L6.8 259.519c-3.959 5.177 1.33 12.306 7.432 10.016l51.13-19.183a6.487 6.487 0 0 1 8.477 4.157l12.34 39.898c1.482 4.792 7.608 6.161 10.99 2.457l47.251-51.762a6.49 6.49 0 0 1 7.441-1.549l47.794 21.377c5.643 2.524 11.284-3.526 8.372-8.979l-27.583-51.648a6.486 6.486 0 0 1 .259-6.554l32.416-50.641c3.226-5.04-1.51-11.388-7.26-9.732l-36.711 10.574a6.488 6.488 0 0 1-7.305-2.809l-29.365-47.224c-2.798-4.499-9.517-3.93-11.517.976l-15.722 38.555c-1.519 3.726-6.028 5.185-9.442 3.055z"
            style="" fill="#ff85b6" data-original="#ff85b6"></path>
        <path
            d="M23.449 313.587a7.5 7.5 0 0 1-4.842-13.23l16.831-14.213a7.5 7.5 0 0 1 9.677 11.461l-16.831 14.213a7.476 7.476 0 0 1-4.835 1.769z"
            style="" fill="#ffa8cb" data-original="#ffa8cb"></path>
        <path
            d="M82.624 102.355a7.476 7.476 0 0 1-5.077-1.981l-13.574-12.49a7.5 7.5 0 0 1 10.158-11.038l13.574 12.49a7.5 7.5 0 0 1-5.081 13.019zM299.296 346.937l44.908 10.236a5.8 5.8 0 0 1 4.328 4.207l15.524 60.18c1.317 5.105 8.211 5.948 10.719 1.311l27.702-51.217a5.802 5.802 0 0 1 6.814-2.783l52.337 16.162c4.477 1.383 8.661-2.839 7.239-7.304l-16.045-50.359a5.802 5.802 0 0 1 2.224-6.53l38.381-26.582c3.523-2.44 3.275-7.727-.462-9.826l-38.753-21.771a5.802 5.802 0 0 1-2.941-4.592l-4.045-50.22c-.403-4.997-6.527-7.165-9.984-3.534l-25.535 26.825c-2.597 2.728-7.064 2.297-9.091-.878l-18.486-28.956c-2.719-4.26-9.206-3.247-10.498 1.639l-9.453 35.755a5.801 5.801 0 0 1-5.674 4.318l-43.779-.493c-4.534-.051-7.371 4.887-5.044 8.778l22.398 37.448a5.8 5.8 0 0 1-.539 6.711l-35.397 42.086c-2.793 3.322-1.081 8.424 3.152 9.389z"
            style="" fill="#fae17c" data-original="#fae17c"></path>
        <path
            d="M437.174 421.989a7.478 7.478 0 0 1-5.338-2.231l-14.66-14.849a7.501 7.501 0 0 1 10.675-10.539l14.66 14.849a7.501 7.501 0 0 1-5.337 12.77z"
            style="" fill="#ffa8cb" data-original="#ffa8cb"></path>
        <path
            d="M471.371 238.209a7.5 7.5 0 0 1-7.448-6.701 7.5 7.5 0 0 1 6.657-8.257l33.12-3.551c4.113-.443 7.815 2.539 8.257 6.657a7.5 7.5 0 0 1-6.657 8.257l-33.12 3.551c-.272.03-.542.044-.809.044z"
            style="" fill="#fae17c" data-original="#fae17c"></path>
        <path
            d="M231.796 391.391c-66.566 0-143.171 0-199.251-35.804-9.597-6.127-4.046-20.924 7.239-19.418 44.411 5.929 81.715-5.376 102.987-23.688l89.025 78.91z"
            style="" fill="#5cb38e" data-original="#5cb38e"></path>
        <path
            d="M117.661 327.587c.742 21.258 4.005 42.478 17.109 60.121 32.45 3.682 65.84 3.682 97.026 3.682l-89.025-78.91c-6.819 5.87-15.291 11.014-25.11 15.107z"
            style="opacity:0.1;enable-background:new ;" fill="#000000" data-original="#000000"></path>
        <path
            d="M201.953 456.326a21.84 21.84 0 0 1-10.465-2.671c-10.647-5.79-14.585-19.116-8.794-29.763 6.148-11.306 2.74-33.551-2.558-43.03-5.913-10.58-2.13-23.95 8.449-29.863 10.579-5.915 23.949-2.13 29.863 8.449 10.366 18.546 18.088 57.306 2.803 85.413-3.98 7.316-11.517 11.465-19.298 11.465zM296.331 451.678c-.969 0-1.949-.064-2.936-.196-12.013-1.606-20.449-12.647-18.843-24.66.967-7.232-3.513-21.515-13.314-42.453-1.181-2.523-2.035-4.347-2.681-5.934-4.571-11.219.818-24.007 12.034-28.585 11.214-4.578 24.025.811 28.611 12.024.232.567 1.094 2.408 1.786 3.888 2.856 6.1 7.635 16.309 11.428 27.509 5.26 15.53 7.104 28.407 5.639 39.368-1.475 11.026-10.897 19.039-21.724 19.039z"
            style="" fill="#498a68" data-original="#498a68"></path>
        <path
            d="M389.399 340.776c0 31.879-13.957 37.798-36.386 37.798s-34.472-12.936-34.472-37.798 12.043-37.798 34.472-37.798 36.386 5.919 36.386 37.798z"
            style="" fill="#cd5b5b" data-original="#cd5b5b"></path>
        <path
            d="M318.54 340.776c0 22.979 10.295 35.76 29.561 37.567 10.631-19.406 11.683-42.286 11.683-64.38 0-3.644-.192-7.245-.554-10.802a97.946 97.946 0 0 0-6.218-.183c-22.429 0-34.472 12.936-34.472 37.798zM312.416 393.271c-3.793-11.2-8.572-21.409-11.428-27.509-.692-1.479-1.554-3.32-1.786-3.888-4.586-11.213-17.397-16.602-28.611-12.024-11.216 4.579-16.605 17.366-12.034 28.585.647 1.587 1.5 3.411 2.681 5.934 8.021 17.135 12.473 29.806 13.297 37.81 16.817-2.17 30.872-6.103 42.477-11.901-1.018-5.295-2.544-10.947-4.596-17.007zM188.585 350.999c-10.579 5.913-14.362 19.283-8.449 29.863 4.544 8.13 7.691 25.644 4.619 37.6 12.528 3.174 27.011 5.006 43.65 5.561 4.404-24.123-1.99-50.319-9.957-64.574-5.915-10.58-19.285-14.365-29.863-8.45z"
            style="opacity:0.1;enable-background:new ;" fill="#000000" data-original="#000000"></path>
        <path
            d="M339.784 313.963c0 51.232-6.959 88.303-100.192 88.303S139.4 365.195 139.4 313.963s44.857-92.764 100.192-92.764 100.192 41.532 100.192 92.764z"
            style="" fill="#5cb38e" data-original="#5cb38e"></path>
        <path
            d="M339.784 313.963c0-.408-.011-.814-.017-1.221-20.868-5.355-62.261-6.913-91.066 23.699-20.99 22.307-24.028 46.379-21.776 65.578 4.035.164 8.254.247 12.667.247 93.233 0 100.192-37.071 100.192-88.303z"
            style="" fill="#9bdfc1" data-original="#9bdfc1"></path>
        <path
            d="M220.572 222.875c-46.237 8.228-81.171 45.877-81.171 91.087 0 47.438 5.978 82.73 80.878 87.698-41.586-42.21-33.543-129.365.293-178.785z"
            style="opacity:0.05;enable-background:new ;" fill="#000000" data-original="#000000"></path>
        <path
            d="M339.709 97.11a92.401 92.401 0 0 0-77.075-41.435h-38.128c-54.208 0-98.152 43.944-98.152 98.152v45.127c0 48.651 39.439 88.09 88.09 88.09h202.119c36.446 0 65.991-29.545 65.991-65.991V190.34c0-36.446-29.545-65.991-65.991-65.991H390.38a60.745 60.745 0 0 1-50.671-27.239z"
            style="" fill="#5cb38e" data-original="#5cb38e"></path>
        <circle cx="403.5" cy="238.35" r="24.704" style="" fill="#495059" data-original="#495059"></circle>
        <g style="opacity:0.1;">
            <circle cx="179.67" cy="220.4" r="6.755" fill="#000000" data-original="#000000"></circle>
            <circle cx="227.69" cy="230.71" r="6.755" fill="#000000" data-original="#000000"></circle>
            <circle cx="200.21" cy="253.75" r="6.755" fill="#000000" data-original="#000000"></circle>
        </g>
        <ellipse cx="189.94" cy="128.02" rx="17.03" ry="8.734" style="" fill="#ffa8cb" data-original="#ffa8cb">
        </ellipse>
        <ellipse cx="304.24" cy="128.02" rx="17.03" ry="8.734" style="" fill="#ffa8cb" data-original="#ffa8cb">
        </ellipse>
        <path
            d="M211.54 118.206a7.5 7.5 0 0 1-7.5-7.5v-8.484a7.5 7.5 0 0 1 15 0v8.484a7.5 7.5 0 0 1-7.5 7.5zM282.644 118.206a7.5 7.5 0 0 1-7.5-7.5v-8.484a7.5 7.5 0 0 1 15 0v8.484a7.5 7.5 0 0 1-7.5 7.5z"
            style="" fill="#495059" data-original="#495059"></path>
        <path
            d="M214.995 100.354a7.56 7.56 0 0 1-.806-.043l-16.038-1.712a7.5 7.5 0 0 1 1.593-14.915l16.038 1.712a7.501 7.501 0 0 1-.787 14.958zM279.188 100.354a7.5 7.5 0 0 1-.787-14.958l16.038-1.712a7.5 7.5 0 0 1 1.593 14.915l-16.038 1.712c-.27.029-.539.043-.806.043z"
            style="" fill="#495059" data-original="#495059"></path>
        <circle cx="381.98" cy="158.82" r="6.755" style="" fill="#495059" data-original="#495059"></circle>
        <circle cx="425.03" cy="158.82" r="6.755" style="" fill="#495059" data-original="#495059"></circle>
        <path
            d="M202.7 58.109c-43.712 9.917-76.347 49.004-76.347 95.717v45.127c0 48.651 39.439 88.09 88.09 88.09h53.453C190.05 241.749 176.855 117.242 202.7 58.109z"
            style="opacity:0.05;enable-background:new ;" fill="#000000" data-original="#000000"></path>
        <path
            d="M249.722 365.272a14.23 14.23 0 0 1-5.276-1.017c-14.01-5.583-24.154-15.245-31.01-29.537-3.408-7.103-.411-15.624 6.692-19.03 7.104-3.406 15.624-.41 19.03 6.692 2.656 5.538 6.617 11.695 15.849 15.374 7.318 2.916 10.887 11.213 7.97 18.531-2.226 5.585-7.587 8.987-13.255 8.987z"
            style="" fill="#498a68" data-original="#498a68"></path>
        <path
            d="m275.4 335.602-22.834-13.183a7.237 7.237 0 0 0-9.886 2.649l-17.431 30.191a7.237 7.237 0 0 0 2.649 9.886l22.834 13.183 24.668-42.726z"
            style="" fill="#e5e5e5" data-original="#e5e5e5"></path>
        <path
            d="M315.156 387.039c-15.94 27.608-30.986 25.756-50.41 14.541s-23.386-28.439-10.955-49.97 29.329-26.713 48.753-15.498c19.424 11.214 28.552 23.319 12.612 50.927z"
            style="" fill="#cd5b5b" data-original="#cd5b5b"></path>
    </g>
</svg>