<svg xmlns="http://www.w3.org/2000/svg" version="1.1" xmlns:xlink="http://www.w3.org/1999/xlink"
    xmlns:svgjs="http://svgjs.com/svgjs" width="512" height="512" x="0" y="0" viewBox="0 0 512 512"
    style="enable-background:new 0 0 512 512" xml:space="preserve" class="">
    <g>
        <path
            d="M298.189 385.832c-2.648 0-5.322-.78-7.661-2.407-4.302-2.991-14.883-5.928-19.968-7.339-2.7-.749-4.483-1.244-5.929-1.809-6.913-2.702-10.328-10.496-7.626-17.409 2.687-6.877 10.414-10.288 17.297-7.67.53.179 2.144.626 3.447.988 7.507 2.083 20.071 5.57 28.125 11.171 6.094 4.238 7.599 12.613 3.361 18.706a13.422 13.422 0 0 1-11.046 5.769z"
            style="" fill="#498a68" data-original="#498a68"></path>
        <path
            d="M304.678 392.329a7.5 7.5 0 0 1-6.668-10.923l134.717-262.808a7.5 7.5 0 1 1 13.348 6.843L311.357 388.249a7.499 7.499 0 0 1-6.679 4.08z"
            style="" fill="#495059" data-original="#495059" class=""></path>
        <path
            d="m490.916 126.527-100.477-8.791c-8.545-.748-14.866-8.281-14.118-16.825l4.199-47.997c.748-8.545 8.28-14.866 16.825-14.118l100.477 8.791c8.545.748 14.866 8.28 14.118 16.825l-4.199 47.998c-.748 8.543-8.281 14.864-16.825 14.117z"
            style="" fill="#fae17c" data-original="#fae17c" class=""></path>
        <path d="M410.298 43.064h67.661v79.241h-67.661z" style="" transform="rotate(-175.003 444.126 82.684)"
            fill="#a3e3ff" data-original="#a3e3ff"></path>
        <path
            d="M475.655 110.502c-7.451-4.671-13.863-11.027-18.595-18.757a87.82 87.82 0 0 0-44.488-36.534l-5.597 63.972 67.404 5.897 1.276-14.578z"
            style="" fill="#5cb38e" data-original="#5cb38e" class=""></path>
        <circle cx="394.56" cy="76.72" r="8.106" style="" fill="#ffffff" data-original="#ffffff"></circle>
        <path
            d="M345.106 135.99a7.5 7.5 0 0 1-3.003-14.377l14.227-6.206a7.498 7.498 0 0 1 9.873 3.876 7.5 7.5 0 0 1-3.875 9.874l-14.227 6.206a7.472 7.472 0 0 1-2.995.627zM334.022 95.571a7.5 7.5 0 0 1-.997-14.933l16.262-2.204a7.499 7.499 0 1 1 2.013 14.864l-16.262 2.204c-.34.047-.68.069-1.016.069zM355.356 57.593a7.462 7.462 0 0 1-3.369-.804l-13.996-7.052a7.5 7.5 0 1 1 6.75-13.395l13.996 7.052a7.5 7.5 0 0 1-3.381 14.199z"
            style="" fill="#93b5e6" data-original="#93b5e6" class=""></path>
        <path
            d="M181.394 417.593c-59.141 0-127.202 0-177.027-31.811-8.526-5.443-3.595-18.59 6.432-17.252 39.457 5.267 72.601-4.776 91.5-21.046l79.095 70.109z"
            style="" fill="#5cb38e" data-original="#5cb38e" class=""></path>
        <path
            d="M79.989 360.906c.659 18.887 3.558 37.74 15.201 53.416 28.831 3.271 58.496 3.271 86.204 3.271l-79.096-70.109c-6.058 5.215-13.585 9.785-22.309 13.422z"
            style="opacity:0.1;enable-background:new ;" fill="#000000" data-original="#000000" class=""></path>
        <path
            d="M154.918 476.461c-.533 0-1.068-.02-1.608-.062-11.386-.876-19.905-10.816-19.029-22.201.737-9.579-.049-41.753-1.423-49.056-3.349-10.223 1.74-21.442 11.855-25.564 10.575-4.308 22.642.771 26.948 11.347 1.165 2.859 3.113 7.642 3.949 33.993.336 10.627.449 25.315-.1 32.452-.834 10.846-9.893 19.091-20.592 19.091zm-21.561-69.959.01.025a.186.186 0 0 1-.01-.025zM225.629 476.461c-.533 0-1.068-.02-1.608-.062-11.386-.876-19.905-10.816-19.029-22.201.737-9.579-.049-41.753-1.423-49.056-3.349-10.223 1.74-21.442 11.855-25.564 10.576-4.308 22.641.771 26.948 11.347 1.165 2.859 3.114 7.642 3.949 33.993.336 10.627.449 25.315-.1 32.452-.834 10.846-9.894 19.091-20.592 19.091zm-21.561-69.959.01.025a.186.186 0 0 1-.01-.025z"
            style="" fill="#498a68" data-original="#498a68"></path>
        <path
            d="M246.592 439.322a592.803 592.803 0 0 0-.27-14.404c-.836-26.351-2.784-31.134-3.949-33.993-4.308-10.576-16.372-15.655-26.948-11.347-10.116 4.121-15.204 15.34-11.855 25.564 1.116 5.938 1.845 28.314 1.682 41.623 16.119-.976 29.814-3.427 41.34-7.443zM171.662 390.925c-4.307-10.576-16.373-15.655-26.948-11.347-10.116 4.121-15.204 15.34-11.855 25.564.962 5.116 1.635 22.427 1.699 35.634 11.65 3.49 25.339 5.541 41.313 6.222.077-7.029-.046-15.364-.259-22.08-.837-26.35-2.785-31.134-3.95-33.993z"
            style="opacity:0.1;enable-background:new ;" fill="#000000" data-original="#000000" class=""></path>
        <path
            d="M277.337 348.801c0 45.518-6.183 78.454-89.017 78.454s-89.016-32.936-89.016-78.454 39.854-82.417 89.016-82.417c49.163 0 89.017 36.899 89.017 82.417z"
            style="" fill="#5cb38e" data-original="#5cb38e" class=""></path>
        <path
            d="M277.337 348.801c0-.363-.01-.723-.015-1.085-18.541-4.758-55.317-6.142-80.909 21.055-18.649 19.819-21.348 41.206-19.347 58.264 3.585.145 7.333.22 11.254.22 82.835 0 89.017-32.936 89.017-78.454z"
            style="" fill="#9bdfc1" data-original="#9bdfc1"></path>
        <path
            d="M171.422 267.874c-41.08 7.31-72.117 40.76-72.117 80.928 0 42.147 5.311 73.503 71.857 77.916-36.948-37.503-29.802-114.937.26-158.844z"
            style="opacity:0.05;enable-background:new ;" fill="#000000" data-original="#000000" class=""></path>
        <path
            d="M264.756 145.481a82.099 82.099 0 0 0-71.121-31.407l-33.774 2.62c-48.017 3.725-83.923 45.671-80.198 93.688l3.101 39.973c3.343 43.095 40.989 75.32 84.084 71.977l179.037-13.89c32.284-2.505 56.424-30.706 53.919-62.989l-2.111-27.205c-2.505-32.283-30.706-56.424-62.989-53.919l-23.193 1.799a53.97 53.97 0 0 1-46.755-20.647z"
            style="" fill="#5cb38e" data-original="#5cb38e" class=""></path>
        <g style="opacity:0.1;">
            <circle cx="131.47" cy="265.69" r="6" fill="#000000" data-original="#000000" class=""></circle>
            <circle cx="174.71" cy="271.52" r="6" fill="#000000" data-original="#000000" class=""></circle>
            <circle cx="151.95" cy="293.82" r="6" fill="#000000" data-original="#000000" class=""></circle>
        </g>
        <ellipse cx="143.41" cy="177.977" rx="7.76" ry="15.13" style="" transform="rotate(-94.433 143.41 177.978)"
            fill="#ffa8cb" data-original="#ffa8cb"></ellipse>
        <ellipse cx="244.667" cy="170.128" rx="7.76" ry="15.13" style="" transform="rotate(85.561 244.667 170.128)"
            fill="#ffa8cb" data-original="#ffa8cb"></ellipse>
        <path
            d="M161.358 168.642a7.5 7.5 0 0 1-7.47-6.92l-.583-7.515a7.501 7.501 0 0 1 14.955-1.161l.583 7.515a7.501 7.501 0 0 1-7.485 8.081zM224.343 163.755a7.5 7.5 0 0 1-7.47-6.919l-.584-7.515a7.5 7.5 0 0 1 6.896-8.059 7.495 7.495 0 0 1 8.059 6.896l.584 7.515a7.5 7.5 0 0 1-7.485 8.082zM329.743 273.756a23.384 23.384 0 0 1-16.387-6.709 7.5 7.5 0 0 1 10.512-10.701 8.38 8.38 0 0 0 6.522 2.385 8.38 8.38 0 0 0 6.075-3.361 7.5 7.5 0 1 1 12.037 8.95 23.373 23.373 0 0 1-18.759 9.436z"
            style="" fill="#495059" data-original="#495059" class=""></path>
        <circle cx="306.44" cy="197.24" r="6" style="" fill="#495059" data-original="#495059" class=""></circle>
        <circle cx="344.57" cy="194.28" r="6" style="" fill="#495059" data-original="#495059" class=""></circle>
        <path
            d="M140.713 120.35c-38.039 11.788-64.26 48.654-61.05 90.033l3.101 39.973c3.343 43.095 40.989 75.32 84.084 71.977l47.349-3.673c-72.069-34.773-92.314-144.154-73.484-198.31z"
            style="opacity:0.05;enable-background:new ;" fill="#000000" data-original="#000000" class=""></path>
        <path
            d="M205.874 380.128c-1.822 0-3.673-.372-5.446-1.159-8.29-3.679-17.074-3.743-20.38-3.767l-.407-.003c-7.421-.066-13.385-6.137-13.318-13.559.066-7.381 6.071-13.32 13.436-13.32l.122.001.359.003c4.376.031 17.688.127 31.093 6.078 6.784 3.011 9.842 10.952 6.831 17.736-2.224 5.011-7.139 7.99-12.29 7.99z"
            style="" fill="#498a68" data-original="#498a68"></path>
    </g>
</svg>