<svg xmlns="http://www.w3.org/2000/svg" version="1.1" xmlns:xlink="http://www.w3.org/1999/xlink"
    xmlns:svgjs="http://svgjs.com/svgjs" width="512" height="512" x="0" y="0" viewBox="0 0 512 512"
    style="enable-background:new 0 0 512 512" xml:space="preserve" class="">
    <g>
        <path
            d="M133.726 393.332a15.784 15.784 0 0 1-9.655-3.287c-6.947-5.338-8.251-15.298-2.913-22.245 11.063-14.396 25.506-22.384 30.252-25.01l.391-.216c7.658-4.257 17.317-1.493 21.571 6.168 4.253 7.66 1.491 17.317-6.169 21.57l-.437.242c-3.668 2.028-13.411 7.417-20.449 16.577a15.84 15.84 0 0 1-12.591 6.201z"
            style="" fill="#498a68" data-original="#498a68"></path>
        <path
            d="M269.819 426.336c74.032 0 159.229 0 221.6-39.82 10.673-6.814 4.5-23.271-8.051-21.596-49.392 6.594-90.881-5.979-114.538-26.345l-99.011 87.761z"
            style="" fill="#5cb38e" data-original="#5cb38e"></path>
        <path
            d="M396.756 355.375c-.825 23.643-4.454 47.242-19.028 66.865-36.09 4.095-73.225 4.095-107.909 4.095l99.011-87.761c7.583 6.528 17.006 12.249 27.926 16.801z"
            style="opacity:0.1;enable-background:new ;" fill="#000000" data-original="#000000"></path>
        <path
            d="M303 498.555c-9.489.001-18.512-5.567-22.466-14.848-14.251-33.456-1.169-80.377 2.833-90.198 5.086-12.482 19.328-18.48 31.812-13.392 12.475 5.084 18.472 19.314 13.4 31.792-2.862 7.281-9.428 37.9-3.137 52.669 5.282 12.401-.489 26.736-12.89 32.019a24.323 24.323 0 0 1-9.552 1.958zM203.232 497.201c-11.802.001-22.183-8.586-24.083-20.611-3.721-23.545 10.716-75.446 17.437-86.527 6.99-11.526 22.001-15.204 33.524-8.212 11.283 6.843 15.044 21.371 8.639 32.793-4.295 9.471-12.644 45.196-11.383 54.35 2.104 13.314-6.985 25.802-20.3 27.907a24.85 24.85 0 0 1-3.834.3zm35.376-82.308z"
            style="" fill="#498a68" data-original="#498a68"></path>
        <path
            d="M230.111 381.85c-11.523-6.992-26.535-3.314-33.524 8.212-4.708 7.762-13.193 35.544-16.581 59.588 13.166 5.748 28.92 9.57 47.597 11.554 1.546-14.058 7.672-38.899 11.147-46.561 6.405-11.421 2.644-25.95-8.639-32.793zM328.579 411.908c5.071-12.477-.925-26.708-13.4-31.792-12.484-5.087-26.726.91-31.812 13.392-3.207 7.871-12.233 39.569-8.361 69.07 18.428-.691 34.459-2.807 48.305-6.43-2.089-15.808 2.878-38.159 5.268-44.24z"
            style="opacity:0.1;enable-background:new ;" fill="#000000" data-original="#000000"></path>
        <path
            d="M149.718 340.223c0 56.979 7.74 98.208 111.43 98.208s111.43-41.229 111.43-98.208-49.889-103.169-111.43-103.169c-61.541 0-111.43 46.19-111.43 103.169z"
            style="" fill="#5cb38e" data-original="#5cb38e"></path>
        <path
            d="M149.718 340.223c0-.454.012-.905.018-1.358 23.209-5.956 69.245-7.688 101.28 26.357 23.345 24.809 26.723 51.582 24.219 72.934a347.86 347.86 0 0 1-14.088.275c-103.689 0-111.429-41.229-111.429-98.208z"
            style="" fill="#9bdfc1" data-original="#9bdfc1"></path>
        <path
            d="M282.302 238.919c51.423 9.151 90.276 51.023 90.276 101.304 0 52.759-6.648 92.01-89.95 97.534 46.25-46.945 37.305-143.875-.326-198.838z"
            style="opacity:0.05;enable-background:new ;" fill="#000000" data-original="#000000"></path>
        <path
            d="M158.866 88.471a102.767 102.767 0 0 1 85.72-46.083h42.405c60.288 0 109.161 48.873 109.161 109.161v50.188c0 54.108-43.863 97.971-97.971 97.971H73.392C32.859 299.708 0 266.849 0 226.316v-34.158c0-40.534 32.859-73.392 73.392-73.392h29.12a67.562 67.562 0 0 0 56.354-30.295z"
            style="" fill="#5cb38e" data-original="#5cb38e"></path>
        <path
            d="M119.369 237.054c0-17.37-14.081-25.097-31.451-25.097s-31.451 7.727-31.451 25.097 14.081 31.451 31.451 31.451 31.451-14.081 31.451-31.451z"
            style="" fill="#495059" data-original="#495059"></path>
        <g style="opacity:0.1;">
            <circle cx="336.86" cy="225.59" r="7.513" fill="#000000" data-original="#000000"></circle>
            <circle cx="283.45" cy="237.05" r="7.512" fill="#000000" data-original="#000000"></circle>
            <circle cx="314.01" cy="262.68" r="7.513" fill="#000000" data-original="#000000"></circle>
        </g>
        <ellipse cx="313.14" cy="122.85" rx="18.935" ry="9.714" style="" fill="#ffa8cb" data-original="#ffa8cb">
        </ellipse>
        <ellipse cx="186.01" cy="122.85" rx="18.935" ry="9.714" style="" fill="#ffa8cb" data-original="#ffa8cb">
        </ellipse>
        <path
            d="M289.116 111.092a7.5 7.5 0 0 1-7.5-7.5v-9.436c0-4.143 3.358-7.5 7.5-7.5s7.5 3.357 7.5 7.5v9.436a7.5 7.5 0 0 1-7.5 7.5zM210.037 111.092a7.5 7.5 0 0 1-7.5-7.5v-9.436c0-4.143 3.358-7.5 7.5-7.5s7.5 3.357 7.5 7.5v9.436a7.5 7.5 0 0 1-7.5 7.5z"
            style="" fill="#495059" data-original="#495059"></path>
        <circle cx="111.86" cy="157.1" r="7.513" style="" fill="#495059" data-original="#495059"></circle>
        <circle cx="63.979" cy="157.1" r="7.513" style="" fill="#495059" data-original="#495059"></circle>
        <path
            d="M311.243 45.096c48.615 11.029 84.91 54.501 84.91 106.453v50.189c0 54.108-43.863 97.971-97.971 97.971h-59.449c86.579-50.376 101.254-188.848 72.51-254.613z"
            style="opacity:0.05;enable-background:new ;" fill="#000000" data-original="#000000"></path>
        <path
            d="m279.978 177.089 87.033-87.033c7.401-7.401 19.401-7.401 26.803 0l41.575 41.575c7.401 7.401 7.401 19.401 0 26.803l-87.033 87.033c-7.401 7.401-19.401 7.401-26.803 0l-41.575-41.575c-7.402-7.401-7.402-19.401 0-26.803z"
            style="" fill="#fae17c" data-original="#fae17c"></path>
        <circle cx="405.48" cy="140.52" r="9.892" style="" fill="#ffffff" data-original="#ffffff"></circle>
        <path
            d="m290.485 157.952 34.528-34.528a5.763 5.763 0 0 1 8.149 0l68.858 68.859a5.763 5.763 0 0 1 0 8.149l-34.528 34.528a5.763 5.763 0 0 1-8.149 0l-68.858-68.859a5.763 5.763 0 0 1 0-8.149z"
            style="" fill="#495059" data-original="#495059"></path>
        <path
            d="M238.727 363.945a7.5 7.5 0 0 1-6.214-11.691l111.493-165.5a7.5 7.5 0 0 1 10.411-2.029 7.5 7.5 0 0 1 2.03 10.41l-111.493 165.5a7.493 7.493 0 0 1-6.227 3.31z"
            style="" fill="#495059" data-original="#495059"></path>
        <path
            d="M256.258 377.253c-5.741 0-11.71-.611-17.574-2.015-8.521-2.04-13.775-10.602-11.734-19.121 2.04-8.521 10.6-13.781 19.122-11.735 9.154 2.189 21.526.793 24.754-1.282 7.369-4.737 17.186-2.604 21.923 4.766 4.738 7.371 2.604 17.186-4.766 21.924-6.602 4.243-18.554 7.463-31.725 7.463z"
            style="" fill="#498a68" data-original="#498a68"></path>
        <path
            d="M504.5 113.335a7.5 7.5 0 0 1-7.5-7.5c0-20.707-8.04-40.151-22.639-54.752-14.599-14.598-34.043-22.638-54.751-22.638-4.142 0-7.5-3.357-7.5-7.5s3.358-7.5 7.5-7.5c24.714 0 47.925 9.6 65.357 27.031C502.4 57.91 512 81.121 512 105.835a7.5 7.5 0 0 1-7.5 7.5z"
            style="" fill="#a3e3ff" data-original="#a3e3ff" class=""></path>
        <path
            d="M475.816 113.335a7.5 7.5 0 0 1-7.5-7.5c0-13.033-5.06-25.271-14.247-34.46-9.188-9.187-21.426-14.246-34.459-14.246-4.142 0-7.5-3.357-7.5-7.5s3.358-7.5 7.5-7.5c17.039 0 33.044 6.62 45.065 18.64 12.021 12.021 18.641 28.026 18.641 45.066a7.5 7.5 0 0 1-7.5 7.5z"
            style="" fill="#a3e3ff" data-original="#a3e3ff" class=""></path>
        <path
            d="M447.145 113.335a7.5 7.5 0 0 1-7.5-7.5 19.904 19.904 0 0 0-5.869-14.168 19.907 19.907 0 0 0-14.167-5.867c-4.142 0-7.5-3.357-7.5-7.5s3.358-7.5 7.5-7.5c9.358 0 18.156 3.645 24.773 10.261 6.618 6.618 10.262 15.417 10.262 24.774a7.498 7.498 0 0 1-7.499 7.5z"
            style="" fill="#a3e3ff" data-original="#a3e3ff" class=""></path>
    </g>
</svg>