<svg xmlns="http://www.w3.org/2000/svg" version="1.1" xmlns:xlink="http://www.w3.org/1999/xlink"
    xmlns:svgjs="http://svgjs.com/svgjs" width="512" height="512" x="0" y="0" viewBox="0 0 512 512"
    style="enable-background:new 0 0 512 512" xml:space="preserve" class="">
    <g>
        <path
            d="M352.683 367.391c-1.911 0-3.854-.364-5.731-1.133-4.294-1.759-8.817-3.587-13.17-5.348-9.725-3.933-18.124-7.33-22.314-9.246-7.603-3.479-10.949-12.463-7.47-20.067 3.48-7.606 12.466-10.949 20.068-7.47 3.573 1.634 12.072 5.072 21.07 8.711 4.391 1.776 8.956 3.622 13.289 5.396 7.739 3.168 11.443 12.01 8.275 19.749-2.399 5.859-8.053 9.408-14.017 9.408z"
            style="" fill="#498a68" data-original="#498a68"></path>
        <path
            d="M206.634 397.055c-69.765-11.192-150.052-24.073-202.808-71.027-9.028-8.035-.723-22.61 10.852-19.134 45.549 13.681 86.547 8.105 111.92-7.511l80.036 97.672z"
            style="" fill="#5cb38e" data-original="#5cb38e"></path>
        <path
            d="M97.741 310.993c-2.797 22.405-2.945 45.193 7.823 65.888 33.391 9.315 68.385 14.93 101.07 20.173l-80.037-97.672c-8.133 5.007-17.878 8.973-28.856 11.611z"
            style="opacity:0.1;enable-background:new ;" fill="#000000" data-original="#000000"></path>
        <path
            d="M183.562 460.633c-1.842 0-3.712-.22-5.581-.68-12.493-3.072-20.13-15.69-17.058-28.182 4.162-16.923 5.181-41.238-.428-51.011-6.404-11.158-2.55-25.394 8.608-31.798 11.159-6.403 25.395-2.55 31.798 8.608 17.487 30.469 7.452 76.424 5.262 85.327-2.611 10.622-12.129 17.736-22.601 17.736zM290.643 460.394c-.806 0-1.62-.042-2.44-.127-12.796-1.331-22.089-12.784-20.758-25.579 1.804-17.332-.519-41.557-7.416-50.47-7.872-10.175-6.005-24.805 4.169-32.677 10.176-7.874 24.805-6.006 32.679 4.169 21.499 27.788 17.855 74.682 16.906 83.801-1.246 11.975-11.359 20.883-23.14 20.883z"
            style="" fill="#498a68" data-original="#498a68"></path>
        <path
            d="M267.376 436.001c18.941-1.662 34.591-6.699 47.229-15.207-.141-18.677-3.162-46.259-17.727-65.085-7.873-10.175-22.502-12.043-32.679-4.169-10.174 7.872-12.041 22.503-4.169 32.677 6.897 8.914 9.22 33.138 7.416 50.47-.046.442-.049.876-.07 1.314zM208.3 432.599c3.087-17.57 6.348-51.079-7.398-75.03-6.404-11.158-20.639-15.011-31.798-8.608-11.158 6.404-15.011 20.64-8.608 31.798 4.545 7.919 4.737 25.386 2.433 40.732 12.998 4.61 28.065 8.285 45.371 11.108z"
            style="opacity:0.1;enable-background:new ;" fill="#000000" data-original="#000000"></path>
        <path
            d="M332.831 334.063c-8.614 53.695-22.141 91.377-119.855 75.701s-98.774-55.699-90.16-109.394 62.611-89.681 120.605-80.377c57.994 9.304 98.024 60.375 89.41 114.07z"
            style="" fill="#5cb38e" data-original="#5cb38e"></path>
        <path
            d="M332.831 334.063c.069-.428.125-.855.188-1.283-20.971-9.122-64.092-17.714-99.428 9.526-25.75 19.85-32.981 44.569-33.849 65.068 4.202.85 8.609 1.647 13.234 2.389 97.715 15.677 111.241-22.006 119.855-75.7z"
            style="" fill="#9bdfc1" data-original="#9bdfc1"></path>
        <path
            d="M223.204 218.553c-49.843.85-92.786 34.434-100.388 81.818-7.976 49.719-7.645 87.712 70.02 105.512-36.487-51.233-13.403-141.224 30.368-187.33z"
            style="opacity:0.05;enable-background:new ;" fill="#000000" data-original="#000000"></path>
        <path
            d="M362.271 95.437a98.08 98.08 0 0 0-73.813-56.386l-39.961-6.411c-56.813-9.114-110.258 29.553-119.373 86.367l-7.588 47.296c-8.18 50.989 26.524 98.956 77.513 107.136l211.834 33.984c38.197 6.128 74.13-19.87 80.258-58.067l5.164-32.189c6.128-38.197-19.87-74.13-58.067-80.258l-27.442-4.403a64.483 64.483 0 0 1-48.525-37.069z"
            style="" fill="#5cb38e" data-original="#5cb38e"></path>
        <g style="opacity:0.1;">
            <circle cx="173.81" cy="197.746" r="7.17" fill="#000000" data-original="#000000"></circle>
            <circle cx="222.41" cy="216.626" r="7.17" fill="#000000" data-original="#000000"></circle>
            <circle cx="189.73" cy="236.146" r="7.17" fill="#000000" data-original="#000000"></circle>
        </g>
        <ellipse cx="212.625" cy="116.26" rx="9.271" ry="18.07" style="" transform="rotate(-80.886 212.624 116.255)"
            fill="#ffa8cb" data-original="#ffa8cb"></ellipse>
        <ellipse cx="332.408" cy="135.477" rx="9.271" ry="18.07" style="" transform="rotate(99.114 332.403 135.48)"
            fill="#ffa8cb" data-original="#ffa8cb"></ellipse>
        <path
            d="M238.181 109.24a7.5 7.5 0 0 1-7.414-8.689l1.426-8.892a7.5 7.5 0 0 1 8.593-6.217 7.499 7.499 0 0 1 6.217 8.593l-1.426 8.892a7.502 7.502 0 0 1-7.396 6.313zM312.702 121.195a7.5 7.5 0 0 1-7.414-8.69l1.427-8.892a7.496 7.496 0 0 1 8.594-6.217 7.5 7.5 0 0 1 6.217 8.594l-1.427 8.892a7.502 7.502 0 0 1-7.397 6.313zM245.37 82.041a7.468 7.468 0 0 1-2.901-.587l-10.082-4.235a7.5 7.5 0 0 1-4.01-9.819 7.498 7.498 0 0 1 9.819-4.01l10.081 4.235a7.5 7.5 0 0 1-2.907 14.416zM317.143 93.555a7.502 7.502 0 0 1-.496-14.984l12.063-.811a7.5 7.5 0 0 1 1.006 14.966l-12.064.811c-.17.012-.341.018-.509.018z"
            style="" fill="#495059" data-original="#495059"></path>
        <circle cx="396.2" cy="167.216" r="7.17" style="" fill="#495059" data-original="#495059"></circle>
        <circle cx="441.31" cy="174.456" r="7.17" style="" fill="#495059" data-original="#495059"></circle>
        <path
            d="M225.234 31.525c-47.481 3.043-88.256 38.523-96.11 87.481l-7.588 47.296c-8.18 50.989 26.524 98.956 77.513 107.136l56.023 8.988c-73.974-60.561-66.869-193.271-29.838-250.901z"
            style="opacity:0.05;enable-background:new ;" fill="#000000" data-original="#000000"></path>
        <path
            d="M385.033 251.681c5.72-1.595 13.059-1.957 20.866-.705 4.607.739 8.878 1.965 12.626 3.521-3.484-12.808-12.928-37.272-43.822-44.446-8.144-1.892-16.281 3.178-18.173 11.323s3.177 16.282 11.324 18.174c8.797 2.043 13.907 6.55 17.179 12.133z"
            style="" fill="#f4b9ce" data-original="#f4b9ce"></path>
        <path
            d="M427.629 267.234a7.472 7.472 0 0 1-4.711-1.668c-4.119-3.331-10.926-6.017-18.207-7.185-7.282-1.168-14.585-.747-19.541 1.129a7.5 7.5 0 0 1-5.309-14.029c7.513-2.843 17.182-3.522 27.226-1.91 10.044 1.611 19.017 5.28 25.263 10.331a7.5 7.5 0 0 1-4.721 13.332z"
            style="" fill="#495059" data-original="#495059"></path>
        <path
            d="M240.076 361.549a15.116 15.116 0 0 1-11.882-5.744c-9.856-12.45-16.386-17.043-18.736-18.441-7.188-4.273-9.551-13.563-5.279-20.752 4.272-7.188 13.565-9.552 20.752-5.279 5.756 3.422 15.115 10.654 27.006 25.676 5.191 6.556 4.083 16.079-2.473 21.269a15.067 15.067 0 0 1-9.388 3.271z"
            style="" fill="#498a68" data-original="#498a68"></path>
        <path
            d="M382.587 337.043a7.472 7.472 0 0 1-4.906-1.83c-4.09-3.541-9.777-6.551-16.903-8.945a7.5 7.5 0 0 1 4.777-14.219c9.113 3.063 16.291 6.93 21.944 11.823a7.499 7.499 0 0 1 .761 10.579 7.48 7.48 0 0 1-5.673 2.592zM216.354 383.936c-.407 0-.82-.033-1.235-.103-2.503-.415-16.11-5.201-18.658-10.621a7.5 7.5 0 0 1 12.302-8.276c1.83 1.25 7.156 3.811 8.815 4.101 4.068.711 6.826 4.583 6.132 8.653-.622 3.656-3.77 6.246-7.356 6.246z"
            style="" fill="#495059" data-original="#495059"></path>
        <circle cx="452.96" cy="430.355" r="59.04" style="" fill="#495059" data-original="#495059"></circle>
        <path
            d="M452.963 452.742c12.366 0 22.391-10.025 22.391-22.391 0-12.367-10.025-22.391-22.391-22.391H286.576v44.783h166.387v-.001z"
            style="" fill="#959ba0" data-original="#959ba0"></path>
        <circle cx="286.58" cy="430.355" r="59.04" style="" fill="#495059" data-original="#495059"></circle>
        <circle cx="286.58" cy="430.355" r="18.525" style="" fill="#959ba0" data-original="#959ba0"></circle>
        <path
            d="M87.547 191.113c4.255-19.307-3.83-24.848.141-35.983 1.833-5.142-2.015-10.537-7.472-10.398-24.536.626-46.998 8.274-52.966 33.179-3.945 16.46 6.104 33.002 22.476 37.12 16.988 4.275 34.051-6.81 37.821-23.918zM85.374 84.594c12.254-11.445 9.269-19.204 17.397-25.075 3.753-2.711 3.658-8.332-.222-10.858-17.445-11.358-36.817-16.812-52.961-2.279-10.67 9.605-11.6 25.994-2.14 36.743 9.816 11.154 27.067 11.611 37.926 1.469zM411.398 75.676c-16.028-7.217-15.688-15.925-25.737-19.005-4.64-1.422-6.445-7.032-3.448-10.85 13.474-17.166 30.855-29.124 51.785-20.158 13.834 5.927 20.295 21.875 14.539 35.739-5.972 14.385-22.937 20.668-37.139 14.274z"
            style="" fill="#a3e3ff" data-original="#a3e3ff"></path>
    </g>
</svg>