<?xml version="1.0" standalone="no"?><!DOCTYPE svg PUBLIC "-//W3C//DTD SVG 1.1//EN" "http://www.w3.org/Graphics/SVG/1.1/DTD/svg11.dtd"><svg height="1024" node-id="1" sillyvg="true" template-height="1024" template-width="1024" version="1.1" viewBox="0 0 1024 1024" width="1024" xmlns="http://www.w3.org/2000/svg" xmlns:xlink="http://www.w3.org/1999/xlink"><defs node-id="22"></defs><path d="M 601.30 386.70 C 601.30 389.90 601.20 393.10 601.00 396.20 C 599.80 414.30 595.30 432.00 587.50 448.40 C 587.40 448.50 587.40 448.70 587.30 448.80 C 586.90 449.60 586.60 450.30 586.20 451.10 C 583.90 455.70 581.30 460.20 578.60 464.60 C 552.70 505.20 508.20 530.20 460.00 531.30 L 461.40 613.50 L 480.00 603.70 L 483.30 610.00 L 461.50 621.50 L 464.20 774.20 L 464.20 776.20 L 449.80 777.40 L 449.80 777.40 L 454.30 531.20 C 415.70 530.60 379.00 514.70 352.30 486.80 C 351.40 485.90 350.50 484.90 349.60 483.90 C 349.60 483.90 349.50 483.80 349.50 483.80 C 338.50 471.80 329.60 458.00 323.20 443.00 C 323.30 443.20 323.50 443.30 323.60 443.50 C 293.50 373.00 323.50 291.30 392.20 257.10 C 392.70 256.90 393.20 256.60 393.70 256.40 C 461.50 223.70 543.00 248.50 581.20 313.30 C 582.10 314.80 582.90 316.30 583.80 317.80 C 595.30 339.00 601.30 362.70 601.30 386.70 Z" fill="#e5e5e5" fill-rule="nonzero" node-id="24" stroke="none" target-height="553.7" target-width="307.8" target-x="293.5" target-y="223.7"></path><path d="M 537.90 734.80 C 537.90 758.60 518.60 777.90 494.80 777.90 C 471.00 777.90 451.70 758.60 451.70 734.80 C 451.70 711.00 471.00 691.70 494.80 691.70 C 518.60 691.70 537.90 711.00 537.90 734.80 Z" fill="#2f2e41" fill-rule="nonzero" node-id="26" stroke="none" target-height="86.20001" target-width="86.20001" target-x="451.7" target-y="691.7"></path><path d="M 507.10 764.40 L 545.70 764.40 L 545.70 777.50 L 507.10 777.50 Z" fill="#2f2e41" fill-rule="nonzero" node-id="28" stroke="none" target-height="13.099976" target-width="38.600006" target-x="507.1" target-y="764.4"></path><path d="M 550.10 766.50 C 550.10 772.52 548.26 777.40 546.00 777.40 C 543.74 777.40 541.90 772.52 541.90 766.50 C 541.90 760.48 543.74 755.60 546.00 755.60 C 548.26 755.60 550.10 760.48 550.10 766.50 Z" fill="#2f2e41" fill-rule="nonzero" node-id="30" stroke="none" target-height="21.800049" target-width="8.199951" target-x="541.9" target-y="755.6"></path><path d="M 498.10 763.40 L 536.70 763.40 L 536.70 776.50 L 498.10 776.50 Z" fill="#2f2e41" fill-rule="nonzero" node-id="32" stroke="none" target-height="13.099976" target-width="38.600006" target-x="498.1" target-y="763.4"></path><path d="M 541.10 765.50 C 541.10 771.52 539.26 776.40 537.00 776.40 C 534.74 776.40 532.90 771.52 532.90 765.50 C 532.90 759.48 534.74 754.60 537.00 754.60 C 539.26 754.60 541.10 759.48 541.10 765.50 Z" fill="#2f2e41" fill-rule="nonzero" node-id="34" stroke="none" target-height="21.800049" target-width="8.199951" target-x="532.9" target-y="754.6"></path><path d="M 453.10 694.70 C 449.60 679.10 460.70 663.40 477.90 659.60 C 495.10 655.80 511.80 665.30 515.30 680.80 C 518.80 696.30 507.40 702.10 490.20 706.00 C 473.00 709.90 456.50 710.30 453.10 694.70 Z" fill="#c5a47a" fill-rule="nonzero" node-id="36" stroke="none" target-height="54.5" target-width="69.19998" target-x="449.6" target-y="655.8"></path><path d="M 511.40 732.30 C 506.80 732.40 502.60 729.50 501.10 725.20 C 500.90 724.70 501.20 724.10 501.70 723.90 C 502.20 723.70 502.80 724.00 503.00 724.50 L 503.00 724.50 C 504.50 729.00 509.70 731.40 514.60 729.80 C 517.00 729.00 519.00 727.30 520.20 725.10 C 521.20 723.10 521.40 720.90 520.70 718.80 C 520.50 718.30 520.80 717.70 521.30 717.50 C 521.80 717.30 522.40 717.60 522.60 718.10 L 522.60 718.10 C 523.50 720.70 523.30 723.50 522.00 726.00 C 520.60 728.70 518.20 730.80 515.30 731.80 C 513.90 732.10 512.70 732.30 511.40 732.30 Z" fill="#ffffff" fill-rule="nonzero" node-id="38" stroke="none" target-height="15.100037" target-width="22.600006" target-x="500.9" target-y="717.3"></path><path d="M 530.60 738.20 C 533.00 742.90 531.20 748.70 526.50 751.10 C 521.80 753.50 516.00 751.70 513.60 747.00 C 513.60 747.00 513.60 747.00 513.60 747.00 L 513.60 747.00 L 513.60 747.00 C 511.20 742.30 514.50 739.40 519.20 737.00 C 523.90 734.60 528.20 733.50 530.60 738.20 Z" fill="#ffffff" fill-rule="nonzero" node-id="40" stroke="none" target-height="20" target-width="21.799988" target-x="511.2" target-y="733.5"></path><path d="M 684.30 778.20 L 303.30 778.20 C 302.70 778.20 302.30 777.80 302.30 777.20 C 302.30 776.60 302.70 776.20 303.30 776.20 L 684.30 776.20 C 684.90 776.20 685.30 776.60 685.30 777.20 C 685.30 777.80 684.80 778.20 684.30 778.20 Z" fill="#3f3d56" fill-rule="nonzero" node-id="42" stroke="none" target-height="2" target-width="383" target-x="302.3" target-y="776.2"></path><g node-id="61"><path d="M 486.42 766.73 L 487.78 773.11 L 488.45 778.67 L 488.56 782.34 L 488.38 785.29 L 487.98 787.65 L 487.20 789.85 L 486.24 791.12 L 485.13 791.75 L 483.85 791.74 L 482.40 791.08 L 480.65 789.54 L 479.16 787.67 L 477.58 785.17 L 475.90 781.91 L 473.80 776.71 L 471.90 770.48 L 470.55 764.11 L 469.88 758.54 L 469.77 754.88 L 469.94 751.93 L 470.34 749.57 L 471.13 747.37 L 472.08 746.09 L 473.19 745.47 L 474.47 745.48 L 475.92 746.13 L 477.67 747.68 L 479.17 749.55 L 480.75 752.05 L 482.42 755.31 L 484.53 760.50 L 486.42 766.73 Z" fill="#2f2e41" fill-rule="nonzero" group-id="1" node-id="46" stroke="none" target-height="46.28003" target-width="18.790009" target-x="469.77" target-y="745.47"></path></g><path d="M 557.50 683.40 L 541.10 683.40 C 540.70 683.40 540.30 683.10 540.30 682.60 C 540.30 682.40 540.40 682.20 540.60 682.00 L 555.50 668.50 L 541.70 668.50 C 541.30 668.50 540.90 668.20 540.90 667.70 C 540.90 667.30 541.20 666.90 541.70 666.90 L 557.50 666.90 C 557.90 666.90 558.30 667.20 558.30 667.70 C 558.30 667.90 558.20 668.10 558.00 668.30 L 543.10 681.80 L 557.50 681.80 C 557.90 681.80 558.30 682.10 558.30 682.60 C 558.30 683.10 557.90 683.40 557.50 683.40 C 557.50 683.40 557.50 683.40 557.50 683.40 Z" fill="#cbcbcb" fill-rule="nonzero" node-id="49" stroke="none" target-height="16.5" target-width="18" target-x="540.3" target-y="666.9"></path><path d="M 578.40 659.50 L 562.00 659.50 C 561.60 659.50 561.20 659.20 561.20 658.70 C 561.20 658.50 561.30 658.30 561.50 658.10 L 576.40 644.60 L 562.60 644.60 C 562.20 644.60 561.80 644.30 561.80 643.80 C 561.80 643.40 562.10 643.00 562.60 643.00 L 578.40 643.00 C 578.80 643.00 579.20 643.30 579.20 643.80 C 579.20 644.00 579.10 644.20 578.90 644.40 L 564.00 657.90 L 578.40 657.90 C 578.80 657.90 579.20 658.20 579.20 658.70 C 579.10 659.10 578.80 659.50 578.40 659.50 C 578.40 659.50 578.40 659.50 578.40 659.50 Z" fill="#cbcbcb" fill-rule="nonzero" node-id="51" stroke="none" target-height="16.5" target-width="18" target-x="561.2" target-y="643"></path><path d="M 569.10 633.20 L 552.70 633.20 C 552.30 633.20 551.90 632.90 551.90 632.40 C 551.90 632.20 552.00 632.00 552.20 631.80 L 567.10 618.30 L 553.30 618.30 C 552.90 618.30 552.50 618.00 552.50 617.50 C 552.50 617.10 552.80 616.70 553.30 616.70 L 569.10 616.70 C 569.50 616.70 569.90 617.00 569.90 617.50 C 569.90 617.70 569.80 617.90 569.60 618.10 L 554.70 631.60 L 569.10 631.60 C 569.50 631.60 569.90 631.90 569.90 632.40 C 569.90 632.80 569.50 633.20 569.10 633.20 Z" fill="#cbcbcb" fill-rule="nonzero" node-id="53" stroke="none" target-height="16.5" target-width="18" target-x="551.9" target-y="616.7"></path><path d="M 682.70 409.50 L 695.50 399.30 C 685.60 398.20 681.50 403.60 679.80 407.90 C 672.00 404.70 663.60 408.90 663.60 408.90 L 689.20 418.20 C 687.90 414.70 685.60 411.70 682.70 409.50 Z" fill="#3f3d56" fill-rule="nonzero" node-id="55" stroke="none" target-height="20" target-width="31.900024" target-x="663.6" target-y="398.2"></path><path d="M 315.70 242.50 L 328.50 232.30 C 318.60 231.20 314.50 236.60 312.80 240.90 C 305.00 237.70 296.60 241.90 296.60 241.90 L 322.20 251.20 C 320.90 247.70 318.60 244.70 315.70 242.50 Z" fill="#3f3d56" fill-rule="nonzero" node-id="57" stroke="none" target-height="20" target-width="31.899994" target-x="296.6" target-y="231.2"></path><path d="M 714.70 277.50 L 727.50 267.30 C 717.60 266.20 713.50 271.60 711.80 275.90 C 704.00 272.70 695.60 276.90 695.60 276.90 L 721.20 286.20 C 719.90 282.70 717.60 279.70 714.70 277.50 Z" fill="#3f3d56" fill-rule="nonzero" node-id="59" stroke="none" target-height="20" target-width="31.900024" target-x="695.6" target-y="266.2"></path></svg>